<?xml version="1.0" encoding="UTF-8"?>
<svg id="a" data-name="레이어 1" xmlns="http://www.w3.org/2000/svg" viewBox="0 0 65.337 20.348">
  <g>
    <path d="m34.31,10.936h-3.856v3.266h5.419v.859h-11.824v-.859h5.42v-3.266h-3.717v-5.8h8.418v.859h-7.418v4.082h7.559v.859Z" fill="#eb7866"/>
    <path d="m38.59,12.569h3.688v-1.689h-5.419v-.845h11.825v.845h-5.42v1.689h3.688v4.279h-8.361v-4.279Zm4.182-3.477c-.535,0-1.047-.047-1.535-.141s-.918-.232-1.289-.415c-.369-.183-.666-.411-.886-.683-.221-.272-.331-.586-.331-.943v-.479c0-.366.11-.685.331-.958.22-.272.517-.5.886-.683.371-.183.801-.319,1.289-.408.488-.089,1-.134,1.535-.134s1.045.047,1.533.141c.488.094.918.232,1.289.416.369.183.666.411.887.683.221.272.33.586.33.943v.479c0,.356-.109.671-.33.943-.221.272-.518.5-.887.683-.371.183-.801.321-1.289.415s-1,.141-1.533.141Zm-3.225,6.87h6.447v-2.52h-6.447v2.52Zm3.225-10.867c-.387,0-.764.033-1.135.099-.369.065-.701.16-.992.281-.291.122-.523.27-.697.443-.172.174-.26.369-.26.584v.338c0,.216.088.411.26.584.174.174.406.322.697.443.291.122.623.216.992.282.371.065.748.099,1.135.099.385,0,.762-.033,1.133-.099.369-.065.699-.16.984-.282.287-.122.52-.27.697-.443.178-.173.268-.368.268-.584v-.338c0-.216-.09-.411-.268-.584-.178-.173-.41-.321-.697-.443-.285-.122-.615-.216-.984-.281-.371-.066-.748-.099-1.133-.099Z" fill="#eb7866"/>
    <path d="m56.045,9.768h-5.743v-5.236h5.743v5.236Zm-.957-4.378h-3.829v3.52h3.829v-3.52Zm4.688,5.715v3.322h-6.785v1.647h7.123v.845h-8.094v-3.322h6.785v-1.633h-6.855v-.858h7.826Zm0-4.491h1.971v.873h-1.971v2.857h-.985v-6.334h.985v2.604Z" fill="#eb7866"/>
  </g>
  <circle cx="10.654" cy="10.174" r="7.063" fill="none" stroke="#eb7866" stroke-miterlimit="10" stroke-width=".5"/>
  <path d="m9.901,12.136v-.506c0-.183.015-.346.044-.489.03-.143.082-.284.16-.423.077-.139.181-.286.312-.44s.297-.33.495-.528.365-.365.5-.5.245-.26.33-.373c.084-.114.144-.231.181-.352.037-.121.055-.269.055-.445v-.143c0-.278-.104-.522-.312-.731-.21-.209-.541-.313-.995-.313-.359,0-.688.071-.984.214-.297.143-.563.335-.798.577l-.659-.758c.286-.308.625-.551,1.017-.731.392-.18.859-.269,1.402-.269.769,0,1.366.184,1.791.55.425.367.637.85.637,1.451v.154c0,.271-.038.509-.115.714-.077.206-.18.396-.308.571-.127.176-.274.341-.439.495-.166.154-.332.312-.5.473-.125.117-.23.225-.314.324-.085.099-.156.2-.214.303-.059.102-.101.21-.127.324-.025.114-.038.24-.038.379v.473h-1.121Zm-.055,1.022h1.252v1.264h-1.252v-1.264Z" fill="#eb7866"/>
</svg>