<svg width="94" height="34" viewBox="0 0 94 34" fill="none" xmlns="http://www.w3.org/2000/svg">
<g clip-path="url(#clip0_60_59)">
<path d="M19.7345 7.87676L19.9826 7.56416L20.7005 6.68164C22.8543 4.08219 24.6861 1.6655 25.8238 0.00146484C26.3437 0.104866 26.6156 0.131317 27.1594 0.131317C27.7533 0.131317 28.0992 0.104866 28.7694 0.00146484C28.2995 0.573777 28.1755 0.703629 27.0855 1.8723C24.512 4.67855 23.992 5.27731 22.258 7.3814L22.58 7.87436C24.8816 11.4092 26.3676 13.7225 27.0116 14.7613C28.2256 16.6586 28.3472 16.8654 28.8433 17.594C27.8034 17.4906 27.2596 17.4642 26.4916 17.4642C25.7236 17.4642 25.2537 17.4906 24.3879 17.594C22.7541 14.7878 21.5162 12.7005 19.8323 10.077L19.6105 9.68748V10.3367C19.6105 13.7153 19.5366 15.93 19.7107 17.594C18.9427 17.4906 18.5468 17.4642 17.7549 17.4642C16.963 17.4642 16.517 17.4906 15.7013 17.594C15.8754 15.2807 15.9732 11.7988 15.9732 7.64111C15.9732 4.705 15.8492 1.35289 15.7013 0.00146484C16.8151 0.104866 17.3113 0.131317 17.8789 0.131317C18.4967 0.131317 18.9188 0.104866 19.7107 0.00146484C19.5867 1.9252 19.5366 3.79604 19.4889 7.56416V8.18697L19.7369 7.87436L19.7345 7.87676Z" fill="white"/>
<path d="M35.0542 9.53692V10.3954C35.0542 12.9155 35.1806 15.2552 35.4335 17.595C34.5247 17.4916 34.0715 17.4651 33.2368 17.4651C32.4544 17.4651 32.0251 17.4916 31.2189 17.595C31.4217 15.1518 31.4956 12.4754 31.4956 7.06973C31.4956 4.39333 31.3954 1.63758 31.2189 0C32.1277 0.103401 32.6071 0.129852 33.4395 0.129852C33.8688 0.129852 34.6249 0.103401 35.5336 0.0529028C36.3923 0.0264514 37.1245 0 37.6039 0C39.2449 0 40.3802 0.286156 41.2627 0.935417C42.2979 1.68808 42.9037 2.9361 42.9037 4.36688C42.9037 5.92511 42.2478 7.22603 41.0624 8.05805C40.5066 8.42115 39.9008 8.70731 38.8919 8.96702C39.6241 10.215 40.28 11.2803 42.6771 15.0484L43.9126 17.0227L44.2918 17.595C43.0563 17.4916 42.4744 17.4651 41.7922 17.4651C41.06 17.4651 40.6068 17.4916 39.7219 17.595C39.3928 16.9457 39.2687 16.686 38.5103 15.3346C37.8281 14.0866 37.1221 12.8145 36.4161 11.5665C35.734 10.3184 35.6076 10.0852 35.2808 9.53933H35.0542V9.53692ZM35.641 8.47165C37.5896 8.47165 38.7392 7.11542 38.7392 4.7901C38.7392 2.74373 37.7542 1.56785 36.0631 1.56785C36.0631 1.56785 35.7578 1.5943 35.1472 1.61834C35.0995 2.66678 35.0757 5.0955 35.0542 8.4452C35.3357 8.47165 35.4525 8.47165 35.641 8.47165Z" fill="white"/>
<path d="M50.2594 12.7568C50.3095 14.5772 50.3358 15.5895 50.3596 15.8228C50.5862 15.8492 50.8366 15.8492 50.9106 15.8492C52.1127 15.8492 54.5169 15.6929 55.9193 15.5366C55.8192 16.0055 55.7953 16.2123 55.7953 16.5754C55.7953 16.965 55.8192 17.1982 55.9193 17.6936C54.3905 17.6167 52.1365 17.5638 51.1849 17.5638C49.7562 17.5638 47.7026 17.6167 46.3264 17.6936C46.5267 14.1323 46.603 11.9488 46.603 9.0921C46.603 5.86984 46.5029 2.28207 46.3264 0.0986328C47.8791 0.254936 49.4819 0.305434 51.4114 0.305434C52.9141 0.305434 53.8157 0.278983 56.0696 0.0986328C55.9694 0.567544 55.9456 0.851295 55.9456 1.24326C55.9456 1.65926 55.9694 1.89252 56.0696 2.33498C54.0661 2.17867 51.6619 2.02237 50.684 2.02237C50.6577 2.02237 50.5337 2.02237 50.3572 2.04882L50.3334 2.38547L50.2833 4.25631L50.2594 5.32158V6.18004L50.2332 7.27176V7.60842C52.0364 7.60842 54.016 7.53147 55.9193 7.40162C55.7953 7.84408 55.7691 8.07733 55.7691 8.46689C55.7691 8.85644 55.7953 9.08969 55.9193 9.53216C54.1901 9.42875 51.5355 9.2989 50.5337 9.2989H50.2332C50.2093 9.48166 50.2093 9.58506 50.2093 9.61151L50.2332 11.0928L50.2594 12.7568Z" fill="white"/>
<path d="M60.9997 5.22291C60.9758 6.15832 60.9758 6.78113 60.9758 7.87285C60.9758 12.0041 61.0998 15.2792 61.3503 17.5925C60.7778 17.4891 60.5036 17.4627 60.1291 17.4627C59.7546 17.4627 59.5066 17.4891 59.0582 17.5925C59.2323 14.2669 59.3062 11.0687 59.3062 6.52143C59.3062 3.76568 59.2561 2.41425 59.0582 -0.00244141C59.6568 0.100959 59.9812 0.127411 60.4535 0.127411C60.9019 0.127411 61.1022 0.100959 61.4743 -0.00244141C62.3973 1.16623 62.2161 1.56059 65.6316 5.30226C67.4014 7.226 69.6481 9.19783 72.1668 12.1604V9.09443C72.143 4.49429 72.143 4.02538 71.9665 -0.00244141C72.4888 0.100959 72.713 0.127411 73.0374 0.127411C73.3117 0.127411 73.5598 0.100959 74.1847 -0.00244141C73.8865 3.94843 73.8364 6.18237 73.8102 11.5881L73.7863 14.7069V16.4479C73.7863 16.811 73.7863 17.0972 73.8102 17.5925C73.2616 17.4891 73.0136 17.4627 72.6629 17.4627C72.3386 17.4627 72.1645 17.4891 71.7661 17.5925C68.477 13.4613 67.1294 11.9007 61.522 5.76636L60.9997 5.2205V5.22291Z" fill="white"/>
<path d="M0 30.0008C0 30.0008 9.3187 25.7734 21.4995 23.828C33.6804 21.8826 42.5984 22.2842 47.9244 22.2169C53.2504 22.1496 62.7003 23.0898 67.4944 23.5587C72.2885 24.0276 86.1317 26.4443 93.7856 30.739C93.7856 30.739 84.7341 25.4367 74.1823 23.3567C63.6304 21.2767 54.9128 20.2018 47.9244 20.1344C40.936 20.0671 27.8535 21.1035 20.1686 22.8181C8.45289 25.4343 0 30.0008 0 30.0008Z" fill="white"/>
<path d="M7.75641 28.8657H8.30022V31.0275L10.4278 28.8657H11.1099L9.36399 30.6067L11.2554 33.2206H10.6209L8.99668 30.9794L8.3026 31.6792V33.2206H7.75879V28.8657H7.75641Z" fill="white"/>
<path d="M11.4963 31.6553C11.4963 30.792 12.0449 30.0898 12.9226 30.0898C13.8003 30.0898 14.3441 30.792 14.3441 31.6553C14.3441 32.5186 13.8075 33.2207 12.9226 33.2207C12.0377 33.2207 11.4963 32.5186 11.4963 31.6553ZM13.8719 31.6553C13.8719 30.9988 13.5523 30.4746 12.925 30.4746C12.2977 30.4746 11.9709 30.9988 11.9709 31.6553C11.9709 32.3118 12.2953 32.8288 12.925 32.8288C13.5546 32.8288 13.8719 32.3118 13.8719 31.6553Z" fill="white"/>
<path d="M15.4055 30.5947H15.4174C15.6059 30.2893 15.9302 30.0344 16.3476 30.0344C16.4383 30.0344 16.486 30.0464 16.548 30.0705V30.5466H16.5289C16.4574 30.5226 16.4073 30.5154 16.3119 30.5154C15.8277 30.5154 15.4055 30.8809 15.4055 31.4724V33.2206H14.9166V30.0705H15.4055V30.5947Z" fill="white"/>
<path d="M16.7197 31.6505C16.7197 30.7367 17.3112 29.9937 18.2009 29.9937C19.1382 29.9937 19.6391 30.7247 19.6391 31.7659H17.223C17.2588 32.4055 17.6046 32.8937 18.2319 32.8937C18.6851 32.8937 18.988 32.6749 19.0953 32.2468H19.5723C19.4268 32.9225 18.9379 33.3073 18.2319 33.3073C17.2778 33.3073 16.7221 32.5642 16.7221 31.6505H16.7197ZM17.2325 31.3956H19.112C19.081 30.768 18.7614 30.3832 18.2009 30.3832C17.6404 30.3832 17.3065 30.8209 17.2349 31.3956H17.2325Z" fill="white"/>
<path d="M22.1197 32.7829H22.1125C21.9241 33.0258 21.6045 33.2831 21.0726 33.2831C20.4811 33.2831 20.016 33.0017 20.016 32.4053C20.016 31.6623 20.5956 31.5108 21.3755 31.3882C21.8168 31.3208 22.1244 31.2776 22.1244 30.9385C22.1244 30.5994 21.8716 30.383 21.4232 30.383C20.9152 30.383 20.6624 30.6018 20.6433 31.078H20.171C20.1901 30.4696 20.5884 30.0127 21.4161 30.0127C22.0815 30.0127 22.5705 30.2628 22.5705 31.0106V32.5087C22.5705 32.7636 22.6301 32.9055 22.902 32.843H22.9211V33.2013C22.8614 33.2253 22.7827 33.2494 22.6563 33.2494C22.3367 33.2494 22.1674 33.1027 22.1197 32.7805V32.7829ZM22.1316 32.0591V31.5228C21.9694 31.6262 21.6856 31.7056 21.4184 31.7537C20.9295 31.8451 20.5359 31.9292 20.5359 32.3933C20.5359 32.8141 20.8627 32.9055 21.1823 32.9055C21.8358 32.9055 22.1316 32.4246 22.1316 32.0591Z" fill="white"/>
<path d="M25.2418 28.9236H28.2923V29.4045H25.7856V30.78H28.0634V31.2441H25.7856V32.7735H28.3663V33.2784H25.2418V28.9236Z" fill="white"/>
<path d="M28.7885 31.6144C28.7885 30.6045 29.3657 30.0153 30.1122 30.0153C30.5368 30.0153 30.8635 30.2269 31.0567 30.5155H31.0686V28.9236H31.5409V33.1245H31.0686V32.7542H31.0567C30.8301 33.0476 30.5487 33.2135 30.1241 33.2135C29.3013 33.2135 28.7885 32.5907 28.7885 31.6144ZM31.0973 31.6192C31.0973 30.9147 30.7586 30.4217 30.1361 30.4217C29.566 30.4217 29.2726 30.9387 29.2726 31.6192C29.2726 32.2997 29.5636 32.8119 30.1408 32.8119C30.811 32.8119 31.0973 32.307 31.0973 31.6192Z" fill="white"/>
<path d="M34.3721 33.2086V32.7854H34.3601C34.1407 33.0835 33.8807 33.2783 33.4395 33.2783C32.8146 33.2783 32.4115 32.8984 32.4115 32.2612V30.1306H32.8885V32.2491C32.8885 32.6483 33.1413 32.8792 33.5731 32.8792C34.0572 32.8792 34.3697 32.5112 34.3697 32.0231V30.1306H34.8491V33.2086H34.3697H34.3721Z" fill="white"/>
<path d="M35.524 31.6384C35.524 30.7631 36.0798 30.0513 36.9718 30.0513C37.6778 30.0513 38.1477 30.4601 38.2502 31.1021H37.7756C37.7064 30.6933 37.4226 30.4432 36.9718 30.4432C36.335 30.4432 36.0058 30.9747 36.0058 31.6408C36.0058 32.3069 36.335 32.8311 36.9718 32.8311C37.4584 32.8311 37.747 32.5521 37.7875 32.0832H38.2502C38.1858 32.807 37.7184 33.2278 36.9718 33.2278C36.0798 33.2278 35.524 32.5161 35.524 31.6408V31.6384Z" fill="white"/>
<path d="M40.6044 32.7902H40.5973C40.4088 33.0258 40.0892 33.2759 39.5573 33.2759C38.9658 33.2759 38.5007 33.0042 38.5007 32.4247C38.5007 31.7033 39.0803 31.5566 39.8603 31.4364C40.3015 31.3714 40.6092 31.3306 40.6092 30.9987C40.6092 30.6669 40.3564 30.4601 39.908 30.4601C39.3999 30.4601 39.1471 30.6741 39.128 31.1334H38.6558C38.6748 30.5418 39.0732 30.0994 39.9008 30.0994C40.5663 30.0994 41.0552 30.3422 41.0552 31.0684V32.5233C41.0552 32.771 41.1148 32.908 41.3867 32.8479H41.4058V33.1966C41.3462 33.2206 41.2675 33.2447 41.1411 33.2447C40.8215 33.2447 40.6521 33.1028 40.6044 32.7902ZM40.6163 32.0856V31.5662C40.4542 31.6672 40.1703 31.7442 39.9032 31.7898C39.4142 31.8788 39.0207 31.9606 39.0207 32.4103C39.0207 32.819 39.3475 32.9056 39.6671 32.9056C40.3206 32.9056 40.6163 32.4391 40.6163 32.0832V32.0856Z" fill="white"/>
<path d="M41.4941 30.1306H41.9473V29.1375H42.4362V30.1306H43.0396V30.5322H42.4362V32.5785C42.4362 32.7974 42.5507 32.8719 42.751 32.8719C42.8488 32.8719 42.9562 32.8479 43.011 32.8286H43.0301V33.2542C42.9156 33.2783 42.782 33.2975 42.6366 33.2975C42.2382 33.2975 41.9473 33.134 41.9473 32.6892V30.5322H41.4941V30.1306Z" fill="white"/>
<path d="M43.6741 28.9236H44.163V29.532H43.6741V28.9236ZM43.6741 30.1307H44.163V33.2808H43.6741V30.1307Z" fill="white"/>
<path d="M44.6901 31.6359C44.6901 30.7631 45.2459 30.0513 46.1355 30.0513C47.0252 30.0513 47.5737 30.7631 47.5737 31.6359C47.5737 32.5088 47.0299 33.2206 46.1355 33.2206C45.2411 33.2206 44.6901 32.5088 44.6901 31.6359ZM47.0943 31.6359C47.0943 30.9723 46.77 30.4408 46.1355 30.4408C45.5011 30.4408 45.1695 30.9699 45.1695 31.6359C45.1695 32.302 45.4987 32.8239 46.1355 32.8239C46.7723 32.8239 47.0943 32.2996 47.0943 31.6359Z" fill="white"/>
<path d="M48.6661 30.5251H48.6781C48.9023 30.2389 49.2147 30.0562 49.6679 30.0562C50.3214 30.0562 50.7197 30.4024 50.7197 31.0276V33.1534H50.2308V31.0685C50.2308 30.6766 49.966 30.4529 49.5248 30.4529C49.0287 30.4529 48.6661 30.792 48.6661 31.2897V33.151H48.1772V30.1235H48.6661V30.5227V30.5251Z" fill="white"/>
<path d="M53.2813 28.9211H53.8251V33.276H53.2813V28.9211Z" fill="white"/>
<path d="M54.6099 31.0949C54.6099 29.8156 55.3707 28.8225 56.6587 28.8225C57.6676 28.8225 58.2782 29.4068 58.3927 30.2124H57.8608C57.7582 29.6714 57.3289 29.2986 56.6468 29.2986C55.6975 29.2986 55.1656 30.0729 55.1656 31.0949C55.1656 32.1169 55.7523 32.8792 56.6515 32.8792C57.4673 32.8792 57.8536 32.3189 57.9085 31.6793H58.4452C58.438 32.1121 58.2329 32.5978 57.9252 32.9032C57.6223 33.2014 57.181 33.3601 56.6325 33.3601C55.4065 33.3601 54.6075 32.4151 54.6075 31.0949H54.6099Z" fill="white"/>
<path d="M58.7599 28.9211H62.1802V29.4021H60.742V33.276H60.1982V29.4021H58.7599V28.9211Z" fill="white"/>
<path d="M64.2529 28.9404H64.8134L66.7382 31.9006C66.879 32.1218 67.0459 32.4488 67.0459 32.4488H67.0578V28.9428H67.5539V33.1991H67.0101L65.0734 30.2341C64.9375 30.0249 64.761 29.7051 64.761 29.7051H64.749V33.1991H64.2529V28.9428V28.9404Z" fill="white"/>
<path d="M68.3029 31.6648C68.3029 30.7654 68.8849 30.0344 69.7579 30.0344C70.6785 30.0344 71.1722 30.7534 71.1722 31.7778H68.7943C68.83 32.4078 69.1687 32.8864 69.7865 32.8864C70.2325 32.8864 70.5282 32.6699 70.6356 32.2515H71.1055C70.9623 32.9176 70.4805 33.2952 69.7865 33.2952C68.8467 33.2952 68.3005 32.5641 68.3005 31.6648H68.3029ZM68.8086 31.4123H70.657C70.6284 30.7943 70.3112 30.4168 69.7602 30.4168C69.2093 30.4168 68.8801 30.8472 68.8086 31.4123Z" fill="white"/>
<path d="M71.4799 30.1836H71.9116V29.2385H72.3767V30.1836H72.9515V30.5659H72.3767V32.5137C72.3767 32.7229 72.4864 32.7926 72.6748 32.7926C72.7678 32.7926 72.8704 32.7686 72.9229 32.7517H72.9396V33.1581C72.8298 33.1822 72.7034 33.199 72.5651 33.199C72.1859 33.199 71.9092 33.0427 71.9092 32.6195V30.5683H71.4775V30.186L71.4799 30.1836Z" fill="white"/>
<path d="M73.0994 30.186H73.6002L74.125 32.04C74.1941 32.2901 74.2872 32.6845 74.2872 32.6845H74.2991C74.2991 32.6845 74.3849 32.2901 74.4493 32.0521L74.9502 30.186H75.4392L75.9234 32.0521C75.9878 32.2949 76.0665 32.6845 76.0665 32.6845H76.0784C76.0784 32.6845 76.1714 32.2901 76.2453 32.04L76.7987 30.186H77.2829L76.3097 33.1895H75.8303L75.3342 31.3715C75.2651 31.1215 75.1911 30.7439 75.1911 30.7439H75.1792C75.1792 30.7439 75.0981 31.1215 75.0289 31.3715L74.5281 33.1895H74.0439L73.0994 30.186Z" fill="white"/>
<path d="M77.4809 31.6192C77.4809 30.7487 78.0342 30.0393 78.9191 30.0393C79.804 30.0393 80.3526 30.7487 80.3526 31.6192C80.3526 32.4897 79.8112 33.199 78.9191 33.199C78.0271 33.199 77.4809 32.4921 77.4809 31.6192ZM79.8756 31.6192C79.8756 30.9579 79.5536 30.4289 78.9191 30.4289C78.2847 30.4289 77.9579 30.9579 77.9579 31.6192C77.9579 32.2805 78.2871 32.8023 78.9191 32.8023C79.5512 32.8023 79.8756 32.2805 79.8756 31.6192Z" fill="white"/>
<path d="M81.4092 30.5659H81.4211C81.6095 30.2605 81.9339 30.0056 82.3513 30.0056C82.4419 30.0056 82.4896 30.0176 82.5517 30.0417V30.5178H82.5326C82.461 30.4938 82.4109 30.4865 82.3155 30.4865C81.8313 30.4865 81.4092 30.8521 81.4092 31.4436V33.1918H80.9202V30.0417H81.4092V30.5659Z" fill="white"/>
<path d="M83.9279 31.5134L83.47 31.9463V33.1895H82.981V28.8923H83.47V31.41L84.8414 30.0826H85.4639L84.2666 31.2008L85.607 33.1895H85.0322L83.9255 31.5134H83.9279Z" fill="white"/>
</g>
<defs>
<clipPath id="clip0_60_59">
<rect width="93.7856" height="33.36" fill="white"/>
</clipPath>
</defs>
</svg>
