<?xml version="1.0" encoding="UTF-8"?>
<svg id="a" data-name="레이어 1" xmlns="http://www.w3.org/2000/svg" viewBox="0 0 97.073 25.271">
  <rect x="1.942" y="1.186" width="22.899" height="22.899" fill="#ececec" stroke="#b3b3b3" stroke-miterlimit="10"/>
  <circle cx="13.391" cy="12.636" r="5.913" fill="#419fc9" stroke="#fff" stroke-miterlimit="10" stroke-width="2"/>
  <rect x="24.841" y="1.186" width="70.29" height="22.899" fill="#fff" stroke="#b3b3b3" stroke-miterlimit="10"/>
  <line x1="90.467" y1="4.92" x2="85.19" y2="10.197" fill="none" stroke="#b3b3b3" stroke-linecap="round" stroke-miterlimit="10"/>
  <line x1="85.19" y1="4.92" x2="90.467" y2="10.197" fill="none" stroke="#b3b3b3" stroke-linecap="round" stroke-miterlimit="10"/>
  <g>
    <path d="m38.423,13.683v-2.688h-3.141v-.302h6.614v.302h-3.133v2.688h-.341Zm.166-5.417c-.074.17-.226.321-.456.456-.229.135-.504.281-.82.44-.233.116-.455.217-.667.301-.211.085-.446.181-.705.286l-.135-.27c.127-.048.247-.094.36-.139s.227-.09.337-.135c.111-.045.223-.093.333-.144.111-.05.23-.106.357-.17.206-.101.385-.191.535-.273s.277-.17.381-.262c.103-.093.18-.198.229-.317.051-.119.076-.264.076-.433v-.856h.349v.856c0,.169.024.313.075.433.05.119.127.225.23.317.103.092.229.18.38.262.151.082.329.173.536.273.126.063.245.12.356.17.111.051.222.099.333.144s.224.09.337.135c.114.045.234.091.361.139l-.135.27c-.26-.105-.495-.201-.706-.286-.212-.084-.434-.185-.666-.301-.317-.159-.591-.306-.821-.44-.229-.135-.382-.286-.456-.456Z"/>
    <path d="m44.862,8.805c-.032.091-.1.194-.202.313-.104.119-.266.273-.488.464-.153.133-.324.275-.512.429s-.408.322-.662.508l-.206-.246c.265-.19.501-.369.71-.535.209-.167.397-.329.567-.488.158-.147.278-.271.36-.368.082-.099.141-.192.175-.282s.053-.188.056-.293c.002-.105.004-.238.004-.396v-.658h-1.722v-.31h3.728v.31h-1.665v.658c0,.158.004.289.012.393.008.103.032.198.071.285.04.087.101.176.183.266s.197.201.345.333c.164.143.344.288.54.437.195.148.396.293.603.437l-.19.237c-.17-.121-.351-.256-.543-.404-.193-.147-.364-.283-.512-.404-.201-.169-.352-.306-.452-.408-.101-.104-.164-.194-.19-.274h-.008Zm-.96,2.309h4.513v2.609h-.333v-2.292h-4.18v-.317Zm4.172-4.616h.341v4.14h-.341v-4.14Z"/>
    <path d="m51.881,11.866c-.291,0-.545-.05-.762-.15s-.397-.242-.543-.425c-.146-.182-.254-.401-.325-.658-.071-.256-.107-.537-.107-.845v-.689c0-.307.036-.588.107-.845s.18-.476.325-.658.326-.324.543-.425c.217-.1.471-.15.762-.15s.544.051.761.15c.217.101.398.242.544.425s.254.401.325.658.106.538.106.845v.689c0,.308-.035.589-.106.845-.071.257-.18.477-.325.658-.146.183-.327.324-.544.425s-.471.15-.761.15Zm0-4.528c-.238,0-.444.044-.619.131-.174.087-.318.212-.432.373-.114.161-.2.355-.258.583-.059.227-.088.483-.088.769v.5c0,.285.029.542.088.77.058.228.144.422.258.583.113.161.258.285.432.372.175.088.381.131.619.131s.443-.043.618-.131c.175-.087.318-.211.433-.372.113-.161.199-.355.258-.583.058-.228.087-.484.087-.77v-.5c0-.285-.029-.542-.087-.769-.059-.228-.145-.422-.258-.583-.114-.161-.258-.286-.433-.373s-.381-.131-.618-.131Zm3.395,6.345v-7.186h.341v7.186h-.341Z"/>
    <path d="m63.548,10.019v.302h-6.614v-.302h6.614Zm-5.592-.96v-2.213h4.561v.302h-4.228v1.61h4.259v.301h-4.592Zm2.284,4.799c-.322,0-.62-.028-.892-.084-.272-.055-.507-.136-.702-.241-.196-.106-.348-.233-.456-.381-.108-.148-.163-.317-.163-.508v-.285c0-.19.055-.359.163-.508s.26-.274.456-.381c.195-.105.43-.187.702-.242.271-.055.569-.083.892-.083s.62.028.893.083c.272.056.506.137.702.242.195.106.347.232.456.381.107.148.162.317.162.508v.285c0,.19-.055.359-.162.508-.109.147-.261.274-.456.381-.196.105-.43.187-.702.241-.272.056-.57.084-.893.084Zm0-2.411c-.265,0-.51.021-.737.063s-.426.103-.595.183c-.17.079-.303.177-.4.293-.099.116-.147.246-.147.389v.254c0,.143.049.272.147.389.098.116.23.214.4.293.169.08.367.141.595.183s.473.063.737.063c.259,0,.504-.021.733-.063.23-.042.43-.103.6-.183.169-.079.302-.177.4-.293.098-.116.146-.246.146-.389v-.254c0-.143-.049-.272-.146-.389-.099-.116-.231-.214-.4-.293-.17-.08-.369-.141-.6-.183-.229-.042-.475-.063-.733-.063Z"/>
    <path d="m67.355,12.207v-1.554h-3.204v-.302h6.614v.302h-3.077v1.554h-.333Zm-1.872,1.079h4.441v.302h-4.774v-2.047h.333v1.745Zm4.267-3.958h-4.576v-2.617h.325v.952h3.926v-.943h.325v2.608Zm-4.251-.301h3.926v-1.062h-3.926v1.062Z"/>
    <path d="m73.556,8.94c-.026.074-.097.178-.21.31-.114.133-.273.291-.479.477-.148.137-.312.282-.492.436s-.404.336-.674.548l-.215-.254c.265-.201.503-.392.714-.571.212-.18.399-.347.563-.5.153-.147.271-.273.353-.376.082-.104.141-.201.175-.294s.054-.191.06-.298c.005-.105.008-.237.008-.396v-1.182h.349v1.19c0,.153.006.282.017.388.01.106.036.205.079.298.042.093.103.186.183.277.079.093.188.202.325.329.169.153.359.313.57.48.212.166.402.311.571.432l-.198.246c-.186-.132-.369-.272-.551-.42-.183-.148-.348-.286-.496-.413-.206-.18-.358-.325-.456-.436-.098-.111-.16-.201-.187-.271h-.008Zm-.229,4.339h4.188v.317h-4.529v-2.388h.342v2.07Zm1.823-4.98h1.793v-1.801h.341v5.14h-.341v-3.021h-1.793v-.317Z"/>
  </g>
</svg>