<svg width="488" height="202" viewBox="0 0 488 202" fill="none" xmlns="http://www.w3.org/2000/svg">
<rect width="488" height="202" rx="10" fill="white" fill-opacity="0.1"/>
<path d="M27.0781 24.6875V36H25.0469V24.6875H27.0781ZM31.2537 31.0312V36H29.2537V27.5156H31.16V28.9531H31.2694C31.6522 28.0078 32.5194 27.4062 33.785 27.4062C35.5428 27.4062 36.6991 28.5625 36.6912 30.5938V36H34.7069V30.9062C34.7069 29.7656 34.0897 29.0859 33.0506 29.0938C31.9959 29.0859 31.2537 29.7969 31.2537 31.0312ZM40.7575 31.0312V36H38.7575V27.5156H40.6637V28.9531H40.7731C41.1559 28.0078 42.0231 27.4062 43.2887 27.4062C45.0466 27.4062 46.2028 28.5625 46.195 30.5938V36H44.2106V30.9062C44.2106 29.7656 43.5934 29.0859 42.5544 29.0938C41.4997 29.0859 40.7575 29.7969 40.7575 31.0312ZM51.9644 36.1719C49.4878 36.1719 47.9019 34.4141 47.9019 31.7969C47.9019 29.1562 49.4878 27.4062 51.9644 27.4062C54.4487 27.4062 56.0347 29.1562 56.0269 31.7969C56.0347 34.4141 54.4487 36.1719 51.9644 36.1719ZM49.9175 31.7812C49.9175 33.3359 50.5972 34.5781 51.98 34.5781C53.3394 34.5781 54.0191 33.3359 54.0112 31.7812C54.0191 30.2266 53.3394 28.9766 51.98 28.9844C50.5972 28.9766 49.9175 30.2266 49.9175 31.7812ZM65.015 27.5156L61.9837 36H59.7962L56.765 27.5156H58.89L60.8431 33.8281H60.9369L62.9056 27.5156H65.015ZM65.7844 33.6094C65.7844 31.7031 67.3703 31.1484 68.9406 31.0469C69.5344 31 70.7453 30.9453 71.1203 30.9297L71.1125 30.25C71.1125 29.4062 70.5734 28.9219 69.5812 28.9219C68.6906 28.9219 68.1437 29.3281 67.9875 29.9375H66.0656C66.2062 28.4922 67.5031 27.4062 69.6281 27.4062C71.2375 27.4062 73.0969 28.0703 73.0969 30.3281V36H71.1906V34.8281H71.1281C70.7531 35.5469 69.9641 36.1719 68.6281 36.1719C67.0109 36.1719 65.7844 35.2891 65.7844 33.6094ZM67.7062 33.5938C67.7062 34.3281 68.3078 34.7031 69.1437 34.7031C70.3547 34.7031 71.1281 33.9062 71.1281 32.9531L71.1203 32.2578C70.7609 32.2734 69.6516 32.3438 69.2531 32.375C68.3078 32.4531 67.7062 32.8516 67.7062 33.5938ZM79.3662 27.5156V29.0469H77.6944V33.4531C77.6944 34.2656 78.1006 34.4297 78.6006 34.4375C78.835 34.4453 79.2256 34.4219 79.4756 34.4062V36.0312C79.2412 36.0703 78.8584 36.1172 78.3506 36.1094C76.8506 36.1172 75.6944 35.375 75.71 33.7812V29.0469H74.4912V27.5156H75.71V25.4844H77.6944V27.5156H79.3662ZM81.0575 36V27.5156H83.0575V36H81.0575ZM80.9169 25.2188C80.9169 24.625 81.4403 24.1406 82.0731 24.1406C82.7059 24.1406 83.2294 24.625 83.2294 25.2188C83.2294 25.8203 82.7059 26.3047 82.0731 26.3125C81.4403 26.3047 80.9169 25.8203 80.9169 25.2188ZM88.8269 36.1719C86.3503 36.1719 84.7644 34.4141 84.7644 31.7969C84.7644 29.1562 86.3503 27.4062 88.8269 27.4062C91.3112 27.4062 92.8972 29.1562 92.8894 31.7969C92.8972 34.4141 91.3112 36.1719 88.8269 36.1719ZM86.78 31.7812C86.78 33.3359 87.4597 34.5781 88.8425 34.5781C90.2019 34.5781 90.8816 33.3359 90.8737 31.7812C90.8816 30.2266 90.2019 28.9766 88.8425 28.9844C87.4597 28.9766 86.78 30.2266 86.78 31.7812ZM96.5963 31.0312V36H94.5963V27.5156H96.5025V28.9531H96.6119C96.9947 28.0078 97.8619 27.4062 99.1275 27.4062C100.885 27.4062 102.042 28.5625 102.034 30.5938V36H100.049V30.9062C100.049 29.7656 99.4322 29.0859 98.3931 29.0938C97.3384 29.0859 96.5963 29.7969 96.5963 31.0312Z" fill="white"/>
<path d="M115.363 25.1043V26.1485H108.469V25.1043H111.331V23.8039H112.622V25.1043H115.363ZM109.155 29.0587C109.146 27.6858 110.325 26.7576 111.964 26.7479C113.603 26.7576 114.787 27.6858 114.797 29.0587C114.787 30.4123 113.603 31.3598 111.964 31.3646C110.325 31.3598 109.146 30.4123 109.155 29.0587ZM110.359 33.395V32.3557H118.664V36.1602H117.369V33.395H110.359ZM110.369 29.0587C110.359 29.837 111.012 30.3543 111.964 30.3446C112.902 30.3543 113.579 29.837 113.588 29.0587C113.579 28.2659 112.902 27.7486 111.964 27.739C111.012 27.7486 110.359 28.2659 110.369 29.0587ZM115.387 30.2189V29.1554H117.369V27.8791H115.401V26.8398H117.369V23.9102H118.664V31.6837H117.369V30.2189H115.387ZM130.856 23.9199V32.8923H129.555V23.9199H130.856ZM120.762 30.1319C122.681 29.4213 123.817 27.6616 123.817 25.8101V24.6015H125.146V25.8101C125.137 27.5988 126.278 29.2472 128.163 29.8999L127.496 30.9344C126.084 30.4171 125.04 29.3778 124.494 28.0483C123.952 29.4696 122.894 30.6057 121.458 31.1519L120.762 30.1319ZM122.84 35.9088V32.0511H124.146V34.8453H131.213V35.9088H122.84Z" fill="#AEAEAE"/>
<path d="M30.3315 73.6133V74.3674H24.4309V73.6133H26.9669V72.4448H27.8785V73.6133H30.3315ZM25.0525 76.895C25.0442 75.7265 26.0221 74.9558 27.4144 74.9475C28.7983 74.9558 29.7845 75.7265 29.7928 76.895C29.7845 78.047 28.7983 78.8343 27.4144 78.8425C26.0221 78.8343 25.0442 78.047 25.0525 76.895ZM25.9144 76.895C25.9061 77.616 26.5193 78.1133 27.4144 78.105C28.3011 78.1133 28.9227 77.616 28.9309 76.895C28.9227 76.1657 28.3011 75.6685 27.4144 75.6602C26.5193 75.6685 25.9061 76.1657 25.9144 76.895ZM26.047 80.5V79.7541H33.058V82.953H32.1381V80.5H26.047ZM30.3149 77.8232V77.0525H32.1381V75.8508H30.3232V75.105H32.1381V72.5359H33.058V79.1409H32.1381V77.8232H30.3149ZM43.516 72.5442V80.1851H42.5961V72.5442H43.516ZM35.0215 77.9558C36.5961 77.3425 37.6651 75.8177 37.6651 74.1685V73.1243H38.6016V74.1685C38.5933 75.7597 39.6789 77.1851 41.2287 77.7486L40.748 78.4862C39.5422 78.018 38.6016 77.0815 38.1416 75.8798C37.69 77.1602 36.7452 78.1837 35.527 78.6768L35.0215 77.9558ZM36.7867 82.721V79.4807H37.7066V81.9586H43.8392V82.721H36.7867ZM54.9021 78.0304V78.7762H45.4048V78.0304H54.9021ZM46.4573 74.9641C46.4573 73.663 47.891 72.8923 50.1452 72.9006C52.391 72.8923 53.8247 73.663 53.8247 74.9641C53.8247 76.2652 52.391 77.0442 50.1452 77.0442C47.891 77.0442 46.4573 76.2652 46.4573 74.9641ZM46.6314 82.721V79.6961H47.5595V81.9586H53.8413V82.721H46.6314ZM47.4104 74.9641C47.4021 75.7928 48.4711 76.2901 50.1452 76.2901C51.8192 76.2901 52.8883 75.7928 52.8883 74.9641C52.8883 74.1519 51.8192 73.6464 50.1452 73.6464C48.4711 73.6464 47.4021 74.1519 47.4104 74.9641ZM67.9779 72.5359V82.953H67.0912V77.5331H65.6658V82.4227H64.7956V72.7597H65.6658V76.7459H67.0912V72.5359H67.9779ZM58.9199 80.0939C60.4199 79.2652 61.2238 77.4917 61.2238 75.3785V74.5414H59.1685V73.779H64.0415V74.5414H62.1105V75.3785C62.1105 77.2845 62.8978 78.9669 64.3812 79.7293L63.8343 80.442C62.7818 79.866 62.0567 78.8425 61.6879 77.5663C61.3315 79.0166 60.5939 80.1519 59.5 80.7983L58.9199 80.0939ZM77.6652 72.5276V75.6354H79.2397V76.4061H77.6652V80.0773H76.7453V72.5276H77.6652ZM70.016 78.221V73.4392H74.6486V74.2017H70.9276V77.4503C73.016 77.4586 74.2094 77.3964 75.6016 77.1105L75.7176 77.8729C74.2508 78.1547 73.0077 78.2293 70.8198 78.221H70.016ZM71.1431 82.721V79.3149H72.0547V81.9586H78.1458V82.721H71.1431ZM92.6637 77.8646V78.6271H88.4206V80.7569H87.509V78.6271H83.125V77.8646H92.6637ZM84.3515 82.721V79.7293H85.2714V81.9586H91.6029V82.721H84.3515ZM84.3681 76.6713V73.0414H91.4206V76.6713H84.3681ZM85.2714 75.9337H90.509V73.779H85.2714V75.9337ZM101.713 72.5359V76.9696H103.379V77.7486H101.713V82.953H100.793V72.5359H101.713ZM93.5001 80.1768C94.3495 80.1727 95.344 80.1685 96.3757 80.1395V78.9917C95.1617 78.8467 94.3702 78.1381 94.3785 77.1022C94.3702 75.9254 95.3647 75.163 96.8398 75.163C98.2984 75.163 99.3094 75.9254 99.3177 77.1022C99.3094 78.1381 98.5056 78.8508 97.2956 78.9917V80.1022C98.2652 80.0566 99.2473 79.9779 100.155 79.8453L100.221 80.5414C97.942 80.9309 95.4807 80.9558 93.6575 80.9558L93.5001 80.1768ZM93.6907 74.558V73.8122H96.3757V72.5525H97.2956V73.8122H99.9724V74.558H93.6907ZM95.2404 77.1022C95.2404 77.8232 95.8785 78.2956 96.8398 78.2873C97.7929 78.2956 98.431 77.8232 98.431 77.1022C98.431 76.3729 97.7929 75.884 96.8398 75.884C95.8785 75.884 95.2404 76.3729 95.2404 77.1022ZM107.53 73.2983C109.171 73.2983 110.331 74.2928 110.339 75.7431C110.331 77.1934 109.171 78.1878 107.53 78.1878C105.889 78.1878 104.712 77.1934 104.72 75.7431C104.712 74.2928 105.889 73.2983 107.53 73.2983ZM104.182 79.8867C106.104 79.895 108.756 79.8785 111.06 79.5387L111.135 80.2182C108.748 80.6657 106.187 80.674 104.306 80.674L104.182 79.8867ZM105.624 75.7431C105.615 76.7127 106.419 77.384 107.53 77.384C108.632 77.384 109.436 76.7127 109.436 75.7431C109.436 74.7735 108.632 74.1022 107.53 74.1022C106.419 74.1022 105.615 74.7735 105.624 75.7431ZM111.748 82.9696V72.5359H112.668V82.9696H111.748ZM123.034 73.7624V74.5083H117.689V73.7624H119.918V72.5856H120.829V73.7624H123.034ZM118.144 76.8867C118.136 75.7762 119.056 75.0387 120.365 75.0387C121.691 75.0387 122.603 75.7762 122.611 76.8867C122.603 77.9807 121.691 78.7182 120.365 78.7182C119.056 78.7182 118.136 77.9807 118.144 76.8867ZM118.965 76.8867C118.965 77.558 119.537 78.0138 120.365 78.0138C121.202 78.0138 121.774 77.558 121.774 76.8867C121.774 76.1989 121.202 75.7431 120.365 75.7348C119.537 75.7431 118.965 76.1989 118.965 76.8867ZM119.57 80.384V79.6381H126.589V82.953H125.686V80.384H119.57ZM123.481 78.942V72.7182H124.36V75.4696H125.719V72.5442H126.589V79.0166H125.719V76.232H124.36V78.942H123.481ZM136.84 72.5442V78.4613H135.92V72.5442H136.84ZM128.321 77.4669C129.895 76.9116 130.989 75.5028 130.989 73.9696V72.9503H131.925V73.9696C131.917 75.4448 133.044 76.7459 134.577 77.2845L134.113 77.989C132.899 77.5704 131.934 76.6961 131.466 75.5566C131.006 76.7666 130.036 77.732 128.793 78.1961L128.321 77.4669ZM130.061 82.8122V79.058H136.84V82.8122H130.061ZM130.972 82.058H135.937V79.8039H130.972V82.058ZM147.331 72.5359V78.1215H146.411V72.5359H147.331ZM138.969 75.4365C138.969 74.011 140.121 73.0331 141.704 73.0414C143.287 73.0331 144.43 74.011 144.43 75.4365C144.43 76.8536 143.287 77.8315 141.704 77.8232C140.121 77.8315 138.969 76.8536 138.969 75.4365ZM139.872 75.4365C139.864 76.3895 140.635 77.0608 141.704 77.0608C142.765 77.0608 143.535 76.3895 143.535 75.4365C143.535 74.4834 142.765 73.8122 141.704 73.8204C140.635 73.8122 139.864 74.4834 139.872 75.4365ZM140.585 82.8122V78.6519H141.488V79.9199H146.419V78.6519H147.331V82.8122H140.585ZM141.488 82.058H146.419V80.6575H141.488V82.058ZM157.805 72.5359V82.953H156.894V72.5359H157.805ZM149.899 80.268V73.5635H150.803V79.4641C152.394 79.4599 154.031 79.3356 155.783 78.9669L155.908 79.7541C154.06 80.1354 152.41 80.268 150.745 80.268H149.899ZM167.774 72.5359V76.6547H169.515V77.4254H167.774V82.9696H166.855V72.5359H167.774ZM160.167 80.3591V73.5552H165.031V74.3094H161.087V79.5801C162.972 79.576 164.306 79.5014 165.852 79.2155L165.968 80.011C164.335 80.3011 162.968 80.3591 160.987 80.3591H160.167ZM171.304 82.0663C170.89 82.0663 170.542 81.7265 170.55 81.3122C170.542 80.8978 170.89 80.558 171.304 80.558C171.719 80.558 172.058 80.8978 172.058 81.3122C172.058 81.7265 171.719 82.0663 171.304 82.0663ZM33.3729 91.5359V101.953H32.4862V96.5331H31.0608V101.423H30.1906V91.7597H31.0608V95.7459H32.4862V91.5359H33.3729ZM24.3149 99.0939C25.8149 98.2652 26.6188 96.4917 26.6188 94.3785V93.5414H24.5635V92.779H29.4365V93.5414H27.5055V94.3785C27.5055 96.2845 28.2928 97.9669 29.7762 98.7293L29.2293 99.442C28.1768 98.866 27.4517 97.8425 27.0829 96.5663C26.7265 98.0166 25.989 99.1519 24.895 99.7983L24.3149 99.0939ZM43.0602 91.5276V94.6354H44.6347V95.4061H43.0602V99.0773H42.1403V91.5276H43.0602ZM35.411 97.221V92.4392H40.0436V93.2017H36.3226V96.4503C38.411 96.4586 39.6044 96.3964 40.9966 96.1105L41.1126 96.8729C39.6458 97.1547 38.4027 97.2293 36.2149 97.221H35.411ZM36.5381 101.721V98.3149H37.4497V100.959H43.5408V101.721H36.5381ZM54.9021 97.0304V97.7762H45.4048V97.0304H54.9021ZM46.4573 93.9641C46.4573 92.663 47.891 91.8923 50.1452 91.9006C52.391 91.8923 53.8247 92.663 53.8247 93.9641C53.8247 95.2652 52.391 96.0442 50.1452 96.0442C47.891 96.0442 46.4573 95.2652 46.4573 93.9641ZM46.6314 101.721V98.6961H47.5595V100.959H53.8413V101.721H46.6314ZM47.4104 93.9641C47.4021 94.7928 48.4711 95.2901 50.1452 95.2901C51.8192 95.2901 52.8883 94.7928 52.8883 93.9641C52.8883 93.1519 51.8192 92.6464 50.1452 92.6464C48.4711 92.6464 47.4021 93.1519 47.4104 93.9641ZM62.7818 93.7652C62.7818 95.174 63.8923 96.442 65.4503 96.9392L64.9779 97.6685C63.768 97.2583 62.8025 96.4006 62.3343 95.3025C61.8743 96.4917 60.9006 97.4282 59.6575 97.884L59.1768 97.1464C60.7431 96.5994 61.8453 95.2486 61.8536 93.7652V93.1602H59.4172V92.4061H65.1768V93.1602H62.7818V93.7652ZM60.9006 101.721V98.4558H61.8205V100.959H67.9531V101.721H60.9006ZM66.71 99.1851V91.5442H67.6299V99.1851H66.71ZM79.0574 99.8481V100.619H69.5187V99.8481H73.8033V97.6022H70.6458V92.2735H71.5657V94.1547H76.9773V92.2735H77.8889V97.6022H74.7149V99.8481H79.0574ZM71.5657 96.8481H76.9773V94.9088H71.5657V96.8481ZM83.1507 92.2155C84.7502 92.2238 85.9187 93.2099 85.927 94.6602C85.9187 95.9655 84.9698 96.8978 83.6148 97.0677V98.8412C84.5886 98.7956 85.5665 98.7251 86.4739 98.605L86.5402 99.3011C84.3275 99.674 81.8662 99.6989 80.0347 99.6823L79.8772 98.9116C80.7184 98.9075 81.688 98.9033 82.6949 98.8743V97.0718C81.3068 96.9019 80.3662 95.9696 80.3745 94.6602C80.3662 93.2099 81.5181 92.2238 83.1507 92.2155ZM81.2695 94.6602C81.2612 95.6381 82.0568 96.3177 83.1507 96.3094C84.2281 96.3177 85.0154 95.6381 85.0237 94.6602C85.0154 93.6823 84.2281 93.011 83.1507 93.0028C82.0568 93.011 81.2612 93.6823 81.2695 94.6602ZM87.1452 101.953V91.5359H88.0568V95.837H89.7557V96.6243H88.0568V101.953H87.1452ZM102.268 91.5442V99.2514H101.348V96.4586H98.8868V97.4696H94.1548V92.232H95.0746V94.0884H97.9752V92.232H98.8868V93.4586H101.348V91.5442H102.268ZM95.0746 96.7155H97.9752V94.8094H95.0746V96.7155ZM95.5304 101.721V98.4972H96.4586V100.959H102.508V101.721H95.5304ZM98.8868 95.6961H101.348V94.221H98.8868V95.6961ZM112.204 91.5359V95.9696H113.87V96.7486H112.204V101.953H111.284V91.5359H112.204ZM103.991 99.1768C104.841 99.1727 105.835 99.1685 106.867 99.1395V97.9917C105.653 97.8467 104.861 97.1381 104.87 96.1022C104.861 94.9254 105.856 94.163 107.331 94.163C108.789 94.163 109.801 94.9254 109.809 96.1022C109.801 97.1381 108.997 97.8508 107.787 97.9917V99.1022C108.756 99.0566 109.738 98.9779 110.646 98.8453L110.712 99.5414C108.433 99.9309 105.972 99.9558 104.149 99.9558L103.991 99.1768ZM104.182 93.558V92.8122H106.867V91.5525H107.787V92.8122H110.464V93.558H104.182ZM105.731 96.1022C105.731 96.8232 106.37 97.2956 107.331 97.2873C108.284 97.2956 108.922 96.8232 108.922 96.1022C108.922 95.3729 108.284 94.884 107.331 94.884C106.37 94.884 105.731 95.3729 105.731 96.1022ZM124.137 96.3757V97.0967H114.598V96.3757H124.137ZM115.75 98.6215V97.9337H122.944V100.146H116.687V101.141H123.283V101.812H115.767V99.5083H122.032V98.6215H115.75ZM115.808 92.5138V91.8508H122.91V94.0055H116.753V94.9171H123.093V95.5884H115.841V93.3757H121.991V92.5138H115.808ZM131.669 92.0414C133.227 92.0331 134.345 92.895 134.345 94.1713C134.345 95.4392 133.227 96.3094 131.669 96.3011C130.111 96.3094 129 95.4392 129 94.1713C129 92.895 130.111 92.0331 131.669 92.0414ZM128.213 97.1961C130.169 97.1961 132.845 97.1547 135.158 96.8149L135.224 97.511C134.229 97.6934 133.193 97.8011 132.191 97.8674V101.63H131.271V97.9171C130.21 97.9627 129.207 97.971 128.337 97.9751L128.213 97.1961ZM129.895 94.1713C129.887 94.9834 130.633 95.547 131.669 95.5387C132.721 95.547 133.467 94.9834 133.467 94.1713C133.467 93.3591 132.721 92.7873 131.669 92.7956C130.633 92.7873 129.887 93.3591 129.895 94.1713ZM135.928 101.961V91.5442H136.832V101.961H135.928ZM146.875 91.5442V94.9751H148.441V95.7541H146.875V99.3508H145.955V91.5442H146.875ZM138.754 93.5746V92.8204H141.406V91.5442H142.317V92.8204H144.961V93.5746H138.754ZM139.35 96.0939C139.342 94.9088 140.353 94.1464 141.861 94.1464C143.345 94.1464 144.356 94.9088 144.364 96.0939C144.356 97.2624 143.345 98.0166 141.861 98.0166C140.353 98.0166 139.342 97.2624 139.35 96.0939ZM140.229 96.0939C140.22 96.8232 140.875 97.2956 141.861 97.2873C142.831 97.2956 143.486 96.8232 143.494 96.0939C143.486 95.3481 142.831 94.8674 141.861 94.8674C140.875 94.8674 140.22 95.3481 140.229 96.0939ZM140.353 101.721V98.721H141.265V100.959H147.356V101.721H140.353ZM161.849 97.0635V97.8094H152.352V97.0635H156.644V95.7459H157.548V97.0635H161.849ZM152.915 95.5138C154.875 95.3273 156.533 94.5152 156.595 93.3177H153.329V92.5635H156.644V91.4862H157.548V92.5635H160.879V93.3177H157.597C157.651 94.5152 159.3 95.3273 161.277 95.5138L160.979 96.2348C159.255 96.0442 157.722 95.4102 157.096 94.3536C156.462 95.4102 154.925 96.0442 153.213 96.2348L152.915 95.5138ZM153.404 99.5497V98.8039H160.672V101.953H159.744V99.5497H153.404ZM171.768 91.5359V101.953H170.881V96.4337H169.423V101.423H168.544V91.7597H169.423V95.663H170.881V91.5359H171.768ZM163.224 99.1436V92.7541H167.218V99.1436H163.224ZM164.094 98.4061H166.348V93.4917H164.094V98.4061ZM182.234 91.5359V101.953H181.356V91.5359H182.234ZM173.209 99.1768C174.66 98.3066 175.505 96.4006 175.505 94.5028V93.5249H173.491V92.7624H178.298V93.5249H176.392V94.5028C176.392 96.3094 177.204 98.1077 178.638 98.9365L178.082 99.616C177.059 99.0028 176.33 97.8798 175.961 96.5539C175.588 97.9876 174.834 99.2099 173.79 99.8646L173.209 99.1768ZM177.502 96.0442V95.2901H179.259V91.7845H180.129V101.406H179.259V96.0442H177.502ZM193.364 99.8812V100.66H183.825V99.8812H188.109V97.9171H185.018V94.7017H191.25V93.0691H184.993V92.3066H192.162V95.4558H185.93V97.1547H192.402V97.9171H189.021V99.8812H193.364ZM197.979 94.337C197.979 96.2182 199.189 98.116 200.705 98.8122L200.15 99.558C198.965 98.9489 197.987 97.7017 197.523 96.2224C197.063 97.7804 196.085 99.1146 194.896 99.7486L194.308 99.011C195.833 98.2569 197.042 96.2514 197.051 94.337V92.4392H197.979V94.337ZM199.57 95.8453V95.0912H202.04V91.5359H202.951V101.97H202.04V95.8453H199.57ZM211.494 93.7818C211.494 95.058 212.538 96.2017 214.08 96.6575L213.64 97.3867C212.443 97.0221 211.515 96.239 211.059 95.2403C210.607 96.3674 209.646 97.2376 208.419 97.6602L207.955 96.9309C209.505 96.4503 210.582 95.2072 210.582 93.7818V93.5663H208.229V92.8122H210.582V91.4862H211.511V92.8122H213.839V93.5663H211.494V93.7818ZM209.29 100.055C209.29 98.8619 210.591 98.1823 212.745 98.1823C214.892 98.1823 216.176 98.8619 216.176 100.055C216.176 101.24 214.892 101.92 212.745 101.92C210.591 101.92 209.29 101.24 209.29 100.055ZM210.209 100.055C210.201 100.776 211.163 101.199 212.745 101.199C214.32 101.199 215.281 100.776 215.281 100.055C215.281 99.326 214.32 98.9116 212.745 98.9116C211.163 98.9116 210.201 99.326 210.209 100.055ZM215.165 97.9254V91.5359H216.085V94.2459H217.651V95.0083H216.085V97.9254H215.165ZM221.836 92.2983C223.477 92.2983 224.637 93.2928 224.645 94.7431C224.637 96.1934 223.477 97.1878 221.836 97.1878C220.195 97.1878 219.018 96.1934 219.027 94.7431C219.018 93.2928 220.195 92.2983 221.836 92.2983ZM218.488 98.8867C220.411 98.895 223.062 98.8785 225.366 98.5387L225.441 99.2182C223.054 99.6657 220.493 99.674 218.612 99.674L218.488 98.8867ZM219.93 94.7431C219.922 95.7127 220.725 96.384 221.836 96.384C222.938 96.384 223.742 95.7127 223.742 94.7431C223.742 93.7735 222.938 93.1022 221.836 93.1022C220.725 93.1022 219.922 93.7735 219.93 94.7431ZM226.054 101.97V91.5359H226.974V101.97H226.054ZM232.501 93.1768C232.493 94.6602 233.554 95.9696 235.087 96.4834L234.573 97.2044C233.421 96.7735 232.518 95.9282 232.066 94.8301C231.623 96.0773 230.67 97.047 229.41 97.5193L228.913 96.7735C230.512 96.2099 231.581 94.826 231.589 93.2099V92.1326H232.501V93.1768ZM230.612 99.9807C230.603 98.7293 231.929 98.0083 234.1 98.0083C236.263 98.0083 237.589 98.7293 237.589 99.9807C237.589 101.224 236.263 101.928 234.1 101.928C231.929 101.928 230.603 101.224 230.612 99.9807ZM231.523 99.9807C231.515 100.735 232.501 101.191 234.1 101.191C235.692 101.191 236.678 100.735 236.678 99.9807C236.678 99.2017 235.692 98.7376 234.1 98.7376C232.501 98.7376 231.515 99.2017 231.523 99.9807ZM234.316 94.5276V93.7652H236.636V91.5359H237.556V97.7099H236.636V94.5276H234.316ZM241.119 100.204L240.216 103.395H239.346L239.992 100.204H241.119ZM254.746 93.0773V93.8398H246.218V93.0773H250.039V91.7099H250.942V93.0773H254.746ZM245.746 100.727V99.9641H250.039V98.5014C248.182 98.4061 247.055 97.6851 247.063 96.5166C247.055 95.2735 248.365 94.5442 250.486 94.5525C252.591 94.5442 253.917 95.2735 253.917 96.5166C253.917 97.6809 252.782 98.4019 250.942 98.5014V99.9641H255.284V100.727H245.746ZM247.992 96.5166C247.983 97.3039 248.936 97.7597 250.486 97.768C252.028 97.7597 252.981 97.3039 252.981 96.5166C252.981 95.7376 252.028 95.2818 250.486 95.2818C248.936 95.2818 247.983 95.7376 247.992 96.5166ZM264.847 91.5359V101.953H263.927V91.5359H264.847ZM256.369 99.2431C259.187 97.9088 260.625 95.9033 260.828 93.4171H256.85V92.6713H261.765C261.756 95.663 260.364 98.3149 256.867 99.9972L256.369 99.2431ZM275.33 91.5442V97.4613H274.41V91.5442H275.33ZM266.811 96.4669C268.385 95.9116 269.479 94.5028 269.479 92.9696V91.9503H270.416V92.9696C270.408 94.4448 271.535 95.7459 273.068 96.2845L272.604 96.989C271.39 96.5704 270.424 95.6961 269.956 94.5566C269.496 95.7666 268.526 96.732 267.283 97.1961L266.811 96.4669ZM268.551 101.812V98.058H275.33V101.812H268.551ZM269.463 101.058H274.427V98.8039H269.463V101.058ZM278.926 100.204L278.023 103.395H277.153L277.799 100.204H278.926ZM291.766 92.6464V93.6906C291.766 95 291.766 96.4834 291.376 98.7459L290.44 98.6547C290.862 96.5249 290.862 94.9669 290.862 93.6906V93.4088H284.589V92.6464H291.766ZM283.553 100.42V99.6492H293.05V100.42H283.553ZM302.646 91.5359V101.97H301.735V91.5359H302.646ZM294.632 93.268V92.5055H299.48V96.2099H295.594V98.6713C297.322 98.6671 298.859 98.5925 300.723 98.2901L300.815 99.0608C298.9 99.3674 297.317 99.442 295.519 99.442H294.649V95.4558H298.552V93.268H294.632ZM312.889 92.5884V93.6243C312.88 94.9088 312.88 96.3343 312.499 98.4309L311.571 98.3232C311.96 96.3343 311.96 94.8757 311.969 93.6243V93.3508H305.546V92.5884H312.889ZM304.535 100.478V99.7072H308.256V95.9862H309.168V99.7072H314.032V100.478H304.535ZM326.793 91.5442V99.1851H325.873V95.1823H323.727V94.4282H325.873V91.5442H326.793ZM318.199 97.0967C319.741 96.558 320.851 95.1823 320.851 93.6906V93.1519H318.498V92.3895H324.108V93.1519H321.779V93.6906C321.779 95.0331 322.824 96.3425 324.348 96.8646L323.868 97.6022C322.691 97.1796 321.784 96.3052 321.332 95.2279C320.88 96.4296 319.919 97.3867 318.68 97.8508L318.199 97.0967ZM320.105 101.721V98.4972H321.025V100.959H327.083V101.721H320.105ZM338.337 93.3591V94.1215H336.795V95.5635H338.337V96.3343H336.795V98.2569H335.875V91.5359H336.795V93.3591H338.337ZM328.674 93.4586V92.721H331.326V91.453H332.237V92.721H334.881V93.4586H328.674ZM329.27 95.837C329.262 94.7182 330.265 93.9972 331.782 93.9972C333.273 93.9972 334.276 94.7182 334.284 95.837C334.276 96.9558 333.273 97.6768 331.782 97.6685C330.265 97.6768 329.262 96.9558 329.27 95.837ZM330.091 100.138C330.083 98.9945 331.375 98.3315 333.505 98.3315C335.619 98.3315 336.911 98.9945 336.911 100.138C336.911 101.265 335.619 101.928 333.505 101.928C331.375 101.928 330.083 101.265 330.091 100.138ZM330.149 95.837C330.141 96.5166 330.795 96.9558 331.782 96.9558C332.751 96.9558 333.406 96.5166 333.414 95.837C333.406 95.1492 332.751 94.6934 331.782 94.6851C330.795 94.6934 330.141 95.1492 330.149 95.837ZM331.003 100.138C330.994 100.809 331.939 101.215 333.505 101.207C335.055 101.215 336 100.809 336 100.138C336 99.442 335.055 99.0525 333.505 99.0525C331.939 99.0525 330.994 99.442 331.003 100.138ZM342.762 93.4586C342.762 94.8094 343.806 96.1022 345.331 96.6326L344.85 97.3536C343.673 96.9351 342.766 96.0649 342.314 94.9917C341.867 96.1892 340.901 97.1464 339.662 97.6022L339.181 96.8729C340.723 96.326 341.833 94.9337 341.833 93.4669V93.011H339.48V92.2569H345.09V93.011H342.762V93.4586ZM340.764 99.0856V98.3315H347.775V101.953H346.855V99.0856H340.764ZM344.759 95.0331V94.2624H346.855V91.5359H347.775V97.7762H346.855V95.0331H344.759ZM358.233 91.5442V99.1602H357.313V91.5442H358.233ZM349.871 94.826C349.871 93.326 351.048 92.2735 352.606 92.2735C354.164 92.2735 355.333 93.326 355.333 94.826C355.333 96.3425 354.164 97.395 352.606 97.3867C351.048 97.395 349.871 96.3425 349.871 94.826ZM350.775 94.826C350.766 95.8619 351.554 96.5829 352.606 96.5829C353.642 96.5829 354.438 95.8619 354.438 94.826C354.438 93.8066 353.642 93.0773 352.606 93.0773C351.554 93.0773 350.766 93.8066 350.775 94.826ZM351.504 101.721V98.3812H352.424V100.959H358.557V101.721H351.504ZM366.751 94.337C366.743 96.1685 367.961 98.058 369.444 98.7873L368.873 99.5249C367.729 98.924 366.772 97.6892 366.308 96.2431C365.844 97.7804 364.857 99.0939 363.685 99.7238L363.105 98.9862C364.621 98.232 365.831 96.2348 365.84 94.337V92.4392H366.751V94.337ZM370.398 101.953V91.5359H371.317V95.7624H373.058V96.558H371.317V101.953H370.398ZM382.099 92.5884V93.6243C382.09 94.9088 382.09 96.3343 381.709 98.4309L380.781 98.3232C381.17 96.3343 381.17 94.8757 381.179 93.6243V93.3508H374.756V92.5884H382.099ZM373.745 100.478V99.7072H377.466V95.9862H378.378V99.7072H383.242V100.478H373.745ZM389.043 98.0829C391.181 98.0829 392.474 98.7873 392.474 100.006C392.474 101.232 391.181 101.936 389.043 101.945C386.896 101.936 385.587 101.232 385.587 100.006C385.587 98.7873 386.896 98.0829 389.043 98.0829ZM384.684 96.989V92.1823H385.587V93.7818H388.62V92.1823H389.532V96.989H384.684ZM385.587 96.2431H388.62V94.511H385.587V96.2431ZM386.507 100.006C386.499 100.751 387.468 101.199 389.043 101.199C390.617 101.199 391.579 100.751 391.579 100.006C391.579 99.2597 390.617 98.8204 389.043 98.8122C387.468 98.8204 386.499 99.2597 386.507 100.006ZM391.463 97.8011V91.5359H392.383V94.1547H393.949V94.942H392.383V97.8011H391.463ZM398.415 93.0442C398.407 94.5608 399.509 95.9116 401.059 96.4503L400.586 97.1796C399.376 96.7362 398.423 95.837 397.955 94.6768C397.499 95.9157 396.538 96.8895 395.307 97.3619L394.827 96.6409C396.393 96.0608 397.479 94.6188 397.479 93.0442V92.0414H398.415V93.0442ZM396.318 99.0856V98.3315H403.329V101.953H402.41V99.0856H396.318ZM402.41 97.8094V91.5359H403.329V97.8094H402.41ZM409.959 91.7182C412.279 91.7182 413.638 92.3564 413.638 93.5166C413.638 94.6934 412.279 95.3315 409.959 95.3398C407.638 95.3315 406.271 94.6934 406.271 93.5166C406.271 92.3564 407.638 91.7182 409.959 91.7182ZM405.218 96.7901V96.0442H414.716V96.7901H405.218ZM406.37 98.3978V97.6934H413.489V100.022H407.298V101.108H413.804V101.837H406.395V99.3425H412.586V98.3978H406.37ZM407.232 93.5166C407.224 94.2376 408.235 94.6354 409.959 94.6354C411.691 94.6354 412.702 94.2376 412.702 93.5166C412.702 92.8287 411.691 92.4144 409.959 92.4144C408.235 92.4144 407.224 92.8287 407.232 93.5166ZM426.987 91.5359V94.047H428.554V94.826H426.987V97.6271H426.068V91.5359H426.987ZM419.289 96.9724V92.1243H420.192V93.7238H423.225V92.1243H424.137V96.9724H419.289ZM420.192 96.2265H423.225V94.4613H420.192V96.2265ZM420.441 101.804V98.2072H427.07V98.9448H421.36V101.058H427.269V101.804H420.441ZM432.117 92.3398C433.658 92.3481 434.744 93.7569 434.752 95.9696C434.744 98.1906 433.658 99.5994 432.117 99.5994C430.575 99.5994 429.49 98.1906 429.498 95.9696C429.49 93.7569 430.575 92.3481 432.117 92.3398ZM430.368 95.9696C430.368 97.6685 431.089 98.779 432.117 98.779C433.161 98.779 433.865 97.6685 433.865 95.9696C433.865 94.279 433.161 93.1685 432.117 93.1602C431.089 93.1685 430.368 94.279 430.368 95.9696ZM436.476 101.953V91.5359H437.396V95.6961H439.136V96.4834H437.396V101.953H436.476ZM449.329 95.9116V96.6575H439.823V95.9116H449.329ZM440.975 98.3066V97.5856H448.094V100.006H441.903V101.083H448.409V101.829H441V99.3094H447.191V98.3066H440.975ZM441.091 95.058V91.8923H448.086V92.6381H442.011V94.3039H448.193V95.058H441.091ZM458.917 91.5359V97.1215H457.997V91.5359H458.917ZM450.555 94.4365C450.555 93.011 451.707 92.0331 453.29 92.0414C454.872 92.0331 456.016 93.011 456.016 94.4365C456.016 95.8536 454.872 96.8315 453.29 96.8232C451.707 96.8315 450.555 95.8536 450.555 94.4365ZM451.458 94.4365C451.45 95.3895 452.22 96.0608 453.29 96.0608C454.35 96.0608 455.121 95.3895 455.121 94.4365C455.121 93.4834 454.35 92.8122 453.29 92.8204C452.22 92.8122 451.45 93.4834 451.458 94.4365ZM452.171 101.812V97.6519H453.074V98.9199H458.005V97.6519H458.917V101.812H452.171ZM453.074 101.058H458.005V99.6575H453.074V101.058ZM33.0083 110.536V120.953H32.0967V110.536H33.0083ZM25.1022 118.268V111.564H26.0055V117.464C27.5967 117.46 29.2334 117.336 30.9862 116.967L31.1105 117.754C29.2624 118.135 27.6133 118.268 25.9475 118.268H25.1022ZM42.9773 110.536V114.655H44.7176V115.425H42.9773V120.97H42.0574V110.536H42.9773ZM35.3695 118.359V111.555H40.2342V112.309H36.2894V117.58C38.1748 117.576 39.509 117.501 41.0546 117.215L41.1707 118.011C39.5381 118.301 38.1707 118.359 36.19 118.359H35.3695ZM46.507 120.066C46.0927 120.066 45.7446 119.727 45.7529 119.312C45.7446 118.898 46.0927 118.558 46.507 118.558C46.9214 118.558 47.2612 118.898 47.2612 119.312C47.2612 119.727 46.9214 120.066 46.507 120.066ZM61.2138 116.503V117.282H56.8713V120.953H55.968V117.282H51.6751V116.503H61.2138ZM52.7608 113.246C52.7608 111.837 54.2359 110.959 56.4238 110.95C58.6116 110.959 60.095 111.837 60.095 113.246C60.095 114.638 58.6116 115.517 56.4238 115.517C54.2359 115.517 52.7608 114.638 52.7608 113.246ZM53.7055 113.246C53.6972 114.174 54.7994 114.771 56.4238 114.771C58.0481 114.771 59.1503 114.174 59.1503 113.246C59.1503 112.309 58.0481 111.704 56.4238 111.704C54.7994 111.704 53.6972 112.309 53.7055 113.246ZM70.785 110.536V120.97H69.8734V110.536H70.785ZM62.7712 112.268V111.506H67.6193V115.21H63.7325V117.671C65.4604 117.667 66.9977 117.593 68.8624 117.29L68.9535 118.061C67.0392 118.367 65.4563 118.442 63.6579 118.442H62.7878V114.456H66.6911V112.268H62.7712ZM81.0938 113.693V114.439H73.9667V110.917H74.8783V113.693H81.0938ZM72.6573 116.602V115.856H82.196V116.602H72.6573ZM73.9004 120.696V117.663H74.812V119.934H81.1601V120.696H73.9004ZM94.8823 110.536V115.939H93.979V110.536H94.8823ZM86.3713 115.102C87.9376 114.555 89.0481 113.163 89.0481 111.638V110.834H89.9846V111.638C89.9763 113.105 91.1033 114.406 92.6531 114.912L92.189 115.633C90.9666 115.214 89.997 114.34 89.5288 113.213C89.0647 114.427 88.0868 115.384 86.852 115.831L86.3713 115.102ZM88.1199 117.199V116.461H94.8989V118.956H89.0481V120.083H95.2719V120.837H88.1531V118.243H93.9873V117.199H88.1199ZM105.423 110.536V116.851H104.503V114.472H102.73V113.702H104.503V110.536H105.423ZM96.7961 112.384V111.63H99.39V110.436H100.293V111.63H102.879V112.384H96.7961ZM97.4176 114.779C97.4176 113.685 98.4204 112.923 99.8375 112.923C101.255 112.923 102.249 113.685 102.257 114.779C102.249 115.898 101.255 116.635 99.8375 116.635C98.4204 116.635 97.4176 115.898 97.4176 114.779ZM98.3044 114.779C98.2961 115.467 98.9259 115.923 99.8375 115.931C100.741 115.923 101.371 115.467 101.371 114.779C101.371 114.108 100.741 113.635 99.8375 113.635C98.9259 113.635 98.2961 114.108 98.3044 114.779ZM98.611 120.812V117.406H105.423V120.812H98.611ZM99.5309 120.058H104.52V118.144H99.5309V120.058ZM112.019 110.718C114.34 110.718 115.699 111.356 115.699 112.517C115.699 113.693 114.34 114.331 112.019 114.34C109.699 114.331 108.331 113.693 108.331 112.517C108.331 111.356 109.699 110.718 112.019 110.718ZM107.279 115.79V115.044H116.776V115.79H107.279ZM108.431 117.398V116.693H115.55V119.022H109.359V120.108H115.865V120.837H108.456V118.343H114.646V117.398H108.431ZM109.293 112.517C109.284 113.238 110.295 113.635 112.019 113.635C113.751 113.635 114.762 113.238 114.762 112.517C114.762 111.829 113.751 111.414 112.019 111.414C110.295 111.414 109.284 111.829 109.293 112.517ZM124.432 112.508C124.432 113.876 125.451 115.094 126.985 115.599L126.545 116.32C125.348 115.923 124.44 115.094 123.993 114.05C123.545 115.243 122.584 116.175 121.333 116.627L120.86 115.89C122.427 115.359 123.512 114.017 123.521 112.517V112.069H121.142V111.307H126.769V112.069H124.432V112.508ZM122.253 119.006C122.253 117.804 123.562 117.108 125.708 117.108C127.846 117.108 129.139 117.804 129.139 119.006C129.139 120.224 127.846 120.928 125.708 120.928C123.562 120.928 122.253 120.224 122.253 119.006ZM123.172 119.006C123.164 119.751 124.134 120.191 125.708 120.191C127.283 120.191 128.244 119.751 128.244 119.006C128.244 118.276 127.283 117.845 125.708 117.845C124.134 117.845 123.164 118.276 123.172 119.006ZM128.128 116.826V110.536H129.048V113.196H130.614V113.967H129.048V116.826H128.128ZM140.02 110.536V120.97H139.108V116.536H136.937V115.757H139.108V113.685H137.012V112.914H139.108V110.536H140.02ZM131.757 112.243V111.481H136.34V115.185H132.702V117.754C134.273 117.75 135.565 117.688 137.144 117.448L137.227 118.218C135.561 118.475 134.227 118.533 132.561 118.533H131.791V114.439H135.437V112.243H131.757ZM149.947 110.536V114.829H151.688V115.599H149.947V120.953H149.036V110.536H149.947ZM141.826 112.972V112.21H144.503V110.66H145.423V112.21H148.025V112.972H141.826ZM142.423 116.229C142.414 114.82 143.492 113.834 144.975 113.834C146.45 113.834 147.519 114.82 147.528 116.229C147.519 117.638 146.45 118.616 144.975 118.616C143.492 118.616 142.414 117.638 142.423 116.229ZM143.301 116.229C143.293 117.174 144.005 117.845 144.975 117.837C145.936 117.845 146.641 117.174 146.649 116.229C146.641 115.285 145.936 114.605 144.975 114.605C144.005 114.605 143.293 115.285 143.301 116.229ZM160.729 111.588V112.624C160.72 113.909 160.72 115.334 160.339 117.431L159.411 117.323C159.8 115.334 159.8 113.876 159.809 112.624V112.351H153.386V111.588H160.729ZM152.375 119.478V118.707H156.096V114.986H157.008V118.707H161.872V119.478H152.375ZM164.573 119.204L163.67 122.395H162.8L163.446 119.204H164.573ZM177.785 110.536V115.939H176.882V110.536H177.785ZM169.274 115.102C170.841 114.555 171.951 113.163 171.951 111.638V110.834H172.888V111.638C172.879 113.105 174.006 114.406 175.556 114.912L175.092 115.633C173.87 115.214 172.9 114.34 172.432 113.213C171.968 114.427 170.99 115.384 169.755 115.831L169.274 115.102ZM171.023 117.199V116.461H177.802V118.956H171.951V120.083H178.175V120.837H171.056V118.243H176.89V117.199H171.023ZM188.616 110.536V120.953H187.73V115.508H186.312V120.406H185.434V110.768H186.312V114.738H187.73V110.536H188.616ZM179.575 117.588C179.911 117.588 180.296 117.588 180.71 117.58V112.616H179.799V111.854H184.655V112.616H183.752V117.456C184.145 117.423 184.522 117.385 184.87 117.34L184.92 118.019C183.263 118.326 181.058 118.376 179.691 118.376L179.575 117.588ZM181.564 117.564C181.999 117.551 182.451 117.535 182.898 117.51V112.616H181.564V117.564ZM199.704 115.376V116.097H190.165V115.376H199.704ZM191.317 117.622V116.934H198.511V119.146H192.254V120.141H198.851V120.812H191.334V118.508H197.599V117.622H191.317ZM191.375 111.514V110.851H198.478V113.006H192.32V113.917H198.66V114.588H191.409V112.376H197.558V111.514H191.375ZM210.037 111.655V112.401H203.83V111.655H206.482V110.486H207.393V111.655H210.037ZM204.426 114.829C204.418 113.685 205.429 112.956 206.937 112.948C208.429 112.956 209.432 113.685 209.44 114.829C209.432 115.964 208.429 116.702 206.937 116.702C205.429 116.702 204.418 115.964 204.426 114.829ZM205.131 118.376V117.622H211.951V120.953H211.031V118.376H205.131ZM205.305 114.829C205.297 115.525 205.951 115.972 206.937 115.972C207.907 115.972 208.562 115.525 208.57 114.829C208.562 114.124 207.907 113.669 206.937 113.66C205.951 113.669 205.297 114.124 205.305 114.829ZM211.031 117.041V110.536H211.951V113.428H213.518V114.199H211.951V117.041H211.031ZM216.417 116.785V118.003H221.622V116.785H222.55V120.812H215.506V116.785H216.417ZM214.296 116.055V115.285H223.793V116.055H214.296ZM214.835 113.818C216.691 113.561 218.572 112.467 218.572 111.141V110.652H219.517V111.141C219.517 112.425 221.415 113.577 223.246 113.818L222.906 114.547C221.295 114.307 219.708 113.482 219.049 112.322C218.386 113.494 216.79 114.307 215.183 114.547L214.835 113.818ZM216.417 120.066H221.622V118.732H216.417V120.066ZM228.193 111.298C229.834 111.298 230.994 112.293 231.003 113.743C230.994 115.193 229.834 116.188 228.193 116.188C226.552 116.188 225.375 115.193 225.384 113.743C225.375 112.293 226.552 111.298 228.193 111.298ZM224.845 117.887C226.768 117.895 229.42 117.878 231.723 117.539L231.798 118.218C229.411 118.666 226.851 118.674 224.969 118.674L224.845 117.887ZM226.287 113.743C226.279 114.713 227.083 115.384 228.193 115.384C229.295 115.384 230.099 114.713 230.099 113.743C230.099 112.773 229.295 112.102 228.193 112.102C227.083 112.102 226.279 112.773 226.287 113.743ZM232.411 120.97V110.536H233.331V120.97H232.411ZM247.02 110.536V120.953H246.1V110.536H247.02ZM238.542 118.243C241.36 116.909 242.798 114.903 243.001 112.417H239.023V111.671H243.937C243.929 114.663 242.537 117.315 239.04 118.997L238.542 118.243ZM257.445 110.536V120.953H256.525V110.536H257.445ZM248.959 118.177C249.85 118.169 250.869 118.16 251.926 118.127V116.996C250.674 116.859 249.862 116.146 249.871 115.102C249.862 113.925 250.865 113.163 252.365 113.163C253.873 113.163 254.893 113.925 254.893 115.102C254.893 116.134 254.085 116.847 252.846 116.988V118.094C253.857 118.048 254.876 117.97 255.837 117.845L255.912 118.55C253.583 118.923 251.031 118.956 249.1 118.956L248.959 118.177ZM249.183 112.566V111.82H251.926V110.544H252.846V111.82H255.564V112.566H249.183ZM250.732 115.102C250.724 115.823 251.404 116.296 252.365 116.287C253.343 116.296 254.014 115.823 254.014 115.102C254.014 114.373 253.343 113.884 252.365 113.884C251.404 113.884 250.724 114.373 250.732 115.102ZM268.931 118.881V119.66H259.392V118.881H263.677V116.917H260.585V113.702H266.817V112.069H260.561V111.307H267.729V114.456H261.497V116.155H267.969V116.917H264.588V118.881H268.931ZM281.161 110.536V113.047H282.728V113.826H281.161V116.627H280.241V110.536H281.161ZM273.462 115.972V111.124H274.366V112.724H277.399V111.124H278.31V115.972H273.462ZM274.366 115.227H277.399V113.461H274.366V115.227ZM274.614 120.804V117.207H281.244V117.945H275.534V120.058H281.443V120.804H274.614ZM286.29 111.34C287.832 111.348 288.918 112.757 288.926 114.97C288.918 117.191 287.832 118.599 286.29 118.599C284.749 118.599 283.663 117.191 283.672 114.97C283.663 112.757 284.749 111.348 286.29 111.34ZM284.542 114.97C284.542 116.669 285.263 117.779 286.29 117.779C287.335 117.779 288.039 116.669 288.039 114.97C288.039 113.279 287.335 112.169 286.29 112.16C285.263 112.169 284.542 113.279 284.542 114.97ZM290.65 120.953V110.536H291.569V114.696H293.31V115.483H291.569V120.953H290.65ZM303.503 114.912V115.657H293.997V114.912H303.503ZM295.149 117.307V116.586H302.268V119.006H296.077V120.083H302.583V120.829H295.174V118.309H301.364V117.307H295.149ZM295.265 114.058V110.892H302.259V111.638H296.185V113.304H302.367V114.058H295.265ZM313.074 110.536V120.97H312.154V110.536H313.074ZM304.878 114.97C304.878 112.757 305.98 111.348 307.538 111.34C309.079 111.348 310.198 112.757 310.198 114.97C310.198 117.191 309.079 118.599 307.538 118.599C305.98 118.599 304.878 117.191 304.878 114.97ZM305.764 114.97C305.764 116.669 306.494 117.779 307.538 117.779C308.582 117.779 309.303 116.669 309.303 114.97C309.303 113.279 308.582 112.169 307.538 112.16C306.494 112.169 305.764 113.279 305.764 114.97ZM320.15 111.572V113.039H322.703V110.536H323.615V120.97H322.703V116.669H320.15V118.318H315.402V111.572H320.15ZM316.313 117.572H319.255V112.301H316.313V117.572ZM320.15 115.914H322.703V113.801H320.15V115.914ZM327.178 119.204L326.274 122.395H325.404L326.05 119.204H327.178ZM339.868 110.536V114.771H341.558V115.55H339.868V120.945H338.948V110.536H339.868ZM331.87 118.243C334.564 116.905 336.031 114.899 336.238 112.425H332.359V111.655H337.174C337.166 114.605 335.782 117.29 332.384 118.964L331.87 118.243ZM350.707 113.453V114.207H343.596V110.743H344.508V113.453H350.707ZM342.295 116.188V115.425H351.801V116.188H342.295ZM343.439 119.014C343.439 117.804 344.79 117.124 347.035 117.124C349.273 117.124 350.616 117.804 350.624 119.014C350.616 120.224 349.273 120.903 347.035 120.903C344.79 120.903 343.439 120.224 343.439 119.014ZM344.375 119.014C344.367 119.743 345.37 120.182 347.035 120.182C348.693 120.182 349.696 119.743 349.704 119.014C349.696 118.276 348.693 117.862 347.035 117.854C345.37 117.862 344.367 118.276 344.375 119.014ZM360.933 110.544V113.975H362.499V114.754H360.933V118.351H360.013V110.544H360.933ZM352.811 112.575V111.82H355.463V110.544H356.375V111.82H359.018V112.575H352.811ZM353.408 115.094C353.399 113.909 354.411 113.146 355.919 113.146C357.402 113.146 358.413 113.909 358.422 115.094C358.413 116.262 357.402 117.017 355.919 117.017C354.411 117.017 353.399 116.262 353.408 115.094ZM354.286 115.094C354.278 115.823 354.933 116.296 355.919 116.287C356.888 116.296 357.543 115.823 357.551 115.094C357.543 114.348 356.888 113.867 355.919 113.867C354.933 113.867 354.278 114.348 354.286 115.094ZM354.411 120.721V117.721H355.322V119.959H361.413V120.721H354.411ZM375.044 110.544V117.597H374.125V114.249H371.837V113.478H374.125V110.544H375.044ZM366.583 116.18C369.069 115.413 370.607 113.975 370.805 112.119H367.097V111.365H371.788C371.779 114.033 369.989 115.956 366.989 116.917L366.583 116.18ZM367.677 120.182C369.517 119.867 371.199 118.699 371.207 117.166V116.685H372.119V117.166C372.119 118.682 373.785 119.826 375.625 120.157L375.235 120.895C373.698 120.601 372.281 119.785 371.663 118.562C371.033 119.793 369.604 120.609 368.05 120.92L367.677 120.182ZM380.306 111.298C381.947 111.298 383.107 112.293 383.116 113.743C383.107 115.193 381.947 116.188 380.306 116.188C378.665 116.188 377.489 115.193 377.497 113.743C377.489 112.293 378.665 111.298 380.306 111.298ZM376.958 117.887C378.881 117.895 381.533 117.878 383.837 117.539L383.911 118.218C381.524 118.666 378.964 118.674 377.082 118.674L376.958 117.887ZM378.4 113.743C378.392 114.713 379.196 115.384 380.306 115.384C381.408 115.384 382.212 114.713 382.212 113.743C382.212 112.773 381.408 112.102 380.306 112.102C379.196 112.102 378.392 112.773 378.4 113.743ZM384.524 120.97V110.536H385.444V120.97H384.524ZM399.158 110.544V116.801H398.238V115.392H395.462V114.63H398.238V113.221H395.574C394.89 114.903 393.283 116.117 391.045 116.776L390.664 116.047C393.175 115.309 394.749 113.892 394.94 112.086H391.194V111.315H395.935C395.935 111.721 395.889 112.115 395.806 112.483H398.238V110.544H399.158ZM392.263 118.898C392.263 117.655 393.614 116.909 395.752 116.909C397.857 116.909 399.216 117.655 399.216 118.898C399.216 120.149 397.857 120.903 395.752 120.903C393.614 120.903 392.263 120.149 392.263 118.898ZM393.175 118.898C393.175 119.685 394.178 120.157 395.752 120.157C397.294 120.157 398.296 119.685 398.305 118.898C398.296 118.11 397.294 117.638 395.752 117.646C394.178 117.638 393.175 118.11 393.175 118.898ZM409.931 110.536V120.953H409.053V110.536H409.931ZM401.006 118.036C403.268 116.693 404.404 114.812 404.586 112.633H401.47V111.862H405.497C405.497 112.396 405.452 112.923 405.357 113.436H406.939V110.818H407.826V120.423H406.939V116.809H405.009V116.047H406.939V114.199H405.178C404.669 115.964 403.529 117.522 401.561 118.699L401.006 118.036ZM421.027 115.376V116.097H411.489V115.376H421.027ZM412.641 117.622V116.934H419.834V119.146H413.577V120.141H420.174V120.812H412.657V118.508H418.922V117.622H412.641ZM412.699 111.514V110.851H419.801V113.006H413.643V113.917H419.983V114.588H412.732V112.376H418.881V111.514H412.699ZM431.327 112.21V112.972H425.128V112.21H427.763V110.66H428.683V112.21H431.327ZM425.774 116.229C425.774 114.829 426.81 113.834 428.236 113.834C429.645 113.834 430.672 114.829 430.68 116.229C430.672 117.613 429.645 118.616 428.236 118.616C426.81 118.616 425.774 117.613 425.774 116.229ZM426.636 116.229C426.628 117.166 427.316 117.829 428.236 117.82C429.147 117.829 429.835 117.166 429.835 116.229C429.835 115.301 429.147 114.63 428.236 114.622C427.316 114.63 426.628 115.301 426.636 116.229ZM431.103 115.682V114.912H432.852V110.536H433.763V120.953H432.852V115.682H431.103ZM445.116 114.936V115.682H440.815V116.718H443.89V119.047H437.699V120.108H444.205V120.837H436.796V118.359H442.986V117.431H436.771V116.718H439.895V115.682H435.619V114.936H445.116ZM436.854 114.058V110.884H443.881V114.058H436.854ZM437.757 113.32H442.962V111.622H437.757V113.32ZM454.721 110.536V120.953H453.801V110.536H454.721ZM446.243 118.243C449.06 116.909 450.498 114.903 450.701 112.417H446.723V111.671H451.638C451.629 114.663 450.237 117.315 446.74 118.997L446.243 118.243ZM27.8536 130.041C29.4116 130.033 30.5304 130.895 30.5304 132.171C30.5304 133.439 29.4116 134.309 27.8536 134.301C26.2956 134.309 25.1851 133.439 25.1851 132.171C25.1851 130.895 26.2956 130.033 27.8536 130.041ZM24.3978 135.196C26.3536 135.196 29.0304 135.155 31.3425 134.815L31.4088 135.511C30.4144 135.693 29.3785 135.801 28.3757 135.867V139.63H27.4558V135.917C26.395 135.963 25.3923 135.971 24.5221 135.975L24.3978 135.196ZM26.0801 132.171C26.0718 132.983 26.8177 133.547 27.8536 133.539C28.9061 133.547 29.6519 132.983 29.6519 132.171C29.6519 131.359 28.9061 130.787 27.8536 130.796C26.8177 130.787 26.0718 131.359 26.0801 132.171ZM32.1133 139.961V129.544H33.0166V139.961H32.1133ZM40.1182 131.334V132.088H34.8889V131.334H37.0519V129.851H37.9718V131.334H40.1182ZM35.2701 135.155C35.2618 133.771 36.2066 132.793 37.5077 132.793C38.8171 132.793 39.7535 133.771 39.7618 135.155C39.7535 136.555 38.8171 137.541 37.5077 137.541C36.2066 137.541 35.2618 136.555 35.2701 135.155ZM36.0823 135.155C36.0823 136.083 36.6789 136.746 37.5077 136.738C38.3364 136.746 38.9414 136.083 38.9414 135.155C38.9414 134.243 38.3364 133.572 37.5077 133.564C36.6789 133.572 36.0823 134.243 36.0823 135.155ZM40.6568 139.439V129.785H41.527V133.928H42.911V129.536H43.7894V139.953H42.911V134.691H41.527V139.439H40.6568ZM57.1719 129.544V137.492H56.252V135.246H54.4371V134.5H56.252V133.083H54.4371V132.32H56.252V129.544H57.1719ZM48.5448 131.575V130.82H51.0808V129.536H51.9924V130.82H54.4454V131.575H48.5448ZM49.1664 134.135C49.1581 132.942 50.1277 132.146 51.5283 132.146C52.9205 132.146 53.8984 132.942 53.9067 134.135C53.8984 135.32 52.9205 136.124 51.5283 136.124C50.1277 136.124 49.1581 135.32 49.1664 134.135ZM50.0283 134.135C50.02 134.89 50.6332 135.395 51.5283 135.395C52.415 135.395 53.0283 134.89 53.0366 134.135C53.0283 133.39 52.415 132.884 51.5283 132.876C50.6332 132.884 50.02 133.39 50.0283 134.135ZM50.4343 139.721V136.787H51.3625V138.959H57.4123V139.721H50.4343ZM62.5083 131.218C62.5083 132.635 63.5857 133.936 65.0939 134.45L64.5967 135.18C63.4448 134.757 62.5332 133.895 62.0815 132.809C61.634 134.04 60.7017 135.001 59.4835 135.47L58.9862 134.732C60.5525 134.152 61.5967 132.76 61.605 131.152V130.075H62.5083V131.218ZM60.3785 138.03C60.3785 136.837 61.6879 136.141 63.8343 136.141C65.9724 136.141 67.2652 136.837 67.2652 138.03C67.2652 139.24 65.9724 139.928 63.8343 139.928C61.6879 139.928 60.3785 139.24 60.3785 138.03ZM61.2984 138.03C61.2901 138.768 62.2597 139.191 63.8343 139.199C65.4089 139.191 66.3702 138.768 66.3702 138.03C66.3702 137.318 65.4089 136.878 63.8343 136.878C62.2597 136.878 61.2901 137.318 61.2984 138.03ZM66.2542 135.876V129.536H67.1741V132.254H68.7404V133.025H67.1741V135.876H66.2542ZM79.0408 135.47V136.232H76.5298V139.953H75.6016V136.232H72.9248V139.953H71.9801V136.232H69.5022V135.47H79.0408ZM70.5878 132.229C70.5878 130.837 72.0629 129.959 74.2508 129.95C76.4386 129.959 77.9221 130.837 77.9221 132.229C77.9221 133.613 76.4386 134.483 74.2508 134.475C72.0629 134.483 70.5878 133.613 70.5878 132.229ZM71.5326 132.229C71.5243 133.149 72.6265 133.738 74.2508 133.738C75.8751 133.738 76.9773 133.149 76.9773 132.229C76.9773 131.301 75.8751 130.704 74.2508 130.704C72.6265 130.704 71.5243 131.301 71.5326 132.229ZM83.7391 132.735C83.7391 134.5 85.0237 136.298 86.5568 136.961L86.043 137.691C84.8248 137.135 83.7764 135.938 83.2875 134.5C82.7985 136.025 81.746 137.351 80.5568 137.948L80.0098 137.218C81.5016 136.506 82.8027 134.533 82.8109 132.735V131.376H80.3496V130.605H86.217V131.376H83.7391V132.735ZM87.6756 139.953V129.536H88.5955V139.953H87.6756ZM99.4263 129.536V139.953H98.5396V129.536H99.4263ZM90.6335 134.028C90.6335 131.815 91.512 130.414 92.8628 130.414C94.1308 130.414 94.9885 131.633 95.1045 133.597H96.4512V129.76H97.3379V139.423H96.4512V134.359H95.1087C95.0175 136.39 94.1515 137.657 92.8628 137.649C91.512 137.657 90.6335 136.249 90.6335 134.028ZM91.4954 134.028C91.4871 135.718 92.0258 136.787 92.8628 136.779C93.7164 136.787 94.2551 135.718 94.2551 134.028C94.2551 132.337 93.7164 131.276 92.8628 131.276C92.0258 131.276 91.4871 132.337 91.4954 134.028ZM112.535 134.417V135.163H109.32V137.865H113.662V138.635H104.124V137.865H108.408V135.163H105.342V130.381H112.436V131.135H106.262V134.417H112.535ZM123.25 129.544V137.185H122.33V133.182H120.184V132.428H122.33V129.544H123.25ZM114.656 135.097C116.198 134.558 117.308 133.182 117.308 131.691V131.152H114.955V130.39H120.565V131.152H118.236V131.691C118.236 133.033 119.281 134.343 120.805 134.865L120.325 135.602C119.148 135.18 118.241 134.305 117.789 133.228C117.337 134.43 116.376 135.387 115.137 135.851L114.656 135.097ZM116.562 139.721V136.497H117.482V138.959H123.54V139.721H116.562ZM133.252 129.536V132.204H134.819V132.983H133.252V135.586H132.332V129.536H133.252ZM125.131 131.367V130.613H127.783V129.436H128.694V130.613H131.338V131.367H125.131ZM125.727 133.68C125.719 132.569 126.722 131.856 128.239 131.856C129.73 131.856 130.733 132.569 130.741 133.68C130.733 134.79 129.73 135.511 128.239 135.503C126.722 135.511 125.719 134.79 125.727 133.68ZM126.606 133.68C126.598 134.359 127.252 134.807 128.239 134.807C129.208 134.807 129.863 134.359 129.871 133.68C129.863 133.008 129.208 132.552 128.239 132.561C127.252 132.552 126.598 133.008 126.606 133.68ZM126.664 139.812V136.041H127.576V137.16H132.332V136.041H133.252V139.812H126.664ZM127.576 139.066H132.332V137.89H127.576V139.066ZM144.183 129.536V139.953H143.271V129.536H144.183ZM136.277 137.268V130.564H137.18V136.464C138.771 136.46 140.408 136.336 142.161 135.967L142.285 136.754C140.437 137.135 138.788 137.268 137.122 137.268H136.277ZM154.152 129.536V133.655H155.892V134.425H154.152V139.97H153.232V129.536H154.152ZM146.544 137.359V130.555H151.409V131.309H147.464V136.58C149.349 136.576 150.683 136.501 152.229 136.215L152.345 137.011C150.712 137.301 149.345 137.359 147.364 137.359H146.544ZM157.681 139.066C157.267 139.066 156.919 138.727 156.927 138.312C156.919 137.898 157.267 137.558 157.681 137.558C158.096 137.558 158.436 137.898 158.436 138.312C158.436 138.727 158.096 139.066 157.681 139.066ZM168.775 130.613V131.367H162.874V130.613H165.41V129.445H166.322V130.613H168.775ZM163.496 133.895C163.488 132.727 164.466 131.956 165.858 131.948C167.242 131.956 168.228 132.727 168.236 133.895C168.228 135.047 167.242 135.834 165.858 135.843C164.466 135.834 163.488 135.047 163.496 133.895ZM164.358 133.895C164.35 134.616 164.963 135.113 165.858 135.105C166.745 135.113 167.366 134.616 167.374 133.895C167.366 133.166 166.745 132.669 165.858 132.66C164.963 132.669 164.35 133.166 164.358 133.895ZM164.49 137.5V136.754H171.501V139.953H170.582V137.5H164.49ZM168.758 134.823V134.052H170.582V132.851H168.767V132.105H170.582V129.536H171.501V136.141H170.582V134.823H168.758ZM181.959 129.544V137.185H181.039V129.544H181.959ZM173.465 134.956C175.039 134.343 176.109 132.818 176.109 131.169V130.124H177.045V131.169C177.037 132.76 178.122 134.185 179.672 134.749L179.191 135.486C177.986 135.018 177.045 134.081 176.585 132.88C176.133 134.16 175.189 135.184 173.97 135.677L173.465 134.956ZM175.23 139.721V136.481H176.15V138.959H182.283V139.721H175.23ZM187.254 130.298C188.895 130.298 190.055 131.293 190.064 132.743C190.055 134.193 188.895 135.188 187.254 135.188C185.613 135.188 184.437 134.193 184.445 132.743C184.437 131.293 185.613 130.298 187.254 130.298ZM183.906 136.887C185.829 136.895 188.481 136.878 190.785 136.539L190.859 137.218C188.473 137.666 185.912 137.674 184.031 137.674L183.906 136.887ZM185.348 132.743C185.34 133.713 186.144 134.384 187.254 134.384C188.357 134.384 189.16 133.713 189.16 132.743C189.16 131.773 188.357 131.102 187.254 131.102C186.144 131.102 185.34 131.773 185.348 132.743ZM191.473 139.97V129.536H192.392V139.97H191.473ZM206.993 134.865V135.627H202.75V137.757H201.838V135.627H197.455V134.865H206.993ZM198.681 139.721V136.729H199.601V138.959H205.932V139.721H198.681ZM198.698 133.671V130.041H205.75V133.671H198.698ZM199.601 132.934H204.838V130.779H199.601V132.934ZM216.042 129.536V133.97H217.708V134.749H216.042V139.953H215.122V129.536H216.042ZM207.83 137.177C208.679 137.173 209.674 137.169 210.705 137.14V135.992C209.491 135.847 208.7 135.138 208.708 134.102C208.7 132.925 209.694 132.163 211.169 132.163C212.628 132.163 213.639 132.925 213.647 134.102C213.639 135.138 212.835 135.851 211.625 135.992V137.102C212.595 137.057 213.577 136.978 214.484 136.845L214.551 137.541C212.272 137.931 209.81 137.956 207.987 137.956L207.83 137.177ZM208.02 131.558V130.812H210.705V129.552H211.625V130.812H214.302V131.558H208.02ZM209.57 134.102C209.57 134.823 210.208 135.296 211.169 135.287C212.122 135.296 212.761 134.823 212.761 134.102C212.761 133.373 212.122 132.884 211.169 132.884C210.208 132.884 209.57 133.373 209.57 134.102ZM227.975 134.376V135.097H218.437V134.376H227.975ZM219.589 136.622V135.934H226.782V138.146H220.525V139.141H227.122V139.812H219.605V137.508H225.87V136.622H219.589ZM219.647 130.514V129.851H226.749V132.006H220.591V132.917H226.931V133.588H219.68V131.376H225.829V130.514H219.647ZM241.615 137.84V138.61H232.076V137.84H236.377V135.304H237.297V137.84H241.615ZM232.548 134.939C234.305 134.633 236.352 133.174 236.352 131.517V131.26H232.863V130.481H240.794V131.26H237.305V131.517C237.305 133.174 239.361 134.608 241.159 134.898L240.778 135.627C239.191 135.312 237.508 134.301 236.837 132.863C236.166 134.309 234.492 135.345 232.93 135.669L232.548 134.939ZM246.147 131.177C246.139 132.66 247.2 133.97 248.733 134.483L248.219 135.204C247.067 134.773 246.164 133.928 245.712 132.83C245.269 134.077 244.316 135.047 243.056 135.519L242.559 134.773C244.158 134.21 245.227 132.826 245.236 131.21V130.133H246.147V131.177ZM244.258 137.981C244.25 136.729 245.575 136.008 247.747 136.008C249.91 136.008 251.236 136.729 251.236 137.981C251.236 139.224 249.91 139.928 247.747 139.928C245.575 139.928 244.25 139.224 244.258 137.981ZM245.169 137.981C245.161 138.735 246.147 139.191 247.747 139.191C249.338 139.191 250.324 138.735 250.324 137.981C250.324 137.202 249.338 136.738 247.747 136.738C246.147 136.738 245.161 137.202 245.169 137.981ZM247.962 132.528V131.765H250.283V129.536H251.203V135.71H250.283V132.528H247.962ZM261.122 129.536V133.829H262.862V134.599H261.122V139.953H260.21V129.536H261.122ZM253 131.972V131.21H255.677V129.66H256.597V131.21H259.199V131.972H253ZM253.597 135.229C253.589 133.82 254.666 132.834 256.149 132.834C257.625 132.834 258.694 133.82 258.702 135.229C258.694 136.638 257.625 137.616 256.149 137.616C254.666 137.616 253.589 136.638 253.597 135.229ZM254.475 135.229C254.467 136.174 255.18 136.845 256.149 136.837C257.111 136.845 257.815 136.174 257.823 135.229C257.815 134.285 257.111 133.605 256.149 133.605C255.18 133.605 254.467 134.285 254.475 135.229ZM266.35 130.34C267.308 130.344 268.087 130.903 268.534 131.865H271.273V129.536H272.185V139.97H271.273V135.925H268.6C268.165 136.982 267.357 137.599 266.35 137.599C264.809 137.599 263.732 136.191 263.74 133.97C263.732 131.757 264.809 130.348 266.35 130.34ZM264.618 133.97C264.618 135.669 265.323 136.779 266.35 136.779C267.37 136.779 268.083 135.669 268.083 133.97C268.083 132.279 267.37 131.169 266.35 131.16C265.323 131.169 264.618 132.279 264.618 133.97ZM268.799 132.635C268.899 133.037 268.953 133.485 268.953 133.97C268.953 134.401 268.911 134.798 268.833 135.163H271.273V132.635H268.799ZM286.669 134.923V135.685H277.172V134.923H281.465V133.671H278.432V129.776H279.352V130.986H284.506V129.776H285.426V133.671H282.377V134.923H286.669ZM278.225 137.459V136.713H285.493V139.953H284.564V137.459H278.225ZM279.352 132.925H284.506V131.691H279.352V132.925ZM291.185 131.359C291.177 132.71 292.213 133.928 293.754 134.417L293.315 135.138C292.109 134.744 291.185 133.924 290.734 132.88C290.286 134.036 289.321 134.927 288.069 135.354L287.597 134.624C289.163 134.102 290.257 132.834 290.265 131.376V130.994H287.895V130.232H293.514V130.994H291.185V131.359ZM289.213 139.812V135.743H290.125V137.019H294.89V135.743H295.81V139.812H289.213ZM290.125 139.058H294.89V137.749H290.125V139.058ZM294.89 135.238V129.536H295.81V131.948H297.376V132.718H295.81V135.238H294.89ZM306.301 129.544V132.975H307.867V133.754H306.301V137.351H305.381V129.544H306.301ZM298.179 131.575V130.82H300.831V129.544H301.743V130.82H304.386V131.575H298.179ZM298.776 134.094C298.768 132.909 299.779 132.146 301.287 132.146C302.77 132.146 303.781 132.909 303.79 134.094C303.781 135.262 302.77 136.017 301.287 136.017C299.779 136.017 298.768 135.262 298.776 134.094ZM299.654 134.094C299.646 134.823 300.301 135.296 301.287 135.287C302.257 135.296 302.911 134.823 302.92 134.094C302.911 133.348 302.257 132.867 301.287 132.867C300.301 132.867 299.646 133.348 299.654 134.094ZM299.779 139.721V136.721H300.69V138.959H306.781V139.721H299.779ZM317.553 130.688V131.235C317.545 132.055 317.545 133.431 317.247 135.362L316.327 135.287C316.609 133.543 316.634 132.271 316.634 131.442H312.258V130.688H317.553ZM311.669 136.887C312.353 136.883 313.116 136.878 313.915 136.858V133.663H314.827V136.833C315.979 136.787 317.16 136.713 318.241 136.58L318.291 137.276C316.103 137.616 313.65 137.666 311.785 137.657L311.669 136.887ZM318.896 139.953V129.536H319.816V133.895H321.506V134.691H319.816V139.953H318.896ZM331.169 129.536V139.953H330.29V129.536H331.169ZM322.144 137.177C323.594 136.307 324.44 134.401 324.44 132.503V131.525H322.426V130.762H327.232V131.525H325.326V132.503C325.326 134.309 326.138 136.108 327.572 136.936L327.017 137.616C325.993 137.003 325.264 135.88 324.895 134.554C324.522 135.988 323.768 137.21 322.724 137.865L322.144 137.177ZM326.437 134.044V133.29H328.194V129.785H329.064V139.406H328.194V134.044H326.437ZM342.281 134.376V135.097H332.743V134.376H342.281ZM333.895 136.622V135.934H341.088V138.146H334.831V139.141H341.428V139.812H333.911V137.508H340.177V136.622H333.895ZM333.953 130.514V129.851H341.055V132.006H334.898V132.917H341.237V133.588H333.986V131.376H340.135V130.514H333.953ZM351.587 131.334V132.088H346.357V131.334H348.52V129.851H349.44V131.334H351.587ZM346.739 135.155C346.73 133.771 347.675 132.793 348.976 132.793C350.286 132.793 351.222 133.771 351.23 135.155C351.222 136.555 350.286 137.541 348.976 137.541C347.675 137.541 346.73 136.555 346.739 135.155ZM347.551 135.155C347.551 136.083 348.147 136.746 348.976 136.738C349.805 136.746 350.41 136.083 350.41 135.155C350.41 134.243 349.805 133.572 348.976 133.564C348.147 133.572 347.551 134.243 347.551 135.155ZM352.125 139.439V129.785H352.995V133.928H354.379V129.536H355.258V139.953H354.379V134.691H352.995V139.439H352.125ZM365.509 129.536V134.865H364.589V133.771H361.804V133.041H364.589V131.79H361.958C361.307 133.431 359.691 134.546 357.379 135.097L357.047 134.334C359.604 133.742 361.092 132.499 361.257 130.82H357.578V130.058H362.277C362.277 130.406 362.243 130.738 362.177 131.052H364.589V129.536H365.509ZM358.754 136.083V135.337H365.509V137.873H359.691V139.099H365.865V139.854H358.779V137.169H364.589V136.083H358.754ZM375.428 129.536V133.829H377.168V134.599H375.428V139.953H374.516V129.536H375.428ZM367.306 131.972V131.21H369.983V129.66H370.903V131.21H373.505V131.972H367.306ZM367.903 135.229C367.895 133.82 368.972 132.834 370.456 132.834C371.931 132.834 373 133.82 373.008 135.229C373 136.638 371.931 137.616 370.456 137.616C368.972 137.616 367.895 136.638 367.903 135.229ZM368.781 135.229C368.773 136.174 369.486 136.845 370.456 136.837C371.417 136.845 372.121 136.174 372.13 135.229C372.121 134.285 371.417 133.605 370.456 133.605C369.486 133.605 368.773 134.285 368.781 135.229ZM386.209 130.588V131.624C386.201 132.909 386.201 134.334 385.82 136.431L384.891 136.323C385.281 134.334 385.281 132.876 385.289 131.624V131.351H378.867V130.588H386.209ZM377.855 138.478V137.707H381.576V133.986H382.488V137.707H387.353V138.478H377.855ZM390.054 138.204L389.15 141.395H388.28L388.927 138.204H390.054ZM398.41 132.735C398.41 134.5 399.694 136.298 401.227 136.961L400.713 137.691C399.495 137.135 398.447 135.938 397.958 134.5C397.469 136.025 396.416 137.351 395.227 137.948L394.68 137.218C396.172 136.506 397.473 134.533 397.481 132.735V131.376H395.02V130.605H400.887V131.376H398.41V132.735ZM402.346 139.953V129.536H403.266V139.953H402.346ZM414.694 134.773V135.536H405.171V134.773H409.464V133.166H410.368V134.773H414.694ZM405.743 132.983C407.583 132.735 409.448 131.575 409.448 130.182V129.693H410.376V130.182C410.376 131.575 412.249 132.735 414.089 132.983L413.716 133.721C412.137 133.452 410.571 132.615 409.916 131.417C409.261 132.623 407.691 133.448 406.091 133.721L405.743 132.983ZM406.224 137.293V136.555H413.492V139.953H412.564V137.293H406.224ZM419.284 131.459C419.284 132.809 420.328 134.102 421.853 134.633L421.372 135.354C420.196 134.935 419.288 134.065 418.837 132.992C418.389 134.189 417.424 135.146 416.185 135.602L415.704 134.873C417.245 134.326 418.356 132.934 418.356 131.467V131.011H416.002V130.257H421.613V131.011H419.284V131.459ZM417.287 137.086V136.331H424.298V139.953H423.378V137.086H417.287ZM421.281 133.033V132.262H423.378V129.536H424.298V135.776H423.378V133.033H421.281ZM434.756 129.544V137.16H433.836V129.544H434.756ZM426.394 132.826C426.394 131.326 427.571 130.273 429.129 130.273C430.687 130.273 431.855 131.326 431.855 132.826C431.855 134.343 430.687 135.395 429.129 135.387C427.571 135.395 426.394 134.343 426.394 132.826ZM427.297 132.826C427.289 133.862 428.076 134.583 429.129 134.583C430.165 134.583 430.96 133.862 430.96 132.826C430.96 131.807 430.165 131.077 429.129 131.077C428.076 131.077 427.289 131.807 427.297 132.826ZM428.027 139.721V136.381H428.946V138.959H435.079V139.721H428.027ZM448.669 129.536V139.953H447.774V134.5H446.323V139.431H445.453V129.818H446.323V133.738H447.774V129.536H448.669ZM439.785 137.061C442.213 135.71 443.207 133.804 443.361 131.649H440.182V130.887H444.26C444.252 133.539 443.323 136.041 440.323 137.715L439.785 137.061ZM453.831 131.5C453.831 132.95 454.884 134.326 456.408 134.873L455.895 135.594C454.747 135.138 453.839 134.235 453.388 133.104C452.948 134.359 452 135.354 450.773 135.843L450.284 135.097C451.842 134.525 452.919 133.066 452.928 131.467V130.174H453.831V131.5ZM452.165 139.721V136.456H453.093V138.959H459.143V139.721H452.165ZM455.663 132.768V131.997H457.983V129.544H458.903V137.351H457.983V132.768H455.663ZM29.163 148.718C31.4834 148.718 32.8425 149.356 32.8425 150.517C32.8425 151.693 31.4834 152.331 29.163 152.34C26.8425 152.331 25.4751 151.693 25.4751 150.517C25.4751 149.356 26.8425 148.718 29.163 148.718ZM24.4227 153.79V153.044H33.9199V153.79H24.4227ZM25.5746 155.398V154.693H32.6934V157.022H26.5028V158.108H33.0083V158.837H25.5994V156.343H31.7901V155.398H25.5746ZM26.4365 150.517C26.4282 151.238 27.4392 151.635 29.163 151.635C30.895 151.635 31.9061 151.238 31.9061 150.517C31.9061 149.829 30.895 149.414 29.163 149.414C27.4392 149.414 26.4282 149.829 26.4365 150.517ZM47.5427 154.834V155.605H43.2416V158.97H42.3383V155.605H38.0455V154.834H47.5427ZM38.6421 153.285C40.4985 153.036 42.33 151.901 42.3383 150.591V150.583H38.9654V149.829H42.3383V148.528H43.2416V149.829H46.6228V150.583H43.2499V150.591C43.2499 151.892 45.0648 153.036 46.9294 153.285L46.5897 154.03C44.9778 153.782 43.4612 152.974 42.7982 151.838C42.1311 152.986 40.5938 153.782 38.9819 154.03L38.6421 153.285ZM52.2907 150.765C52.2907 152.174 53.4012 153.442 54.9592 153.939L54.4868 154.669C53.2769 154.258 52.3114 153.401 51.8432 152.302C51.3832 153.492 50.4095 154.428 49.1664 154.884L48.6857 154.146C50.252 153.599 51.3542 152.249 51.3625 150.765V150.16H48.9261V149.406H54.6857V150.16H52.2907V150.765ZM50.4095 158.721V155.456H51.3294V157.959H57.462V158.721H50.4095ZM56.2189 156.185V148.544H57.1388V156.185H56.2189ZM67.0912 148.536V152.829H68.8315V153.599H67.0912V158.953H66.1796V148.536H67.0912ZM58.9696 150.972V150.21H61.6464V148.66H62.5663V150.21H65.1685V150.972H58.9696ZM59.5663 154.229C59.558 152.82 60.6354 151.834 62.1188 151.834C63.594 151.834 64.663 152.82 64.6713 154.229C64.663 155.638 63.594 156.616 62.1188 156.616C60.6354 156.616 59.558 155.638 59.5663 154.229ZM60.4448 154.229C60.4365 155.174 61.1492 155.845 62.1188 155.837C63.0801 155.845 63.7846 155.174 63.7928 154.229C63.7846 153.285 63.0801 152.605 62.1188 152.605C61.1492 152.605 60.4365 153.285 60.4448 154.229ZM74.69 149.572V151.039H77.2425V148.536H78.1541V158.97H77.2425V154.669H74.69V156.318H69.9414V149.572H74.69ZM70.853 155.572H73.795V150.301H70.853V155.572ZM74.69 153.914H77.2425V151.801H74.69V153.914ZM81.717 157.204L80.8137 160.395H79.9435L80.59 157.204H81.717ZM95.2441 148.536V158.953H94.3657V153.483H92.8408V158.406H91.9872V148.768H92.8408V152.721H94.3657V148.536H95.2441ZM86.7248 156.376V149.812H90.6281V150.566H87.6447V155.588C89.0825 155.584 90.0729 155.526 91.2248 155.29L91.3077 156.061C90.0563 156.326 88.9955 156.367 87.3961 156.376H86.7248ZM104.981 148.544V151.975H106.547V152.754H104.981V156.351H104.061V148.544H104.981ZM96.8595 150.575V149.82H99.5115V148.544H100.423V149.82H103.067V150.575H96.8595ZM97.4562 153.094C97.4479 151.909 98.459 151.146 99.9673 151.146C101.451 151.146 102.462 151.909 102.47 153.094C102.462 154.262 101.451 155.017 99.9673 155.017C98.459 155.017 97.4479 154.262 97.4562 153.094ZM98.3347 153.094C98.3264 153.823 98.9811 154.296 99.9673 154.287C100.937 154.296 101.592 153.823 101.6 153.094C101.592 152.348 100.937 151.867 99.9673 151.867C98.9811 151.867 98.3264 152.348 98.3347 153.094ZM98.459 158.721V155.721H99.3706V157.959H105.462V158.721H98.459ZM112.762 149.448V154.279H107.873V149.448H112.762ZM108.776 153.533H111.859V150.202H108.776V153.533ZM109.199 158.597V155.307H110.119V157.834H116.251V158.597H109.199ZM115.008 156.036V148.544H115.928V156.036H115.008ZM126.104 149.041V149.796C126.104 150.57 126.104 151.507 125.843 152.762H127.356V153.517H123.021V155.439H126.17V158.953H125.242V156.193H118.803V155.439H122.11V153.517H117.817V152.762H124.923C125.193 151.49 125.193 150.57 125.193 149.796H119.027V149.041H126.104ZM139.793 149.588V150.624C139.785 151.909 139.785 153.334 139.404 155.431L138.476 155.323C138.865 153.334 138.865 151.876 138.873 150.624V150.351H132.451V149.588H139.793ZM131.44 157.478V156.707H135.161V152.986H136.072V156.707H140.937V157.478H131.44ZM151.436 153.492V154.262H141.931V153.492H151.436ZM143.074 157.055C143.074 155.854 144.425 155.174 146.671 155.174C148.909 155.174 150.251 155.854 150.26 157.055C150.251 158.257 148.909 158.928 146.671 158.928C144.425 158.928 143.074 158.257 143.074 157.055ZM143.132 152.497V148.959H150.251V149.721H144.044V151.743H150.318V152.497H143.132ZM144.011 157.055C144.003 157.785 145.005 158.199 146.671 158.199C148.329 158.199 149.331 157.785 149.34 157.055C149.331 156.326 148.329 155.903 146.671 155.895C145.005 155.903 144.003 156.326 144.011 157.055ZM160.792 149.588V150.749C160.784 152.083 160.784 153.425 160.419 155.365L159.516 155.257C159.88 153.417 159.88 152.05 159.88 150.749V150.351H153.416V149.588H160.792ZM152.422 157.478V156.707H154.775V153.276H155.695V156.707H157.378V153.276H158.281V156.707H161.919V157.478H152.422ZM172.41 153.558V154.312H169.874V155.638H171.233V158.953H170.305V156.376H163.965V155.638H165.432V154.312H162.913V153.558H172.41ZM163.965 150.773C163.965 149.522 165.391 148.776 167.653 148.785C169.916 148.776 171.333 149.522 171.333 150.773C171.333 152.025 169.916 152.771 167.653 152.762C165.391 152.771 163.965 152.025 163.965 150.773ZM164.918 150.773C164.91 151.561 165.971 152.041 167.653 152.041C169.327 152.041 170.396 151.561 170.396 150.773C170.396 149.994 169.327 149.514 167.653 149.522C165.971 149.514 164.91 149.994 164.918 150.773ZM166.352 155.638H168.971V154.312H166.352V155.638ZM182.015 148.536V158.953H181.095V148.536H182.015ZM173.537 156.243C176.354 154.909 177.792 152.903 177.995 150.417H174.017V149.671H178.932C178.923 152.663 177.531 155.315 174.034 156.997L173.537 156.243ZM189.671 149.34V149.895C189.663 150.575 189.663 151.61 189.398 152.978L188.478 152.903C188.731 151.652 188.756 150.769 188.764 150.11H184.475V149.34H189.671ZM183.837 153.948C184.508 153.943 185.271 153.939 186.075 153.919V151.652H186.986V153.89C188.142 153.84 189.336 153.757 190.417 153.608L190.475 154.287C188.296 154.66 185.785 154.702 183.928 154.71L183.837 153.948ZM185.445 158.721V155.663H186.365V157.959H192.398V158.721H185.445ZM191.13 156.376V148.536H192.058V151.925H193.583V152.713H192.058V156.376H191.13ZM200.162 149.688V150.235C200.154 151.055 200.154 152.431 199.856 154.362L198.936 154.287C199.218 152.543 199.243 151.271 199.243 150.442H194.867V149.688H200.162ZM194.279 155.887C194.962 155.883 195.725 155.878 196.524 155.858V152.663H197.436V155.833C198.588 155.787 199.769 155.713 200.85 155.58L200.9 156.276C198.712 156.616 196.259 156.666 194.395 156.657L194.279 155.887ZM201.505 158.953V148.536H202.425V152.895H204.116V153.691H202.425V158.953H201.505ZM216.222 149.646V150.691C216.222 152 216.222 153.483 215.832 155.746L214.896 155.655C215.318 153.525 215.318 151.967 215.318 150.691V150.409H209.045V149.646H216.222ZM208.009 157.42V156.649H217.506V157.42H208.009ZM230.276 148.536V158.97H229.356V152.738H226.107V151.975H229.356V148.536H230.276ZM222.204 156.442V149.704H223.132V155.663C224.723 155.651 226.14 155.564 227.706 155.249L227.822 156.011C226.157 156.351 224.69 156.442 223.008 156.442H222.204ZM237.294 149.572V152.348H239.847V148.536H240.758V158.97H239.847V153.11H237.294V156.318H232.546V149.572H237.294ZM233.457 155.572H236.399V150.301H233.457V155.572ZM246.02 149.298C247.661 149.298 248.821 150.293 248.83 151.743C248.821 153.193 247.661 154.188 246.02 154.188C244.379 154.188 243.202 153.193 243.211 151.743C243.202 150.293 244.379 149.298 246.02 149.298ZM242.672 155.887C244.595 155.895 247.247 155.878 249.551 155.539L249.625 156.218C247.238 156.666 244.678 156.674 242.796 156.674L242.672 155.887ZM244.114 151.743C244.106 152.713 244.91 153.384 246.02 153.384C247.122 153.384 247.926 152.713 247.926 151.743C247.926 150.773 247.122 150.102 246.02 150.102C244.91 150.102 244.106 150.773 244.114 151.743ZM250.238 158.97V148.536H251.158V158.97H250.238ZM264.872 148.536V154.743H263.952V152.017H261.847V151.254H263.952V148.536H264.872ZM256.278 153.914C257.828 153.351 258.93 151.942 258.93 150.45V150.061H256.577V149.298H262.187V150.061H259.858V150.442C259.858 151.801 260.903 153.094 262.427 153.616L261.947 154.354C260.774 153.931 259.867 153.057 259.415 151.983C258.968 153.202 258.002 154.175 256.759 154.644L256.278 153.914ZM257.927 157.006C257.919 155.779 259.245 155.066 261.416 155.066C263.579 155.066 264.905 155.779 264.905 157.006C264.905 158.232 263.579 158.936 261.416 158.945C259.245 158.936 257.919 158.232 257.927 157.006ZM258.839 157.006C258.831 157.76 259.817 158.215 261.416 158.207C263.008 158.215 263.994 157.76 263.994 157.006C263.994 156.243 263.008 155.787 261.416 155.787C259.817 155.787 258.831 156.243 258.839 157.006ZM276.267 156.848V157.619H266.728V156.848H271.012V154.602H267.855V149.273H268.775V151.155H274.187V149.273H275.098V154.602H271.924V156.848H276.267ZM268.775 153.848H274.187V151.909H268.775V153.848ZM285.83 148.536V158.953H284.91V148.536H285.83ZM277.352 156.243C280.169 154.909 281.607 152.903 281.81 150.417H277.832V149.671H282.747C282.738 152.663 281.346 155.315 277.849 156.997L277.352 156.243ZM292.931 148.992C292.931 150.285 294.812 151.279 296.685 151.503L296.362 152.207C294.717 151.992 293.113 151.254 292.455 150.131C291.792 151.254 290.18 151.992 288.555 152.207L288.232 151.503C290.105 151.279 291.986 150.285 291.986 148.992V148.586H292.931V148.992ZM287.71 153.641V152.895H297.207V153.641H292.906V154.685H295.981V157.047H289.79V158.108H296.296V158.837H288.887V156.359H295.078V155.414H288.862V154.685H291.986V153.641H287.71ZM303.977 149.688V150.235C303.969 151.055 303.969 152.431 303.671 154.362L302.751 154.287C303.033 152.543 303.058 151.271 303.058 150.442H298.682V149.688H303.977ZM298.094 155.887C298.777 155.883 299.54 155.878 300.339 155.858V152.663H301.251V155.833C302.403 155.787 303.584 155.713 304.665 155.58L304.715 156.276C302.527 156.616 300.074 156.666 298.21 156.657L298.094 155.887ZM305.32 158.953V148.536H306.24V152.895H307.931V153.691H306.24V158.953H305.32ZM321.363 156.848V157.619H311.824V156.848H316.109V154.602H312.951V149.273H313.871V151.155H319.283V149.273H320.194V154.602H317.02V156.848H321.363ZM313.871 153.848H319.283V151.909H313.871V153.848ZM330.462 148.528V151.702H332.028V152.481H330.462V156.218H329.542V148.528H330.462ZM322.514 151.834C322.506 150.326 323.691 149.273 325.249 149.273C326.807 149.273 327.975 150.326 327.984 151.834C327.975 153.343 326.807 154.403 325.249 154.403C323.691 154.403 322.506 153.343 322.514 151.834ZM323.417 151.834C323.409 152.862 324.213 153.591 325.249 153.591C326.293 153.591 327.08 152.862 327.089 151.834C327.08 150.807 326.293 150.077 325.249 150.077C324.213 150.077 323.409 150.807 323.417 151.834ZM323.939 158.721V155.423H324.851V157.959H330.942V158.721H323.939ZM336.212 149.298C337.853 149.298 339.013 150.293 339.022 151.743C339.013 153.193 337.853 154.188 336.212 154.188C334.571 154.188 333.395 153.193 333.403 151.743C333.395 150.293 334.571 149.298 336.212 149.298ZM332.864 155.887C334.787 155.895 337.439 155.878 339.743 155.539L339.817 156.218C337.431 156.666 334.87 156.674 332.989 156.674L332.864 155.887ZM334.306 151.743C334.298 152.713 335.102 153.384 336.212 153.384C337.315 153.384 338.118 152.713 338.118 151.743C338.118 150.773 337.315 150.102 336.212 150.102C335.102 150.102 334.298 150.773 334.306 151.743ZM340.431 158.97V148.536H341.35V158.97H340.431ZM351.849 149.564V156.334H347.034V149.564H351.849ZM347.946 155.58H350.954V150.301H347.946V155.58ZM354.095 158.97V148.536H355.015V158.97H354.095ZM361.172 149.671V153.309H358.163V155.68C359.361 155.675 360.496 155.626 361.843 155.398L361.926 156.152C360.442 156.409 359.265 156.45 357.956 156.459H357.268V152.547H360.285V150.442H357.252V149.671H361.172ZM362.564 158.406V148.768H363.417V152.655H364.942V148.536H365.821V158.953H364.942V153.417H363.417V158.406H362.564ZM376.933 153.376V154.097H367.395V153.376H376.933ZM368.547 155.622V154.934H375.74V157.146H369.483V158.141H376.08V158.812H368.563V156.508H374.828V155.622H368.547ZM368.605 149.514V148.851H375.707V151.006H369.549V151.917H375.889V152.588H368.638V150.376H374.787V149.514H368.605ZM386.943 149.704V150.45H381.042V149.704H383.578V148.445H384.49V149.704H386.943ZM381.664 152.92C381.656 151.751 382.617 150.989 384.026 150.989C385.418 150.989 386.396 151.751 386.404 152.92C386.396 154.08 385.418 154.843 384.026 154.843C382.617 154.843 381.656 154.08 381.664 152.92ZM382.526 152.92C382.517 153.649 383.114 154.138 384.026 154.138C384.921 154.138 385.534 153.649 385.542 152.92C385.534 152.182 384.921 151.693 384.026 151.685C383.114 151.693 382.517 152.182 382.526 152.92ZM382.733 157.155C382.733 156.019 384.051 155.373 386.238 155.373C388.41 155.373 389.727 156.019 389.727 157.155C389.727 158.273 388.41 158.928 386.238 158.928C384.051 158.928 382.733 158.273 382.733 157.155ZM383.686 157.155C383.686 157.818 384.656 158.215 386.238 158.207C387.797 158.215 388.758 157.818 388.758 157.155C388.758 156.475 387.797 156.094 386.238 156.094C384.656 156.094 383.686 156.475 383.686 157.155ZM386.926 153.831V153.069H388.75V151.801H386.935V151.039H388.75V148.536H389.669V155.273H388.75V153.831H386.926ZM395.105 150.177C395.097 151.66 396.158 152.97 397.691 153.483L397.177 154.204C396.025 153.773 395.122 152.928 394.67 151.83C394.227 153.077 393.274 154.047 392.014 154.519L391.517 153.773C393.116 153.21 394.185 151.826 394.194 150.21V149.133H395.105V150.177ZM393.216 156.981C393.207 155.729 394.533 155.008 396.705 155.008C398.868 155.008 400.194 155.729 400.194 156.981C400.194 158.224 398.868 158.928 396.705 158.928C394.533 158.928 393.207 158.224 393.216 156.981ZM394.127 156.981C394.119 157.735 395.105 158.191 396.705 158.191C398.296 158.191 399.282 157.735 399.282 156.981C399.282 156.202 398.296 155.738 396.705 155.738C395.105 155.738 394.119 156.202 394.127 156.981ZM396.92 151.528V150.765H399.241V148.536H400.161V154.71H399.241V151.528H396.92ZM410.08 148.536V152.829H411.82V153.599H410.08V158.953H409.168V148.536H410.08ZM401.958 150.972V150.21H404.635V148.66H405.555V150.21H408.157V150.972H401.958ZM402.555 154.229C402.547 152.82 403.624 151.834 405.107 151.834C406.583 151.834 407.652 152.82 407.66 154.229C407.652 155.638 406.583 156.616 405.107 156.616C403.624 156.616 402.547 155.638 402.555 154.229ZM403.433 154.229C403.425 155.174 404.138 155.845 405.107 155.837C406.069 155.845 406.773 155.174 406.781 154.229C406.773 153.285 406.069 152.605 405.107 152.605C404.138 152.605 403.425 153.285 403.433 154.229ZM421.118 148.536V158.953H420.198V148.536H421.118ZM412.64 156.243C415.458 154.909 416.895 152.903 417.098 150.417H413.121V149.671H418.035C418.027 152.663 416.634 155.315 413.137 156.997L412.64 156.243ZM429.561 149.041C431.119 149.033 432.238 149.895 432.238 151.171C432.238 152.439 431.119 153.309 429.561 153.301C428.003 153.309 426.893 152.439 426.893 151.171C426.893 149.895 428.003 149.033 429.561 149.041ZM426.105 154.196C428.061 154.196 430.738 154.155 433.05 153.815L433.116 154.511C432.122 154.693 431.086 154.801 430.083 154.867V158.63H429.163V154.917C428.103 154.963 427.1 154.971 426.23 154.975L426.105 154.196ZM427.788 151.171C427.779 151.983 428.525 152.547 429.561 152.539C430.614 152.547 431.359 151.983 431.359 151.171C431.359 150.359 430.614 149.787 429.561 149.796C428.525 149.787 427.779 150.359 427.788 151.171ZM433.821 158.961V148.544H434.724V158.961H433.821ZM444.768 148.544V151.975H446.334V152.754H444.768V156.351H443.848V148.544H444.768ZM436.646 150.575V149.82H439.298V148.544H440.21V149.82H442.853V150.575H436.646ZM437.243 153.094C437.235 151.909 438.246 151.146 439.754 151.146C441.237 151.146 442.248 151.909 442.257 153.094C442.248 154.262 441.237 155.017 439.754 155.017C438.246 155.017 437.235 154.262 437.243 153.094ZM438.121 153.094C438.113 153.823 438.768 154.296 439.754 154.287C440.723 154.296 441.378 153.823 441.386 153.094C441.378 152.348 440.723 151.867 439.754 151.867C438.768 151.867 438.113 152.348 438.121 153.094ZM438.246 158.721V155.721H439.157V157.959H445.248V158.721H438.246ZM453.36 151.478C453.36 153.185 454.189 154.95 455.581 155.704L455.026 156.434C454.015 155.854 453.294 154.789 452.921 153.533C452.535 154.896 451.765 156.065 450.725 156.682L450.128 156.011C451.578 155.174 452.473 153.318 452.473 151.536V149.514H453.36V151.478ZM455.962 158.423V148.76H456.849V152.729H458.283V148.536H459.169V158.953H458.283V153.492H456.849V158.423H455.962ZM33.9613 175.881V176.66H24.4227V175.881H28.7072V173.917H25.616V170.702H31.8481V169.069H25.5912V168.307H32.7597V171.456H26.5276V173.155H33V173.917H29.6188V175.881H33.9613ZM44.4358 172.831V173.594H40.2093V175.724H39.2811V173.594H34.8972V172.831H44.4358ZM35.9828 169.898C35.9745 168.605 37.4331 167.809 39.6541 167.801C41.8834 167.809 43.3253 168.605 43.3253 169.898C43.3253 171.182 41.8834 171.978 39.6541 171.978C37.4331 171.978 35.9745 171.182 35.9828 169.898ZM36.132 177.721V174.68H37.0519V176.942H43.3751V177.721H36.132ZM36.9607 169.898C36.9524 170.71 38.0381 171.224 39.6541 171.224C41.2784 171.224 42.3557 170.71 42.3557 169.898C42.3557 169.069 41.2784 168.555 39.6541 168.555C38.0381 168.555 36.9524 169.069 36.9607 169.898ZM51.3211 168.34C52.8625 168.348 53.9482 169.757 53.9564 171.97C53.9482 174.191 52.8625 175.599 51.3211 175.599C49.7797 175.599 48.694 174.191 48.7023 171.97C48.694 169.757 49.7797 168.348 51.3211 168.34ZM49.5725 171.97C49.5725 173.669 50.2935 174.779 51.3211 174.779C52.3653 174.779 53.0697 173.669 53.0697 171.97C53.0697 170.279 52.3653 169.169 51.3211 169.16C50.2935 169.169 49.5725 170.279 49.5725 171.97ZM55.6802 177.953V167.536H56.6001V171.696H58.3404V172.483H56.6001V177.953H55.6802ZM67.6133 167.536V177.97H66.6934V167.536H67.6133ZM59.4172 171.97C59.4172 169.757 60.5194 168.348 62.0774 168.34C63.6188 168.348 64.7376 169.757 64.7376 171.97C64.7376 174.191 63.6188 175.599 62.0774 175.599C60.5194 175.599 59.4172 174.191 59.4172 171.97ZM60.3039 171.97C60.3039 173.669 61.0332 174.779 62.0774 174.779C63.1216 174.779 63.8426 173.669 63.8426 171.97C63.8426 170.279 63.1216 169.169 62.0774 169.16C61.0332 169.169 60.3039 170.279 60.3039 171.97ZM78.1044 167.536V177.97H77.1845V167.536H78.1044ZM70.1983 175.384V168.53H75.1541V169.301H71.1265V174.588C73.1527 174.588 74.4787 174.526 76.0408 174.24L76.1403 175.019C74.5243 175.309 73.1486 175.376 71.0436 175.384H70.1983ZM82.8109 168.34C84.2281 168.348 85.2516 169.566 85.3966 171.514H87.7336V167.536H88.6452V177.97H87.7336V172.276H85.4049C85.3054 174.319 84.2654 175.599 82.8109 175.599C81.2695 175.599 80.1922 174.191 80.2004 171.97C80.1922 169.757 81.2695 168.348 82.8109 168.34ZM81.0789 171.97C81.0789 173.669 81.7833 174.779 82.8109 174.779C83.8303 174.779 84.543 173.669 84.543 171.97C84.543 170.279 83.8303 169.169 82.8109 169.16C81.7833 169.169 81.0789 170.279 81.0789 171.97ZM93.6418 168.215C95.2413 168.224 96.4098 169.21 96.4181 170.66C96.4098 171.965 95.4609 172.898 94.1059 173.068V174.841C95.0797 174.796 96.0576 174.725 96.965 174.605L97.0313 175.301C94.8186 175.674 92.3573 175.699 90.5258 175.682L90.3683 174.912C91.2095 174.907 92.1791 174.903 93.186 174.874V173.072C91.7979 172.902 90.8573 171.97 90.8656 170.66C90.8573 169.21 92.0092 168.224 93.6418 168.215ZM91.7606 170.66C91.7523 171.638 92.5479 172.318 93.6418 172.309C94.7192 172.318 95.5065 171.638 95.5147 170.66C95.5065 169.682 94.7192 169.011 93.6418 169.003C92.5479 169.011 91.7523 169.682 91.7606 170.66ZM97.6363 177.953V167.536H98.5479V171.837H100.247V172.624H98.5479V177.953H97.6363ZM112.751 167.536V173.196H111.839V170.834H109.726V170.064H111.839V167.536H112.751ZM104.165 172.641C105.707 172.086 106.817 170.71 106.817 169.227V168.928H104.464V168.166H110.074V168.928H107.745V169.227C107.745 170.569 108.789 171.878 110.314 172.401L109.834 173.122C108.657 172.691 107.749 171.825 107.298 170.756C106.846 171.953 105.885 172.91 104.646 173.362L104.165 172.641ZM106.046 177.812V173.693H106.966V174.994H111.839V173.693H112.751V177.812H106.046ZM106.966 177.058H111.839V175.732H106.966V177.058ZM122.902 168.166V168.97C122.902 169.848 122.902 170.905 122.629 172.326H124.154V173.097H114.615V172.326H121.709C121.991 170.888 121.991 169.856 121.991 168.97V168.92H115.825V168.166H122.902ZM115.875 177.713V174.265H116.794V176.942H123.217V177.713H115.875ZM126.548 168.075V169.691H129.448V168.075H130.36V170.097H132.821V167.536H133.741V173.221H132.821V170.876H130.36V172.84H125.628V168.075H126.548ZM126.548 172.086H129.448V170.42H126.548V172.086ZM127.029 177.804V173.735H127.948V175.011H132.821V173.735H133.733V177.804H127.029ZM127.948 177.041H132.821V175.74H127.948V177.041ZM137.304 176.204L136.401 179.395H135.531L136.177 176.204H137.304ZM150.541 167.536V177.953H149.621V167.536H150.541ZM142.063 175.243C144.881 173.909 146.319 171.903 146.522 169.417H142.544V168.671H147.458C147.45 171.663 146.058 174.315 142.561 175.997L142.063 175.243ZM157.643 167.992C157.643 169.285 159.524 170.279 161.397 170.503L161.074 171.207C159.429 170.992 157.825 170.254 157.166 169.131C156.503 170.254 154.891 170.992 153.267 171.207L152.944 170.503C154.817 170.279 156.698 169.285 156.698 167.992V167.586H157.643V167.992ZM152.422 172.641V171.895H161.919V172.641H157.618V173.685H160.693V176.047H154.502V177.108H161.008V177.837H153.599V175.359H159.789V174.414H153.574V173.685H156.698V172.641H152.422ZM167.653 167.718C169.974 167.718 171.333 168.356 171.333 169.517C171.333 170.693 169.974 171.331 167.653 171.34C165.333 171.331 163.965 170.693 163.965 169.517C163.965 168.356 165.333 167.718 167.653 167.718ZM162.913 172.79V172.044H172.41V172.79H162.913ZM164.065 174.398V173.693H171.184V176.022H164.993V177.108H171.499V177.837H164.09V175.343H170.28V174.398H164.065ZM164.927 169.517C164.918 170.238 165.93 170.635 167.653 170.635C169.385 170.635 170.396 170.238 170.396 169.517C170.396 168.829 169.385 168.414 167.653 168.414C165.93 168.414 164.918 168.829 164.927 169.517ZM180.265 170.735C180.265 172.5 181.55 174.298 183.083 174.961L182.569 175.691C181.351 175.135 180.302 173.938 179.813 172.5C179.324 174.025 178.272 175.351 177.083 175.948L176.536 175.218C178.027 174.506 179.329 172.533 179.337 170.735V169.376H176.876V168.605H182.743V169.376H180.265V170.735ZM184.202 177.953V167.536H185.121V177.953H184.202ZM196.549 172.773V173.536H187.027V172.773H191.32V171.166H192.223V172.773H196.549ZM187.599 170.983C189.438 170.735 191.303 169.575 191.303 168.182V167.693H192.231V168.182C192.231 169.575 194.104 170.735 195.944 170.983L195.571 171.721C193.992 171.452 192.426 170.615 191.771 169.417C191.117 170.623 189.546 171.448 187.947 171.721L187.599 170.983ZM188.079 175.293V174.555H195.347V177.953H194.419V175.293H188.079ZM201.14 169.459C201.14 170.809 202.184 172.102 203.709 172.633L203.228 173.354C202.051 172.935 201.144 172.065 200.692 170.992C200.244 172.189 199.279 173.146 198.04 173.602L197.559 172.873C199.101 172.326 200.211 170.934 200.211 169.467V169.011H197.858V168.257H203.468V169.011H201.14V169.459ZM199.142 175.086V174.331H206.153V177.953H205.233V175.086H199.142ZM203.137 171.033V170.262H205.233V167.536H206.153V173.776H205.233V171.033H203.137ZM212.749 168.207C214.929 168.215 216.562 169.351 216.562 171.075C216.562 172.807 214.929 173.942 212.749 173.934C210.578 173.942 208.946 172.807 208.946 171.075C208.946 169.351 210.578 168.215 212.749 168.207ZM208.009 176.561V175.79H217.548V176.561H208.009ZM209.824 171.075C209.816 172.334 211.075 173.18 212.749 173.18C214.423 173.18 215.675 172.334 215.675 171.075C215.675 169.823 214.423 168.953 212.749 168.961C211.075 168.953 209.816 169.823 209.824 171.075ZM228.039 175.881V176.66H218.5V175.881H222.785V173.917H219.694V170.702H225.926V169.069H219.669V168.307H226.837V171.456H220.605V173.155H227.077V173.917H223.696V175.881H228.039ZM233.474 167.975V169.475H236.507V167.975H237.419V172.508H232.57V167.975H233.474ZM233.474 171.762H236.507V170.196H233.474V171.762ZM233.623 174.149V173.412H240.269V175.931H234.551V177.083H240.651V177.837H233.648V175.235H239.358V174.149H233.623ZM239.349 172.923V167.536H240.269V169.798H241.836V170.561H240.269V172.923H239.349ZM250.901 167.967V168.63C250.901 169.309 250.901 170.2 250.682 171.315H252.153V172.044H247.81V173.403H250.935V175.906H244.686V177.083H251.2V177.829H243.766V175.243H250.023V174.141H243.749V173.403H246.899V172.044H242.614V171.315H249.758C249.981 170.2 249.99 169.388 249.99 168.713H243.824V167.967H250.901ZM261.252 167.536V170.204H262.818V170.983H261.252V173.586H260.332V167.536H261.252ZM253.13 169.367V168.613H255.782V167.436H256.694V168.613H259.337V169.367H253.13ZM253.727 171.68C253.718 170.569 254.721 169.856 256.238 169.856C257.729 169.856 258.732 170.569 258.741 171.68C258.732 172.79 257.729 173.511 256.238 173.503C254.721 173.511 253.718 172.79 253.727 171.68ZM254.605 171.68C254.597 172.359 255.252 172.807 256.238 172.807C257.207 172.807 257.862 172.359 257.87 171.68C257.862 171.008 257.207 170.552 256.238 170.561C255.252 170.552 254.597 171.008 254.605 171.68ZM254.663 177.812V174.041H255.575V175.16H260.332V174.041H261.252V177.812H254.663ZM255.575 177.066H260.332V175.89H255.575V177.066ZM272.182 167.536V177.953H271.27V167.536H272.182ZM264.276 175.268V168.564H265.179V174.464C266.77 174.46 268.407 174.336 270.16 173.967L270.284 174.754C268.436 175.135 266.787 175.268 265.121 175.268H264.276ZM282.151 167.536V171.655H283.891V172.425H282.151V177.97H281.231V167.536H282.151ZM274.543 175.359V168.555H279.408V169.309H275.463V174.58C277.348 174.576 278.683 174.501 280.228 174.215L280.344 175.011C278.712 175.301 277.344 175.359 275.364 175.359H274.543ZM285.681 177.066C285.266 177.066 284.918 176.727 284.927 176.312C284.918 175.898 285.266 175.558 285.681 175.558C286.095 175.558 286.435 175.898 286.435 176.312C286.435 176.727 286.095 177.066 285.681 177.066Z" fill="white"/>
</svg>
