<svg width="488" height="202" viewBox="0 0 488 202" fill="none" xmlns="http://www.w3.org/2000/svg">
<rect width="488" height="202" rx="10" fill="white" fill-opacity="0.1"/>
<path d="M25.0469 36V24.6875H29.2969C31.8906 24.6875 33.2734 26.1406 33.2812 28.2969C33.2734 29.8359 32.5703 30.9766 31.2422 31.5156L33.6875 36H31.4219L29.2031 31.8594H27.0781V36H25.0469ZM27.0781 30.1562H28.9844C30.5156 30.1641 31.2031 29.5078 31.2031 28.2969C31.2031 27.0938 30.5156 26.3906 28.9844 26.3906H27.0781V30.1562ZM38.7381 36.1719C36.1834 36.1719 34.6131 34.4688 34.6131 31.8125C34.6131 29.1875 36.2069 27.4062 38.6287 27.4062C40.7069 27.4062 42.5037 28.7109 42.5037 31.6875V32.3125H36.5819C36.6131 33.7578 37.4647 34.6172 38.7537 34.6094C39.6287 34.6172 40.2147 34.2422 40.4725 33.7344H42.4256C42.0662 35.2031 40.7069 36.1719 38.7381 36.1719ZM36.5897 30.9531H40.5975C40.5897 29.7969 39.8084 28.9531 38.66 28.9531C37.4647 28.9531 36.66 29.875 36.5897 30.9531ZM49.0231 29.9375C48.8981 29.2969 48.3669 28.8828 47.5231 28.8906C46.6716 28.8828 46.0466 29.3125 46.0544 29.8906C46.0466 30.3281 46.3981 30.6562 47.2575 30.8594L48.695 31.1562C50.2966 31.5078 51.0778 32.25 51.0856 33.4688C51.0778 35.0625 49.6794 36.1719 47.4606 36.1719C45.3044 36.1719 44.0309 35.2031 43.82 33.5781H45.8512C45.9684 34.3047 46.5309 34.6641 47.4606 34.6562C48.4216 34.6641 49.0466 34.2734 49.0544 33.6406C49.0466 33.1484 48.6637 32.8359 47.82 32.6562L46.4606 32.3594C44.8825 32.0391 44.0622 31.2109 44.07 30C44.0622 28.4297 45.4216 27.4062 47.4919 27.4062C49.5153 27.4062 50.7653 28.3984 50.9137 29.9375H49.0231ZM52.7612 39.1875V27.5156H54.7144V28.9062H54.8394C55.1441 28.3047 55.7691 27.4062 57.2769 27.4062C59.23 27.4062 60.7691 28.9375 60.7769 31.7656C60.7691 34.5547 59.2769 36.1484 57.2769 36.1562C55.8159 36.1484 55.1519 35.2812 54.8394 34.6562H54.7612V39.1875H52.7612ZM54.7144 31.75C54.7222 33.4062 55.4409 34.5156 56.73 34.5156C58.0503 34.5156 58.7456 33.3516 58.7456 31.75C58.7456 30.1719 58.0659 29.0391 56.73 29.0312C55.4253 29.0391 54.7222 30.1016 54.7144 31.75ZM66.265 36.1719C63.7103 36.1719 62.14 34.4688 62.14 31.8125C62.14 29.1875 63.7337 27.4062 66.1556 27.4062C68.2337 27.4062 70.0306 28.7109 70.0306 31.6875V32.3125H64.1087C64.14 33.7578 64.9916 34.6172 66.2806 34.6094C67.1556 34.6172 67.7416 34.2422 67.9994 33.7344H69.9525C69.5931 35.2031 68.2337 36.1719 66.265 36.1719ZM64.1166 30.9531H68.1244C68.1166 29.7969 67.3353 28.9531 66.1869 28.9531C64.9916 28.9531 64.1869 29.875 64.1166 30.9531ZM75.4406 36.1719C72.9094 36.1719 71.3781 34.3594 71.3781 31.7969C71.3781 29.1953 72.9562 27.4062 75.4406 27.4062C77.4953 27.4062 78.9406 28.6094 79.0812 30.4375H77.175C77.0187 29.625 76.425 29.0078 75.4562 29C74.2219 29.0078 73.3937 30.0391 73.3937 31.75C73.3937 33.5 74.2062 34.5391 75.4562 34.5469C76.3391 34.5391 76.9953 34.0234 77.175 33.1094H79.0812C78.9328 34.8984 77.5734 36.1719 75.4406 36.1719ZM84.9756 27.5156V29.0469H83.3037V33.4531C83.3037 34.2656 83.71 34.4297 84.21 34.4375C84.4444 34.4453 84.835 34.4219 85.085 34.4062V36.0312C84.8506 36.0703 84.4678 36.1172 83.96 36.1094C82.46 36.1172 81.3037 35.375 81.3194 33.7812V29.0469H80.1006V27.5156H81.3194V25.4844H83.3037V27.5156H84.9756Z" fill="white"/>
<path d="M101.616 24.4855V25.5442H97.8985C97.9613 26.8881 99.7258 28.0725 102.008 28.3481L101.515 29.3923C99.4164 29.0974 97.6906 28.116 97.0283 26.7334C96.366 28.116 94.6499 29.0974 92.5518 29.3923L92.0732 28.3481C94.355 28.0725 96.1001 26.8833 96.1727 25.5442H92.4744V24.4855H101.616ZM91.4544 31.5048V30.4413H96.3902V28.5124H97.6664V30.4413H102.641V31.5048H91.4544ZM92.8612 35.9088V32.4137H94.1664V34.8453H101.365V35.9088H92.8612ZM114.861 29.5856V30.6443H109.911V31.8142C112.159 31.9351 113.488 32.6941 113.498 33.9751C113.488 35.3626 111.903 36.1409 109.263 36.1409C106.604 36.1409 105.014 35.3626 105.014 33.9751C105.014 32.6941 106.353 31.9351 108.625 31.8142V30.6443H103.694V29.5856H114.861ZM104.279 27.913C106.483 27.6906 108.224 26.6899 108.398 25.5055H104.714V24.4662H113.856V25.5055H110.153C110.312 26.6948 112.038 27.6906 114.291 27.913L113.822 28.9378C111.695 28.701 109.94 27.8066 109.268 26.5062C108.601 27.8018 106.856 28.701 104.729 28.9378L104.279 27.913ZM106.334 33.9751C106.324 34.7196 107.392 35.1499 109.263 35.1402C111.115 35.1499 112.193 34.7196 112.202 33.9751C112.193 33.221 111.115 32.8004 109.263 32.7907C107.392 32.8004 106.324 33.221 106.334 33.9751Z" fill="#AEAEAE"/>
<path d="M29.768 92.837C29.7597 94.1215 31.5083 95.174 33.3481 95.4144L32.9917 96.1602C31.3052 95.9033 29.7348 95.0622 29.1713 93.8398C28.6036 95.0622 27.0373 95.9033 25.3508 96.1602L25.0028 95.4144C26.8425 95.174 28.5746 94.1215 28.5746 92.837V92.8122H25.2928V92.0497H33.0663V92.8122H29.768V92.837ZM24.4227 97.9171V97.1547H28.7155V95.4144H29.6188V97.1547H33.9448V97.9171H24.4227ZM25.6492 101.721V98.7624H26.5773V100.959H32.8591V101.721H25.6492ZM44.411 96.4088V97.1713H40.1099V98.2818C42.074 98.3688 43.2342 99.011 43.2425 100.105C43.2342 101.273 41.8916 101.928 39.6541 101.928C37.3999 101.928 36.0574 101.273 36.0574 100.105C36.0574 99.011 37.2218 98.3688 39.1983 98.2818V97.1713H34.9137V96.4088H44.411ZM35.4524 95.0497C37.259 94.855 38.9994 93.9392 39.0657 92.7707H35.7839V92.0249H43.5574V92.7707H40.259C40.3171 93.9392 42.0408 94.855 43.8806 95.0497L43.5408 95.779C41.8295 95.5677 40.2342 94.8052 39.6624 93.645C39.0864 94.8052 37.4952 95.5677 35.7839 95.779L35.4524 95.0497ZM36.9939 100.105C36.9856 100.801 37.9883 101.215 39.6541 101.207C41.3115 101.215 42.3143 100.801 42.3226 100.105C42.3143 99.4006 41.3115 98.9945 39.6541 98.9862C37.9883 98.9945 36.9856 99.4006 36.9939 100.105ZM54.9021 97.0304V97.7762H45.4048V97.0304H54.9021ZM46.4573 93.9641C46.4573 92.663 47.891 91.8923 50.1452 91.9006C52.391 91.8923 53.8247 92.663 53.8247 93.9641C53.8247 95.2652 52.391 96.0442 50.1452 96.0442C47.891 96.0442 46.4573 95.2652 46.4573 93.9641ZM46.6314 101.721V98.6961H47.5595V100.959H53.8413V101.721H46.6314ZM47.4104 93.9641C47.4021 94.7928 48.4711 95.2901 50.1452 95.2901C51.8192 95.2901 52.8883 94.7928 52.8883 93.9641C52.8883 93.1519 51.8192 92.6464 50.1452 92.6464C48.4711 92.6464 47.4021 93.1519 47.4104 93.9641ZM67.9779 91.5359V101.953H67.0912V96.5331H65.6658V101.423H64.7956V91.7597H65.6658V95.7459H67.0912V91.5359H67.9779ZM58.9199 99.0939C60.4199 98.2652 61.2238 96.4917 61.2238 94.3785V93.5414H59.1685V92.779H64.0415V93.5414H62.1105V94.3785C62.1105 96.2845 62.8978 97.9669 64.3812 98.7293L63.8343 99.442C62.7818 98.866 62.0567 97.8425 61.6879 96.5663C61.3315 98.0166 60.5939 99.1519 59.5 99.7983L58.9199 99.0939ZM77.6652 91.5276V94.6354H79.2397V95.4061H77.6652V99.0773H76.7453V91.5276H77.6652ZM70.016 97.221V92.4392H74.6486V93.2017H70.9276V96.4503C73.016 96.4586 74.2094 96.3964 75.6016 96.1105L75.7176 96.8729C74.2508 97.1547 73.0077 97.2293 70.8198 97.221H70.016ZM71.1431 101.721V98.3149H72.0547V100.959H78.1458V101.721H71.1431ZM92.6637 96.8646V97.6271H88.4206V99.7569H87.509V97.6271H83.125V96.8646H92.6637ZM84.3515 101.721V98.7293H85.2714V100.959H91.6029V101.721H84.3515ZM84.3681 95.6713V92.0414H91.4206V95.6713H84.3681ZM85.2714 94.9337H90.509V92.779H85.2714V94.9337ZM101.713 91.5359V95.9696H103.379V96.7486H101.713V101.953H100.793V91.5359H101.713ZM93.5001 99.1768C94.3495 99.1727 95.344 99.1685 96.3757 99.1395V97.9917C95.1617 97.8467 94.3702 97.1381 94.3785 96.1022C94.3702 94.9254 95.3647 94.163 96.8398 94.163C98.2984 94.163 99.3094 94.9254 99.3177 96.1022C99.3094 97.1381 98.5056 97.8508 97.2956 97.9917V99.1022C98.2652 99.0566 99.2473 98.9779 100.155 98.8453L100.221 99.5414C97.942 99.9309 95.4807 99.9558 93.6575 99.9558L93.5001 99.1768ZM93.6907 93.558V92.8122H96.3757V91.5525H97.2956V92.8122H99.9724V93.558H93.6907ZM95.2404 96.1022C95.2404 96.8232 95.8785 97.2956 96.8398 97.2873C97.7929 97.2956 98.431 96.8232 98.431 96.1022C98.431 95.3729 97.7929 94.884 96.8398 94.884C95.8785 94.884 95.2404 95.3729 95.2404 96.1022ZM107.53 92.2983C109.171 92.2983 110.331 93.2928 110.339 94.7431C110.331 96.1934 109.171 97.1878 107.53 97.1878C105.889 97.1878 104.712 96.1934 104.72 94.7431C104.712 93.2928 105.889 92.2983 107.53 92.2983ZM104.182 98.8867C106.104 98.895 108.756 98.8785 111.06 98.5387L111.135 99.2182C108.748 99.6657 106.187 99.674 104.306 99.674L104.182 98.8867ZM105.624 94.7431C105.615 95.7127 106.419 96.384 107.53 96.384C108.632 96.384 109.436 95.7127 109.436 94.7431C109.436 93.7735 108.632 93.1022 107.53 93.1022C106.419 93.1022 105.615 93.7735 105.624 94.7431ZM111.748 101.97V91.5359H112.668V101.97H111.748ZM127.285 99.8646V100.635H117.747V99.8646H122.048V97.4779H122.951V99.8646H127.285ZM118.277 97.1215C120.287 96.7983 122.027 95.5843 122.039 93.9558H118.633V93.1934H122.048V91.7597H122.951V93.1934H126.365V93.9558H122.968C122.972 95.5843 124.712 96.7983 126.713 97.1215L126.357 97.8425C124.691 97.5525 123.162 96.7072 122.499 95.4019C121.84 96.7072 120.311 97.5525 118.642 97.8425L118.277 97.1215ZM131.793 93.2099C131.785 94.6436 132.854 95.9696 134.37 96.4917L133.865 97.2293C132.705 96.7983 131.801 95.9116 131.354 94.8011C130.91 96.0318 129.974 96.989 128.751 97.4696L128.254 96.7155C129.829 96.1519 130.873 94.7762 130.881 93.1685V92.0663H131.793V93.2099ZM129.862 99.011V98.2735H136.873V101.953H135.953V99.011H129.862ZM133.633 94.4945V93.7238H135.953V91.5359H136.873V97.6934H135.953V94.4945H133.633ZM147.331 91.5359V97.1215H146.411V91.5359H147.331ZM138.969 94.4365C138.969 93.011 140.121 92.0331 141.704 92.0414C143.287 92.0331 144.43 93.011 144.43 94.4365C144.43 95.8536 143.287 96.8315 141.704 96.8232C140.121 96.8315 138.969 95.8536 138.969 94.4365ZM139.872 94.4365C139.864 95.3895 140.635 96.0608 141.704 96.0608C142.765 96.0608 143.535 95.3895 143.535 94.4365C143.535 93.4834 142.765 92.8122 141.704 92.8204C140.635 92.8122 139.864 93.4834 139.872 94.4365ZM140.585 101.812V97.6519H141.488V98.9199H146.419V97.6519H147.331V101.812H140.585ZM141.488 101.058H146.419V99.6575H141.488V101.058ZM157.805 91.5359V101.953H156.894V91.5359H157.805ZM149.899 99.268V92.5635H150.803V98.4641C152.394 98.4599 154.031 98.3356 155.783 97.9669L155.908 98.7541C154.06 99.1354 152.41 99.268 150.745 99.268H149.899ZM167.774 91.5359V95.6547H169.515V96.4254H167.774V101.97H166.855V91.5359H167.774ZM160.167 99.3591V92.5552H165.031V93.3094H161.087V98.5801C162.972 98.576 164.306 98.5014 165.852 98.2155L165.968 99.011C164.335 99.3011 162.968 99.3591 160.987 99.3591H160.167ZM171.304 101.066C170.89 101.066 170.542 100.727 170.55 100.312C170.542 99.8978 170.89 99.558 171.304 99.558C171.719 99.558 172.058 99.8978 172.058 100.312C172.058 100.727 171.719 101.066 171.304 101.066ZM33.9448 116.503V117.282H29.6022V120.953H28.6989V117.282H24.4061V116.503H33.9448ZM25.4917 113.246C25.4917 111.837 26.9669 110.959 29.1547 110.95C31.3425 110.959 32.826 111.837 32.826 113.246C32.826 114.638 31.3425 115.517 29.1547 115.517C26.9669 115.517 25.4917 114.638 25.4917 113.246ZM26.4365 113.246C26.4282 114.174 27.5304 114.771 29.1547 114.771C30.779 114.771 31.8812 114.174 31.8812 113.246C31.8812 112.309 30.779 111.704 29.1547 111.704C27.5304 111.704 26.4282 112.309 26.4365 113.246ZM43.516 110.536V120.97H42.6044V110.536H43.516ZM35.5021 112.268V111.506H40.3502V115.21H36.4635V117.671C38.1914 117.667 39.7287 117.593 41.5933 117.29L41.6845 118.061C39.7701 118.367 38.1872 118.442 36.3889 118.442H35.5187V114.456H39.422V112.268H35.5021ZM53.8247 113.693V114.439H46.6977V110.917H47.6093V113.693H53.8247ZM45.3883 116.602V115.856H54.9269V116.602H45.3883ZM46.6314 120.696V117.663H47.543V119.934H53.891V120.696H46.6314ZM67.0912 110.536V114.655H68.8315V115.425H67.0912V120.97H66.1713V110.536H67.0912ZM59.4835 118.359V111.555H64.3481V112.309H60.4033V117.58C62.2887 117.576 63.623 117.501 65.1685 117.215L65.2846 118.011C63.652 118.301 62.2846 118.359 60.3039 118.359H59.4835ZM79.2066 112.11V112.873H77.6652V114.323H79.2066V115.102H77.6652V116.718H76.7453V110.536H77.6652V112.11H79.2066ZM69.7176 113.61C69.7094 112.16 70.8696 111.157 72.4524 111.166C74.0353 111.157 75.179 112.16 75.1873 113.61C75.179 115.061 74.0353 116.055 72.4524 116.064C70.8696 116.055 69.7094 115.061 69.7176 113.61ZM70.621 113.61C70.6127 114.597 71.3917 115.276 72.4524 115.285C73.5132 115.276 74.2839 114.597 74.2922 113.61C74.2839 112.633 73.5132 111.936 72.4524 111.945C71.3917 111.936 70.6127 112.633 70.621 113.61ZM70.8696 118.989C70.8696 117.754 72.1955 117.041 74.3254 117.033C76.4469 117.041 77.7563 117.754 77.7563 118.989C77.7563 120.207 76.4469 120.928 74.3254 120.928C72.1955 120.928 70.8696 120.207 70.8696 118.989ZM71.7895 118.989C71.7812 119.743 72.7508 120.182 74.3254 120.182C75.9 120.182 76.8613 119.743 76.8613 118.989C76.8613 118.235 75.9 117.787 74.3254 117.787C72.7508 117.787 71.7812 118.235 71.7895 118.989ZM83.59 112.177C83.5817 113.66 84.6424 114.97 86.1756 115.483L85.6618 116.204C84.5098 115.773 83.6065 114.928 83.1549 113.83C82.7115 115.077 81.7585 116.047 80.4988 116.519L80.0016 115.773C81.601 115.21 82.6701 113.826 82.6783 112.21V111.133H83.59V112.177ZM81.7004 118.981C81.6922 117.729 83.0181 117.008 85.1894 117.008C87.3524 117.008 88.6783 117.729 88.6783 118.981C88.6783 120.224 87.3524 120.928 85.1894 120.928C83.0181 120.928 81.6922 120.224 81.7004 118.981ZM82.6121 118.981C82.6038 119.735 83.59 120.191 85.1894 120.191C86.7806 120.191 87.7667 119.735 87.7667 118.981C87.7667 118.202 86.7806 117.738 85.1894 117.738C83.59 117.738 82.6038 118.202 82.6121 118.981ZM85.4049 113.528V112.765H87.7253V110.536H88.6452V116.71H87.7253V113.528H85.4049ZM95.2413 110.718C97.5617 110.718 98.9208 111.356 98.9208 112.517C98.9208 113.693 97.5617 114.331 95.2413 114.34C92.9208 114.331 91.5534 113.693 91.5534 112.517C91.5534 111.356 92.9208 110.718 95.2413 110.718ZM90.5009 115.79V115.044H99.9982V115.79H90.5009ZM91.6529 117.398V116.693H98.7716V119.022H92.581V120.108H99.0866V120.837H91.6777V118.343H97.8683V117.398H91.6529ZM92.5147 112.517C92.5065 113.238 93.5175 113.635 95.2413 113.635C96.9733 113.635 97.9844 113.238 97.9844 112.517C97.9844 111.829 96.9733 111.414 95.2413 111.414C93.5175 111.414 92.5065 111.829 92.5147 112.517ZM109.469 111.837C109.461 113.122 111.209 114.174 113.049 114.414L112.693 115.16C111.006 114.903 109.436 114.062 108.872 112.84C108.305 114.062 106.738 114.903 105.052 115.16L104.704 114.414C106.544 114.174 108.276 113.122 108.276 111.837V111.812H104.994V111.05H112.767V111.812H109.469V111.837ZM104.124 116.917V116.155H108.417V114.414H109.32V116.155H113.646V116.917H104.124ZM105.35 120.721V117.762H106.278V119.959H112.56V120.721H105.35ZM124.112 115.409V116.171H119.811V117.282C121.775 117.369 122.935 118.011 122.944 119.105C122.935 120.273 121.593 120.928 119.355 120.928C117.101 120.928 115.758 120.273 115.758 119.105C115.758 118.011 116.923 117.369 118.899 117.282V116.171H114.615V115.409H124.112ZM115.154 114.05C116.96 113.855 118.7 112.939 118.767 111.771H115.485V111.025H123.258V111.771H119.96C120.018 112.939 121.742 113.855 123.582 114.05L123.242 114.779C121.531 114.568 119.935 113.805 119.363 112.645C118.787 113.805 117.196 114.568 115.485 114.779L115.154 114.05ZM116.695 119.105C116.687 119.801 117.689 120.215 119.355 120.207C121.013 120.215 122.015 119.801 122.024 119.105C122.015 118.401 121.013 117.994 119.355 117.986C117.689 117.994 116.687 118.401 116.695 119.105ZM133.169 110.536V114.829H134.91V115.599H133.169V120.953H132.258V110.536H133.169ZM125.048 112.972V112.21H127.725V110.66H128.645V112.21H131.247V112.972H125.048ZM125.645 116.229C125.636 114.82 126.714 113.834 128.197 113.834C129.672 113.834 130.741 114.82 130.75 116.229C130.741 117.638 129.672 118.616 128.197 118.616C126.714 118.616 125.636 117.638 125.645 116.229ZM126.523 116.229C126.515 117.174 127.227 117.845 128.197 117.837C129.158 117.845 129.863 117.174 129.871 116.229C129.863 115.285 129.158 114.605 128.197 114.605C127.227 114.605 126.515 115.285 126.523 116.229ZM143.951 111.588V112.624C143.942 113.909 143.942 115.334 143.561 117.431L142.633 117.323C143.022 115.334 143.022 113.876 143.031 112.624V112.351H136.608V111.588H143.951ZM135.597 119.478V118.707H139.318V114.986H140.23V118.707H145.094V119.478H135.597ZM158.759 118.873V119.66H149.22V118.873H153.496V116.478H150.082V115.732H151.714V112.309H150.065V111.547H157.847V112.309H156.189V115.732H157.822V116.478H154.399V118.873H158.759ZM152.626 115.732H155.286V112.309H152.626V115.732ZM169.208 115.691V116.445H159.711V115.691H162.065V114.22C161.232 113.896 160.763 113.366 160.763 112.666C160.763 111.439 162.172 110.735 164.451 110.735C166.722 110.735 168.131 111.439 168.131 112.666C168.131 113.362 167.667 113.892 166.846 114.211V115.691H169.208ZM160.855 119.08C160.855 117.895 162.197 117.24 164.451 117.249C166.689 117.24 168.031 117.895 168.04 119.08C168.031 120.273 166.689 120.928 164.451 120.928C162.197 120.928 160.855 120.273 160.855 119.08ZM161.716 112.666C161.708 113.428 162.752 113.867 164.451 113.867C166.142 113.867 167.194 113.428 167.194 112.666C167.194 111.912 166.142 111.456 164.451 111.456C162.752 111.456 161.708 111.912 161.716 112.666ZM161.791 119.08C161.783 119.793 162.786 120.215 164.451 120.207C166.109 120.215 167.111 119.793 167.12 119.08C167.111 118.376 166.109 117.961 164.451 117.953C162.786 117.961 161.783 118.376 161.791 119.08ZM162.984 115.691H165.935V114.46C165.495 114.539 164.998 114.58 164.451 114.58C163.913 114.58 163.419 114.543 162.984 114.464V115.691ZM178.266 110.536V114.829H180.006V115.599H178.266V120.953H177.354V110.536H178.266ZM170.144 112.972V112.21H172.821V110.66H173.741V112.21H176.343V112.972H170.144ZM170.741 116.229C170.732 114.82 171.81 113.834 173.293 113.834C174.768 113.834 175.837 114.82 175.846 116.229C175.837 117.638 174.768 118.616 173.293 118.616C171.81 118.616 170.732 117.638 170.741 116.229ZM171.619 116.229C171.611 117.174 172.324 117.845 173.293 117.837C174.255 117.845 174.959 117.174 174.967 116.229C174.959 115.285 174.255 114.605 173.293 114.605C172.324 114.605 171.611 115.285 171.619 116.229ZM185.864 111.572V113.039H188.417V110.536H189.328V120.97H188.417V116.669H185.864V118.318H181.116V111.572H185.864ZM182.027 117.572H184.969V112.301H182.027V117.572ZM185.864 115.914H188.417V113.801H185.864V115.914ZM203.855 118.84V119.61H194.316V118.84H198.6V116.296H195.443V111.406H202.67V116.296H199.512V118.84H203.855ZM196.338 115.558H201.774V112.152H196.338V115.558ZM214.313 115.798V116.544H204.807V115.798H214.313ZM206.009 114.646V110.992H213.127V111.738H206.929V113.884H213.219V114.646H206.009ZM206.034 120.713V117.671H206.945V119.942H213.301V120.713H206.034ZM227.322 110.536V120.953H226.427V115.5H224.977V120.431H224.107V110.818H224.977V114.738H226.427V110.536H227.322ZM218.438 118.061C220.866 116.71 221.861 114.804 222.014 112.649H218.836V111.887H222.913C222.905 114.539 221.977 117.041 218.977 118.715L218.438 118.061ZM237.523 110.544V118.16H236.603V110.544H237.523ZM229.161 113.826C229.161 112.326 230.338 111.273 231.896 111.273C233.454 111.273 234.623 112.326 234.623 113.826C234.623 115.343 233.454 116.395 231.896 116.387C230.338 116.395 229.161 115.343 229.161 113.826ZM230.065 113.826C230.056 114.862 230.844 115.583 231.896 115.583C232.932 115.583 233.728 114.862 233.728 113.826C233.728 112.807 232.932 112.077 231.896 112.077C230.844 112.077 230.056 112.807 230.065 113.826ZM230.794 120.721V117.381H231.714V119.959H237.846V120.721H230.794ZM242.818 111.298C244.459 111.298 245.619 112.293 245.628 113.743C245.619 115.193 244.459 116.188 242.818 116.188C241.177 116.188 240 115.193 240.009 113.743C240 112.293 241.177 111.298 242.818 111.298ZM239.47 117.887C241.393 117.895 244.045 117.878 246.348 117.539L246.423 118.218C244.036 118.666 241.476 118.674 239.594 118.674L239.47 117.887ZM240.912 113.743C240.904 114.713 241.708 115.384 242.818 115.384C243.92 115.384 244.724 114.713 244.724 113.743C244.724 112.773 243.92 112.102 242.818 112.102C241.708 112.102 240.904 112.773 240.912 113.743ZM247.036 120.97V110.536H247.956V120.97H247.036ZM261.645 110.536V120.953H260.725V110.536H261.645ZM253.167 118.243C255.985 116.909 257.423 114.903 257.626 112.417H253.648V111.671H258.562C258.554 114.663 257.162 117.315 253.665 118.997L253.167 118.243ZM266.327 111.34C267.284 111.344 268.063 111.903 268.511 112.865H271.25V110.536H272.161V120.97H271.25V116.925H268.577C268.142 117.982 267.334 118.599 266.327 118.599C264.786 118.599 263.708 117.191 263.717 114.97C263.708 112.757 264.786 111.348 266.327 111.34ZM264.595 114.97C264.595 116.669 265.299 117.779 266.327 117.779C267.346 117.779 268.059 116.669 268.059 114.97C268.059 113.279 267.346 112.169 266.327 112.16C265.299 112.169 264.595 113.279 264.595 114.97ZM268.776 113.635C268.875 114.037 268.929 114.485 268.929 114.97C268.929 115.401 268.888 115.798 268.809 116.163H271.25V113.635H268.776ZM283.539 115.376V116.097H274V115.376H283.539ZM275.152 117.622V116.934H282.346V119.146H276.089V120.141H282.686V120.812H275.169V118.508H281.434V117.622H275.152ZM275.21 111.514V110.851H282.313V113.006H276.155V113.917H282.495V114.588H275.244V112.376H281.393V111.514H275.21ZM297.179 118.823V119.586H287.64V118.823H291.908V116.279H292.811V118.823H297.179ZM288.013 115.633C289.836 115.318 291.866 113.793 291.875 112.044V111.24H292.836V112.044C292.836 113.785 294.891 115.318 296.714 115.633L296.3 116.395C294.713 116.064 293.039 114.99 292.359 113.49C291.676 114.986 290.014 116.064 288.427 116.395L288.013 115.633ZM307.628 115.409V116.171H303.327V117.282C305.291 117.369 306.451 118.011 306.46 119.105C306.451 120.273 305.109 120.928 302.871 120.928C300.617 120.928 299.275 120.273 299.275 119.105C299.275 118.011 300.439 117.369 302.415 117.282V116.171H298.131V115.409H307.628ZM298.67 114.05C300.476 113.855 302.217 112.939 302.283 111.771H299.001V111.025H306.775V111.771H303.476C303.534 112.939 305.258 113.855 307.098 114.05L306.758 114.779C305.047 114.568 303.451 113.805 302.88 112.645C302.304 113.805 300.712 114.568 299.001 114.779L298.67 114.05ZM300.211 119.105C300.203 119.801 301.206 120.215 302.871 120.207C304.529 120.215 305.531 119.801 305.54 119.105C305.531 118.401 304.529 117.994 302.871 117.986C301.206 117.994 300.203 118.401 300.211 119.105ZM317.208 110.536V120.953H316.288V110.536H317.208ZM308.854 112.981V112.227H311.539V110.635H312.467V112.227H315.161V112.981H308.854ZM309.442 116.229C309.434 114.82 310.52 113.834 312.028 113.834C313.528 113.834 314.614 114.82 314.614 116.229C314.614 117.638 313.528 118.616 312.028 118.616C310.52 118.616 309.434 117.638 309.442 116.229ZM310.313 116.229C310.313 117.174 311.034 117.845 312.028 117.837C313.014 117.845 313.735 117.174 313.735 116.229C313.735 115.285 313.014 114.605 312.028 114.605C311.034 114.605 310.313 115.285 310.313 116.229ZM325.046 111.34C326.003 111.344 326.782 111.903 327.23 112.865H329.969V110.536H330.88V120.97H329.969V116.925H327.296C326.861 117.982 326.053 118.599 325.046 118.599C323.504 118.599 322.427 117.191 322.435 114.97C322.427 112.757 323.504 111.348 325.046 111.34ZM323.314 114.97C323.314 116.669 324.018 117.779 325.046 117.779C326.065 117.779 326.778 116.669 326.778 114.97C326.778 113.279 326.065 112.169 325.046 112.16C324.018 112.169 323.314 113.279 323.314 114.97ZM327.495 113.635C327.594 114.037 327.648 114.485 327.648 114.97C327.648 115.401 327.607 115.798 327.528 116.163H329.969V113.635H327.495ZM341.322 110.536V116.196H340.418V110.536H341.322ZM332.902 115.533C335.595 114.941 337.074 113.635 337.236 111.912H333.424V111.157H338.247C338.239 113.793 336.432 115.533 333.233 116.279L332.902 115.533ZM334.559 120.812V116.652H335.487V117.97H340.427V116.652H341.322V120.812H334.559ZM335.487 120.058H340.427V118.707H335.487V120.058ZM351.813 110.536V120.953H350.901V110.536H351.813ZM343.907 118.268V111.564H344.81V117.464C346.401 117.46 348.038 117.336 349.791 116.967L349.915 117.754C348.067 118.135 346.418 118.268 344.752 118.268H343.907ZM361.782 110.536V114.655H363.522V115.425H361.782V120.97H360.862V110.536H361.782ZM354.174 118.359V111.555H359.039V112.309H355.094V117.58C356.979 117.576 358.313 117.501 359.859 117.215L359.975 118.011C358.342 118.301 356.975 118.359 354.994 118.359H354.174ZM365.311 120.066C364.897 120.066 364.549 119.727 364.557 119.312C364.549 118.898 364.897 118.558 365.311 118.558C365.726 118.558 366.066 118.898 366.066 119.312C366.066 119.727 365.726 120.066 365.311 120.066ZM379.446 110.536V120.953H378.56V115.533H377.134V120.423H376.264V110.76H377.134V114.746H378.56V110.536H379.446ZM370.388 118.094C371.888 117.265 372.692 115.492 372.692 113.378V112.541H370.637V111.779H375.51V112.541H373.579V113.378C373.579 115.285 374.366 116.967 375.85 117.729L375.303 118.442C374.25 117.866 373.525 116.843 373.156 115.566C372.8 117.017 372.062 118.152 370.968 118.798L370.388 118.094ZM389.134 110.528V113.635H390.708V114.406H389.134V118.077H388.214V110.528H389.134ZM381.484 116.221V111.439H386.117V112.202H382.396V115.45C384.484 115.459 385.678 115.396 387.07 115.11L387.186 115.873C385.719 116.155 384.476 116.229 382.288 116.221H381.484ZM382.612 120.721V117.315H383.523V119.959H389.614V120.721H382.612ZM400.976 116.03V116.776H391.478V116.03H400.976ZM392.531 112.964C392.531 111.663 393.964 110.892 396.219 110.901C398.464 110.892 399.898 111.663 399.898 112.964C399.898 114.265 398.464 115.044 396.219 115.044C393.964 115.044 392.531 114.265 392.531 112.964ZM392.705 120.721V117.696H393.633V119.959H399.915V120.721H392.705ZM393.484 112.964C393.476 113.793 394.545 114.29 396.219 114.29C397.893 114.29 398.962 113.793 398.962 112.964C398.962 112.152 397.893 111.646 396.219 111.646C394.545 111.646 393.476 112.152 393.484 112.964ZM414.623 116.503V117.282H410.281V120.953H409.377V117.282H405.085V116.503H414.623ZM406.17 113.246C406.17 111.837 407.645 110.959 409.833 110.95C412.021 110.959 413.504 111.837 413.504 113.246C413.504 114.638 412.021 115.517 409.833 115.517C407.645 115.517 406.17 114.638 406.17 113.246ZM407.115 113.246C407.107 114.174 408.209 114.771 409.833 114.771C411.457 114.771 412.56 114.174 412.56 113.246C412.56 112.309 411.457 111.704 409.833 111.704C408.209 111.704 407.107 112.309 407.115 113.246ZM424.194 110.536V120.97H423.283V110.536H424.194ZM416.181 112.268V111.506H421.029V115.21H417.142V117.671C418.87 117.667 420.407 117.593 422.272 117.29L422.363 118.061C420.449 118.367 418.866 118.442 417.067 118.442H416.197V114.456H420.1V112.268H416.181ZM429.489 111.298C431.13 111.298 432.29 112.293 432.299 113.743C432.29 115.193 431.13 116.188 429.489 116.188C427.848 116.188 426.672 115.193 426.68 113.743C426.672 112.293 427.848 111.298 429.489 111.298ZM426.141 117.887C428.064 117.895 430.716 117.878 433.02 117.539L433.094 118.218C430.708 118.666 428.147 118.674 426.266 118.674L426.141 117.887ZM427.583 113.743C427.575 114.713 428.379 115.384 429.489 115.384C430.592 115.384 431.395 114.713 431.395 113.743C431.395 112.773 430.592 112.102 429.489 112.102C428.379 112.102 427.575 112.773 427.583 113.743ZM433.708 120.97V110.536H434.627V120.97H433.708ZM443.46 112.251C443.46 113.61 444.587 114.82 446.137 115.293L445.673 116.014C444.451 115.628 443.473 114.791 443 113.714C442.544 114.866 441.562 115.769 440.311 116.196L439.839 115.467C441.405 114.97 442.524 113.685 442.532 112.251V111.986H440.096V111.232H445.855V111.986H443.46V112.251ZM441.562 120.812V116.685H442.466V117.945H447.397V116.685H448.308V120.812H441.562ZM442.466 120.058H447.397V118.682H442.466V120.058ZM447.388 116.171V110.536H448.308V116.171H447.388ZM458.344 110.528V113.635H459.918V114.406H458.344V118.077H457.424V110.528H458.344ZM450.694 116.221V111.439H455.327V112.202H451.606V115.45C453.694 115.459 454.888 115.396 456.28 115.11L456.396 115.873C454.929 116.155 453.686 116.229 451.498 116.221H450.694ZM451.821 120.721V117.315H452.733V119.959H458.824V120.721H451.821ZM28.0442 131.459C28.0442 132.809 29.0884 134.102 30.6133 134.633L30.1326 135.354C28.9558 134.935 28.0483 134.065 27.5967 132.992C27.1492 134.189 26.1837 135.146 24.9448 135.602L24.4641 134.873C26.0055 134.326 27.116 132.934 27.116 131.467V131.011H24.7624V130.257H30.3729V131.011H28.0442V131.459ZM26.047 137.086V136.331H33.058V139.953H32.1381V137.086H26.047ZM30.0414 133.033V132.262H32.1381V129.536H33.058V135.776H32.1381V133.033H30.0414ZM40.8466 130.34C41.8038 130.344 42.5828 130.903 43.0303 131.865H45.7692V129.536H46.6808V139.97H45.7692V135.925H43.0966C42.6615 136.982 41.8535 137.599 40.8466 137.599C39.3051 137.599 38.2278 136.191 38.2361 133.97C38.2278 131.757 39.3051 130.348 40.8466 130.34ZM39.1145 133.97C39.1145 135.669 39.8189 136.779 40.8466 136.779C41.8659 136.779 42.5786 135.669 42.5786 133.97C42.5786 132.279 41.8659 131.169 40.8466 131.16C39.8189 131.169 39.1145 132.279 39.1145 133.97ZM43.2955 132.635C43.3949 133.037 43.4488 133.485 43.4488 133.97C43.4488 134.401 43.4073 134.798 43.3286 135.163H45.7692V132.635H43.2955ZM57.1719 129.536V135.743H56.252V133.017H54.1471V132.254H56.252V129.536H57.1719ZM48.578 134.914C50.1277 134.351 51.2299 132.942 51.2299 131.45V131.061H48.8763V130.298H54.4868V131.061H52.1581V131.442C52.1581 132.801 53.2023 134.094 54.7272 134.616L54.2465 135.354C53.0739 134.931 52.1664 134.057 51.7147 132.983C51.2672 134.202 50.3018 135.175 49.0587 135.644L48.578 134.914ZM50.2272 138.006C50.2189 136.779 51.5448 136.066 53.7161 136.066C55.8791 136.066 57.2051 136.779 57.2051 138.006C57.2051 139.232 55.8791 139.936 53.7161 139.945C51.5448 139.936 50.2189 139.232 50.2272 138.006ZM51.1388 138.006C51.1305 138.76 52.1167 139.215 53.7161 139.207C55.3073 139.215 56.2935 138.76 56.2935 138.006C56.2935 137.243 55.3073 136.787 53.7161 136.787C52.1167 136.787 51.1305 137.243 51.1388 138.006ZM63.768 129.718C66.0884 129.718 67.4475 130.356 67.4475 131.517C67.4475 132.693 66.0884 133.331 63.768 133.34C61.4475 133.331 60.0801 132.693 60.0801 131.517C60.0801 130.356 61.4475 129.718 63.768 129.718ZM59.0277 134.79V134.044H68.5249V134.79H59.0277ZM60.1796 136.398V135.693H67.2984V138.022H61.1078V139.108H67.6133V139.837H60.2044V137.343H66.3951V136.398H60.1796ZM61.0415 131.517C61.0332 132.238 62.0442 132.635 63.768 132.635C65.5 132.635 66.5111 132.238 66.5111 131.517C66.5111 130.829 65.5 130.414 63.768 130.414C62.0442 130.414 61.0332 130.829 61.0415 131.517ZM82.1477 134.616V135.37H77.8466V136.381C79.8148 136.464 80.9709 137.081 80.9792 138.155C80.9709 139.298 79.6367 139.928 77.3908 139.928C75.1367 139.928 73.8024 139.298 73.8024 138.155C73.8024 137.081 74.9626 136.46 76.9433 136.381V135.37H72.6505V134.616H82.1477ZM73.5372 130.696V129.925H81.2361V130.696H79.6367V132.884H81.203V133.646H73.5704V132.884H75.1449V130.696H73.5372ZM74.7306 138.155C74.7306 138.834 75.7251 139.224 77.3908 139.215C79.0483 139.224 80.0427 138.834 80.0427 138.155C80.0427 137.475 79.0483 137.086 77.3908 137.086C75.7251 137.086 74.7306 137.475 74.7306 138.155ZM76.0565 132.884H78.7168V130.696H76.0565V132.884ZM92.6802 137.84V138.61H83.1416V137.84H85.5034V135.03C84.6167 134.566 84.078 133.816 84.078 132.876C84.078 131.26 85.6609 130.199 87.8819 130.191C90.1112 130.199 91.694 131.26 91.694 132.876C91.694 133.804 91.1719 134.541 90.3101 135.006V137.84H92.6802ZM84.9648 132.876C84.9648 134.036 86.1747 134.815 87.8819 134.815C89.5808 134.815 90.8073 134.036 90.8073 132.876C90.8073 131.707 89.5808 130.936 87.8819 130.945C86.1747 130.936 84.9648 131.707 84.9648 132.876ZM86.4068 137.84H89.3819V135.366C88.9302 135.482 88.4247 135.544 87.8819 135.544C87.3474 135.544 86.8543 135.482 86.4068 135.37V137.84ZM103.155 134.873V135.627H93.6161V134.873H97.9338V133.87H94.8592V131.442H101.008V130.481H94.826V129.76H101.928V132.138H95.7708V133.141H102.152V133.87H98.8371V134.873H103.155ZM94.9006 139.812V136.149H95.8205V137.177H101.025V136.149H101.928V139.812H94.9006ZM95.8205 139.075H101.025V137.898H95.8205V139.075ZM113.041 129.536V139.953H112.162V129.536H113.041ZM104.132 137.036C106.394 135.693 107.53 133.812 107.704 131.633H104.58V130.862H108.624C108.62 131.89 108.458 132.884 108.102 133.812H109.975V129.818H110.853V139.423H109.975V134.558H107.762C107.132 135.768 106.125 136.841 104.671 137.699L104.132 137.036ZM125.81 129.536V133.829H127.55V134.599H125.81V139.953H124.898V129.536H125.81ZM117.689 131.972V131.21H120.365V129.66H121.285V131.21H123.887V131.972H117.689ZM118.285 135.229C118.277 133.82 119.354 132.834 120.838 132.834C122.313 132.834 123.382 133.82 123.39 135.229C123.382 136.638 122.313 137.616 120.838 137.616C119.354 137.616 118.277 136.638 118.285 135.229ZM119.164 135.229C119.155 136.174 119.868 136.845 120.838 136.837C121.799 136.845 122.503 136.174 122.512 135.229C122.503 134.285 121.799 133.605 120.838 133.605C119.868 133.605 119.155 134.285 119.164 135.229ZM136.658 132.693V133.439H129.53V129.917H130.442V132.693H136.658ZM128.221 135.602V134.856H137.76V135.602H128.221ZM129.464 139.696V136.663H130.376V138.934H136.724V139.696H129.464ZM151.358 134.732V135.486H141.86V134.732H146.153V133.472H143.062V129.959H150.181V130.713H143.982V132.702H150.272V133.472H147.065V134.732H151.358ZM142.913 137.26V136.506H150.189V140.028H149.278V137.26H142.913ZM161.849 135.047V135.785H152.335V135.047H161.849ZM153.404 137.55V136.804H160.614V139.953H159.678V137.55H153.404ZM153.603 134.044V129.818H160.664V130.555H154.531V131.541H160.382V132.262H154.531V133.323H160.722V134.044H153.603ZM170.989 129.544V132.975H172.555V133.754H170.989V137.351H170.069V129.544H170.989ZM162.868 131.575V130.82H165.519V129.544H166.431V130.82H169.075V131.575H162.868ZM163.464 134.094C163.456 132.909 164.467 132.146 165.975 132.146C167.459 132.146 168.47 132.909 168.478 134.094C168.47 135.262 167.459 136.017 165.975 136.017C164.467 136.017 163.456 135.262 163.464 134.094ZM164.343 134.094C164.334 134.823 164.989 135.296 165.975 135.287C166.945 135.296 167.6 134.823 167.608 134.094C167.6 133.348 166.945 132.867 165.975 132.867C164.989 132.867 164.334 133.348 164.343 134.094ZM164.467 139.721V136.721H165.379V138.959H171.47V139.721H164.467ZM182.242 130.34V130.895C182.233 131.575 182.233 132.61 181.968 133.978L181.048 133.903C181.301 132.652 181.326 131.769 181.334 131.11H177.046V130.34H182.242ZM176.407 134.948C177.079 134.943 177.841 134.939 178.645 134.919V132.652H179.557V134.89C180.713 134.84 181.906 134.757 182.988 134.608L183.046 135.287C180.866 135.66 178.355 135.702 176.499 135.71L176.407 134.948ZM178.015 139.721V136.663H178.935V138.959H184.968V139.721H178.015ZM183.7 137.376V129.536H184.628V132.925H186.153V133.713H184.628V137.376H183.7ZM195.592 129.536V135.635H194.672V132.917H192.559V132.146H194.672V129.536H195.592ZM186.998 134.807C188.539 134.26 189.65 132.867 189.65 131.384V130.978H187.296V130.207H192.907V130.978H190.578V131.384C190.578 132.727 191.622 134.028 193.147 134.566L192.667 135.296C191.49 134.873 190.582 133.999 190.131 132.921C189.679 134.123 188.718 135.076 187.479 135.528L186.998 134.807ZM188.78 139.812V136.149H195.592V139.812H188.78ZM189.7 139.058H194.689V136.887H189.7V139.058ZM203.224 130.688V131.235C203.216 132.055 203.216 133.431 202.917 135.362L201.997 135.287C202.279 133.543 202.304 132.271 202.304 131.442H197.928V130.688H203.224ZM197.34 136.887C198.024 136.883 198.786 136.878 199.586 136.858V133.663H200.497V136.833C201.649 136.787 202.83 136.713 203.912 136.58L203.961 137.276C201.774 137.616 199.321 137.666 197.456 137.657L197.34 136.887ZM204.566 139.953V129.536H205.486V133.895H207.177V134.691H205.486V139.953H204.566ZM219.706 129.544V135.801H218.786V134.392H216.01V133.63H218.786V132.221H216.122C215.438 133.903 213.83 135.117 211.593 135.776L211.211 135.047C213.722 134.309 215.297 132.892 215.488 131.086H211.742V130.315H216.482C216.482 130.721 216.436 131.115 216.354 131.483H218.786V129.544H219.706ZM212.811 137.898C212.811 136.655 214.162 135.909 216.3 135.909C218.405 135.909 219.764 136.655 219.764 137.898C219.764 139.149 218.405 139.903 216.3 139.903C214.162 139.903 212.811 139.149 212.811 137.898ZM213.722 137.898C213.722 138.685 214.725 139.157 216.3 139.157C217.841 139.157 218.844 138.685 218.852 137.898C218.844 137.11 217.841 136.638 216.3 136.646C214.725 136.638 213.722 137.11 213.722 137.898ZM230.197 129.536V135.851H229.277V133.472H227.504V132.702H229.277V129.536H230.197ZM221.57 131.384V130.63H224.164V129.436H225.067V130.63H227.653V131.384H221.57ZM222.191 133.779C222.191 132.685 223.194 131.923 224.611 131.923C226.028 131.923 227.023 132.685 227.031 133.779C227.023 134.898 226.028 135.635 224.611 135.635C223.194 135.635 222.191 134.898 222.191 133.779ZM223.078 133.779C223.07 134.467 223.7 134.923 224.611 134.931C225.515 134.923 226.144 134.467 226.144 133.779C226.144 133.108 225.515 132.635 224.611 132.635C223.7 132.635 223.07 133.108 223.078 133.779ZM223.385 139.812V136.406H230.197V139.812H223.385ZM224.305 139.058H229.294V137.144H224.305V139.058ZM236.793 129.718C239.113 129.718 240.473 130.356 240.473 131.517C240.473 132.693 239.113 133.331 236.793 133.34C234.473 133.331 233.105 132.693 233.105 131.517C233.105 130.356 234.473 129.718 236.793 129.718ZM232.053 134.79V134.044H241.55V134.79H232.053ZM233.205 136.398V135.693H240.323V138.022H234.133V139.108H240.638V139.837H233.229V137.343H239.42V136.398H233.205ZM234.066 131.517C234.058 132.238 235.069 132.635 236.793 132.635C238.525 132.635 239.536 132.238 239.536 131.517C239.536 130.829 238.525 130.414 236.793 130.414C235.069 130.414 234.058 130.829 234.066 131.517ZM254.278 129.544V137.16H253.358V129.544H254.278ZM245.916 132.826C245.916 131.326 247.093 130.273 248.651 130.273C250.209 130.273 251.377 131.326 251.377 132.826C251.377 134.343 250.209 135.395 248.651 135.387C247.093 135.395 245.916 134.343 245.916 132.826ZM246.819 132.826C246.811 133.862 247.598 134.583 248.651 134.583C249.687 134.583 250.482 133.862 250.482 132.826C250.482 131.807 249.687 131.077 248.651 131.077C247.598 131.077 246.811 131.807 246.819 132.826ZM247.548 139.721V136.381H248.468V138.959H254.601V139.721H247.548ZM259.854 131.044C259.846 132.561 260.948 133.912 262.498 134.45L262.026 135.18C260.816 134.736 259.863 133.837 259.394 132.677C258.939 133.916 257.977 134.89 256.747 135.362L256.266 134.641C257.832 134.061 258.918 132.619 258.918 131.044V130.041H259.854V131.044ZM257.758 137.086V136.331H264.769V139.953H263.849V137.086H257.758ZM263.849 135.809V129.536H264.769V135.809H263.849ZM274.721 129.536V133.829H276.462V134.599H274.721V139.953H273.81V129.536H274.721ZM266.6 131.972V131.21H269.276V129.66H270.196V131.21H272.799V131.972H266.6ZM267.196 135.229C267.188 133.82 268.265 132.834 269.749 132.834C271.224 132.834 272.293 133.82 272.301 135.229C272.293 136.638 271.224 137.616 269.749 137.616C268.265 137.616 267.188 136.638 267.196 135.229ZM268.075 135.229C268.066 136.174 268.779 136.845 269.749 136.837C270.71 136.845 271.415 136.174 271.423 135.229C271.415 134.285 270.71 133.605 269.749 133.605C268.779 133.605 268.066 134.285 268.075 135.229ZM282.32 130.572V132.039H284.872V129.536H285.784V139.97H284.872V135.669H282.32V137.318H277.571V130.572H282.32ZM278.483 136.572H281.425V131.301H278.483V136.572ZM282.32 134.914H284.872V132.801H282.32V134.914ZM295.479 136.116C297.716 136.116 299.133 136.82 299.142 138.03C299.133 139.224 297.716 139.928 295.479 139.928C293.249 139.928 291.832 139.224 291.832 138.03C291.832 136.82 293.249 136.116 295.479 136.116ZM290.78 135.146V134.392H294.708V132.378H295.611V134.392H300.261V135.146H290.78ZM291.907 130.82V130.066H299.051V130.953C299.051 131.79 299.051 132.635 298.761 133.713L297.857 133.613C298.139 132.536 298.139 131.765 298.139 130.953V130.82H291.907ZM292.752 138.03C292.744 138.751 293.821 139.199 295.479 139.199C297.144 139.199 298.214 138.751 298.222 138.03C298.214 137.285 297.144 136.829 295.479 136.82C293.821 136.829 292.744 137.285 292.752 138.03ZM309.409 129.536V132.088H310.975V132.851H309.409V135.453H308.489V129.536H309.409ZM301.254 134.815C303.815 134.123 305.373 132.735 305.568 130.978H301.718V130.215H306.558C306.55 132.834 304.71 134.715 301.627 135.552L301.254 134.815ZM302.804 139.804V135.925H309.409V139.804H302.804ZM303.724 139.058H308.497V136.696H303.724V139.058ZM317.53 130.688V131.235C317.522 132.055 317.522 133.431 317.223 135.362L316.303 135.287C316.585 133.543 316.61 132.271 316.61 131.442H312.234V130.688H317.53ZM311.646 136.887C312.33 136.883 313.092 136.878 313.892 136.858V133.663H314.803V136.833C315.955 136.787 317.136 136.713 318.218 136.58L318.268 137.276C316.08 137.616 313.627 137.666 311.762 137.657L311.646 136.887ZM318.873 139.953V129.536H319.792V133.895H321.483V134.691H319.792V139.953H318.873ZM326.636 130.53V133.075H328.907V130.53H329.761V137.343H325.758V130.53H326.636ZM326.636 136.58H328.907V133.82H326.636V136.58ZM331.078 139.423V129.76H331.957V133.663H333.415V129.536H334.302V139.953H333.415V134.434H331.957V139.423H331.078ZM344.495 129.536V139.97H343.583V135.536H341.412V134.757H343.583V132.685H341.486V131.914H343.583V129.536H344.495ZM336.232 131.243V130.481H340.815V134.185H337.177V136.754C338.747 136.75 340.04 136.688 341.619 136.448L341.702 137.218C340.036 137.475 338.702 137.533 337.036 137.533H336.265V133.439H339.912V131.243H336.232ZM355.897 137.881V138.66H346.359V137.881H350.643V135.917H347.552V132.702H353.784V131.069H347.527V130.307H354.696V133.456H348.464V135.155H354.936V135.917H351.555V137.881H355.897ZM363.645 132.337C363.645 134.218 364.854 136.116 366.371 136.812L365.816 137.558C364.631 136.949 363.653 135.702 363.189 134.222C362.729 135.78 361.751 137.115 360.562 137.749L359.973 137.011C361.498 136.257 362.708 134.251 362.716 132.337V130.439H363.645V132.337ZM365.236 133.845V133.091H367.705V129.536H368.617V139.97H367.705V133.845H365.236ZM380.011 137.881V138.66H370.473V137.881H374.757V135.917H371.666V132.702H377.898V131.069H371.641V130.307H378.81V133.456H372.578V135.155H379.05V135.917H375.669V137.881H380.011ZM390.486 134.376V135.097H380.947V134.376H390.486ZM382.099 136.622V135.934H389.292V138.146H383.036V139.141H389.632V139.812H382.116V137.508H388.381V136.622H382.099ZM382.157 130.514V129.851H389.259V132.006H383.102V132.917H389.442V133.588H382.19V131.376H388.339V130.514H382.157ZM403.487 129.536V139.953H402.609V134.483H401.084V139.406H400.23V129.768H401.084V133.721H402.609V129.536H403.487ZM394.968 137.376V130.812H398.871V131.566H395.888V136.588C397.326 136.584 398.316 136.526 399.468 136.29L399.551 137.061C398.299 137.326 397.238 137.367 395.639 137.376H394.968ZM413.224 129.536V132.204H414.79V132.983H413.224V135.586H412.304V129.536H413.224ZM405.103 131.367V130.613H407.754V129.436H408.666V130.613H411.31V131.367H405.103ZM405.699 133.68C405.691 132.569 406.694 131.856 408.21 131.856C409.702 131.856 410.705 132.569 410.713 133.68C410.705 134.79 409.702 135.511 408.21 135.503C406.694 135.511 405.691 134.79 405.699 133.68ZM406.578 133.68C406.569 134.359 407.224 134.807 408.21 134.807C409.18 134.807 409.835 134.359 409.843 133.68C409.835 133.008 409.18 132.552 408.21 132.561C407.224 132.552 406.569 133.008 406.578 133.68ZM406.636 139.812V136.041H407.547V137.16H412.304V136.041H413.224V139.812H406.636ZM407.547 139.066H412.304V137.89H407.547V139.066ZM424.154 129.536V139.953H423.243V129.536H424.154ZM416.248 137.268V130.564H417.152V136.464C418.743 136.46 420.38 136.336 422.132 135.967L422.257 136.754C420.409 137.135 418.759 137.268 417.094 137.268H416.248ZM434.123 129.536V133.655H435.864V134.425H434.123V139.97H433.203V129.536H434.123ZM426.516 137.359V130.555H431.38V131.309H427.436V136.58C429.321 136.576 430.655 136.501 432.201 136.215L432.317 137.011C430.684 137.301 429.317 137.359 427.336 137.359H426.516ZM437.653 139.066C437.239 139.066 436.891 138.727 436.899 138.312C436.891 137.898 437.239 137.558 437.653 137.558C438.068 137.558 438.407 137.898 438.407 138.312C438.407 138.727 438.068 139.066 437.653 139.066ZM446.501 132.337C446.501 134.218 447.711 136.116 449.227 136.812L448.672 137.558C447.487 136.949 446.509 135.702 446.045 134.222C445.585 135.78 444.607 137.115 443.418 137.749L442.83 137.011C444.354 136.257 445.564 134.251 445.573 132.337V130.439H446.501V132.337ZM448.092 133.845V133.091H450.562V129.536H451.473V139.97H450.562V133.845H448.092ZM462.868 137.881V138.66H453.329V137.881H457.613V135.917H454.522V132.702H460.754V131.069H454.497V130.307H461.666V133.456H455.434V135.155H461.906V135.917H458.525V137.881H462.868ZM27.8287 149.298C29.4696 149.298 30.6298 150.293 30.6381 151.743C30.6298 153.193 29.4696 154.188 27.8287 154.188C26.1878 154.188 25.011 153.193 25.0193 151.743C25.011 150.293 26.1878 149.298 27.8287 149.298ZM24.4807 155.887C26.4033 155.895 29.0552 155.878 31.3591 155.539L31.4337 156.218C29.047 156.666 26.4862 156.674 24.605 156.674L24.4807 155.887ZM25.9227 151.743C25.9144 152.713 26.7182 153.384 27.8287 153.384C28.9309 153.384 29.7348 152.713 29.7348 151.743C29.7348 150.773 28.9309 150.102 27.8287 150.102C26.7182 150.102 25.9144 150.773 25.9227 151.743ZM32.047 158.97V148.536H32.9669V158.97H32.047ZM41.5261 150.218C41.5261 151.635 42.6035 152.936 44.1118 153.45L43.6145 154.18C42.4626 153.757 41.551 152.895 41.0993 151.809C40.6518 153.04 39.7195 154.001 38.5013 154.47L38.004 153.732C39.5703 153.152 40.6145 151.76 40.6228 150.152V149.075H41.5261V150.218ZM39.3963 157.03C39.3963 155.837 40.7057 155.141 42.8521 155.141C44.9902 155.141 46.283 155.837 46.283 157.03C46.283 158.24 44.9902 158.928 42.8521 158.928C40.7057 158.928 39.3963 158.24 39.3963 157.03ZM40.3162 157.03C40.3079 157.768 41.2775 158.191 42.8521 158.199C44.4267 158.191 45.388 157.768 45.388 157.03C45.388 156.318 44.4267 155.878 42.8521 155.878C41.2775 155.878 40.3079 156.318 40.3162 157.03ZM45.272 154.876V148.536H46.1919V151.254H47.7582V152.025H46.1919V154.876H45.272ZM57.5366 150.077V150.84H49.0089V150.077H52.8294V148.71H53.7327V150.077H57.5366ZM48.5366 157.727V156.964H52.8294V155.501C50.973 155.406 49.846 154.685 49.8542 153.517C49.846 152.273 51.1553 151.544 53.2769 151.552C55.3819 151.544 56.7078 152.273 56.7078 153.517C56.7078 154.681 55.5725 155.402 53.7327 155.501V156.964H58.0752V157.727H48.5366ZM50.7824 153.517C50.7741 154.304 51.7272 154.76 53.2769 154.768C54.8183 154.76 55.7714 154.304 55.7714 153.517C55.7714 152.738 54.8183 152.282 53.2769 152.282C51.7272 152.282 50.7741 152.738 50.7824 153.517ZM62.558 150.467C62.558 151.851 63.5774 153.119 65.1188 153.649L64.6464 154.362C63.4614 153.943 62.558 153.094 62.1105 152.021C61.663 153.202 60.71 154.122 59.4835 154.569L58.9862 153.856C60.5525 153.301 61.6381 151.959 61.6464 150.467V150.019H59.268V149.265H64.8951V150.019H62.558V150.467ZM60.3536 156.119V155.365H67.1741V158.953H66.2542V156.119H60.3536ZM66.2542 154.809V148.536H67.1741V151.287H68.7404V152.075H67.1741V154.809H66.2542ZM79.016 153.691V154.445H69.5187V153.691H71.8723V152.22C71.0395 151.896 70.5712 151.366 70.5712 150.666C70.5712 149.439 71.9801 148.735 74.2591 148.735C76.5298 148.735 77.9386 149.439 77.9386 150.666C77.9386 151.362 77.4745 151.892 76.6541 152.211V153.691H79.016ZM70.6624 157.08C70.6624 155.895 72.0049 155.24 74.2591 155.249C76.4966 155.24 77.8392 155.895 77.8475 157.08C77.8392 158.273 76.4966 158.928 74.2591 158.928C72.0049 158.928 70.6624 158.273 70.6624 157.08ZM71.5243 150.666C71.516 151.428 72.5602 151.867 74.2591 151.867C75.9497 151.867 77.0022 151.428 77.0022 150.666C77.0022 149.912 75.9497 149.456 74.2591 149.456C72.5602 149.456 71.516 149.912 71.5243 150.666ZM71.5989 157.08C71.5906 157.793 72.5933 158.215 74.2591 158.207C75.9165 158.215 76.9193 157.793 76.9276 157.08C76.9193 156.376 75.9165 155.961 74.2591 155.953C72.5933 155.961 71.5906 156.376 71.5989 157.08ZM72.7922 153.691H75.7425V152.46C75.3033 152.539 74.806 152.58 74.2591 152.58C73.7204 152.58 73.2273 152.543 72.7922 152.464V153.691ZM88.9353 148.536V158.953H88.0485V148.536H88.9353ZM80.1424 153.028C80.1424 150.815 81.0209 149.414 82.3717 149.414C83.6397 149.414 84.4974 150.633 84.6134 152.597H85.9601V148.76H86.8469V158.423H85.9601V153.359H84.6176C84.5264 155.39 83.6604 156.657 82.3717 156.649C81.0209 156.657 80.1424 155.249 80.1424 153.028ZM81.0043 153.028C80.996 154.718 81.5347 155.787 82.3717 155.779C83.2253 155.787 83.764 154.718 83.764 153.028C83.764 151.337 83.2253 150.276 82.3717 150.276C81.5347 150.276 80.996 151.337 81.0043 153.028ZM94.1639 151.337C94.1639 153.218 95.3739 155.116 96.8904 155.812L96.3352 156.558C95.1501 155.949 94.1722 154.702 93.7081 153.222C93.2482 154.78 92.2703 156.115 91.081 156.749L90.4926 156.011C92.0175 155.257 93.2274 153.251 93.2357 151.337V149.439H94.1639V151.337ZM95.7551 152.845V152.091H98.2247V148.536H99.1363V158.97H98.2247V152.845H95.7551ZM112.759 148.544V156.185H111.839V152.182H109.693V151.428H111.839V148.544H112.759ZM104.165 154.097C105.707 153.558 106.817 152.182 106.817 150.691V150.152H104.464V149.39H110.074V150.152H107.745V150.691C107.745 152.033 108.789 153.343 110.314 153.865L109.834 154.602C108.657 154.18 107.749 153.305 107.298 152.228C106.846 153.43 105.885 154.387 104.646 154.851L104.165 154.097ZM106.071 158.721V155.497H106.991V157.959H113.049V158.721H106.071ZM124.137 153.865V154.627H119.894V156.757H118.982V154.627H114.598V153.865H124.137ZM115.825 158.721V155.729H116.745V157.959H123.076V158.721H115.825ZM115.841 152.671V149.041H122.894V152.671H115.841ZM116.745 151.934H121.982V149.779H116.745V151.934ZM128.686 150.177C128.678 151.66 129.739 152.97 131.272 153.483L130.758 154.204C129.606 153.773 128.703 152.928 128.251 151.83C127.808 153.077 126.855 154.047 125.595 154.519L125.098 153.773C126.697 153.21 127.766 151.826 127.774 150.21V149.133H128.686V150.177ZM126.797 156.981C126.788 155.729 128.114 155.008 130.285 155.008C132.448 155.008 133.774 155.729 133.774 156.981C133.774 158.224 132.448 158.928 130.285 158.928C128.114 158.928 126.788 158.224 126.797 156.981ZM127.708 156.981C127.7 157.735 128.686 158.191 130.285 158.191C131.877 158.191 132.863 157.735 132.863 156.981C132.863 156.202 131.877 155.738 130.285 155.738C128.686 155.738 127.7 156.202 127.708 156.981ZM130.501 151.528V150.765H132.821V148.536H133.741V154.71H132.821V151.528H130.501ZM141.373 149.688V150.235C141.365 151.055 141.365 152.431 141.067 154.362L140.147 154.287C140.429 152.543 140.453 151.271 140.453 150.442H136.078V149.688H141.373ZM135.489 155.887C136.173 155.883 136.935 155.878 137.735 155.858V152.663H138.647V155.833C139.799 155.787 140.98 155.713 142.061 155.58L142.111 156.276C139.923 156.616 137.47 156.666 135.605 156.657L135.489 155.887ZM142.716 158.953V148.536H143.636V152.895H145.326V153.691H143.636V158.953H142.716ZM158.112 148.536V158.953H157.217V153.5H155.767V158.431H154.897V148.818H155.767V152.738H157.217V148.536H158.112ZM149.228 156.061C151.656 154.71 152.651 152.804 152.804 150.649H149.626V149.887H153.703C153.695 152.539 152.767 155.041 149.767 156.715L149.228 156.061ZM164.518 155.083C166.656 155.083 167.949 155.787 167.949 157.006C167.949 158.232 166.656 158.936 164.518 158.945C162.371 158.936 161.062 158.232 161.062 157.006C161.062 155.787 162.371 155.083 164.518 155.083ZM160.158 153.989V149.182H161.062V150.782H164.095V149.182H165.007V153.989H160.158ZM161.062 153.243H164.095V151.511H161.062V153.243ZM161.982 157.006C161.973 157.751 162.943 158.199 164.518 158.199C166.092 158.199 167.053 157.751 167.053 157.006C167.053 156.26 166.092 155.82 164.518 155.812C162.943 155.82 161.973 156.26 161.982 157.006ZM166.937 154.801V148.536H167.857V151.155H169.424V151.942H167.857V154.801H166.937ZM173.824 150.459C173.824 151.809 174.868 153.102 176.393 153.633L175.912 154.354C174.735 153.935 173.828 153.065 173.376 151.992C172.929 153.189 171.963 154.146 170.724 154.602L170.243 153.873C171.785 153.326 172.895 151.934 172.895 150.467V150.011H170.542V149.257H176.152V150.011H173.824V150.459ZM171.826 156.086V155.331H178.837V158.953H177.917V156.086H171.826ZM175.821 152.033V151.262H177.917V148.536H178.837V154.776H177.917V152.033H175.821ZM189.295 148.544V156.16H188.375V148.544H189.295ZM180.933 151.826C180.933 150.326 182.11 149.273 183.668 149.273C185.226 149.273 186.395 150.326 186.395 151.826C186.395 153.343 185.226 154.395 183.668 154.387C182.11 154.395 180.933 153.343 180.933 151.826ZM181.837 151.826C181.828 152.862 182.616 153.583 183.668 153.583C184.704 153.583 185.5 152.862 185.5 151.826C185.5 150.807 184.704 150.077 183.668 150.077C182.616 150.077 181.828 150.807 181.837 151.826ZM182.566 158.721V155.381H183.486V157.959H189.619V158.721H182.566ZM199.554 149.588V156.301H194.747V149.588H199.554ZM195.642 155.547H198.634V150.326H195.642V155.547ZM201.46 158.953V148.536H202.379V152.696H204.12V153.483H202.379V158.953H201.46ZM209.547 148.768C211.818 148.768 213.227 149.497 213.227 150.749C213.227 151.975 211.818 152.696 209.547 152.696C207.285 152.696 205.86 151.975 205.86 150.749C205.86 149.497 207.285 148.768 209.547 148.768ZM204.807 154.354V153.599H214.304V154.354H204.807ZM205.967 158.812V155.39H213.136V158.812H205.967ZM206.813 150.749C206.804 151.503 207.865 151.959 209.547 151.967C211.221 151.959 212.29 151.503 212.29 150.749C212.29 149.97 211.221 149.506 209.547 149.506C207.865 149.506 206.804 149.97 206.813 150.749ZM206.879 158.058H212.241V156.127H206.879V158.058ZM217.005 157.204L216.102 160.395H215.232L215.878 157.204H217.005ZM232.976 149.646V150.691C232.976 152 232.976 153.483 232.587 155.746L231.65 155.655C232.073 153.525 232.073 151.967 232.073 150.691V150.409H225.8V149.646H232.976ZM224.764 157.42V156.649H234.261V157.42H224.764ZM243.857 148.536V158.97H242.945V148.536H243.857ZM235.843 150.268V149.506H240.691V153.21H236.804V155.671C238.532 155.667 240.07 155.593 241.934 155.29L242.025 156.061C240.111 156.367 238.528 156.442 236.73 156.442H235.86V152.456H239.763V150.268H235.843ZM254.099 149.588V150.624C254.091 151.909 254.091 153.334 253.71 155.431L252.782 155.323C253.171 153.334 253.171 151.876 253.179 150.624V150.351H246.757V149.588H254.099ZM245.746 157.478V156.707H249.467V152.986H250.378V156.707H255.243V157.478H245.746ZM267.971 148.544V156.243H267.051V148.544H267.971ZM259.584 154.254C261.142 153.74 262.236 152.431 262.236 150.964V150.691H259.833V149.945H262.236V148.586H263.164V149.945H265.543V150.691H263.148V150.964C263.148 152.348 264.266 153.575 265.824 154.055L265.369 154.793C264.142 154.395 263.177 153.562 262.708 152.485C262.253 153.645 261.287 154.548 260.048 154.975L259.584 154.254ZM261.242 158.721V155.522H262.161V157.959H268.294V158.721H261.242ZM273.465 150.152C273.465 151.387 274.517 152.588 276.017 153.061L275.57 153.79C274.385 153.405 273.461 152.593 273.013 151.581C272.553 152.7 271.588 153.616 270.365 154.039L269.901 153.309C271.426 152.787 272.545 151.486 272.545 150.135V149.845H270.191V149.083H275.802V149.845H273.465V150.152ZM271.733 155.191V154.436H278.487V156.931H272.669V158.099H278.885V158.837H271.757V156.227H277.575V155.191H271.733ZM275.47 151.627V150.865H277.575V148.536H278.487V153.923H277.575V151.627H275.47ZM285.091 148.718C287.412 148.718 288.771 149.356 288.771 150.517C288.771 151.693 287.412 152.331 285.091 152.34C282.771 152.331 281.403 151.693 281.403 150.517C281.403 149.356 282.771 148.718 285.091 148.718ZM280.351 153.79V153.044H289.848V153.79H280.351ZM281.503 155.398V154.693H288.622V157.022H282.431V158.108H288.936V158.837H281.528V156.343H287.718V155.398H281.503ZM282.365 150.517C282.356 151.238 283.367 151.635 285.091 151.635C286.823 151.635 287.834 151.238 287.834 150.517C287.834 149.829 286.823 149.414 285.091 149.414C283.367 149.414 282.356 149.829 282.365 150.517ZM303.496 154.47V155.232H300.985V158.953H300.056V155.232H297.38V158.953H296.435V155.232H293.957V154.47H303.496ZM295.043 151.229C295.043 149.837 296.518 148.959 298.706 148.95C300.893 148.959 302.377 149.837 302.377 151.229C302.377 152.613 300.893 153.483 298.706 153.475C296.518 153.483 295.043 152.613 295.043 151.229ZM295.987 151.229C295.979 152.149 297.081 152.738 298.706 152.738C300.33 152.738 301.432 152.149 301.432 151.229C301.432 150.301 300.33 149.704 298.706 149.704C297.081 149.704 295.979 150.301 295.987 151.229ZM308.194 151.735C308.194 153.5 309.478 155.298 311.012 155.961L310.498 156.691C309.28 156.135 308.231 154.938 307.742 153.5C307.253 155.025 306.201 156.351 305.012 156.948L304.465 156.218C305.956 155.506 307.257 153.533 307.266 151.735V150.376H304.804V149.605H310.672V150.376H308.194V151.735ZM312.13 158.953V148.536H313.05V158.953H312.13ZM323.019 148.536V152.829H324.76V153.599H323.019V158.953H322.108V148.536H323.019ZM314.898 150.972V150.21H317.575V148.66H318.494V150.21H321.097V150.972H314.898ZM315.494 154.229C315.486 152.82 316.563 151.834 318.047 151.834C319.522 151.834 320.591 152.82 320.599 154.229C320.591 155.638 319.522 156.616 318.047 156.616C316.563 156.616 315.486 155.638 315.494 154.229ZM316.373 154.229C316.365 155.174 317.077 155.845 318.047 155.837C319.008 155.845 319.713 155.174 319.721 154.229C319.713 153.285 319.008 152.605 318.047 152.605C317.077 152.605 316.365 153.285 316.373 154.229ZM330.618 149.572V151.039H333.171V148.536H334.082V158.97H333.171V154.669H330.618V156.318H325.87V149.572H330.618ZM326.781 155.572H329.723V150.301H326.781V155.572ZM330.618 153.914H333.171V151.801H330.618V153.914ZM348.608 156.84V157.61H339.07V156.84H343.354V154.296H340.197V149.406H347.423V154.296H344.266V156.84H348.608ZM341.092 153.558H346.528V150.152H341.092V153.558ZM357.873 152.431V153.177H350.87V149.149H357.732V149.912H351.807V152.431H357.873ZM349.544 155.307V154.552H359.083V155.307H354.74V158.92H353.837V155.307H349.544ZM368.115 148.536V152.771H369.806V153.55H368.115V158.945H367.196V148.536H368.115ZM360.118 156.243C362.812 154.905 364.278 152.899 364.486 150.425H360.607V149.655H365.422C365.414 152.605 364.03 155.29 360.632 156.964L360.118 156.243ZM381.738 148.536V152.771H383.429V153.55H381.738V158.945H380.818V148.536H381.738ZM373.741 156.243C376.434 154.905 377.901 152.899 378.108 150.425H374.23V149.655H379.045C379.037 152.605 377.653 155.29 374.255 156.964L373.741 156.243ZM392.751 148.536V158.953H391.832V148.536H392.751ZM384.373 156.218C385.923 155.514 387.108 153.757 387.108 151.925V151.097H384.655V150.351H387.099V148.727H388.011V150.351H390.431V151.097H388.011V151.925C388.011 153.674 389.229 155.365 390.796 156.028L390.282 156.749C389.08 156.214 388.061 155.083 387.576 153.707C387.104 155.166 386.097 156.363 384.895 156.931L384.373 156.218ZM401.311 155.522C401.311 156.446 401.812 157.428 402.798 157.992C403.793 157.378 404.319 156.33 404.319 155.522V154.95H405.222V155.522C405.214 156.599 406.001 157.669 407.344 158.124L406.88 158.804C405.84 158.439 405.11 157.71 404.75 156.836C404.427 157.685 403.793 158.485 402.827 158.895C401.812 158.506 401.17 157.743 400.859 156.869C400.482 157.71 399.765 158.431 398.766 158.804L398.302 158.124C399.62 157.635 400.416 156.525 400.424 155.522V154.95H401.311V155.522ZM398.029 151.586C398.029 150.135 399.181 149.149 400.764 149.149C402.347 149.149 403.49 150.135 403.49 151.586C403.49 153.019 402.347 154.006 400.764 154.006C399.181 154.006 398.029 153.019 398.029 151.586ZM398.932 151.586C398.924 152.555 399.695 153.235 400.764 153.243C401.825 153.235 402.595 152.555 402.595 151.586C402.595 150.616 401.825 149.928 400.764 149.936C399.695 149.928 398.924 150.616 398.932 151.586ZM405.471 154.494V148.544H406.391V154.494H405.471ZM416.343 148.536V152.655H418.084V153.425H416.343V158.97H415.423V148.536H416.343ZM408.735 156.359V149.555H413.6V150.309H409.655V155.58C411.541 155.576 412.875 155.501 414.421 155.215L414.537 156.011C412.904 156.301 411.537 156.359 409.556 156.359H408.735ZM427.124 149.588V150.624C427.116 151.909 427.116 153.334 426.735 155.431L425.807 155.323C426.196 153.334 426.196 151.876 426.204 150.624V150.351H419.782V149.588H427.124ZM418.771 157.478V156.707H422.492V152.986H423.403V156.707H428.268V157.478H418.771ZM440.83 153.251V154.014H433.562V149.448H434.49V153.251H440.83ZM432.394 157.511V156.732H441.932V157.511H432.394ZM451.487 148.536V158.953H450.567V148.536H451.487ZM442.885 156.044C444.443 154.457 445.135 152.518 445.251 150.442H443.266V149.671H446.125C446.117 152.133 445.495 154.602 443.614 156.575L442.885 156.044ZM445.959 156.773C447.563 154.93 448.081 152.613 448.172 150.442H446.473V149.671H449.042C449.042 152.116 448.653 155.017 446.747 157.271L445.959 156.773ZM461.729 149.588V150.624C461.721 151.909 461.721 153.334 461.34 155.431L460.412 155.323C460.801 153.334 460.801 151.876 460.809 150.624V150.351H454.387V149.588H461.729ZM453.376 157.478V156.707H457.097V152.986H458.008V156.707H462.873V157.478H453.376ZM33.058 167.544V173.801H32.1381V172.392H29.3619V171.63H32.1381V170.221H29.4738C28.7901 171.903 27.1823 173.117 24.9448 173.776L24.5635 173.047C27.0746 172.309 28.6492 170.892 28.8398 169.086H25.0939V168.315H29.8343C29.8343 168.721 29.7887 169.115 29.7058 169.483H32.1381V167.544H33.058ZM26.163 175.898C26.163 174.655 27.5138 173.909 29.6519 173.909C31.7569 173.909 33.116 174.655 33.116 175.898C33.116 177.149 31.7569 177.903 29.6519 177.903C27.5138 177.903 26.163 177.149 26.163 175.898ZM27.0746 175.898C27.0746 176.685 28.0773 177.157 29.6519 177.157C31.1934 177.157 32.1961 176.685 32.2044 175.898C32.1961 175.11 31.1934 174.638 29.6519 174.646C28.0773 174.638 27.0746 175.11 27.0746 175.898ZM38.469 169.765C38.469 171.066 39.5878 172.235 41.1292 172.682L40.6817 173.403C39.4718 173.039 38.5063 172.251 38.0339 171.224C37.5864 172.363 36.6334 173.262 35.3944 173.677L34.9469 172.964C36.48 172.45 37.5574 171.182 37.5574 169.765V169.55H35.2038V168.804H37.5574V167.486H38.4856V168.804H40.8143V169.55H38.469V169.765ZM36.6044 176.022C36.5961 174.812 37.922 174.124 40.0933 174.124C42.2563 174.124 43.5823 174.812 43.5823 176.022C43.5823 177.232 42.2563 177.928 40.0933 177.928C37.922 177.928 36.5961 177.232 36.6044 176.022ZM37.516 176.022C37.5077 176.751 38.4939 177.199 40.0933 177.199C41.6928 177.199 42.6707 176.751 42.6707 176.022C42.6707 175.285 41.6928 174.854 40.0933 174.845C38.4939 174.854 37.5077 175.285 37.516 176.022ZM40.4911 171.282V170.519H42.6292V167.536H43.5491V173.851H42.6292V171.282H40.4911ZM53.4684 167.536V171.829H55.2087V172.599H53.4684V177.953H52.5568V167.536H53.4684ZM45.3468 169.972V169.21H48.0236V167.66H48.9435V169.21H51.5457V169.972H45.3468ZM45.9435 173.229C45.9352 171.82 47.0126 170.834 48.496 170.834C49.9711 170.834 51.0402 171.82 51.0485 173.229C51.0402 174.638 49.9711 175.616 48.496 175.616C47.0126 175.616 45.9352 174.638 45.9435 173.229ZM46.822 173.229C46.8137 174.174 47.5264 174.845 48.496 174.837C49.4573 174.845 50.1617 174.174 50.17 173.229C50.1617 172.285 49.4573 171.605 48.496 171.605C47.5264 171.605 46.8137 172.285 46.822 173.229ZM61.0672 168.572V170.039H63.6197V167.536H64.5313V177.97H63.6197V173.669H61.0672V175.318H56.3186V168.572H61.0672ZM57.2302 174.572H60.1722V169.301H57.2302V174.572ZM61.0672 172.914H63.6197V170.801H61.0672V172.914ZM74.864 168.837C74.8558 170.122 76.6044 171.174 78.4442 171.414L78.0878 172.16C76.4013 171.903 74.8309 171.062 74.2674 169.84C73.6997 171.062 72.1334 171.903 70.4469 172.16L70.0989 171.414C71.9386 171.174 73.6707 170.122 73.6707 168.837V168.812H70.3889V168.05H78.1624V168.812H74.864V168.837ZM69.5187 173.917V173.155H73.8116V171.414H74.7149V173.155H79.0408V173.917H69.5187ZM70.7453 177.721V174.762H71.6734V176.959H77.9552V177.721H70.7453ZM89.5071 172.409V173.171H85.206V174.282C87.1701 174.369 88.3303 175.011 88.3386 176.105C88.3303 177.273 86.9877 177.928 84.7502 177.928C82.496 177.928 81.1535 177.273 81.1535 176.105C81.1535 175.011 82.3179 174.369 84.2944 174.282V173.171H80.0098V172.409H89.5071ZM80.5485 171.05C82.3551 170.855 84.0955 169.939 84.1618 168.771H80.88V168.025H88.6535V168.771H85.3551C85.4132 169.939 87.1369 170.855 88.9767 171.05L88.6369 171.779C86.9256 171.568 85.3303 170.805 84.7585 169.645C84.1825 170.805 82.5913 171.568 80.88 171.779L80.5485 171.05ZM82.09 176.105C82.0817 176.801 83.0844 177.215 84.7502 177.207C86.4076 177.215 87.4104 176.801 87.4187 176.105C87.4104 175.401 86.4076 174.994 84.7502 174.986C83.0844 174.994 82.0817 175.401 82.09 176.105ZM101.779 167.536V170.047H103.345V170.826H101.779V173.627H100.859V167.536H101.779ZM94.0802 172.972V168.124H94.9835V169.724H98.0166V168.124H98.9282V172.972H94.0802ZM94.9835 172.227H98.0166V170.461H94.9835V172.227ZM95.2321 177.804V174.207H101.862V174.945H96.152V177.058H102.061V177.804H95.2321ZM112.544 170.693V171.439H105.417V167.917H106.328V170.693H112.544ZM104.107 173.602V172.856H113.646V173.602H104.107ZM105.35 177.696V174.663H106.262V176.934H112.61V177.696H105.35ZM125.876 167.536V171.182H127.434V171.961H125.876V175.682H124.957V167.536H125.876ZM117.697 173.727C118.526 173.727 119.503 173.718 120.523 173.681V172.894C119.309 172.773 118.526 172.198 118.534 171.315C118.526 170.312 119.503 169.707 120.97 169.715C122.445 169.707 123.407 170.312 123.415 171.315C123.407 172.193 122.648 172.765 121.443 172.89V173.64C122.416 173.586 123.403 173.494 124.31 173.354L124.385 174.017C122.155 174.431 119.628 174.464 117.805 174.481L117.697 173.727ZM117.962 169.26V168.564H120.523V167.503H121.443V168.564H123.995V169.26H117.962ZM119.263 177.721V175.135H120.183V176.959H126.258V177.721H119.263ZM119.412 171.315C119.404 171.887 120.009 172.251 120.97 172.251C121.932 172.251 122.537 171.887 122.537 171.315C122.537 170.727 121.932 170.362 120.97 170.362C120.009 170.362 119.404 170.727 119.412 171.315ZM136.873 167.544V173.801H135.953V172.392H133.177V171.63H135.953V170.221H133.289C132.605 171.903 130.997 173.117 128.76 173.776L128.379 173.047C130.89 172.309 132.464 170.892 132.655 169.086H128.909V168.315H133.649C133.649 168.721 133.604 169.115 133.521 169.483H135.953V167.544H136.873ZM129.978 175.898C129.978 174.655 131.329 173.909 133.467 173.909C135.572 173.909 136.931 174.655 136.931 175.898C136.931 177.149 135.572 177.903 133.467 177.903C131.329 177.903 129.978 177.149 129.978 175.898ZM130.89 175.898C130.89 176.685 131.892 177.157 133.467 177.157C135.008 177.157 136.011 176.685 136.019 175.898C136.011 175.11 135.008 174.638 133.467 174.646C131.892 174.638 130.89 175.11 130.89 175.898ZM143.469 167.718C145.79 167.718 147.149 168.356 147.149 169.517C147.149 170.693 145.79 171.331 143.469 171.34C141.149 171.331 139.781 170.693 139.781 169.517C139.781 168.356 141.149 167.718 143.469 167.718ZM138.729 172.79V172.044H148.226V172.79H138.729ZM139.881 174.398V173.693H146.999V176.022H140.809V177.108H147.314V177.837H139.906V175.343H146.096V174.398H139.881ZM140.743 169.517C140.734 170.238 141.745 170.635 143.469 170.635C145.201 170.635 146.212 170.238 146.212 169.517C146.212 168.829 145.201 168.414 143.469 168.414C141.745 168.414 140.734 168.829 140.743 169.517ZM157.614 168.481V173.279H152.799V168.481H157.614ZM153.694 172.533H156.719V169.235H153.694V172.533ZM153.976 177.721V174.448H154.887V176.959H160.979V177.721H153.976ZM159.578 175.169V167.528H160.498V170.702H162.064V171.481H160.498V175.169H159.578ZM172.348 172.26V173.014H162.843V172.26H172.348ZM164.044 171.191V167.859H171.163V168.638H164.964V170.428H171.254V171.191H164.044ZM164.086 177.787V173.826H164.997V174.986H170.193V173.826H171.122V177.787H164.086ZM164.997 177.033H170.193V175.724H164.997V177.033ZM181.919 167.536V177.953H181.008V167.536H181.919ZM174.013 175.268V168.564H174.917V174.464C176.508 174.46 178.145 174.336 179.897 173.967L180.022 174.754C178.174 175.135 176.524 175.268 174.859 175.268H174.013ZM191.888 167.536V171.655H193.629V172.425H191.888V177.97H190.968V167.536H191.888ZM184.281 175.359V168.555H189.145V169.309H185.201V174.58C187.086 174.576 188.42 174.501 189.966 174.215L190.082 175.011C188.449 175.301 187.082 175.359 185.101 175.359H184.281ZM195.418 177.066C195.004 177.066 194.656 176.727 194.664 176.312C194.656 175.898 195.004 175.558 195.418 175.558C195.833 175.558 196.172 175.898 196.172 176.312C196.172 176.727 195.833 177.066 195.418 177.066Z" fill="white"/>
</svg>
