<svg width="488" height="202" viewBox="0 0 488 202" fill="none" xmlns="http://www.w3.org/2000/svg">
<rect width="488" height="202" rx="10" fill="white" fill-opacity="0.1"/>
<path d="M24.5469 26.3906V24.6875H33.5625V26.3906H30.0781V36H28.0469V26.3906H24.5469ZM34.3319 36V27.5156H36.2694V28.9219H36.3631C36.6678 27.9453 37.4803 27.3906 38.4569 27.3906C38.6756 27.3906 38.9881 27.4141 39.1756 27.4375V29.2812C38.9959 29.2188 38.5819 29.1641 38.2537 29.1562C37.1444 29.1641 36.3319 29.9297 36.3319 31V36H34.3319ZM45.945 32.4375V27.5156H47.9294V36H46.0075V34.5H45.9137C45.5231 35.4453 44.6325 36.1094 43.3669 36.1094C41.6872 36.1094 40.5309 34.9531 40.5231 32.9219V27.5156H42.5231V32.6094C42.5231 33.6875 43.1637 34.375 44.1325 34.375C45.0075 34.375 45.945 33.7344 45.945 32.4375ZM54.8081 29.9375C54.6831 29.2969 54.1519 28.8828 53.3081 28.8906C52.4566 28.8828 51.8316 29.3125 51.8394 29.8906C51.8316 30.3281 52.1831 30.6562 53.0425 30.8594L54.48 31.1562C56.0816 31.5078 56.8628 32.25 56.8706 33.4688C56.8628 35.0625 55.4644 36.1719 53.2456 36.1719C51.0894 36.1719 49.8159 35.2031 49.605 33.5781H51.6362C51.7534 34.3047 52.3159 34.6641 53.2456 34.6562C54.2066 34.6641 54.8316 34.2734 54.8394 33.6406C54.8316 33.1484 54.4487 32.8359 53.605 32.6562L52.2456 32.3594C50.6675 32.0391 49.8472 31.2109 49.855 30C49.8472 28.4297 51.2066 27.4062 53.2769 27.4062C55.3003 27.4062 56.5503 28.3984 56.6987 29.9375H54.8081ZM62.7806 27.5156V29.0469H61.1087V33.4531C61.1087 34.2656 61.515 34.4297 62.015 34.4375C62.2494 34.4453 62.64 34.4219 62.89 34.4062V36.0312C62.6556 36.0703 62.2728 36.1172 61.765 36.1094C60.265 36.1172 59.1087 35.375 59.1244 33.7812V29.0469H57.9056V27.5156H59.1244V25.4844H61.1087V27.5156H62.7806Z" fill="white"/>
<path d="M79.616 23.9199V32.8923H78.3156V23.9199H79.616ZM69.5221 30.1319C71.4413 29.4213 72.5773 27.6616 72.5773 25.8101V24.6015H73.9068V25.8101C73.8971 27.5988 75.038 29.2472 76.9233 29.8999L76.2562 30.9344C74.8446 30.4171 73.8004 29.3778 73.2541 28.0483C72.7127 29.4696 71.654 30.6057 70.2182 31.1519L69.5221 30.1319ZM71.6008 35.9088V32.0511H72.9061V34.8453H79.9738V35.9088H71.6008ZM88.8487 25.0221V28.3916H83.9323V29.7838H89.1726V30.8039H86.4413V32.6796C87.5628 32.6312 88.694 32.5539 89.7576 32.4378L89.8591 33.395C87.1567 33.8108 84.2514 33.8591 81.9164 33.8446L81.7569 32.7569C82.8011 32.7569 83.9565 32.7521 85.1457 32.7231V30.8039H82.6367V27.4247H87.5725V26.0615H82.6125V25.0221H88.8487ZM90.5262 36.1844V23.9102H91.8218V36.1844H90.5262Z" fill="#AEAEAE"/>
<path d="M33.4558 91.4945V101.994H32.3909V96.6036H31.1354V101.477H30.0829V91.6975H31.1354V95.6713H32.3909V91.4945H33.4558ZM24.2445 99.0276C25.7818 98.1699 26.4986 96.3591 26.4986 94.2707V93.5994H24.5304V92.692H29.4075V93.5994H27.576V94.2707C27.576 96.1602 28.2845 97.8715 29.8135 98.6588L29.1588 99.5124C28.1229 98.953 27.4351 97.9751 27.0622 96.761C26.7017 98.1409 26.0055 99.2431 24.9365 99.8771L24.2445 99.0276ZM43.1306 91.4903V94.5318H44.6596V95.4558H43.1306V99.0939H42.016V91.4903H43.1306ZM35.3488 97.2707V92.3812H40.0394V93.2887H36.451V96.355C38.4939 96.355 39.6416 96.2928 40.9635 96.0193L41.0919 96.9268C39.6665 97.2044 38.4276 97.2749 36.1817 97.2707H35.3488ZM36.4759 101.779V98.3108H37.5823V100.867H43.5781V101.779H36.4759ZM54.9435 96.9765V97.8674H45.3717V96.9765H54.9435ZM46.3952 93.9475C46.3952 92.6298 47.8662 91.8384 50.1493 91.8467C52.4242 91.8384 53.8952 92.6298 53.8952 93.9475C53.8952 95.2735 52.4242 96.0732 50.1493 96.0732C47.8662 96.0732 46.3952 95.2735 46.3952 93.9475ZM46.5775 101.779V98.721H47.6963V100.867H53.8662V101.779H46.5775ZM47.5512 93.9475C47.543 94.7224 48.5416 95.1657 50.1493 95.1657C51.757 95.1657 52.7557 94.7224 52.7557 93.9475C52.7557 93.1934 51.757 92.7376 50.1493 92.7376C48.5416 92.7376 47.543 93.1934 47.5512 93.9475ZM67.6224 91.5028V99.1934H66.5078V91.5028H67.6224ZM58.9705 96.8273C60.6155 96.2182 61.5893 94.7099 61.5893 93.1229V92.087H62.7288V93.1229C62.7205 94.6561 63.6984 96.0691 65.3144 96.6285L64.7426 97.5152C63.5326 97.0718 62.6376 96.1809 62.1694 95.0414C61.7053 96.2597 60.7978 97.2334 59.5672 97.7017L58.9705 96.8273ZM60.7523 101.779V98.4724H61.871V100.867H67.929V101.779H60.7523ZM75.5362 92.4475V95.3356H71.3221V96.529H75.8138V97.4033H73.4726V99.011C74.434 98.9696 75.4036 98.9033 76.3152 98.8039L76.4022 99.6243C74.0859 99.9807 71.5956 100.022 69.5942 100.01L69.4574 99.0773C70.3525 99.0773 71.3428 99.0732 72.3621 99.0483V97.4033H70.2116V94.5069H74.4422V93.3384H70.1909V92.4475H75.5362ZM76.974 102.015V91.4945H78.0845V102.015H76.974ZM89.4872 96.3135V97.1671H79.8781V96.3135H89.4872ZM81.0176 98.7044V97.9006H88.3063V100.217H82.1405V101.083H88.6336V101.87H81.03V99.4751H87.2041V98.7044H81.0176ZM81.0839 92.5511V91.768H88.2773V94.0387H82.2151V94.8384H88.4596V95.6215H81.1129V93.3052H87.1668V92.5511H81.0839ZM101.615 91.4945V95.6796H103.243V96.6119H101.615V101.982H100.5V91.4945H101.615ZM93.4396 99.1851C96.0749 97.8715 97.5004 95.9738 97.7365 93.5249H93.9658V92.605H98.8678C98.8595 95.634 97.5211 98.3439 94.0611 100.047L93.4396 99.1851ZM112.62 91.4945V101.994H111.505V91.4945H112.62ZM104.08 99.1271C105.7 98.3978 106.777 96.6326 106.782 94.8674V94.1796H104.386V93.2845H106.773V91.7017H107.875V93.2845H110.229V94.1796H107.88V94.8674C107.88 96.5497 108.982 98.2569 110.619 98.9448L110.005 99.8066C108.795 99.2804 107.834 98.1865 107.345 96.8646C106.869 98.2652 105.915 99.4296 104.697 99.9848L104.08 99.1271ZM117.836 92.2403C119.498 92.2403 120.687 93.268 120.695 94.7431C120.687 96.2224 119.498 97.2459 117.836 97.2459C116.183 97.2459 114.969 96.2224 114.977 94.7431C114.969 93.268 116.183 92.2403 117.836 92.2403ZM114.471 98.8287C116.386 98.8329 119.034 98.8122 121.329 98.4807L121.416 99.2928C119.038 99.7445 116.485 99.7569 114.608 99.7569L114.471 98.8287ZM116.075 94.7431C116.067 95.6713 116.817 96.2804 117.836 96.2804C118.855 96.2804 119.605 95.6713 119.61 94.7431C119.605 93.8191 118.855 93.2058 117.836 93.2058C116.817 93.2058 116.067 93.8191 116.075 94.7431ZM121.988 102.015V91.4945H123.099V102.015H121.988ZM133.208 92.6754V93.558H127.9V92.6754H130.014V91.5525H131.116V92.6754H133.208ZM128.311 95.9033C128.306 94.7804 129.243 94.0221 130.561 94.0221C131.899 94.0221 132.827 94.7804 132.835 95.9033C132.827 97.0014 131.899 97.7514 130.561 97.7514C129.243 97.7514 128.306 97.0014 128.311 95.9033ZM129.301 95.9033C129.301 96.5207 129.815 96.9185 130.561 96.9185C131.315 96.9185 131.824 96.5207 131.829 95.9033C131.824 95.261 131.315 94.8633 130.561 94.855C129.815 94.8633 129.301 95.261 129.301 95.9033ZM129.769 99.5124V98.6174H136.905V101.994H135.806V99.5124H129.769ZM133.614 97.9751V91.6768H134.671V94.395H135.852V91.5028H136.905V98.0414H135.852V95.3066H134.671V97.9751H133.614ZM147.159 91.5028V97.453H146.045V91.5028H147.159ZM138.491 96.3384C140.136 95.7873 141.126 94.395 141.126 92.9282V91.9047H142.266V92.9282C142.258 94.3412 143.273 95.6257 144.868 96.1602L144.317 97.0097C143.099 96.6119 142.183 95.7831 141.706 94.7099C141.234 95.8577 140.306 96.7735 139.05 97.2169L138.491 96.3384ZM140.256 101.862V98.0166H147.159V101.862H140.256ZM141.354 100.959H146.066V98.9075H141.354V100.959ZM157.97 91.4945V101.994H156.901V91.4945H157.97ZM149.057 96.0276C149.057 93.7569 149.948 92.3356 151.315 92.3356C152.591 92.3356 153.457 93.5456 153.59 95.518H154.775V91.6975H155.836V101.477H154.775V96.4213H153.594C153.49 98.4724 152.616 99.7403 151.315 99.7362C149.948 99.7403 149.057 98.3108 149.057 96.0276ZM150.093 96.0276C150.084 97.7017 150.561 98.6837 151.315 98.6754C152.09 98.6837 152.57 97.7017 152.57 96.0276C152.57 94.3577 152.09 93.3798 151.315 93.3798C150.561 93.3798 150.084 94.3577 150.093 96.0276ZM170.889 95.3564V96.2472H163.762V92.0912H170.76V92.9986H164.897V95.3564H170.889ZM162.465 98.4227V97.5193H172.074V98.4227H167.789V101.97H166.695V98.4227H162.465ZM181.467 92.5055V93.5331C181.463 94.8343 181.463 96.2845 181.065 98.4392L179.946 98.3149C180.348 96.2845 180.348 94.797 180.356 93.5331V93.4088H173.979V92.5055H181.467ZM172.972 100.577V99.6575H176.611V95.953H177.713V99.6575H182.544V100.577H172.972ZM190.151 98.4309C190.151 99.3343 190.603 100.287 191.552 100.859C192.513 100.238 192.99 99.2348 192.99 98.4309V97.9296H194.084V98.4309C194.075 99.5249 194.796 100.577 196.164 101.029L195.613 101.841C194.577 101.485 193.872 100.785 193.508 99.9227C193.176 100.764 192.546 101.539 191.585 101.936C190.574 101.559 189.936 100.818 189.613 99.9558C189.236 100.785 188.539 101.481 187.549 101.841L186.994 101.029C188.341 100.54 189.07 99.4503 189.078 98.4309V97.9296H190.151V98.4309ZM186.725 94.5649C186.725 93.0981 187.91 92.087 189.522 92.087C191.129 92.087 192.31 93.0981 192.31 94.5649C192.31 96.0193 191.129 97.0304 189.522 97.0304C187.91 97.0304 186.725 96.0193 186.725 94.5649ZM187.814 94.5649C187.806 95.4807 188.523 96.1022 189.522 96.1064C190.508 96.1022 191.22 95.4807 191.22 94.5649C191.22 93.645 190.508 93.0235 189.522 93.0318C188.523 93.0235 187.806 93.645 187.814 94.5649ZM194.109 97.4779V91.5028H195.223V97.4779H194.109ZM199.287 97.7928V98.9075H204.223V97.7928H205.337V101.862H198.189V97.7928H199.287ZM197.004 97.1257V96.2141H206.576V97.1257H197.004ZM197.518 94.6892C199.553 94.4199 201.218 93.3052 201.218 92.0539V91.6064H202.362V92.0539C202.362 93.268 204.036 94.4365 206.05 94.6892L205.648 95.5635C203.949 95.3232 202.466 94.5193 201.794 93.4006C201.115 94.5235 199.623 95.3232 197.933 95.5635L197.518 94.6892ZM199.287 100.971H204.223V99.7693H199.287V100.971ZM216.205 91.4945V101.994H215.103V91.4945H216.205ZM208.138 99.326V92.518H209.232V98.3688C210.769 98.3564 212.381 98.2279 214.071 97.8798L214.216 98.8163C212.36 99.2017 210.674 99.3301 209.016 99.326H208.138ZM226.166 91.4945V95.5594H227.848V96.4834H226.166V102.015H225.051V91.4945H226.166ZM218.43 99.4088V92.5055H223.34V93.4088H219.54V98.4807C221.301 98.4724 222.623 98.3978 224.127 98.1243L224.26 99.0732C222.619 99.3591 221.223 99.413 219.275 99.4088H218.43ZM229.671 101.079C229.211 101.079 228.83 100.706 228.838 100.25C228.83 99.7942 229.211 99.4213 229.671 99.4213C230.119 99.4213 230.5 99.7942 230.5 100.25C230.5 100.706 230.119 101.079 229.671 101.079ZM33.982 116.461V117.385H29.6975V120.999H28.6036V117.385H24.3729V116.461H33.982ZM25.4213 113.225C25.4213 111.796 26.9337 110.896 29.1547 110.888C31.3757 110.896 32.9006 111.796 32.9006 113.225C32.9006 114.638 31.3757 115.533 29.1547 115.533C26.9337 115.533 25.4213 114.638 25.4213 113.225ZM26.5649 113.225C26.5566 114.099 27.5967 114.642 29.1547 114.642C30.7169 114.642 31.7528 114.099 31.7528 113.225C31.7528 112.343 30.7169 111.791 29.1547 111.791C27.5967 111.791 26.5566 112.343 26.5649 113.225ZM43.5905 110.494V121.015H42.4883V110.494H43.5905ZM35.4607 112.351V111.439H40.3792V115.28H36.6168V117.576C38.3157 117.568 39.8032 117.489 41.5602 117.199L41.6637 118.119C39.8032 118.425 38.2204 118.496 36.3723 118.496H35.4731V114.385H39.2521V112.351H35.4607ZM53.8703 113.569V114.46H46.6355V110.876H47.7377V113.569H53.8703ZM45.3551 116.673V115.782H54.9642V116.673H45.3551ZM46.5568 120.746V117.671H47.6631V119.838H53.9366V120.746H46.5568ZM67.6224 110.503V118.193H66.5078V110.503H67.6224ZM58.9705 115.827C60.6155 115.218 61.5893 113.71 61.5893 112.123V111.087H62.7288V112.123C62.7205 113.656 63.6984 115.069 65.3144 115.628L64.7426 116.515C63.5326 116.072 62.6376 115.181 62.1694 114.041C61.7053 115.26 60.7978 116.233 59.5672 116.702L58.9705 115.827ZM60.7523 120.779V117.472H61.871V119.867H67.929V120.779H60.7523ZM75.5362 111.448V114.336H71.3221V115.529H75.8138V116.403H73.4726V118.011C74.434 117.97 75.4036 117.903 76.3152 117.804L76.4022 118.624C74.0859 118.981 71.5956 119.022 69.5942 119.01L69.4574 118.077C70.3525 118.077 71.3428 118.073 72.3621 118.048V116.403H70.2116V113.507H74.4422V112.338H70.1909V111.448H75.5362ZM76.974 121.015V110.494H78.0845V121.015H76.974ZM88.0742 110.494V114.68H89.7027V115.612H88.0742V120.982H86.9596V110.494H88.0742ZM79.8988 118.185C82.5342 116.872 83.9596 114.974 84.1958 112.525H80.425V111.605H85.327C85.3187 114.634 83.9803 117.344 80.5204 119.047L79.8988 118.185ZM102.502 110.494V120.994H101.437V115.604H100.181V120.477H99.1288V110.698H100.181V114.671H101.437V110.494H102.502ZM93.2904 118.028C94.8277 117.17 95.5446 115.359 95.5446 113.271V112.599H93.5763V111.692H98.4534V112.599H96.6219V113.271C96.6219 115.16 97.3305 116.872 98.8595 117.659L98.2048 118.512C97.1689 117.953 96.481 116.975 96.1081 115.761C95.7476 117.141 95.0515 118.243 93.9824 118.877L93.2904 118.028ZM112.177 110.49V113.532H113.706V114.456H112.177V118.094H111.062V110.49H112.177ZM104.395 116.271V111.381H109.085V112.289H105.497V115.355C107.54 115.355 108.688 115.293 110.009 115.019L110.138 115.927C108.712 116.204 107.473 116.275 105.228 116.271H104.395ZM105.522 120.779V117.311H106.628V119.867H112.624V120.779H105.522ZM127.076 118.769V119.685H117.467V118.769H121.706V116.283H122.821V118.769H127.076ZM117.911 115.807C119.862 115.475 121.673 114.017 121.673 112.413V112.318H118.263V111.394H126.244V112.318H122.833V112.413C122.833 114.017 124.652 115.446 126.654 115.757L126.202 116.635C124.507 116.316 122.945 115.334 122.262 113.954C121.582 115.351 120.032 116.358 118.362 116.685L117.911 115.807ZM131.845 112.38C131.845 113.735 132.848 115.023 134.472 115.537L133.905 116.399C132.695 116.001 131.779 115.173 131.302 114.12C130.83 115.26 129.898 116.167 128.646 116.602L128.07 115.74C129.707 115.181 130.714 113.809 130.722 112.38V112.09H128.36V111.191H134.157V112.09H131.845V112.38ZM129.55 118.264V117.36H136.668V120.994H135.554V118.264H129.55ZM135.554 116.834V110.494H136.668V116.834H135.554ZM150.491 110.494V120.994H149.414V115.62H148.075V120.456H147.031V110.71H148.075V114.696H149.414V110.494H150.491ZM141.988 118.326V111.733H143.103V117.348C144.072 117.331 145.129 117.257 146.318 117.025L146.443 117.994C145.001 118.256 143.799 118.326 142.668 118.326H141.988ZM161.019 110.494V120.994H159.95V110.494H161.019ZM152.106 115.028C152.106 112.757 152.997 111.336 154.365 111.336C155.641 111.336 156.507 112.546 156.639 114.518H157.825V110.698H158.885V120.477H157.825V115.421H156.644C156.54 117.472 155.666 118.74 154.365 118.736C152.997 118.74 152.106 117.311 152.106 115.028ZM153.142 115.028C153.134 116.702 153.61 117.684 154.365 117.675C155.139 117.684 155.62 116.702 155.62 115.028C155.62 113.358 155.139 112.38 154.365 112.38C153.61 112.38 153.134 113.358 153.142 115.028ZM166.269 113.167C166.265 115.09 167.342 117.004 168.945 117.725L168.274 118.62C167.077 118.019 166.173 116.834 165.713 115.396C165.249 116.909 164.334 118.185 163.128 118.811L162.423 117.916C164.048 117.137 165.133 115.11 165.142 113.167V111.369H166.269V113.167ZM167.794 114.887V113.983H170.135V110.494H171.237V121.015H170.135V114.887H167.794ZM181.471 113.569V114.46H174.236V110.876H175.338V113.569H181.471ZM172.956 116.673V115.782H182.565V116.673H172.956ZM174.158 120.746V117.671H175.264V119.838H181.537V120.746H174.158ZM196.085 114.841V115.728H191.842V116.648H194.871V119.109H188.763V120.033H195.173V120.895H187.673V118.301H193.777V117.497H187.653V116.648H190.727V115.728H186.513V114.841H196.085ZM187.736 114.066V110.83H194.85V114.066H187.736ZM188.825 113.192H193.74V111.709H188.825V113.192ZM206.597 116.428V117.336H196.988V116.428H201.247V115.384H198.223V112.699H204.276V111.675H198.194V110.801H205.387V113.503H199.325V114.522H205.602V115.384H202.341V116.428H206.597ZM198.243 120.941V117.978H199.362V120.037H205.615V120.941H198.243ZM209.381 119.18L208.44 122.42H207.446L208.071 119.18H209.381ZM222.802 110.494V120.994H221.737V115.604H220.481V120.477H219.429V110.698H220.481V114.671H221.737V110.494H222.802ZM213.59 118.028C215.128 117.17 215.845 115.359 215.845 113.271V112.599H213.876V111.692H218.753V112.599H216.922V113.271C216.922 115.16 217.63 116.872 219.159 117.659L218.505 118.512C217.469 117.953 216.781 116.975 216.408 115.761C216.048 117.141 215.351 118.243 214.282 118.877L213.59 118.028ZM232.477 110.49V113.532H234.006V114.456H232.477V118.094H231.362V110.49H232.477ZM224.695 116.271V111.381H229.385V112.289H225.797V115.355C227.84 115.355 228.988 115.293 230.309 115.019L230.438 115.927C229.012 116.204 227.774 116.275 225.528 116.271H224.695ZM225.822 120.779V117.311H226.928V119.867H232.924V120.779H225.822ZM240.564 111.617V112.268C240.556 113.151 240.556 114.506 240.262 116.383L239.16 116.296C239.429 114.617 239.45 113.391 239.454 112.517H235.19V111.617H240.564ZM234.614 117.829C235.269 117.825 236.002 117.816 236.765 117.8V114.622H237.863V117.767C238.977 117.721 240.121 117.646 241.169 117.518L241.231 118.351C239.044 118.703 236.603 118.749 234.738 118.74L234.614 117.829ZM241.774 120.994V110.494H242.889V114.829H244.501V115.778H242.889V120.994H241.774ZM256.508 110.494V113.217H258.029V114.162H256.508V116.822H255.394V110.494H256.508ZM248.271 112.454V111.555H250.848V110.42H251.955V111.555H254.519V112.454H248.271ZM248.843 114.787C248.839 113.664 249.866 112.91 251.399 112.91C252.912 112.91 253.939 113.664 253.943 114.787C253.939 115.923 252.912 116.664 251.399 116.669C249.866 116.664 248.839 115.923 248.843 114.787ZM249.796 120.862V117.373H256.508V120.862H249.796ZM249.916 114.787C249.908 115.434 250.504 115.823 251.399 115.827C252.286 115.823 252.883 115.434 252.891 114.787C252.883 114.157 252.286 113.76 251.399 113.76C250.504 113.76 249.908 114.157 249.916 114.787ZM250.89 119.959H255.406V118.26H250.89V119.959ZM261.343 111.742C261.339 114.087 261.045 116.523 259.582 118.575L258.708 118.09C259.939 116.449 260.308 114.626 260.378 112.649H258.965V111.742H261.343ZM261.07 118.715C262.425 116.884 262.678 114.684 262.723 112.649H261.671V111.742H263.685C263.68 112.628 263.66 113.586 263.548 114.559H264.779V110.764H265.831V120.485H264.779V115.467H263.415C263.183 116.772 262.744 118.069 261.932 119.213L261.07 118.715ZM266.763 120.994V110.494H267.832V120.994H266.763ZM277.42 110.494V114.75H279.102V115.674H277.42V120.994H276.318V110.494H277.42ZM269.183 113.047V112.14H271.772V110.631H272.883V112.14H275.402V113.047H269.183ZM269.721 116.267C269.717 114.833 270.819 113.822 272.336 113.822C273.836 113.822 274.938 114.833 274.942 116.267C274.938 117.704 273.836 118.703 272.336 118.707C270.819 118.703 269.717 117.704 269.721 116.267ZM270.786 116.267C270.778 117.174 271.437 117.783 272.336 117.779C273.223 117.783 273.873 117.174 273.881 116.267C273.873 115.363 273.223 114.742 272.336 114.742C271.437 114.742 270.778 115.363 270.786 116.267ZM288.23 113.569V114.46H280.996V110.876H282.098V113.569H288.23ZM279.715 116.673V115.782H289.324V116.673H279.715ZM280.917 120.746V117.671H282.023V119.838H288.297V120.746H280.917ZM301.97 110.494V121.015H300.851V110.494H301.97ZM293.633 114.965C293.633 112.715 294.764 111.286 296.347 111.282C297.913 111.286 299.057 112.715 299.057 114.965C299.057 117.228 297.913 118.657 296.347 118.657C294.764 118.657 293.633 117.228 293.633 114.965ZM294.706 114.965C294.706 116.631 295.377 117.659 296.347 117.659C297.317 117.659 297.98 116.631 297.98 114.965C297.98 113.312 297.317 112.285 296.347 112.276C295.377 112.285 294.706 113.312 294.706 114.965ZM308.947 112.235V113.134H303.739V112.235H305.802V110.805H306.904V112.235H308.947ZM304.078 116.18C304.07 114.767 305.032 113.764 306.353 113.764C307.679 113.764 308.628 114.767 308.636 116.18C308.628 117.613 307.679 118.62 306.353 118.62C305.032 118.62 304.07 117.613 304.078 116.18ZM305.056 116.18C305.056 117.07 305.595 117.671 306.353 117.663C307.107 117.671 307.65 117.07 307.65 116.18C307.65 115.305 307.107 114.696 306.353 114.692C305.595 114.696 305.056 115.305 305.056 116.18ZM309.436 120.501V110.731H310.485V114.87H311.694V110.494H312.755V120.994H311.694V115.778H310.485V120.501H309.436ZM323.147 111.29V111.883C323.139 112.583 323.139 113.627 322.882 114.978L321.779 114.883C322.007 113.714 322.045 112.869 322.053 112.21H317.851V111.29H323.147ZM317.217 115.885C317.864 115.881 318.597 115.877 319.368 115.86V113.652H320.47V115.823C321.597 115.778 322.753 115.695 323.81 115.546L323.876 116.358C321.684 116.743 319.177 116.785 317.321 116.789L317.217 115.885ZM318.813 120.779V117.671H319.923V119.867H325.944V120.779H318.813ZM324.477 118.384V110.494H325.608V113.838H327.054V114.779H325.608V118.384H324.477ZM336.82 110.494V120.994H335.764V110.494H336.82ZM327.733 117.961C329.963 116.64 331.032 114.87 331.222 112.715H328.251V111.8H332.329C332.329 112.334 332.287 112.86 332.204 113.366H333.613V110.764H334.674V120.485H333.613V116.905H331.819V115.993H333.613V114.278H331.997C331.492 116.043 330.373 117.576 328.396 118.753L327.733 117.961ZM341.945 113.594C341.937 115.247 343.031 117.099 344.622 117.849L343.992 118.728C342.811 118.16 341.879 116.975 341.403 115.604C340.922 117.099 339.94 118.396 338.746 118.989L338.088 118.11C339.679 117.348 340.835 115.367 340.843 113.594V112.471H338.477V111.551H344.224V112.471H341.945V113.594ZM345.351 120.994V110.494H346.466V114.659H348.148V115.599H346.466V120.994H345.351ZM358.362 114.8V115.691H348.778V114.8H358.362ZM349.917 117.373V116.515H357.135V119.059H351.028V120H357.438V120.883H349.938V118.239H356.041V117.373H349.917ZM350.025 114.033V110.805H357.119V111.696H351.135V113.138H357.218V114.033H350.025ZM365.115 111.617V112.268C365.107 113.151 365.107 114.506 364.813 116.383L363.711 116.296C363.98 114.617 364.001 113.391 364.005 112.517H359.741V111.617H365.115ZM359.165 117.829C359.82 117.825 360.553 117.816 361.316 117.8V114.622H362.414V117.767C363.528 117.721 364.672 117.646 365.72 117.518L365.783 118.351C363.595 118.703 361.154 118.749 359.289 118.74L359.165 117.829ZM366.325 120.994V110.494H367.44V114.829H369.052V115.778H367.44V120.994H366.325ZM381.06 110.494V113.217H382.58V114.162H381.06V116.822H379.945V110.494H381.06ZM372.822 112.454V111.555H375.399V110.42H376.506V111.555H379.071V112.454H372.822ZM373.394 114.787C373.39 113.664 374.417 112.91 375.95 112.91C377.463 112.91 378.49 113.664 378.495 114.787C378.49 115.923 377.463 116.664 375.95 116.669C374.417 116.664 373.39 115.923 373.394 114.787ZM374.347 120.862V117.373H381.06V120.862H374.347ZM374.467 114.787C374.459 115.434 375.055 115.823 375.95 115.827C376.837 115.823 377.434 115.434 377.442 114.787C377.434 114.157 376.837 113.76 375.95 113.76C375.055 113.76 374.459 114.157 374.467 114.787ZM375.441 119.959H379.957V118.26H375.441V119.959ZM385.895 111.742C385.89 114.087 385.596 116.523 384.133 118.575L383.259 118.09C384.49 116.449 384.859 114.626 384.929 112.649H383.516V111.742H385.895ZM385.621 118.715C386.976 116.884 387.229 114.684 387.274 112.649H386.222V111.742H388.236C388.232 112.628 388.211 113.586 388.099 114.559H389.33V110.764H390.382V120.485H389.33V115.467H387.966C387.734 116.772 387.295 118.069 386.483 119.213L385.621 118.715ZM391.314 120.994V110.494H392.383V120.994H391.314ZM405.091 110.494V113.138H406.612V114.054H405.091V116.727H403.977V110.494H405.091ZM396.829 115.914C399.286 115.218 400.799 113.851 401.002 112.152H397.297V111.244H402.203C402.207 113.959 400.359 115.923 397.281 116.814L396.829 115.914ZM398.254 118.91C398.246 117.634 399.63 116.843 401.735 116.843C403.852 116.843 405.207 117.634 405.207 118.91C405.207 120.203 403.852 120.982 401.735 120.982C399.63 120.982 398.246 120.203 398.254 118.91ZM399.357 118.91C399.348 119.648 400.268 120.104 401.735 120.099C403.194 120.104 404.118 119.648 404.118 118.91C404.118 118.169 403.194 117.721 401.735 117.729C400.268 117.721 399.348 118.169 399.357 118.91ZM412.33 111.128V114.186H408.87V115.645C410.697 115.641 411.692 115.599 412.868 115.38L412.976 116.287C411.696 116.503 410.618 116.536 408.526 116.54H407.768V113.341H411.223V112.015H407.747V111.128H412.33ZM408.953 118.392V117.493H416.084V121.007H414.973V118.392H408.953ZM412.997 115.119V114.22H414.973V112.923H412.997V112.032H414.973V110.503H416.084V116.959H414.973V115.119H412.997ZM426.074 110.503V113.88H427.594V114.808H426.074V118.363H424.959V110.503H426.074ZM417.836 112.624V111.729H420.413V110.499H421.52V111.729H424.085V112.624H417.836ZM418.408 115.119C418.404 113.913 419.44 113.13 420.964 113.13C422.469 113.13 423.504 113.913 423.509 115.119C423.504 116.304 422.469 117.079 420.964 117.079C419.44 117.079 418.404 116.304 418.408 115.119ZM419.419 120.779V117.738H420.525V119.867H426.521V120.779H419.419ZM419.481 115.119C419.473 115.798 420.069 116.217 420.964 116.213C421.851 116.217 422.448 115.798 422.456 115.119C422.448 114.423 421.851 113.992 420.964 113.992C420.069 113.992 419.473 114.423 419.481 115.119ZM437.207 111.29V111.883C437.199 112.583 437.199 113.627 436.942 114.978L435.839 114.883C436.067 113.714 436.105 112.869 436.113 112.21H431.911V111.29H437.207ZM431.277 115.885C431.924 115.881 432.657 115.877 433.428 115.86V113.652H434.53V115.823C435.657 115.778 436.813 115.695 437.87 115.546L437.936 116.358C435.744 116.743 433.237 116.785 431.381 116.789L431.277 115.885ZM432.873 120.779V117.671H433.983V119.867H440.004V120.779H432.873ZM438.537 118.384V110.494H439.668V113.838H441.114V114.779H439.668V118.384H438.537ZM450.88 110.494V120.994H449.824V110.494H450.88ZM441.793 117.961C444.023 116.64 445.092 114.87 445.282 112.715H442.311V111.8H446.389C446.389 112.334 446.347 112.86 446.264 113.366H447.673V110.764H448.734V120.485H447.673V116.905H445.879V115.993H447.673V114.278H446.057C445.552 116.043 444.433 117.576 442.456 118.753L441.793 117.961ZM460.526 110.494V114.68H462.155V115.612H460.526V120.982H459.411V110.494H460.526ZM452.351 118.185C454.986 116.872 456.411 114.974 456.648 112.525H452.877V111.605H457.779C457.771 114.634 456.432 117.344 452.972 119.047L452.351 118.185ZM30.3108 130.601V131.492H24.4019V130.601H26.855V129.403H27.9613V130.601H30.3108ZM24.9903 133.928C24.982 132.751 25.9682 131.972 27.3978 131.972C28.8149 131.972 29.8177 132.751 29.826 133.928C29.8177 135.097 28.8149 135.872 27.3978 135.867C25.9682 135.872 24.982 135.097 24.9903 133.928ZM26.0304 133.928C26.0221 134.604 26.5649 135.03 27.3978 135.03C28.2182 135.03 28.7818 134.604 28.7901 133.928C28.7818 133.244 28.2182 132.814 27.3978 132.805C26.5649 132.814 26.0221 133.244 26.0304 133.928ZM26.0801 138.175C26.0801 137.023 27.4268 136.36 29.6478 136.36C31.8481 136.36 33.1948 137.023 33.1989 138.175C33.1948 139.307 31.8481 139.978 29.6478 139.978C27.4268 139.978 26.0801 139.307 26.0801 138.175ZM27.2403 138.175C27.2403 138.78 28.1354 139.128 29.6478 139.12C31.1312 139.128 32.018 138.78 32.018 138.175C32.018 137.554 31.1312 137.222 29.6478 137.218C28.1354 137.222 27.2403 137.554 27.2403 138.175ZM30.3315 134.914V134.007H32.0304V132.851H30.3439V131.943H32.0304V129.494H33.1409V136.253H32.0304V134.914H30.3315ZM38.6099 131.073C38.6016 132.536 39.5546 133.849 41.1458 134.367L40.5408 135.238C39.3847 134.819 38.5353 134.011 38.0795 132.959C37.6237 134.16 36.7079 135.097 35.4358 135.557L34.8392 134.662C36.5173 134.09 37.4911 132.693 37.4994 131.119V130.079H38.6099V131.073ZM36.5671 137.993C36.5588 136.721 37.9096 135.983 40.114 135.983C42.3143 135.983 43.661 136.721 43.6651 137.993C43.661 139.261 42.3143 139.978 40.114 139.978C37.9096 139.978 36.5588 139.261 36.5671 137.993ZM37.6693 137.993C37.661 138.693 38.5767 139.099 40.114 139.099C41.6472 139.099 42.5588 138.693 42.5629 137.993C42.5588 137.268 41.6472 136.858 40.114 136.858C38.5767 136.858 37.661 137.268 37.6693 137.993ZM40.3088 132.548V131.633H42.5215V129.494H43.632V135.693H42.5215V132.548H40.3088ZM51.6245 133.941V134.848H49.4159V136.796C50.3855 136.754 51.3634 136.692 52.2833 136.588L52.3703 137.409C50.054 137.753 47.5637 137.786 45.5623 137.786L45.4256 136.862C46.3123 136.862 47.2943 136.858 48.3012 136.833V134.848H46.188V130.472H51.5789V131.367H47.2861V133.941H51.6245ZM52.9421 140.015V129.494H54.0526V140.015H52.9421ZM64.3614 132.569V133.46H57.1266V129.876H58.2288V132.569H64.3614ZM55.8462 135.673V134.782H65.4553V135.673H55.8462ZM57.0479 139.746V136.671H58.1542V138.838H64.4277V139.746H57.0479ZM78.1301 129.494V139.994H77.0113V129.494H78.1301ZM69.503 137.181C72.2958 135.855 73.6549 133.961 73.8746 131.512H70.0127V130.626H75.0099C75.0016 133.696 73.6964 136.36 70.0914 138.08L69.503 137.181ZM88.1447 129.503V132.602H89.6654V133.535H88.1447V137.222H87.03V129.503H88.1447ZM80.2966 135.482V130.253H81.3947V131.939H84.146V130.253H85.2483V135.482H80.2966ZM81.3947 134.595H84.146V132.809H81.3947V134.595ZM81.49 139.779V136.456H82.5963V138.867H88.5922V139.779H81.49ZM99.0833 129.494V140.015H97.9645V129.494H99.0833ZM90.7462 133.965C90.7462 131.715 91.8775 130.286 93.4603 130.282C95.0266 130.286 96.1703 131.715 96.1703 133.965C96.1703 136.228 95.0266 137.657 93.4603 137.657C91.8775 137.657 90.7462 136.228 90.7462 133.965ZM91.8195 133.965C91.8195 135.631 92.4907 136.659 93.4603 136.659C94.4299 136.659 95.0929 135.631 95.0929 133.965C95.0929 132.312 94.4299 131.285 93.4603 131.276C92.4907 131.285 91.8195 132.312 91.8195 133.965ZM109.056 129.494V133.601H110.739V134.533H109.056V140.015H107.954V129.494H109.056ZM101.291 131.351V130.439H106.094V134.301H102.414V136.576C104.217 136.572 105.547 136.501 107.08 136.224L107.183 137.131C105.547 137.43 104.13 137.5 102.161 137.508H101.312V133.402H104.983V131.351H101.291ZM119.862 130.506V131.533C119.858 132.834 119.858 134.285 119.46 136.439L118.342 136.315C118.744 134.285 118.744 132.797 118.752 131.533V131.409H112.375V130.506H119.862ZM111.368 138.577V137.657H115.006V133.953H116.108V137.657H120.94V138.577H111.368ZM130.449 130.149V134.773H125.452V130.149H130.449ZM126.545 133.878H129.351V131.057H126.545V133.878ZM126.74 139.862V136.041H133.689V136.949H127.847V138.959H133.892V139.862H126.74ZM132.504 135.486V129.503H133.619V135.486H132.504ZM143.894 130.506V131.533C143.89 132.834 143.89 134.285 143.492 136.439L142.374 136.315C142.776 134.285 142.776 132.797 142.784 131.533V131.409H136.407V130.506H143.894ZM135.4 138.577V137.657H139.038V133.953H140.14V137.657H144.972V138.577H135.4ZM152.579 136.431C152.579 137.334 153.03 138.287 153.979 138.859C154.941 138.238 155.417 137.235 155.417 136.431V135.93H156.511V136.431C156.503 137.525 157.224 138.577 158.591 139.029L158.04 139.841C157.004 139.485 156.3 138.785 155.935 137.923C155.604 138.764 154.974 139.539 154.012 139.936C153.001 139.559 152.363 138.818 152.04 137.956C151.663 138.785 150.967 139.481 149.977 139.841L149.421 139.029C150.768 138.54 151.497 137.45 151.506 136.431V135.93H152.579V136.431ZM149.152 132.565C149.152 131.098 150.337 130.087 151.949 130.087C153.557 130.087 154.738 131.098 154.738 132.565C154.738 134.019 153.557 135.03 151.949 135.03C150.337 135.03 149.152 134.019 149.152 132.565ZM150.242 132.565C150.233 133.481 150.95 134.102 151.949 134.106C152.935 134.102 153.648 133.481 153.648 132.565C153.648 131.645 152.935 131.023 151.949 131.032C150.95 131.023 150.233 131.645 150.242 132.565ZM156.536 135.478V129.503H157.651V135.478H156.536ZM161.715 135.793V136.907H166.65V135.793H167.765V139.862H160.617V135.793H161.715ZM159.432 135.126V134.214H169.004V135.126H159.432ZM159.946 132.689C161.98 132.42 163.646 131.305 163.646 130.054V129.606H164.789V130.054C164.789 131.268 166.463 132.436 168.477 132.689L168.075 133.564C166.376 133.323 164.893 132.519 164.222 131.401C163.542 132.523 162.05 133.323 160.36 133.564L159.946 132.689ZM161.715 138.971H166.65V137.769H161.715V138.971ZM178.633 129.494V139.994H177.531V129.494H178.633ZM170.565 137.326V130.518H171.659V136.369C173.196 136.356 174.808 136.228 176.499 135.88L176.644 136.816C174.787 137.202 173.101 137.33 171.444 137.326H170.565ZM188.593 129.494V133.559H190.276V134.483H188.593V140.015H187.479V129.494H188.593ZM180.857 137.409V130.506H185.767V131.409H181.968V136.481C183.729 136.472 185.051 136.398 186.555 136.124L186.687 137.073C185.046 137.359 183.65 137.413 181.703 137.409H180.857ZM192.098 139.079C191.638 139.079 191.257 138.706 191.265 138.25C191.257 137.794 191.638 137.421 192.098 137.421C192.546 137.421 192.927 137.794 192.927 138.25C192.927 138.706 192.546 139.079 192.098 139.079ZM206.164 129.494V139.994H205.099V134.604H203.844V139.477H202.791V129.698H203.844V133.671H205.099V129.494H206.164ZM196.953 137.028C198.49 136.17 199.207 134.359 199.207 132.271V131.599H197.239V130.692H202.116V131.599H200.285V132.271C200.285 134.16 200.993 135.872 202.522 136.659L201.867 137.512C200.832 136.953 200.144 135.975 199.771 134.761C199.41 136.141 198.714 137.243 197.645 137.877L196.953 137.028ZM215.839 129.49V132.532H217.368V133.456H215.839V137.094H214.725V129.49H215.839ZM208.057 135.271V130.381H212.748V131.289H209.16V134.355C211.202 134.355 212.35 134.293 213.672 134.019L213.801 134.927C212.375 135.204 211.136 135.275 208.89 135.271H208.057ZM209.184 139.779V136.311H210.291V138.867H216.287V139.779H209.184ZM227.652 134.977V135.867H218.08V134.977H227.652ZM219.104 131.948C219.104 130.63 220.575 129.838 222.858 129.847C225.133 129.838 226.604 130.63 226.604 131.948C226.604 133.273 225.133 134.073 222.858 134.073C220.575 134.073 219.104 133.273 219.104 131.948ZM219.286 139.779V136.721H220.405V138.867H226.575V139.779H219.286ZM220.26 131.948C220.252 132.722 221.25 133.166 222.858 133.166C224.466 133.166 225.464 132.722 225.464 131.948C225.464 131.193 224.466 130.738 222.858 130.738C221.25 130.738 220.252 131.193 220.26 131.948ZM240.302 129.494V139.994H239.192V129.494H240.302ZM231.675 137.14C232.541 137.135 233.527 137.127 234.555 137.098V136.046C233.332 135.884 232.537 135.159 232.545 134.135C232.537 132.95 233.569 132.171 235.093 132.171C236.627 132.171 237.671 132.95 237.671 134.135C237.671 135.151 236.879 135.872 235.665 136.041V137.057C236.635 137.011 237.617 136.936 238.541 136.816L238.624 137.653C236.295 138.039 233.755 138.068 231.832 138.068L231.675 137.14ZM231.895 131.637V130.746H234.555V129.515H235.669V130.746H238.305V131.637H231.895ZM233.593 134.135C233.585 134.802 234.211 135.217 235.093 135.213C235.993 135.217 236.61 134.802 236.61 134.135C236.61 133.464 235.993 133.033 235.093 133.033C234.211 133.033 233.585 133.464 233.593 134.135ZM250.847 129.503V137.467H249.728V136.46H247.615V135.673H249.728V129.503H250.847ZM242.058 134.297C244.002 134.285 246.62 134.264 248.858 133.982L248.933 134.786C248.029 134.935 247.089 135.03 246.161 135.088V137.14H245.05V135.151C244.031 135.188 243.053 135.196 242.199 135.192L242.058 134.297ZM242.879 131.753C242.879 130.646 243.94 129.905 245.498 129.905C247.031 129.905 248.096 130.646 248.104 131.753C248.096 132.876 247.031 133.584 245.498 133.584C243.94 133.584 242.879 132.876 242.879 131.753ZM243.513 139.779V136.688H244.623V138.867H251.096V139.779H243.513ZM243.935 131.753C243.931 132.378 244.565 132.768 245.498 132.768C246.393 132.768 247.035 132.378 247.043 131.753C247.035 131.131 246.393 130.729 245.498 130.733C244.565 130.729 243.931 131.131 243.935 131.753ZM264.657 129.494V139.994H263.6V134.566H262.241V139.456H261.214V129.71H262.241V133.659H263.6V129.494H264.657ZM256.005 137.471V130.758H259.933V131.662H257.12V136.53C258.408 136.518 259.378 136.46 260.497 136.244L260.588 137.164C259.32 137.425 258.234 137.463 256.701 137.471H256.005ZM272.405 130.559V131.446H266.156V130.559H268.734V129.445H269.84V130.559H272.405ZM266.728 133.837C266.724 132.685 267.764 131.935 269.285 131.927C270.797 131.935 271.825 132.685 271.829 133.837C271.825 134.985 270.797 135.739 269.285 135.739C267.764 135.739 266.724 134.985 266.728 133.837ZM267.453 137.5V136.597H274.394V139.994H273.279V137.5H267.453ZM267.801 133.837C267.793 134.483 268.39 134.873 269.285 134.873C270.172 134.873 270.768 134.483 270.777 133.837C270.768 133.186 270.172 132.785 269.285 132.776C268.39 132.785 267.793 133.186 267.801 133.837ZM273.279 136.062V129.494H274.394V132.345H275.915V133.265H274.394V136.062H273.279ZM278.52 138.18L277.58 141.42H276.585L277.211 138.18H278.52ZM288.888 130.572V131.483H287.802V136.377C288.324 136.34 288.834 136.294 289.327 136.232L289.385 137.044C287.189 137.409 284.711 137.446 282.871 137.454L282.738 136.522C283.157 136.522 283.609 136.522 284.081 136.518V131.483H282.999V130.572H288.888ZM285.162 136.497C285.676 136.485 286.207 136.468 286.733 136.443V131.483H285.162V136.497ZM289.94 139.994V129.494H291.055V133.634H292.737V134.554H291.055V139.994H289.94ZM301.886 135.084V135.979H294.572V130.36H301.782V131.272H295.695V132.681H301.55V133.568H295.695V135.084H301.886ZM293.366 138.677V137.757H302.975V138.677H293.366ZM312.621 129.494V140.015H311.511V133.8H308.374V132.888H311.511V129.494H312.621ZM304.421 137.492V130.655H305.54V136.555C307.044 136.539 308.457 136.443 309.99 136.141L310.118 137.057C308.432 137.405 306.911 137.492 305.254 137.492H304.421ZM316.234 138.18L315.293 141.42H314.299L314.924 138.18H316.234ZM324.45 132.594C324.45 134.347 325.602 136.162 327.218 136.849L326.609 137.728C325.37 137.181 324.392 136.021 323.903 134.628C323.414 136.12 322.428 137.396 321.21 137.989L320.559 137.11C322.142 136.373 323.315 134.396 323.323 132.594V131.471H320.928V130.551H326.845V131.471H324.45V132.594ZM328.167 139.994V129.494H329.286V139.994H328.167ZM339.831 136.232V139.994H338.72V137.115H332.712V136.232H339.831ZM331.233 132.61C331.225 131.131 332.401 130.075 333.98 130.083C334.871 130.079 335.638 130.423 336.126 130.994H338.72V129.494H339.831V135.685H338.72V134.239H336.131C335.638 134.815 334.875 135.163 333.98 135.159C332.401 135.163 331.225 134.11 331.233 132.61ZM332.289 132.61C332.289 133.576 332.994 134.214 333.98 134.214C334.929 134.214 335.65 133.576 335.65 132.61C335.65 131.674 334.929 131.023 333.98 131.023C332.994 131.023 332.289 131.674 332.289 132.61ZM336.615 133.331H338.72V131.906H336.615C336.678 132.126 336.715 132.362 336.715 132.61C336.715 132.863 336.678 133.108 336.615 133.331ZM348.258 132.167C348.25 134.023 349.336 135.925 350.894 136.688L350.21 137.579C349.062 136.986 348.176 135.809 347.716 134.409C347.247 135.901 346.327 137.156 345.134 137.778L344.442 136.883C346.054 136.104 347.144 134.094 347.152 132.167V130.369H348.258V132.167ZM351.685 139.994V129.494H352.8V133.684H354.482V134.633H352.8V139.994H351.685ZM363.792 129.494V139.994H362.682V129.494H363.792ZM355.165 137.14C356.031 137.135 357.017 137.127 358.045 137.098V136.046C356.823 135.884 356.027 135.159 356.035 134.135C356.027 132.95 357.059 132.171 358.584 132.171C360.117 132.171 361.161 132.95 361.161 134.135C361.161 135.151 360.37 135.872 359.156 136.041V137.057C360.125 137.011 361.107 136.936 362.031 136.816L362.114 137.653C359.785 138.039 357.245 138.068 355.323 138.068L355.165 137.14ZM355.385 131.637V130.746H358.045V129.515H359.16V130.746H361.795V131.637H355.385ZM357.084 134.135C357.075 134.802 357.701 135.217 358.584 135.213C359.483 135.217 360.1 134.802 360.1 134.135C360.1 133.464 359.483 133.033 358.584 133.033C357.701 133.033 357.075 133.464 357.084 134.135ZM377.404 129.503V137.193H376.293V133.253H374.279V132.345H376.293V129.503H377.404ZM368.656 135.001C370.272 134.459 371.279 133.075 371.279 131.628V131.214H369V130.307H374.669V131.214H372.406V131.628C372.406 132.938 373.355 134.251 374.938 134.782L374.37 135.669C373.185 135.258 372.319 134.413 371.863 133.377C371.399 134.533 370.484 135.461 369.232 135.909L368.656 135.001ZM370.587 139.779V136.51H371.698V138.867H377.681V139.779H370.587ZM387.393 129.503V132.602H388.914V133.535H387.393V137.222H386.279V129.503H387.393ZM379.545 135.482V130.253H380.643V131.939H383.395V130.253H384.497V135.482H379.545ZM380.643 134.595H383.395V132.809H380.643V134.595ZM380.739 139.779V136.456H381.845V138.867H387.841V139.779H380.739ZM393.053 130.24C394.714 130.24 395.904 131.268 395.912 132.743C395.904 134.222 394.714 135.246 393.053 135.246C391.4 135.246 390.185 134.222 390.194 132.743C390.185 131.268 391.4 130.24 393.053 130.24ZM389.688 136.829C391.603 136.833 394.25 136.812 396.546 136.481L396.633 137.293C394.255 137.744 391.702 137.757 389.825 137.757L389.688 136.829ZM391.292 132.743C391.284 133.671 392.034 134.28 393.053 134.28C394.072 134.28 394.822 133.671 394.826 132.743C394.822 131.819 394.072 131.206 393.053 131.206C392.034 131.206 391.284 131.819 391.292 132.743ZM397.205 140.015V129.494H398.315V140.015H397.205ZM411.885 129.503V137.193H410.77V129.503H411.885ZM403.233 134.827C404.878 134.218 405.852 132.71 405.852 131.123V130.087H406.991V131.123C406.983 132.656 407.961 134.069 409.577 134.628L409.005 135.515C407.795 135.072 406.9 134.181 406.432 133.041C405.968 134.26 405.06 135.233 403.83 135.702L403.233 134.827ZM405.015 139.779V136.472H406.134V138.867H412.192V139.779H405.015ZM419.799 130.448V133.336H415.585V134.529H420.076V135.403H417.735V137.011C418.697 136.97 419.666 136.903 420.578 136.804L420.665 137.624C418.349 137.981 415.858 138.022 413.857 138.01L413.72 137.077C414.615 137.077 415.605 137.073 416.625 137.048V135.403H414.474V132.507H418.705V131.338H414.454V130.448H419.799ZM421.237 140.015V129.494H422.347V140.015H421.237ZM433.75 134.314V135.167H424.141V134.314H433.75ZM425.28 136.704V135.901H432.569V138.217H426.403V139.083H432.896V139.87H425.293V137.475H431.467V136.704H425.28ZM425.347 130.551V129.768H432.54V132.039H426.478V132.838H432.722V133.622H425.376V131.305H431.429V130.551H425.347ZM446.507 136.054V136.957H440.657V138.959H446.665V139.862H439.542V136.054H446.507ZM437.851 132.577C437.843 131.098 439.02 130.05 440.599 130.058C441.978 130.05 443.052 130.87 443.284 132.084H445.339V129.494H446.449V135.499H445.339V133.004H443.296C443.085 134.235 441.999 135.084 440.599 135.088C439.02 135.084 437.843 134.032 437.851 132.577ZM438.908 132.577C438.908 133.493 439.612 134.135 440.599 134.14C441.548 134.135 442.269 133.493 442.269 132.577C442.269 131.624 441.548 130.986 440.599 130.994C439.612 130.986 438.908 131.624 438.908 132.577ZM456.684 130.506V131.533C456.68 132.834 456.68 134.285 456.282 136.439L455.163 136.315C455.565 134.285 455.565 132.797 455.573 131.533V131.409H449.196V130.506H456.684ZM448.189 138.577V137.657H451.827V133.953H452.93V137.657H457.761V138.577H448.189ZM33.982 154.428V155.34H31.5497V158.994H30.4227V155.34H27.9116V158.994H26.768V155.34H24.3729V154.428H33.982ZM25.4213 151.213C25.4213 149.796 26.9337 148.896 29.1547 148.888C31.3757 148.896 32.9006 149.796 32.9006 151.213C32.9006 152.613 31.3757 153.5 29.1547 153.492C26.9337 153.5 25.4213 152.613 25.4213 151.213ZM26.5649 151.213C26.5566 152.075 27.5967 152.605 29.1547 152.609C30.7169 152.605 31.7528 152.075 31.7528 151.213C31.7528 150.33 30.7169 149.791 29.1547 149.791C27.5967 149.791 26.5566 150.33 26.5649 151.213ZM38.7425 151.594C38.7425 153.347 39.8944 155.162 41.5104 155.849L40.9013 156.728C39.6624 156.181 38.6845 155.021 38.1955 153.628C37.7066 155.12 36.7204 156.396 35.5021 156.989L34.8516 156.11C36.4345 155.373 37.6071 153.396 37.6154 151.594V150.471H35.2204V149.551H41.1375V150.471H38.7425V151.594ZM42.4593 158.994V148.494H43.5781V158.994H42.4593ZM53.5512 148.494V152.75H55.2336V153.674H53.5512V158.994H52.449V148.494H53.5512ZM45.3137 151.047V150.14H47.9035V148.631H49.014V150.14H51.5333V151.047H45.3137ZM45.8524 154.267C45.8482 152.833 46.9504 151.822 48.467 151.822C49.967 151.822 51.0692 152.833 51.0733 154.267C51.0692 155.704 49.967 156.703 48.467 156.707C46.9504 156.703 45.8482 155.704 45.8524 154.267ZM46.9173 154.267C46.909 155.174 47.5678 155.783 48.467 155.779C49.3537 155.783 50.0043 155.174 50.0126 154.267C50.0043 153.363 49.3537 152.742 48.467 152.742C47.5678 152.742 46.909 153.363 46.9173 154.267ZM64.5893 148.494V158.994H63.4705V148.494H64.5893ZM55.9622 156.181C58.7551 154.855 60.1142 152.961 60.3338 150.512H56.4719V149.626H61.4691C61.4609 152.696 60.1556 155.36 56.5506 157.08L55.9622 156.181ZM72.8469 148.979C74.4298 148.971 75.5693 149.858 75.5693 151.155C75.5693 152.443 74.4298 153.338 72.8469 153.33C71.2682 153.338 70.1328 152.443 70.137 151.155C70.1328 149.858 71.2682 148.971 72.8469 148.979ZM69.3911 154.142C71.3262 154.142 74.003 154.101 76.3027 153.761L76.3815 154.59C75.4243 154.768 74.434 154.88 73.4685 154.95V158.675H72.3538V155.012C71.3345 155.058 70.369 155.066 69.5362 155.07L69.3911 154.142ZM71.2143 151.155C71.206 151.917 71.8939 152.423 72.8469 152.414C73.8248 152.423 74.5127 151.917 74.5127 151.155C74.5127 150.388 73.8248 149.874 72.8469 149.883C71.8939 149.874 71.206 150.388 71.2143 151.155ZM77.032 158.999V148.503H78.1259V158.999H77.032ZM85.0784 150.235V151.134H79.8698V150.235H81.9333V148.805H83.0355V150.235H85.0784ZM80.2096 154.18C80.2013 152.767 81.1626 151.764 82.4844 151.764C83.8104 151.764 84.7593 152.767 84.7676 154.18C84.7593 155.613 83.8104 156.62 82.4844 156.62C81.1626 156.62 80.2013 155.613 80.2096 154.18ZM81.1875 154.18C81.1875 155.07 81.7262 155.671 82.4844 155.663C83.2386 155.671 83.7814 155.07 83.7814 154.18C83.7814 153.305 83.2386 152.696 82.4844 152.692C81.7262 152.696 81.1875 153.305 81.1875 154.18ZM85.5673 158.501V148.731H86.6157V152.87H87.8256V148.494H88.8864V158.994H87.8256V153.778H86.6157V158.501H85.5673ZM101.955 153.189V154.105H98.7766V156.773H103.045V157.685H93.4354V156.773H97.662V154.105H94.5749V149.36H95.7103V153.189H101.955ZM108.924 149.128V152.186H105.464V153.645C107.291 153.641 108.286 153.599 109.462 153.38L109.57 154.287C108.29 154.503 107.212 154.536 105.12 154.54H104.362V151.341H107.817V150.015H104.341V149.128H108.924ZM105.547 156.392V155.493H112.678V159.007H111.567V156.392H105.547ZM109.591 153.119V152.22H111.567V150.923H109.591V150.032H111.567V148.503H112.678V154.959H111.567V153.119H109.591ZM122.597 148.494V152.75H124.28V153.674H122.597V158.994H121.495V148.494H122.597ZM114.36 151.047V150.14H116.949V148.631H118.06V150.14H120.579V151.047H114.36ZM114.898 154.267C114.894 152.833 115.996 151.822 117.513 151.822C119.013 151.822 120.115 152.833 120.119 154.267C120.115 155.704 119.013 156.703 117.513 156.707C115.996 156.703 114.894 155.704 114.898 154.267ZM115.963 154.267C115.955 155.174 116.614 155.783 117.513 155.779C118.4 155.783 119.05 155.174 119.059 154.267C119.05 153.363 118.4 152.742 117.513 152.742C116.614 152.742 115.955 153.363 115.963 154.267ZM130.188 149.501V150.968H132.562V148.494H133.664V159.015H132.562V154.747H130.188V156.372H125.319V149.501H130.188ZM126.421 155.485H129.102V150.376H126.421V155.485ZM130.188 153.848H132.562V151.876H130.188V153.848ZM137.285 157.18L136.345 160.42H135.35L135.976 157.18H137.285ZM151.232 154.461V155.385H146.948V158.999H145.854V155.385H141.623V154.461H151.232ZM142.672 151.225C142.672 149.796 144.184 148.896 146.405 148.888C148.626 148.896 150.151 149.796 150.151 151.225C150.151 152.638 148.626 153.533 146.405 153.533C144.184 153.533 142.672 152.638 142.672 151.225ZM143.815 151.225C143.807 152.099 144.847 152.642 146.405 152.642C147.967 152.642 149.003 152.099 149.003 151.225C149.003 150.343 147.967 149.791 146.405 149.791C144.847 149.791 143.807 150.343 143.815 151.225ZM160.841 148.494V159.015H159.739V148.494H160.841ZM152.711 150.351V149.439H157.63V153.28H153.867V155.576C155.566 155.568 157.054 155.489 158.81 155.199L158.914 156.119C157.054 156.425 155.471 156.496 153.623 156.496H152.723V152.385H156.502V150.351H152.711ZM166.041 149.24C167.702 149.24 168.891 150.268 168.9 151.743C168.891 153.222 167.702 154.246 166.041 154.246C164.387 154.246 163.173 153.222 163.181 151.743C163.173 150.268 164.387 149.24 166.041 149.24ZM162.676 155.829C164.59 155.833 167.238 155.812 169.534 155.481L169.621 156.293C167.242 156.744 164.69 156.757 162.813 156.757L162.676 155.829ZM164.279 151.743C164.271 152.671 165.021 153.28 166.041 153.28C167.06 153.28 167.81 152.671 167.814 151.743C167.81 150.819 167.06 150.206 166.041 150.206C165.021 150.206 164.271 150.819 164.279 151.743ZM170.192 159.015V148.494H171.303V159.015H170.192ZM185.772 156.765V157.685H176.163V156.765H180.389V154.337H177.257V149.336H184.62V154.337H181.492V156.765H185.772ZM178.346 153.454H183.53V150.235H178.346V153.454ZM196.238 153.761V154.652H186.654V153.761H196.238ZM187.847 152.7V148.93H195.057V149.82H188.958V151.793H195.152V152.7H187.847ZM187.86 158.771V155.684H188.958V157.855H195.227V158.771H187.86ZM208.714 153.189V154.105H205.536V156.773H209.804V157.685H200.195V156.773H204.421V154.105H201.334V149.36H202.47V153.189H208.714ZM215.683 149.128V152.186H212.223V153.645C214.05 153.641 215.045 153.599 216.222 153.38L216.329 154.287C215.049 154.503 213.972 154.536 211.879 154.54H211.121V151.341H214.577V150.015H211.1V149.128H215.683ZM212.306 156.392V155.493H219.437V159.007H218.327V156.392H212.306ZM216.35 153.119V152.22H218.327V150.923H216.35V150.032H218.327V148.503H219.437V154.959H218.327V153.119H216.35ZM230.206 148.494V158.994H229.137V148.494H230.206ZM221.293 153.028C221.293 150.757 222.184 149.336 223.551 149.336C224.827 149.336 225.693 150.546 225.826 152.518H227.011V148.698H228.072V158.477H227.011V153.421H225.83C225.727 155.472 224.852 156.74 223.551 156.736C222.184 156.74 221.293 155.311 221.293 153.028ZM222.329 153.028C222.32 154.702 222.797 155.684 223.551 155.675C224.326 155.684 224.807 154.702 224.807 153.028C224.807 151.358 224.326 150.38 223.551 150.38C222.797 150.38 222.32 151.358 222.329 153.028ZM235.455 151.167C235.451 153.09 236.528 155.004 238.132 155.725L237.461 156.62C236.263 156.019 235.36 154.834 234.9 153.396C234.436 154.909 233.52 156.185 232.314 156.811L231.61 155.916C233.234 155.137 234.32 153.11 234.328 151.167V149.369H235.455V151.167ZM236.98 152.887V151.983H239.321V148.494H240.423V159.015H239.321V152.887H236.98ZM249.095 150.682C249.095 152.05 250.098 153.326 251.723 153.836L251.155 154.71C249.945 154.312 249.029 153.483 248.553 152.431C248.08 153.575 247.148 154.478 245.897 154.921L245.321 154.039C246.957 153.483 247.964 152.124 247.973 150.682V150.231H245.611V149.331H251.408V150.231H249.095V150.682ZM247.048 158.779V155.448H248.167V157.867H254.225V158.779H247.048ZM252.804 156.169V148.503H253.919V156.169H252.804ZM264.393 148.494V153.898H263.295V148.494H264.393ZM255.733 152.957C257.37 152.414 258.377 151.039 258.377 149.58V148.772H259.516V149.58C259.508 150.989 260.519 152.273 262.135 152.775L261.584 153.641C260.357 153.243 259.437 152.414 258.957 151.349C258.484 152.501 257.552 153.409 256.301 153.836L255.733 152.957ZM257.502 155.278V154.399H264.41V157.026H258.617V158H264.754V158.895H257.535V156.181H263.303V155.278H257.502ZM269.92 150.073C269.912 151.536 270.865 152.849 272.456 153.367L271.851 154.238C270.695 153.819 269.846 153.011 269.39 151.959C268.934 153.16 268.018 154.097 266.746 154.557L266.149 153.662C267.828 153.09 268.801 151.693 268.81 150.119V149.079H269.92V150.073ZM267.877 156.993C267.869 155.721 269.22 154.983 271.424 154.983C273.625 154.983 274.971 155.721 274.975 156.993C274.971 158.261 273.625 158.978 271.424 158.978C269.22 158.978 267.869 158.261 267.877 156.993ZM268.98 156.993C268.971 157.693 269.887 158.099 271.424 158.099C272.957 158.099 273.869 157.693 273.873 156.993C273.869 156.268 272.957 155.858 271.424 155.858C269.887 155.858 268.971 156.268 268.98 156.993ZM271.619 151.548V150.633H273.832V148.494H274.942V154.693H273.832V151.548H271.619ZM278.567 157.18L277.627 160.42H276.632L277.258 157.18H278.567ZM292.515 154.805V155.721H288.247V158.994H287.153V155.721H282.905V154.805H292.515ZM284.169 153.827V148.963H291.338V149.858H285.267V150.931H291.097V151.805H285.267V152.936H291.454V153.827H284.169ZM302.164 148.494V154.693H301.054V153.14H298.763V153.997H293.885V149.286H298.763V150.148H301.054V148.494H302.164ZM294.988 153.098H297.673V150.177H294.988V153.098ZM295.1 156.993C295.091 155.721 296.442 154.983 298.647 154.983C300.847 154.983 302.193 155.721 302.198 156.993C302.193 158.261 300.847 158.978 298.647 158.978C296.442 158.978 295.091 158.261 295.1 156.993ZM296.202 156.993C296.193 157.698 297.109 158.112 298.647 158.112C300.18 158.112 301.091 157.698 301.095 156.993C301.091 156.256 300.18 155.854 298.647 155.845C297.109 155.854 296.193 156.256 296.202 156.993ZM298.763 152.228H301.054V151.043H298.763V152.228ZM307.633 150.073C307.625 151.536 308.578 152.849 310.169 153.367L309.564 154.238C308.408 153.819 307.559 153.011 307.103 151.959C306.647 153.16 305.732 154.097 304.459 154.557L303.863 153.662C305.541 153.09 306.515 151.693 306.523 150.119V149.079H307.633V150.073ZM305.591 156.993C305.582 155.721 306.933 154.983 309.138 154.983C311.338 154.983 312.685 155.721 312.689 156.993C312.685 158.261 311.338 158.978 309.138 158.978C306.933 158.978 305.582 158.261 305.591 156.993ZM306.693 156.993C306.685 157.693 307.6 158.099 309.138 158.099C310.671 158.099 311.582 157.693 311.587 156.993C311.582 156.268 310.671 155.858 309.138 155.858C307.6 155.858 306.685 156.268 306.693 156.993ZM309.332 151.548V150.633H311.545V148.494H312.656V154.693H311.545V151.548H309.332ZM322.985 149.162V153.483H317.988V149.162H322.985ZM318.68 158.108C320.602 157.917 322.098 156.956 322.16 156.015H319.111V155.17H322.185V154.196H323.296V155.17H326.383V156.015H323.317C323.379 156.935 324.846 157.888 326.764 158.108L326.383 158.965C324.738 158.767 323.379 158.058 322.745 157.134C322.102 158.07 320.723 158.762 319.069 158.965L318.68 158.108ZM319.082 152.605H321.887V150.048H319.082V152.605ZM325.04 154.499V148.494H326.138V154.499H325.04ZM339.696 148.503V156.193H338.581V148.503H339.696ZM331.044 153.827C332.689 153.218 333.663 151.71 333.663 150.123V149.087H334.802V150.123C334.794 151.656 335.772 153.069 337.388 153.628L336.816 154.515C335.606 154.072 334.711 153.181 334.243 152.041C333.779 153.26 332.871 154.233 331.64 154.702L331.044 153.827ZM332.826 158.779V155.472H333.944V157.867H340.002V158.779H332.826ZM347.609 149.448V152.336H343.395V153.529H347.887V154.403H345.546V156.011C346.507 155.97 347.477 155.903 348.388 155.804L348.475 156.624C346.159 156.981 343.669 157.022 341.667 157.01L341.531 156.077C342.426 156.077 343.416 156.073 344.435 156.048V154.403H342.285V151.507H346.516V150.338H342.264V149.448H347.609ZM349.047 159.015V148.494H350.158V159.015H349.047ZM361.56 153.314V154.167H351.951V153.314H361.56ZM353.091 155.704V154.901H360.38V157.217H354.214V158.083H360.707V158.87H353.103V156.475H359.277V155.704H353.091ZM353.157 149.551V148.768H360.351V151.039H354.288V151.838H360.533V152.622H353.186V150.305H359.24V149.551H353.157ZM375.101 154.428V155.34H372.669V158.994H371.542V155.34H369.031V158.994H367.887V155.34H365.492V154.428H375.101ZM366.541 151.213C366.541 149.796 368.053 148.896 370.274 148.888C372.495 148.896 374.02 149.796 374.02 151.213C374.02 152.613 372.495 153.5 370.274 153.492C368.053 153.5 366.541 152.613 366.541 151.213ZM367.684 151.213C367.676 152.075 368.716 152.605 370.274 152.609C371.836 152.605 372.872 152.075 372.872 151.213C372.872 150.33 371.836 149.791 370.274 149.791C368.716 149.791 367.676 150.33 367.684 151.213ZM379.862 151.594C379.862 153.347 381.014 155.162 382.63 155.849L382.021 156.728C380.782 156.181 379.804 155.021 379.315 153.628C378.826 155.12 377.84 156.396 376.621 156.989L375.971 156.11C377.554 155.373 378.726 153.396 378.735 151.594V150.471H376.34V149.551H382.257V150.471H379.862V151.594ZM383.579 158.994V148.494H384.697V158.994H383.579ZM394.67 148.494V152.75H396.353V153.674H394.67V158.994H393.568V148.494H394.67ZM386.433 151.047V150.14H389.023V148.631H390.133V150.14H392.653V151.047H386.433ZM386.972 154.267C386.967 152.833 388.07 151.822 389.586 151.822C391.086 151.822 392.188 152.833 392.193 154.267C392.188 155.704 391.086 156.703 389.586 156.707C388.07 156.703 386.967 155.704 386.972 154.267ZM388.036 154.267C388.028 155.174 388.687 155.783 389.586 155.779C390.473 155.783 391.124 155.174 391.132 154.267C391.124 153.363 390.473 152.742 389.586 152.742C388.687 152.742 388.028 153.363 388.036 154.267ZM405.485 153.343V154.233H402.311V156.79H406.591V157.71H396.982V156.79H401.209V154.233H398.175V149.311H405.394V150.21H399.286V153.343H405.485ZM417.066 154.225V155.133H407.457V154.225H411.716V153.231H408.691V150.558H414.745V149.622H408.662V148.739H415.856V151.383H409.794V152.356H416.071V153.231H412.81V154.225H417.066ZM408.534 156.757V155.862H415.914V158.912H414.795V156.757H408.534ZM429.533 153.189V154.105H426.355V156.773H430.623V157.685H421.014V156.773H425.24V154.105H422.153V149.36H423.289V153.189H429.533ZM436.502 149.128V152.186H433.042V153.645C434.87 153.641 435.864 153.599 437.041 153.38L437.149 154.287C435.868 154.503 434.791 154.536 432.698 154.54H431.94V151.341H435.396V150.015H431.919V149.128H436.502ZM433.125 156.392V155.493H440.256V159.007H439.146V156.392H433.125ZM437.169 153.119V152.22H439.146V150.923H437.169V150.032H439.146V148.503H440.256V154.959H439.146V153.119H437.169ZM450.246 148.494V151.13H451.767V152.066H450.246V154.61H449.131V148.494H450.246ZM442.009 150.421V149.526H444.586V148.403H445.692V149.526H448.257V150.421H442.009ZM442.58 152.692C442.576 151.573 443.604 150.848 445.137 150.848C446.649 150.848 447.677 151.573 447.681 152.692C447.677 153.811 446.649 154.54 445.137 154.536C443.604 154.54 442.576 153.811 442.58 152.692ZM443.525 158.862V155.05H444.627V156.069H449.131V155.05H450.246V158.862H443.525ZM443.654 152.692C443.645 153.318 444.242 153.707 445.137 153.707C446.024 153.707 446.62 153.318 446.629 152.692C446.62 152.079 446.024 151.677 445.137 151.681C444.242 151.677 443.645 152.079 443.654 152.692ZM444.627 157.971H449.131V156.935H444.627V157.971ZM461.197 148.494V158.994H460.095V148.494H461.197ZM453.129 156.326V149.518H454.223V155.369C455.761 155.356 457.373 155.228 459.063 154.88L459.208 155.816C457.352 156.202 455.665 156.33 454.008 156.326H453.129ZM32.5691 167.494V171.559H34.2514V172.483H32.5691V178.015H31.4544V167.494H32.5691ZM24.8329 175.409V168.506H29.7431V169.409H25.9434V174.481C27.7044 174.472 29.0262 174.398 30.5304 174.124L30.663 175.073C29.0221 175.359 27.6257 175.413 25.6782 175.409H24.8329ZM36.074 177.079C35.614 177.079 35.2328 176.706 35.2411 176.25C35.2328 175.794 35.614 175.421 36.074 175.421C36.5215 175.421 36.9027 175.794 36.9027 176.25C36.9027 176.706 36.5215 177.079 36.074 177.079ZM50.14 167.494V177.994H49.0751V172.604H47.8196V177.477H46.7671V167.698H47.8196V171.671H49.0751V167.494H50.14ZM40.9287 175.028C42.466 174.17 43.1828 172.359 43.1828 170.271V169.599H41.2146V168.692H46.0917V169.599H44.2602V170.271C44.2602 172.16 44.9688 173.872 46.4978 174.659L45.8431 175.512C44.8071 174.953 44.1193 173.975 43.7464 172.761C43.3859 174.141 42.6897 175.243 41.6207 175.877L40.9287 175.028ZM59.8148 167.49V170.532H61.3438V171.456H59.8148V175.094H58.7002V167.49H59.8148ZM52.033 173.271V168.381H56.7237V169.289H53.1353V172.355C55.1781 172.355 56.3259 172.293 57.6477 172.019L57.7761 172.927C56.3507 173.204 55.1118 173.275 52.8659 173.271H52.033ZM53.1601 177.779V174.311H54.2665V176.867H60.2623V177.779H53.1601ZM71.6277 172.977V173.867H62.0559V172.977H71.6277ZM63.0794 169.948C63.0794 168.63 64.5504 167.838 66.8335 167.847C69.1084 167.838 70.5794 168.63 70.5794 169.948C70.5794 171.273 69.1084 172.073 66.8335 172.073C64.5504 172.073 63.0794 171.273 63.0794 169.948ZM63.2617 177.779V174.721H64.3805V176.867H70.5504V177.779H63.2617ZM64.2355 169.948C64.2272 170.722 65.2258 171.166 66.8335 171.166C68.4413 171.166 69.4399 170.722 69.4399 169.948C69.4399 169.193 68.4413 168.738 66.8335 168.738C65.2258 168.738 64.2272 169.193 64.2355 169.948ZM84.3066 167.503V175.193H83.192V167.503H84.3066ZM75.6547 172.827C77.2997 172.218 78.2735 170.71 78.2735 169.123V168.087H79.413V169.123C79.4047 170.656 80.3826 172.069 81.9986 172.628L81.4268 173.515C80.2169 173.072 79.3218 172.181 78.8536 171.041C78.3895 172.26 77.482 173.233 76.2514 173.702L75.6547 172.827ZM77.4365 177.779V174.472H78.5553V176.867H84.6133V177.779H77.4365ZM92.2204 168.448V171.336H88.0063V172.529H92.498V173.403H90.1568V175.011C91.1182 174.97 92.0878 174.903 92.9994 174.804L93.0864 175.624C90.7701 175.981 88.2798 176.022 86.2784 176.01L86.1417 175.077C87.0367 175.077 88.027 175.073 89.0463 175.048V173.403H86.8958V170.507H91.1265V169.338H86.8751V168.448H92.2204ZM93.6582 178.015V167.494H94.7687V178.015H93.6582ZM105.608 167.494V177.994H104.539V167.494H105.608ZM96.6949 172.028C96.6949 169.757 97.5858 168.336 98.9532 168.336C100.229 168.336 101.095 169.546 101.228 171.518H102.413V167.698H103.474V177.477H102.413V172.421H101.232C101.129 174.472 100.254 175.74 98.9532 175.736C97.5858 175.74 96.6949 174.311 96.6949 172.028ZM97.7308 172.028C97.7225 173.702 98.199 174.684 98.9532 174.675C99.7281 174.684 100.209 173.702 100.209 172.028C100.209 170.358 99.7281 169.38 98.9532 169.38C98.199 169.38 97.7225 170.358 97.7308 172.028ZM119.124 167.494V177.994H118.067V172.566H116.708V177.456H115.68V167.71H116.708V171.659H118.067V167.494H119.124ZM110.472 175.471V168.758H114.4V169.662H111.587V174.53C112.875 174.518 113.845 174.46 114.964 174.244L115.055 175.164C113.787 175.425 112.701 175.463 111.168 175.471H110.472ZM128.861 167.503V170.88H130.381V171.808H128.861V175.363H127.746V167.503H128.861ZM120.623 169.624V168.729H123.201V167.499H124.307V168.729H126.872V169.624H120.623ZM121.195 172.119C121.191 170.913 122.227 170.13 123.752 170.13C125.256 170.13 126.292 170.913 126.296 172.119C126.292 173.304 125.256 174.079 123.752 174.079C122.227 174.079 121.191 173.304 121.195 172.119ZM122.206 177.779V174.738H123.312V176.867H129.308V177.779H122.206ZM122.268 172.119C122.26 172.798 122.857 173.217 123.752 173.213C124.638 173.217 125.235 172.798 125.243 172.119C125.235 171.423 124.638 170.992 123.752 170.992C122.857 170.992 122.26 171.423 122.268 172.119ZM143.889 169.036V169.943H142.402V171.282H143.889V172.214H142.402V173.718H141.287V167.494H142.402V169.036H143.889ZM134.309 170.61C134.301 169.14 135.494 168.104 137.106 168.108C138.71 168.104 139.89 169.14 139.899 170.61C139.89 172.094 138.71 173.122 137.106 173.122C135.494 173.122 134.301 172.094 134.309 170.61ZM135.399 170.61C135.39 171.559 136.12 172.181 137.106 172.173C138.084 172.181 138.809 171.559 138.817 170.61C138.809 169.674 138.088 169.061 137.106 169.061C136.12 169.061 135.39 169.674 135.399 170.61ZM135.461 175.094V174.186H142.402V177.994H141.287V175.094H135.461ZM154.231 172.715V173.623H144.643V172.715H148.873V171.174H149.967V172.715H154.231ZM145.19 170.876C147.203 170.61 148.853 169.43 148.853 168.104V167.66H149.98V168.104C149.98 169.446 151.625 170.61 153.655 170.876L153.212 171.754C151.55 171.485 150.083 170.673 149.416 169.517C148.745 170.677 147.278 171.485 145.6 171.754L145.19 170.876ZM145.703 175.434V174.555H153.038V177.994H151.919V175.434H145.703ZM159.911 167.669C162.277 167.669 163.657 168.307 163.657 169.471C163.657 170.652 162.277 171.29 159.911 171.298C157.545 171.29 156.157 170.652 156.157 169.471C156.157 168.307 157.545 167.669 159.911 167.669ZM155.134 172.827V171.936H164.706V172.827H155.134ZM156.273 174.468V173.635H163.491V176.093H157.384V177.033H163.794V177.895H156.294V175.293H162.398V174.468H156.273ZM157.322 169.471C157.313 170.126 158.241 170.461 159.911 170.461C161.594 170.461 162.518 170.126 162.518 169.471C162.518 168.858 161.594 168.493 159.911 168.497C158.241 168.493 157.313 168.858 157.322 169.471ZM178.246 173.014V173.901H168.654V173.014H172.889V172.102H169.905V167.78H177.078V168.663H171.024V169.512H176.808V170.341H171.024V171.236H177.148V172.102H174.003V173.014H178.246ZM169.806 176.283C169.806 175.185 171.119 174.58 173.448 174.588C175.756 174.58 177.07 175.185 177.078 176.283C177.07 177.394 175.756 177.978 173.448 177.978C171.119 177.978 169.806 177.394 169.806 176.283ZM170.925 176.283C170.916 176.855 171.795 177.141 173.448 177.133C175.089 177.141 175.959 176.855 175.967 176.283C175.959 175.72 175.089 175.421 173.448 175.421C171.795 175.421 170.916 175.72 170.925 176.283ZM184.349 169.235V170.134H179.141V169.235H181.204V167.805H182.306V169.235H184.349ZM179.481 173.18C179.472 171.767 180.434 170.764 181.755 170.764C183.081 170.764 184.03 171.767 184.039 173.18C184.03 174.613 183.081 175.62 181.755 175.62C180.434 175.62 179.472 174.613 179.481 173.18ZM180.458 173.18C180.458 174.07 180.997 174.671 181.755 174.663C182.51 174.671 183.052 174.07 183.052 173.18C183.052 172.305 182.51 171.696 181.755 171.692C180.997 171.696 180.458 172.305 180.458 173.18ZM184.838 177.501V167.731H185.887V171.87H187.097V167.494H188.157V177.994H187.097V172.778H185.887V177.501H184.838ZM198.628 168.506V169.401H192.719V168.506H195.172V167.399H196.278V168.506H198.628ZM193.307 171.746C193.299 170.606 194.285 169.844 195.715 169.844C197.132 169.844 198.135 170.606 198.143 171.746C198.135 172.881 197.132 173.631 195.715 173.631C194.285 173.631 193.299 172.881 193.307 171.746ZM194.347 171.746C194.339 172.388 194.882 172.807 195.715 172.807C196.535 172.807 197.099 172.388 197.107 171.746C197.099 171.099 196.535 170.689 195.715 170.689C194.882 170.689 194.339 171.099 194.347 171.746ZM194.542 177.862V174.145H195.648V175.135H200.356V174.145H201.458V177.862H194.542ZM195.648 176.983H200.356V175.985H195.648V176.983ZM198.648 172.84V171.932H200.347V170.785H198.661V169.877H200.347V167.494H201.458V173.718H200.347V172.84H198.648ZM208.195 168.128V171.186H204.735V172.645C206.562 172.641 207.557 172.599 208.733 172.38L208.841 173.287C207.561 173.503 206.483 173.536 204.391 173.54H203.633V170.341H207.088V169.015H203.612V168.128H208.195ZM204.818 175.392V174.493H211.949V178.007H210.838V175.392H204.818ZM208.862 172.119V171.22H210.838V169.923H208.862V169.032H210.838V167.503H211.949V173.959H210.838V172.119H208.862ZM221.939 167.461V169.923H223.468V170.83H221.939V173.233H220.824V167.461H221.939ZM213.701 169.26V168.39H216.278V167.399H217.385V168.39H219.95V169.26H213.701ZM214.273 171.381C214.269 170.325 215.284 169.662 216.829 169.662C218.367 169.662 219.369 170.325 219.374 171.381C219.369 172.454 218.367 173.101 216.829 173.101C215.284 173.101 214.269 172.454 214.273 171.381ZM215.147 174.555V173.735H221.939V176.171H216.266V177.05H222.295V177.895H215.172V175.38H220.832V174.555H215.147ZM215.346 171.381C215.338 171.953 215.922 172.285 216.829 172.289C217.729 172.285 218.313 171.953 218.321 171.381C218.313 170.818 217.729 170.465 216.829 170.465C215.922 170.465 215.338 170.818 215.346 171.381ZM232.6 168.419C232.6 169.815 234.303 171.124 236.37 171.402L235.927 172.309C234.211 172.036 232.707 171.141 232.024 169.906C231.34 171.149 229.836 172.036 228.129 172.309L227.681 171.402C229.74 171.124 231.439 169.831 231.439 168.419V167.847H232.6V168.419ZM227.229 174.261V173.341H236.801V174.261H232.537V177.994H231.443V174.261H227.229ZM244.408 174.431C244.408 175.334 244.86 176.287 245.809 176.859C246.77 176.238 247.247 175.235 247.247 174.431V173.93H248.341V174.431C248.332 175.525 249.053 176.577 250.421 177.029L249.87 177.841C248.834 177.485 248.129 176.785 247.765 175.923C247.433 176.764 246.803 177.539 245.842 177.936C244.831 177.559 244.193 176.818 243.87 175.956C243.493 176.785 242.796 177.481 241.806 177.841L241.251 177.029C242.597 176.54 243.327 175.45 243.335 174.431V173.93H244.408V174.431ZM240.981 170.565C240.981 169.098 242.167 168.087 243.778 168.087C245.386 168.087 246.567 169.098 246.567 170.565C246.567 172.019 245.386 173.03 243.778 173.03C242.167 173.03 240.981 172.019 240.981 170.565ZM242.071 170.565C242.063 171.481 242.78 172.102 243.778 172.106C244.765 172.102 245.477 171.481 245.477 170.565C245.477 169.645 244.765 169.023 243.778 169.032C242.78 169.023 242.063 169.645 242.071 170.565ZM248.365 173.478V167.503H249.48V173.478H248.365ZM259.76 170.569V171.46H252.525V167.876H253.627V170.569H259.76ZM251.245 173.673V172.782H260.854V173.673H251.245ZM252.446 177.746V174.671H253.553V176.838H259.826V177.746H252.446ZM273.06 167.494V171.091H274.556V172.023H273.06V175.703H271.95V167.494H273.06ZM264.727 173.664C265.535 173.664 266.484 173.656 267.475 173.623V172.894C266.277 172.757 265.515 172.181 265.523 171.315C265.515 170.296 266.513 169.686 268.017 169.695C269.526 169.686 270.512 170.296 270.52 171.315C270.512 172.177 269.77 172.749 268.585 172.894V173.573C269.526 173.519 270.475 173.432 271.353 173.296L271.44 174.083C269.207 174.501 266.679 174.535 264.852 174.551L264.727 173.664ZM264.997 169.293V168.468H267.475V167.461H268.585V168.468H271.055V169.293H264.997ZM266.269 177.779V175.152H267.388V176.867H273.437V177.779H266.269ZM266.584 171.315C266.58 171.829 267.127 172.148 268.017 172.148C268.908 172.148 269.455 171.829 269.455 171.315C269.455 170.772 268.908 170.457 268.017 170.457C267.127 170.457 266.58 170.772 266.584 171.315ZM284.044 167.503V173.727H282.934V172.438H280.286V171.526H282.934V170.25H280.394C279.714 171.936 278.14 173.13 275.865 173.785L275.417 172.906C277.912 172.198 279.358 170.859 279.553 169.169H275.96V168.257H280.763C280.763 168.646 280.725 169.015 280.655 169.367H282.934V167.503H284.044ZM277.046 175.885C277.046 174.613 278.434 173.838 280.589 173.838C282.714 173.838 284.107 174.613 284.111 175.885C284.107 177.162 282.714 177.945 280.589 177.945C278.434 177.945 277.046 177.162 277.046 175.885ZM278.152 175.885C278.152 176.627 279.089 177.054 280.589 177.054C282.06 177.054 282.996 176.627 283 175.885C282.996 175.14 282.06 174.713 280.589 174.717C279.089 174.713 278.152 175.14 278.152 175.885ZM290.562 167.669C292.928 167.669 294.308 168.307 294.308 169.471C294.308 170.652 292.928 171.29 290.562 171.298C288.196 171.29 286.808 170.652 286.808 169.471C286.808 168.307 288.196 167.669 290.562 167.669ZM285.784 172.827V171.936H295.356V172.827H285.784ZM286.924 174.468V173.635H294.142V176.093H288.034V177.033H294.444V177.895H286.944V175.293H293.048V174.468H286.924ZM287.972 169.471C287.964 170.126 288.892 170.461 290.562 170.461C292.244 170.461 293.168 170.126 293.168 169.471C293.168 168.858 292.244 168.493 290.562 168.497C288.892 168.493 287.964 168.858 287.972 169.471ZM308.934 175.769V176.685H299.325V175.769H303.564V173.283H304.679V175.769H308.934ZM299.768 172.807C301.72 172.475 303.531 171.017 303.531 169.413V169.318H300.121V168.394H308.101V169.318H304.691V169.413C304.691 171.017 306.51 172.446 308.511 172.757L308.06 173.635C306.365 173.316 304.803 172.334 304.119 170.954C303.44 172.351 301.89 173.358 300.22 173.685L299.768 172.807ZM313.545 169.073C313.537 170.536 314.49 171.849 316.081 172.367L315.476 173.238C314.32 172.819 313.471 172.011 313.015 170.959C312.559 172.16 311.643 173.097 310.371 173.557L309.775 172.662C311.453 172.09 312.427 170.693 312.435 169.119V168.079H313.545V169.073ZM311.503 175.993C311.494 174.721 312.845 173.983 315.05 173.983C317.25 173.983 318.596 174.721 318.601 175.993C318.596 177.261 317.25 177.978 315.05 177.978C312.845 177.978 311.494 177.261 311.503 175.993ZM312.605 175.993C312.596 176.693 313.512 177.099 315.05 177.099C316.583 177.099 317.494 176.693 317.498 175.993C317.494 175.268 316.583 174.858 315.05 174.858C313.512 174.858 312.596 175.268 312.605 175.993ZM315.244 170.548V169.633H317.457V167.494H318.567V173.693H317.457V170.548H315.244ZM331.536 167.494V171.75H333.219V172.674H331.536V177.994H330.434V167.494H331.536ZM323.299 170.047V169.14H325.889V167.631H326.999V169.14H329.518V170.047H323.299ZM323.838 173.267C323.833 171.833 324.936 170.822 326.452 170.822C327.952 170.822 329.054 171.833 329.059 173.267C329.054 174.704 327.952 175.703 326.452 175.707C324.936 175.703 323.833 174.704 323.838 173.267ZM324.902 173.267C324.894 174.174 325.553 174.783 326.452 174.779C327.339 174.783 327.989 174.174 327.998 173.267C327.989 172.363 327.339 171.742 326.452 171.742C325.553 171.742 324.894 172.363 324.902 173.267ZM338.497 168.253C338.497 169.036 338.369 169.757 338.112 170.407H339.612V167.722H340.664V173.383H339.612V171.307H337.652C336.985 172.338 335.928 173.163 334.482 173.776L333.918 172.948C335.998 172.115 337.146 170.83 337.345 169.16H334.395V168.253H338.497ZM334.42 177.124C335.762 176.648 336.516 175.533 336.516 174.518V173.884H337.581V174.518C337.573 175.43 338.021 176.374 338.969 176.95C339.931 176.32 340.395 175.305 340.403 174.518V173.884H341.489V174.518C341.481 175.604 342.214 176.685 343.573 177.124L343.03 177.945C341.994 177.58 341.286 176.867 340.921 176.001C340.594 176.847 339.972 177.626 338.994 178.028C337.987 177.646 337.358 176.896 337.039 176.03C336.661 176.867 335.969 177.572 334.979 177.945L334.42 177.124ZM341.742 173.544V167.503H342.794V173.544H341.742ZM346.622 173.793V174.907H351.557V173.793H352.672V177.862H345.524V173.793H346.622ZM344.339 173.126V172.214H353.911V173.126H344.339ZM344.853 170.689C346.887 170.42 348.553 169.305 348.553 168.054V167.606H349.697V168.054C349.697 169.268 351.371 170.436 353.385 170.689L352.983 171.564C351.284 171.323 349.8 170.519 349.129 169.401C348.45 170.523 346.958 171.323 345.267 171.564L344.853 170.689ZM346.622 176.971H351.557V175.769H346.622V176.971ZM363.54 167.494V177.994H362.438V167.494H363.54ZM355.472 175.326V168.518H356.566V174.369C358.104 174.356 359.715 174.228 361.406 173.88L361.551 174.816C359.695 175.202 358.008 175.33 356.351 175.326H355.472ZM373.501 167.494V171.559H375.183V172.483H373.501V178.015H372.386V167.494H373.501ZM365.765 175.409V168.506H370.675V169.409H366.875V174.481C368.636 174.472 369.958 174.398 371.462 174.124L371.595 175.073C369.954 175.359 368.557 175.413 366.61 175.409H365.765ZM377.006 177.079C376.546 177.079 376.165 176.706 376.173 176.25C376.165 175.794 376.546 175.421 377.006 175.421C377.453 175.421 377.834 175.794 377.834 176.25C377.834 176.706 377.453 177.079 377.006 177.079Z" fill="white"/>
</svg>
