<svg width="488" height="202" viewBox="0 0 488 202" fill="none" xmlns="http://www.w3.org/2000/svg">
<rect width="488" height="202" rx="10" fill="white" fill-opacity="0.1"/>
<path d="M32.6719 28.5C32.4297 27.1406 31.3438 26.3594 29.9688 26.3594C28.1172 26.3594 26.8047 27.7812 26.8125 30.3438C26.8047 32.9453 28.125 34.3281 29.9688 34.3281C31.3125 34.3281 32.3984 33.5781 32.6719 32.25H34.7188C34.4062 34.4219 32.6172 36.1562 29.9375 36.1562C26.9531 36.1562 24.7578 33.9922 24.7656 30.3438C24.7578 26.6875 26.9766 24.5312 29.9375 24.5312C32.4375 24.5312 34.3672 25.9844 34.7188 28.5H32.6719ZM40.2381 36.1719C37.7616 36.1719 36.1756 34.4141 36.1756 31.7969C36.1756 29.1562 37.7616 27.4062 40.2381 27.4062C42.7225 27.4062 44.3084 29.1562 44.3006 31.7969C44.3084 34.4141 42.7225 36.1719 40.2381 36.1719ZM38.1912 31.7812C38.1912 33.3359 38.8709 34.5781 40.2537 34.5781C41.6131 34.5781 42.2928 33.3359 42.285 31.7812C42.2928 30.2266 41.6131 28.9766 40.2537 28.9844C38.8709 28.9766 38.1912 30.2266 38.1912 31.7812ZM48.0075 24.6875V36H46.0075V24.6875H48.0075ZM52.0737 24.6875V36H50.0737V24.6875H52.0737ZM53.7494 33.6094C53.7494 31.7031 55.3353 31.1484 56.9056 31.0469C57.4994 31 58.7103 30.9453 59.0853 30.9297L59.0775 30.25C59.0775 29.4062 58.5384 28.9219 57.5462 28.9219C56.6556 28.9219 56.1087 29.3281 55.9525 29.9375H54.0306C54.1712 28.4922 55.4681 27.4062 57.5931 27.4062C59.2025 27.4062 61.0619 28.0703 61.0619 30.3281V36H59.1556V34.8281H59.0931C58.7181 35.5469 57.9291 36.1719 56.5931 36.1719C54.9759 36.1719 53.7494 35.2891 53.7494 33.6094ZM55.6712 33.5938C55.6712 34.3281 56.2728 34.7031 57.1087 34.7031C58.3197 34.7031 59.0931 33.9062 59.0931 32.9531L59.0853 32.2578C58.7259 32.2734 57.6166 32.3438 57.2181 32.375C56.2728 32.4531 55.6712 32.8516 55.6712 33.5938ZM63.1906 36V24.6875H65.1906V28.9062H65.2687C65.5734 28.3047 66.1906 27.4062 67.6906 27.4062C69.6516 27.4062 71.1984 28.9375 71.2062 31.7656C71.1984 34.5547 69.6984 36.1484 67.7062 36.1562C66.2375 36.1484 65.5812 35.2812 65.2687 34.6562H65.1437V36H63.1906ZM65.1437 31.75C65.1437 33.4062 65.8703 34.5156 67.1437 34.5156C68.4719 34.5156 69.1672 33.3516 69.175 31.75C69.1672 30.1719 68.4875 29.0391 67.1437 29.0312C65.8547 29.0391 65.1437 30.1016 65.1437 31.75ZM76.6319 36.1719C74.1553 36.1719 72.5694 34.4141 72.5694 31.7969C72.5694 29.1562 74.1553 27.4062 76.6319 27.4062C79.1162 27.4062 80.7022 29.1562 80.6944 31.7969C80.7022 34.4141 79.1162 36.1719 76.6319 36.1719ZM74.585 31.7812C74.585 33.3359 75.2647 34.5781 76.6475 34.5781C78.0069 34.5781 78.6866 33.3359 78.6787 31.7812C78.6866 30.2266 78.0069 28.9766 76.6475 28.9844C75.2647 28.9766 74.585 30.2266 74.585 31.7812ZM82.4012 36V27.5156H84.3387V28.9219H84.4325C84.7372 27.9453 85.5497 27.3906 86.5262 27.3906C86.745 27.3906 87.0575 27.4141 87.245 27.4375V29.2812C87.0653 29.2188 86.6512 29.1641 86.3231 29.1562C85.2137 29.1641 84.4012 29.9297 84.4012 31V36H82.4012ZM88.0456 33.6094C88.0456 31.7031 89.6316 31.1484 91.2019 31.0469C91.7956 31 93.0066 30.9453 93.3816 30.9297L93.3737 30.25C93.3737 29.4062 92.8347 28.9219 91.8425 28.9219C90.9519 28.9219 90.405 29.3281 90.2487 29.9375H88.3269C88.4675 28.4922 89.7644 27.4062 91.8894 27.4062C93.4987 27.4062 95.3581 28.0703 95.3581 30.3281V36H93.4519V34.8281H93.3894C93.0144 35.5469 92.2253 36.1719 90.8894 36.1719C89.2722 36.1719 88.0456 35.2891 88.0456 33.6094ZM89.9675 33.5938C89.9675 34.3281 90.5691 34.7031 91.405 34.7031C92.6159 34.7031 93.3894 33.9062 93.3894 32.9531L93.3816 32.2578C93.0222 32.2734 91.9128 32.3438 91.5144 32.375C90.5691 32.4531 89.9675 32.8516 89.9675 33.5938ZM101.628 27.5156V29.0469H99.9556V33.4531C99.9556 34.2656 100.362 34.4297 100.862 34.4375C101.096 34.4453 101.487 34.4219 101.737 34.4062V36.0312C101.503 36.0703 101.12 36.1172 100.612 36.1094C99.1119 36.1172 97.9556 35.375 97.9713 33.7812V29.0469H96.7525V27.5156H97.9713V25.4844H99.9556V27.5156H101.628ZM103.319 36V27.5156H105.319V36H103.319ZM103.178 25.2188C103.178 24.625 103.702 24.1406 104.334 24.1406C104.967 24.1406 105.491 24.625 105.491 25.2188C105.491 25.8203 104.967 26.3047 104.334 26.3125C103.702 26.3047 103.178 25.8203 103.178 25.2188ZM111.088 36.1719C108.612 36.1719 107.026 34.4141 107.026 31.7969C107.026 29.1562 108.612 27.4062 111.088 27.4062C113.573 27.4062 115.158 29.1562 115.151 31.7969C115.158 34.4141 113.573 36.1719 111.088 36.1719ZM109.041 31.7812C109.041 33.3359 109.721 34.5781 111.104 34.5781C112.463 34.5781 113.143 33.3359 113.135 31.7812C113.143 30.2266 112.463 28.9766 111.104 28.9844C109.721 28.9766 109.041 30.2266 109.041 31.7812ZM118.857 31.0312V36H116.857V27.5156H118.764V28.9531H118.873C119.256 28.0078 120.123 27.4062 121.389 27.4062C123.147 27.4062 124.303 28.5625 124.295 30.5938V36H122.311V30.9062C122.311 29.7656 121.693 29.0859 120.654 29.0938C119.6 29.0859 118.857 29.7969 118.857 31.0312Z" fill="white"/>
<path d="M138.363 25.0898V26.134H131.469V25.0898H134.331V23.799H135.622V25.0898H138.363ZM132.155 28.8702C132.146 27.5407 133.296 26.6512 134.964 26.6512C136.617 26.6512 137.787 27.5407 137.797 28.8702C137.787 30.1948 136.617 31.0698 134.964 31.0698C133.296 31.0698 132.146 30.1948 132.155 28.8702ZM133.369 28.8702C133.359 29.6195 133.992 30.1077 134.964 30.1077C135.921 30.1077 136.579 29.6195 136.588 28.8702C136.579 28.116 135.921 27.6374 134.964 27.6374C133.992 27.6374 133.359 28.116 133.369 28.8702ZM133.596 36.0055V31.6692H134.887V32.8246H140.378V31.6692H141.664V36.0055H133.596ZM134.887 34.9807H140.378V33.8156H134.887V34.9807ZM138.387 30.1464V29.0877H140.369V27.7486H138.401V26.6899H140.369V23.9102H141.664V31.1713H140.369V30.1464H138.387ZM147.078 24.4662C148.693 24.4565 149.945 25.3943 150.215 26.7721H152.608V23.9102H153.904V30.4848H152.608V27.8308H150.22C149.969 29.2376 148.712 30.1851 147.078 30.1851C145.207 30.1851 143.863 29.0055 143.873 27.3184C143.863 25.6457 145.207 24.4565 147.078 24.4662ZM145.106 27.3184C145.106 28.3626 145.923 29.0925 147.078 29.0925C148.214 29.0925 149.026 28.3626 149.026 27.3184C149.026 26.2597 148.214 25.549 147.078 25.5587C145.923 25.549 145.106 26.2597 145.106 27.3184ZM145.918 36.0055V31.0794H147.204V32.5055H152.608V31.0794H153.904V36.0055H145.918ZM147.204 34.9468H152.608V33.5256H147.204V34.9468Z" fill="#AEAEAE"/>
<path d="M30.3315 92.5884V93.3425H24.4309V92.5884H26.9669V91.4365H27.8785V92.5884H30.3315ZM25.0525 95.7376C25.0442 94.6022 26.0055 93.8564 27.4144 93.8564C28.8066 93.8564 29.7845 94.6022 29.7928 95.7376C29.7845 96.8646 28.8066 97.6022 27.4144 97.6022C26.0055 97.6022 25.0442 96.8646 25.0525 95.7376ZM25.9144 95.7376C25.9061 96.4337 26.5028 96.9061 27.4144 96.9061C28.3094 96.9061 28.9227 96.4337 28.9309 95.7376C28.9227 95.0331 28.3094 94.5691 27.4144 94.5691C26.5028 94.5691 25.9061 95.0331 25.9144 95.7376ZM26.279 101.812V98.1326H27.1906V99.2265H32.1464V98.1326H33.058V101.812H26.279ZM27.1906 101.075H32.1464V99.9475H27.1906V101.075ZM30.3149 96.7652V96.0028H32.1381V94.7348H30.3232V93.9724H32.1381V91.5359H33.058V97.6934H32.1381V96.7652H30.3149ZM37.7811 92.0249C39.1817 92.0166 40.2425 92.8287 40.4414 94.0304H42.6292V91.5359H43.5491V97.1215H42.6292V94.7928H40.4455C40.2632 96.0193 39.1941 96.8398 37.7811 96.8398C36.1983 96.8398 35.0712 95.8536 35.0795 94.4282C35.0712 93.011 36.1983 92.0166 37.7811 92.0249ZM35.9579 94.4282C35.9579 95.3729 36.7121 96.0608 37.7811 96.0608C38.8336 96.0608 39.5878 95.3729 39.5878 94.4282C39.5878 93.4669 38.8336 92.7956 37.7811 92.8039C36.7121 92.7956 35.9579 93.4669 35.9579 94.4282ZM36.8364 101.812V97.6519H37.7563V98.9696H42.6292V97.6519H43.5491V101.812H36.8364ZM37.7563 101.058H42.6292V99.7072H37.7563V101.058ZM54.9021 97.0304V97.7762H45.4048V97.0304H54.9021ZM46.4573 93.9641C46.4573 92.663 47.891 91.8923 50.1452 91.9006C52.391 91.8923 53.8247 92.663 53.8247 93.9641C53.8247 95.2652 52.391 96.0442 50.1452 96.0442C47.891 96.0442 46.4573 95.2652 46.4573 93.9641ZM46.6314 101.721V98.6961H47.5595V100.959H53.8413V101.721H46.6314ZM47.4104 93.9641C47.4021 94.7928 48.4711 95.2901 50.1452 95.2901C51.8192 95.2901 52.8883 94.7928 52.8883 93.9641C52.8883 93.1519 51.8192 92.6464 50.1452 92.6464C48.4711 92.6464 47.4021 93.1519 47.4104 93.9641ZM63.7348 98.116C65.9724 98.116 67.3895 98.8204 67.3978 100.03C67.3895 101.224 65.9724 101.928 63.7348 101.928C61.5056 101.928 60.0884 101.224 60.0884 100.03C60.0884 98.8204 61.5056 98.116 63.7348 98.116ZM59.0359 97.1464V96.3923H62.9641V94.3785H63.8674V96.3923H68.5166V97.1464H59.0359ZM60.163 92.8204V92.0663H67.3067V92.953C67.3067 93.7901 67.3067 94.6354 67.0166 95.7127L66.1133 95.6133C66.3951 94.5359 66.3951 93.7652 66.3951 92.953V92.8204H60.163ZM61.0083 100.03C61 100.751 62.0774 101.199 63.7348 101.199C65.4006 101.199 66.4696 100.751 66.4779 100.03C66.4696 99.2845 65.4006 98.8287 63.7348 98.8204C62.0774 98.8287 61 99.2845 61.0083 100.03ZM79.0408 97.4696V98.232H76.5298V101.953H75.6016V98.232H72.9248V101.953H71.9801V98.232H69.5022V97.4696H79.0408ZM70.5878 94.2293C70.5878 92.837 72.0629 91.9586 74.2508 91.9503C76.4386 91.9586 77.9221 92.837 77.9221 94.2293C77.9221 95.6133 76.4386 96.4834 74.2508 96.4751C72.0629 96.4834 70.5878 95.6133 70.5878 94.2293ZM71.5326 94.2293C71.5243 95.1492 72.6265 95.7376 74.2508 95.7376C75.8751 95.7376 76.9773 95.1492 76.9773 94.2293C76.9773 93.3011 75.8751 92.7044 74.2508 92.7044C72.6265 92.7044 71.5243 93.3011 71.5326 94.2293ZM86.0679 94.9503V95.7044H83.9629V97.1588C84.9366 97.1133 85.9062 97.047 86.8054 96.9475L86.8717 97.6271C84.6342 97.9337 82.1562 98 80.1922 98L80.0513 97.2459C80.967 97.2417 81.9946 97.2293 83.043 97.1961V95.7044H81.0043V92.2155H85.985V92.9779H81.9325V94.9503H86.0679ZM81.833 101.721V98.7956H82.7529V100.959H88.9435V101.721H81.833ZM87.6756 99.3343V91.5442H88.5955V99.3343H87.6756ZM101.912 91.9751V95.4972H98.8371V96.8232H103.13V97.5773H93.6327V96.8232H97.9255V95.4972H94.8592V91.9751H101.912ZM94.6851 99.4088V98.6713H101.953V101.953H101.025V99.4088H94.6851ZM95.7625 94.7514H101V92.7127H95.7625V94.7514ZM113.662 99.9144V100.677H104.124V99.9144H106.784V97.4282H104.986V96.6657H106.618V93.268H104.969V92.5055H112.751V93.268H111.093V96.6657H112.726V97.4282H110.936V99.9144H113.662ZM107.53 96.6657H110.19V93.268H107.53V96.6657ZM107.704 99.9144H110.016V97.4282H107.704V99.9144ZM124.137 96.3757V97.0967H114.598V96.3757H124.137ZM115.75 98.6215V97.9337H122.944V100.146H116.687V101.141H123.283V101.812H115.767V99.5083H122.032V98.6215H115.75ZM115.808 92.5138V91.8508H122.91V94.0055H116.753V94.9171H123.093V95.5884H115.841V93.3757H121.991V92.5138H115.808ZM133.343 92.1409V92.895H129.622V95.6381C131.669 95.6423 132.895 95.5677 134.321 95.2818L134.437 96.0193C132.945 96.3343 131.669 96.3923 129.522 96.384H128.718V92.1409H133.343ZM129.738 98.058V97.3122H136.384V99.8729H130.666V101.058H136.765V101.812H129.763V99.1519H135.472V98.058H129.738ZM135.464 96.7901V91.5359H136.384V93.7403H137.95V94.511H136.384V96.7901H135.464ZM142.309 93.1768C142.301 94.6602 143.361 95.9696 144.894 96.4834L144.381 97.2044C143.229 96.7735 142.325 95.9282 141.874 94.8301C141.43 96.0773 140.477 97.047 139.218 97.5193L138.72 96.7735C140.32 96.2099 141.389 94.826 141.397 93.2099V92.1326H142.309V93.1768ZM140.419 99.9807C140.411 98.7293 141.737 98.0083 143.908 98.0083C146.071 98.0083 147.397 98.7293 147.397 99.9807C147.397 101.224 146.071 101.928 143.908 101.928C141.737 101.928 140.411 101.224 140.419 99.9807ZM141.331 99.9807C141.323 100.735 142.309 101.191 143.908 101.191C145.499 101.191 146.486 100.735 146.486 99.9807C146.486 99.2017 145.499 98.7376 143.908 98.7376C142.309 98.7376 141.323 99.2017 141.331 99.9807ZM144.124 94.5276V93.7652H146.444V91.5359H147.364V97.7099H146.444V94.5276H144.124ZM157.283 91.5359V95.8287H159.024V96.5994H157.283V101.953H156.372V91.5359H157.283ZM149.162 93.9724V93.2099H151.839V91.6602H152.759V93.2099H155.361V93.9724H149.162ZM149.759 97.2293C149.75 95.8204 150.828 94.8343 152.311 94.8343C153.786 94.8343 154.855 95.8204 154.863 97.2293C154.855 98.6381 153.786 99.616 152.311 99.616C150.828 99.616 149.75 98.6381 149.759 97.2293ZM150.637 97.2293C150.629 98.174 151.341 98.8453 152.311 98.837C153.272 98.8453 153.977 98.174 153.985 97.2293C153.977 96.2845 153.272 95.605 152.311 95.605C151.341 95.605 150.629 96.2845 150.637 97.2293ZM168.065 92.5884V93.6243C168.056 94.9088 168.056 96.3343 167.675 98.4309L166.747 98.3232C167.136 96.3343 167.136 94.8757 167.145 93.6243V93.3508H160.722V92.5884H168.065ZM159.711 100.478V99.7072H163.432V95.9862H164.344V99.7072H169.208V100.478H159.711ZM177.088 93.2514C177.088 94.6105 178.215 95.8204 179.765 96.2928L179.301 97.0138C178.078 96.6285 177.1 95.7914 176.628 94.7141C176.172 95.866 175.19 96.7693 173.939 97.1961L173.466 96.4669C175.033 95.9696 176.151 94.6851 176.16 93.2514V92.9862H173.723V92.232H179.483V92.9862H177.088V93.2514ZM175.19 101.812V97.6851H176.093V98.9448H181.024V97.6851H181.936V101.812H175.19ZM176.093 101.058H181.024V99.6823H176.093V101.058ZM181.016 97.1713V91.5359H181.936V97.1713H181.016ZM191.971 91.5276V94.6354H193.546V95.4061H191.971V99.0773H191.051V91.5276H191.971ZM184.322 97.221V92.4392H188.955V93.2017H185.234V96.4503C187.322 96.4586 188.515 96.3964 189.908 96.1105L190.024 96.8729C188.557 97.1547 187.314 97.2293 185.126 97.221H184.322ZM185.449 101.721V98.3149H186.361V100.959H192.452V101.721H185.449ZM197.937 93.4586C197.937 94.8094 198.982 96.1022 200.507 96.6326L200.026 97.3536C198.849 96.9351 197.942 96.0649 197.49 94.9917C197.042 96.1892 196.077 97.1464 194.838 97.6022L194.357 96.8729C195.899 96.326 197.009 94.9337 197.009 93.4669V93.011H194.656V92.2569H200.266V93.011H197.937V93.4586ZM195.94 99.0856V98.3315H202.951V101.953H202.031V99.0856H195.94ZM199.935 95.0331V94.2624H202.031V91.5359H202.951V97.7762H202.031V95.0331H199.935ZM211.519 93.1768C211.511 94.6602 212.571 95.9696 214.104 96.4834L213.591 97.2044C212.439 96.7735 211.535 95.9282 211.084 94.8301C210.64 96.0773 209.687 97.047 208.428 97.5193L207.93 96.7735C209.53 96.2099 210.599 94.826 210.607 93.2099V92.1326H211.519V93.1768ZM209.629 99.9807C209.621 98.7293 210.947 98.0083 213.118 98.0083C215.281 98.0083 216.607 98.7293 216.607 99.9807C216.607 101.224 215.281 101.928 213.118 101.928C210.947 101.928 209.621 101.224 209.629 99.9807ZM210.541 99.9807C210.533 100.735 211.519 101.191 213.118 101.191C214.709 101.191 215.696 100.735 215.696 99.9807C215.696 99.2017 214.709 98.7376 213.118 98.7376C211.519 98.7376 210.533 99.2017 210.541 99.9807ZM213.334 94.5276V93.7652H215.654V91.5359H216.574V97.7099H215.654V94.5276H213.334ZM223.137 98.116C225.375 98.116 226.792 98.8204 226.8 100.03C226.792 101.224 225.375 101.928 223.137 101.928C220.908 101.928 219.491 101.224 219.491 100.03C219.491 98.8204 220.908 98.116 223.137 98.116ZM218.438 97.1464V96.3923H222.366V94.3785H223.27V96.3923H227.919V97.1464H218.438ZM219.565 92.8204V92.0663H226.709V92.953C226.709 93.7901 226.709 94.6354 226.419 95.7127L225.515 95.6133C225.797 94.5359 225.797 93.7652 225.797 92.953V92.8204H219.565ZM220.411 100.03C220.402 100.751 221.48 101.199 223.137 101.199C224.803 101.199 225.872 100.751 225.88 100.03C225.872 99.2845 224.803 98.8287 223.137 98.8204C221.48 98.8287 220.402 99.2845 220.411 100.03ZM233.661 91.7182C235.982 91.7182 237.341 92.3564 237.341 93.5166C237.341 94.6934 235.982 95.3315 233.661 95.3398C231.341 95.3315 229.973 94.6934 229.973 93.5166C229.973 92.3564 231.341 91.7182 233.661 91.7182ZM228.921 96.7901V96.0442H238.418V96.7901H228.921ZM230.073 98.3978V97.6934H237.192V100.022H231.001V101.108H237.507V101.837H230.098V99.3425H236.288V98.3978H230.073ZM230.935 93.5166C230.926 94.2376 231.938 94.6354 233.661 94.6354C235.393 94.6354 236.404 94.2376 236.404 93.5166C236.404 92.8287 235.393 92.4144 233.661 92.4144C231.938 92.4144 230.926 92.8287 230.935 93.5166ZM251.129 91.5359V101.97H250.209V91.5359H251.129ZM242.933 95.9696C242.933 93.7569 244.035 92.3481 245.593 92.3398C247.135 92.3481 248.254 93.7569 248.254 95.9696C248.254 98.1906 247.135 99.5994 245.593 99.5994C244.035 99.5994 242.933 98.1906 242.933 95.9696ZM243.82 95.9696C243.82 97.6685 244.549 98.779 245.593 98.779C246.638 98.779 247.359 97.6685 247.359 95.9696C247.359 94.279 246.638 93.1685 245.593 93.1602C244.549 93.1685 243.82 94.279 243.82 95.9696ZM257.22 92.7127V93.1022C257.212 93.9972 257.22 95.7127 256.515 98.5055L255.587 98.3564C256.213 96.1022 256.288 94.4613 256.304 93.4751H253.772V92.7127H257.22ZM253.035 100.387V99.616H262.532V100.387H253.035ZM257.982 93.4751V92.7127H261.438V93.5C261.438 94.6271 261.446 96.1519 260.982 98.489L260.046 98.3895C260.527 96.1685 260.527 94.6188 260.527 93.5V93.4751H257.982ZM271.946 94.6934V95.4392H264.819V91.9171H265.73V94.6934H271.946ZM263.509 97.6022V96.8564H273.048V97.6022H263.509ZM264.752 101.696V98.663H265.664V100.934H272.012V101.696H264.752ZM280.016 92.0249C281.417 92.0166 282.477 92.8287 282.676 94.0304H284.864V91.5359H285.784V97.1215H284.864V94.7928H282.681C282.498 96.0193 281.429 96.8398 280.016 96.8398C278.433 96.8398 277.306 95.8536 277.314 94.4282C277.306 93.011 278.433 92.0166 280.016 92.0249ZM278.193 94.4282C278.193 95.3729 278.947 96.0608 280.016 96.0608C281.069 96.0608 281.823 95.3729 281.823 94.4282C281.823 93.4669 281.069 92.7956 280.016 92.8039C278.947 92.7956 278.193 93.4669 278.193 94.4282ZM279.071 101.812V97.6519H279.991V98.9696H284.864V97.6519H285.784V101.812H279.071ZM279.991 101.058H284.864V99.7072H279.991V101.058ZM297.162 97.5939V98.3481H292.819V101.945H291.916V98.3481H287.623V97.5939H297.162ZM288.858 96.1685V92.116H295.927V96.1685H288.858ZM289.761 95.4475H295.016V92.8702H289.761V95.4475ZM309.89 91.5359V97.1961H308.978V94.8343H306.865V94.0635H308.978V91.5359H309.89ZM301.304 96.6409C302.846 96.0856 303.956 94.7099 303.956 93.2265V92.9282H301.602V92.1657H307.213V92.9282H304.884V93.2265C304.884 94.5691 305.928 95.8785 307.453 96.4006L306.973 97.1215C305.796 96.6906 304.888 95.8246 304.437 94.7555C303.985 95.953 303.024 96.9102 301.785 97.3619L301.304 96.6409ZM303.185 101.812V97.6934H304.105V98.9945H308.978V97.6934H309.89V101.812H303.185ZM304.105 101.058H308.978V99.732H304.105V101.058ZM320.041 92.1657V92.9696C320.041 93.8481 320.041 94.9047 319.768 96.326H321.292V97.0967H311.754V96.326H318.848C319.129 94.8881 319.129 93.8564 319.129 92.9696V92.9199H312.964V92.1657H320.041ZM313.013 101.713V98.2652H313.933V100.942H320.356V101.713H313.013ZM330.183 98.0829C332.321 98.0829 333.614 98.7873 333.614 100.006C333.614 101.232 332.321 101.936 330.183 101.945C328.037 101.936 326.727 101.232 326.727 100.006C326.727 98.7873 328.037 98.0829 330.183 98.0829ZM325.824 96.989V92.1823H326.727V93.7818H329.761V92.1823H330.672V96.989H325.824ZM326.727 96.2431H329.761V94.511H326.727V96.2431ZM327.647 100.006C327.639 100.751 328.609 101.199 330.183 101.199C331.758 101.199 332.719 100.751 332.719 100.006C332.719 99.2597 331.758 98.8204 330.183 98.8122C328.609 98.8204 327.639 99.2597 327.647 100.006ZM332.603 97.8011V91.5359H333.523V94.1547H335.089V94.942H333.523V97.8011H332.603ZM339.556 93.0442C339.547 94.5608 340.649 95.9116 342.199 96.4503L341.727 97.1796C340.517 96.7362 339.564 95.837 339.096 94.6768C338.64 95.9157 337.678 96.8895 336.448 97.3619L335.967 96.6409C337.533 96.0608 338.619 94.6188 338.619 93.0442V92.0414H339.556V93.0442ZM337.459 99.0856V98.3315H344.47V101.953H343.55V99.0856H337.459ZM343.55 97.8094V91.5359H344.47V97.8094H343.55ZM349.765 92.2983C351.406 92.2983 352.566 93.2928 352.574 94.7431C352.566 96.1934 351.406 97.1878 349.765 97.1878C348.124 97.1878 346.947 96.1934 346.955 94.7431C346.947 93.2928 348.124 92.2983 349.765 92.2983ZM346.417 98.8867C348.339 98.895 350.991 98.8785 353.295 98.5387L353.37 99.2182C350.983 99.6657 348.422 99.674 346.541 99.674L346.417 98.8867ZM347.859 94.7431C347.85 95.7127 348.654 96.384 349.765 96.384C350.867 96.384 351.671 95.7127 351.671 94.7431C351.671 93.7735 350.867 93.1022 349.765 93.1022C348.654 93.1022 347.85 93.7735 347.859 94.7431ZM353.983 101.97V91.5359H354.903V101.97H353.983ZM365.269 92.7624V93.5083H359.924V92.7624H362.153V91.5856H363.064V92.7624H365.269ZM360.379 95.8867C360.371 94.7762 361.291 94.0387 362.6 94.0387C363.926 94.0387 364.838 94.7762 364.846 95.8867C364.838 96.9807 363.926 97.7182 362.6 97.7182C361.291 97.7182 360.371 96.9807 360.379 95.8867ZM361.2 95.8867C361.2 96.558 361.772 97.0138 362.6 97.0138C363.437 97.0138 364.009 96.558 364.009 95.8867C364.009 95.1989 363.437 94.7431 362.6 94.7348C361.772 94.7431 361.2 95.1989 361.2 95.8867ZM361.805 99.384V98.6381H368.824V101.953H367.921V99.384H361.805ZM365.716 97.942V91.7182H366.595V94.4696H367.954V91.5442H368.824V98.0166H367.954V95.232H366.595V97.942H365.716ZM379.075 91.5442V97.4613H378.155V91.5442H379.075ZM370.556 96.4669C372.13 95.9116 373.224 94.5028 373.224 92.9696V91.9503H374.16V92.9696C374.152 94.4448 375.279 95.7459 376.812 96.2845L376.348 96.989C375.134 96.5704 374.169 95.6961 373.701 94.5566C373.241 95.7666 372.271 96.732 371.028 97.1961L370.556 96.4669ZM372.296 101.812V98.058H379.075V101.812H372.296ZM373.207 101.058H378.172V98.8039H373.207V101.058ZM389.566 91.5359V97.1215H388.646V91.5359H389.566ZM381.204 94.4365C381.204 93.011 382.356 92.0331 383.939 92.0414C385.522 92.0331 386.665 93.011 386.665 94.4365C386.665 95.8536 385.522 96.8315 383.939 96.8232C382.356 96.8315 381.204 95.8536 381.204 94.4365ZM382.107 94.4365C382.099 95.3895 382.87 96.0608 383.939 96.0608C385 96.0608 385.77 95.3895 385.77 94.4365C385.77 93.4834 385 92.8122 383.939 92.8204C382.87 92.8122 382.099 93.4834 382.107 94.4365ZM382.82 101.812V97.6519H383.723V98.9199H388.654V97.6519H389.566V101.812H382.82ZM383.723 101.058H388.654V99.6575H383.723V101.058ZM400.04 91.5359V101.953H399.129V91.5359H400.04ZM392.134 99.268V92.5635H393.038V98.4641C394.629 98.4599 396.266 98.3356 398.018 97.9669L398.143 98.7541C396.295 99.1354 394.645 99.268 392.98 99.268H392.134ZM410.009 91.5359V95.6547H411.75V96.4254H410.009V101.97H409.09V91.5359H410.009ZM402.402 99.3591V92.5552H407.266V93.3094H403.322V98.5801C405.207 98.576 406.541 98.5014 408.087 98.2155L408.203 99.011C406.57 99.3011 405.203 99.3591 403.222 99.3591H402.402ZM413.539 101.066C413.125 101.066 412.777 100.727 412.785 100.312C412.777 99.8978 413.125 99.558 413.539 99.558C413.954 99.558 414.293 99.8978 414.293 100.312C414.293 100.727 413.954 101.066 413.539 101.066ZM428.246 97.5028V98.2818H423.903V101.953H423V98.2818H418.707V97.5028H428.246ZM419.793 94.2459C419.793 92.837 421.268 91.9586 423.456 91.9503C425.644 91.9586 427.127 92.837 427.127 94.2459C427.127 95.6381 425.644 96.5166 423.456 96.5166C421.268 96.5166 419.793 95.6381 419.793 94.2459ZM420.738 94.2459C420.729 95.174 421.832 95.7707 423.456 95.7707C425.08 95.7707 426.182 95.174 426.182 94.2459C426.182 93.3094 425.08 92.7044 423.456 92.7044C421.832 92.7044 420.729 93.3094 420.738 94.2459ZM437.817 91.5359V101.97H436.906V91.5359H437.817ZM429.803 93.268V92.5055H434.651V96.2099H430.765V98.6713C432.493 98.6671 434.03 98.5925 435.895 98.2901L435.986 99.0608C434.071 99.3674 432.488 99.442 430.69 99.442H429.82V95.4558H433.723V93.268H429.803ZM448.126 94.6934V95.4392H440.999V91.9171H441.911V94.6934H448.126ZM439.69 97.6022V96.8564H449.228V97.6022H439.69ZM440.933 101.696V98.663H441.844V100.934H448.192V101.696H440.933ZM457.033 94.337C457.025 96.2348 458.318 98.1492 459.851 98.8453L459.287 99.5746C458.102 98.9945 457.079 97.7597 456.582 96.2762C456.101 97.8467 455.073 99.1685 453.851 99.7818L453.271 99.011C454.821 98.2983 456.105 96.3094 456.113 94.337V92.4392H457.033V94.337ZM460.995 101.97V91.5359H461.915V101.97H460.995ZM33.0663 110.536V120.97H32.1464V114.738H28.8978V113.975H32.1464V110.536H33.0663ZM24.9945 118.442V111.704H25.9227V117.663C27.5138 117.651 28.9309 117.564 30.4972 117.249L30.6133 118.011C28.9475 118.351 27.4807 118.442 25.7983 118.442H24.9945ZM38.643 113.735C38.643 115.5 39.9276 117.298 41.4607 117.961L40.9469 118.691C39.7287 118.135 38.6803 116.938 38.1914 115.5C37.7024 117.025 36.6499 118.351 35.4607 118.948L34.9137 118.218C36.4055 117.506 37.7066 115.533 37.7149 113.735V112.376H35.2535V111.605H41.1209V112.376H38.643V113.735ZM42.5795 120.953V110.536H43.4994V120.953H42.5795ZM54.9269 115.376V116.097H45.3883V115.376H54.9269ZM46.5402 117.622V116.934H53.7336V119.146H47.4767V120.141H54.0733V120.812H46.5568V118.508H52.822V117.622H46.5402ZM46.5982 111.514V110.851H53.7004V113.006H47.543V113.917H53.8827V114.588H46.6314V112.376H52.7805V111.514H46.5982ZM68.5249 115.409V116.171H64.2238V117.282C66.1879 117.369 67.3481 118.011 67.3564 119.105C67.3481 120.273 66.0056 120.928 63.768 120.928C61.5138 120.928 60.1713 120.273 60.1713 119.105C60.1713 118.011 61.3357 117.369 63.3122 117.282V116.171H59.0277V115.409H68.5249ZM59.5663 114.05C61.373 113.855 63.1133 112.939 63.1796 111.771H59.8978V111.025H67.6713V111.771H64.373C64.431 112.939 66.1547 113.855 67.9945 114.05L67.6547 114.779C65.9434 114.568 64.3481 113.805 63.7763 112.645C63.2003 113.805 61.6091 114.568 59.8978 114.779L59.5663 114.05ZM61.1078 119.105C61.0995 119.801 62.1022 120.215 63.768 120.207C65.4254 120.215 66.4282 119.801 66.4365 119.105C66.4282 118.401 65.4254 117.994 63.768 117.986C62.1022 117.994 61.0995 118.401 61.1078 119.105ZM78.121 110.544V116.461H77.2011V110.544H78.121ZM69.6016 115.467C71.1762 114.912 72.2701 113.503 72.2701 111.97V110.95H73.2066V111.97C73.1983 113.445 74.3254 114.746 75.8585 115.285L75.3944 115.989C74.1803 115.57 73.2149 114.696 72.7466 113.557C72.2867 114.767 71.3171 115.732 70.074 116.196L69.6016 115.467ZM71.3419 120.812V117.058H78.121V120.812H71.3419ZM72.2536 120.058H77.2176V117.804H72.2536V120.058ZM84.7502 111.207C86.9297 111.215 88.5623 112.351 88.5623 114.075C88.5623 115.807 86.9297 116.942 84.7502 116.934C82.5789 116.942 80.9463 115.807 80.9463 114.075C80.9463 112.351 82.5789 111.215 84.7502 111.207ZM80.0098 119.561V118.79H89.5485V119.561H80.0098ZM81.8248 114.075C81.8165 115.334 83.0761 116.18 84.7502 116.18C86.4242 116.18 87.6756 115.334 87.6756 114.075C87.6756 112.823 86.4242 111.953 84.7502 111.961C83.0761 111.953 81.8165 112.823 81.8248 114.075ZM100.04 118.881V119.66H90.5009V118.881H94.7855V116.917H91.6943V113.702H97.9263V112.069H91.6694V111.307H98.8379V114.456H92.6059V116.155H99.0783V116.917H95.6971V118.881H100.04ZM110.033 111.588V112.343H104.132V111.588H106.668V110.436H107.58V111.588H110.033ZM104.754 114.738C104.745 113.602 105.707 112.856 107.115 112.856C108.508 112.856 109.486 113.602 109.494 114.738C109.486 115.865 108.508 116.602 107.115 116.602C105.707 116.602 104.745 115.865 104.754 114.738ZM105.615 114.738C105.607 115.434 106.204 115.906 107.115 115.906C108.01 115.906 108.624 115.434 108.632 114.738C108.624 114.033 108.01 113.569 107.115 113.569C106.204 113.569 105.607 114.033 105.615 114.738ZM105.98 120.812V117.133H106.892V118.227H111.848V117.133H112.759V120.812H105.98ZM106.892 120.075H111.848V118.948H106.892V120.075ZM110.016 115.765V115.003H111.839V113.735H110.024V112.972H111.839V110.536H112.759V116.693H111.839V115.765H110.016ZM119.554 111.174V114.099H115.974V115.715C117.93 115.715 118.945 115.674 120.167 115.45L120.258 116.213C118.966 116.428 117.905 116.461 115.8 116.461H115.062V113.387H118.642V111.92H115.037V111.174H119.554ZM116.231 118.26V117.506H123.25V120.97H122.33V118.26H116.231ZM120.25 115.003V114.249H122.33V112.84H120.25V112.094H122.33V110.544H123.25V116.942H122.33V115.003H120.25ZM133.252 110.536V113.304H134.819V114.099H133.252V116.809H132.332V110.536H133.252ZM125.131 112.401V111.646H127.783V110.453H128.694V111.646H131.338V112.401H125.131ZM125.727 114.779C125.719 113.66 126.722 112.923 128.239 112.923C129.73 112.923 130.733 113.66 130.741 114.779C130.733 115.906 129.73 116.635 128.239 116.635C126.722 116.635 125.719 115.906 125.727 114.779ZM126.606 114.779C126.598 115.483 127.252 115.923 128.239 115.931C129.208 115.923 129.863 115.483 129.871 114.779C129.863 114.091 129.208 113.635 128.239 113.635C127.252 113.635 126.598 114.091 126.606 114.779ZM126.672 120.812V117.406H133.252V120.812H126.672ZM127.576 120.058H132.341V118.144H127.576V120.058ZM140.337 111.207C142.517 111.215 144.15 112.351 144.15 114.075C144.15 115.807 142.517 116.942 140.337 116.934C138.166 116.942 136.533 115.807 136.533 114.075C136.533 112.351 138.166 111.215 140.337 111.207ZM135.597 119.561V118.79H145.136V119.561H135.597ZM137.412 114.075C137.404 115.334 138.663 116.18 140.337 116.18C142.011 116.18 143.263 115.334 143.263 114.075C143.263 112.823 142.011 111.953 140.337 111.961C138.663 111.953 137.404 112.823 137.412 114.075ZM155.627 118.881V119.66H146.088V118.881H150.373V116.917H147.281V113.702H153.514V112.069H147.257V111.307H154.425V114.456H148.193V116.155H154.665V116.917H151.284V118.881H155.627ZM165.372 110.536V120.953H164.444V115.127H162.587V114.315H164.444V110.536H165.372ZM156.422 117.912C157.69 116.975 158.054 115.16 158.063 113.843V111.464H158.933V113.843C158.925 114.891 159.123 116.424 159.969 117.472C160.797 116.457 160.98 114.941 160.988 113.843V111.464H161.875V113.843C161.867 115.202 162.215 117 163.516 117.912L162.927 118.583C162.144 118.015 161.684 117.087 161.431 116.084C161.199 117.112 160.76 118.086 159.96 118.666C159.161 118.081 158.721 117.104 158.489 116.084C158.237 117.07 157.789 117.99 157.043 118.558L156.422 117.912ZM179.699 115.732V116.486H170.202V115.732H174.495V114.472H171.404V110.959H178.522V111.713H172.324V113.702H178.614V114.472H175.406V115.732H179.699ZM171.255 118.26V117.506H178.531V121.028H177.619V118.26H171.255ZM184.215 113.735C184.207 115.401 185.417 117.24 186.925 117.961L186.395 118.691C185.23 118.115 184.24 116.888 183.772 115.479C183.287 117.004 182.243 118.351 181.074 118.948L180.519 118.218C182.019 117.489 183.304 115.508 183.312 113.735V112.376H180.892V111.605H186.561V112.376H184.215V113.735ZM187.837 120.953V110.536H188.757V114.746H190.497V115.533H188.757V120.953H187.837ZM194.806 112.459C194.806 113.809 195.85 115.102 197.375 115.633L196.894 116.354C195.717 115.935 194.81 115.065 194.358 113.992C193.911 115.189 192.945 116.146 191.706 116.602L191.226 115.873C192.767 115.326 193.878 113.934 193.878 112.467V112.011H191.524V111.257H197.134V112.011H194.806V112.459ZM192.809 118.086V117.331H199.82V120.953H198.9V118.086H192.809ZM196.803 114.033V113.262H198.9V110.536H199.82V116.776H198.9V114.033H196.803ZM213.243 115.276V116.047H210.011V118.831H214.346V119.594H204.807V118.831H209.092V116.047H205.976V111.423H206.912V115.276H213.243ZM220.237 111.174V114.099H216.657V115.715C218.613 115.715 219.628 115.674 220.851 115.45L220.942 116.213C219.649 116.428 218.588 116.461 216.483 116.461H215.746V113.387H219.326V111.92H215.721V111.174H220.237ZM216.914 118.26V117.506H223.933V120.97H223.014V118.26H216.914ZM220.933 115.003V114.249H223.014V112.84H220.933V112.094H223.014V110.544H223.933V116.942H223.014V115.003H220.933ZM237.134 111.646V112.691C237.134 114 237.134 115.483 236.744 117.746L235.808 117.655C236.23 115.525 236.23 113.967 236.23 112.691V112.409H229.957V111.646H237.134ZM228.921 119.42V118.649H238.418V119.42H228.921ZM251.129 110.536V120.97H250.209V110.536H251.129ZM242.933 114.97C242.933 112.757 244.035 111.348 245.593 111.34C247.135 111.348 248.254 112.757 248.254 114.97C248.254 117.191 247.135 118.599 245.593 118.599C244.035 118.599 242.933 117.191 242.933 114.97ZM243.82 114.97C243.82 116.669 244.549 117.779 245.593 117.779C246.638 117.779 247.359 116.669 247.359 114.97C247.359 113.279 246.638 112.169 245.593 112.16C244.549 112.169 243.82 113.279 243.82 114.97ZM256.515 112.218C256.515 113.635 257.593 114.936 259.101 115.45L258.604 116.18C257.452 115.757 256.54 114.895 256.089 113.809C255.641 115.04 254.709 116.001 253.491 116.47L252.993 115.732C254.56 115.152 255.604 113.76 255.612 112.152V111.075H256.515V112.218ZM254.386 119.03C254.386 117.837 255.695 117.141 257.841 117.141C259.98 117.141 261.272 117.837 261.272 119.03C261.272 120.24 259.98 120.928 257.841 120.928C255.695 120.928 254.386 120.24 254.386 119.03ZM255.306 119.03C255.297 119.768 256.267 120.191 257.841 120.199C259.416 120.191 260.377 119.768 260.377 119.03C260.377 118.318 259.416 117.878 257.841 117.878C256.267 117.878 255.297 118.318 255.306 119.03ZM260.261 116.876V110.536H261.181V113.254H262.748V114.025H261.181V116.876H260.261ZM268.266 110.718C270.587 110.718 271.946 111.356 271.946 112.517C271.946 113.693 270.587 114.331 268.266 114.34C265.946 114.331 264.578 113.693 264.578 112.517C264.578 111.356 265.946 110.718 268.266 110.718ZM263.526 115.79V115.044H273.023V115.79H263.526ZM264.678 117.398V116.693H271.797V119.022H265.606V120.108H272.112V120.837H264.703V118.343H270.893V117.398H264.678ZM265.54 112.517C265.531 113.238 266.543 113.635 268.266 113.635C269.998 113.635 271.009 113.238 271.009 112.517C271.009 111.829 269.998 111.414 268.266 111.414C266.543 111.414 265.531 111.829 265.54 112.517ZM282.254 111.141V111.895H278.533V114.638C280.58 114.642 281.806 114.568 283.232 114.282L283.348 115.019C281.856 115.334 280.58 115.392 278.433 115.384H277.629V111.141H282.254ZM278.649 117.058V116.312H285.295V118.873H279.577V120.058H285.676V120.812H278.674V118.152H284.384V117.058H278.649ZM284.375 115.79V110.536H285.295V112.74H286.861V113.511H285.295V115.79H284.375ZM291.22 112.177C291.212 113.66 292.272 114.97 293.806 115.483L293.292 116.204C292.14 115.773 291.237 114.928 290.785 113.83C290.342 115.077 289.388 116.047 288.129 116.519L287.632 115.773C289.231 115.21 290.3 113.826 290.308 112.21V111.133H291.22V112.177ZM289.33 118.981C289.322 117.729 290.648 117.008 292.819 117.008C294.982 117.008 296.308 117.729 296.308 118.981C296.308 120.224 294.982 120.928 292.819 120.928C290.648 120.928 289.322 120.224 289.33 118.981ZM290.242 118.981C290.234 119.735 291.22 120.191 292.819 120.191C294.411 120.191 295.397 119.735 295.397 118.981C295.397 118.202 294.411 117.738 292.819 117.738C291.22 117.738 290.234 118.202 290.242 118.981ZM293.035 113.528V112.765H295.355V110.536H296.275V116.71H295.355V113.528H293.035ZM306.277 110.494V113.03H307.852V113.793H306.277V116.262H305.357V110.494H306.277ZM298.156 112.218V111.481H300.808V110.428H301.719V111.481H304.363V112.218H298.156ZM298.752 114.398C298.744 113.345 299.739 112.691 301.264 112.691C302.772 112.691 303.758 113.345 303.766 114.398C303.758 115.459 302.772 116.105 301.264 116.105C299.739 116.105 298.744 115.459 298.752 114.398ZM299.631 117.497V116.801H306.277V119.113H300.559V120.124H306.659V120.837H299.656V118.434H305.366V117.497H299.631ZM299.631 114.398C299.623 115.028 300.269 115.417 301.264 115.417C302.241 115.417 302.888 115.028 302.896 114.398C302.888 113.776 302.241 113.37 301.264 113.37C300.269 113.37 299.623 113.776 299.631 114.398ZM316.983 111.506C316.983 112.972 318.897 114.24 320.779 114.506L320.406 115.26C318.781 114.986 317.178 114.087 316.511 112.807C315.848 114.095 314.244 114.986 312.624 115.26L312.243 114.506C314.124 114.24 316.03 112.997 316.03 111.506V110.909H316.983V111.506ZM311.754 117.174V116.403H321.251V117.174H316.933V120.953H316.03V117.174H311.754ZM328.899 117.522C328.899 118.446 329.4 119.428 330.386 119.992C331.381 119.378 331.907 118.33 331.907 117.522V116.95H332.81V117.522C332.802 118.599 333.589 119.669 334.932 120.124L334.468 120.804C333.428 120.439 332.698 119.71 332.338 118.836C332.015 119.685 331.381 120.485 330.415 120.895C329.4 120.506 328.758 119.743 328.447 118.869C328.07 119.71 327.353 120.431 326.354 120.804L325.89 120.124C327.208 119.635 328.004 118.525 328.012 117.522V116.95H328.899V117.522ZM325.617 113.586C325.617 112.135 326.769 111.149 328.352 111.149C329.935 111.149 331.078 112.135 331.078 113.586C331.078 115.019 329.935 116.006 328.352 116.006C326.769 116.006 325.617 115.019 325.617 113.586ZM326.52 113.586C326.512 114.555 327.283 115.235 328.352 115.243C329.412 115.235 330.183 114.555 330.183 113.586C330.183 112.616 329.412 111.928 328.352 111.936C327.283 111.928 326.512 112.616 326.52 113.586ZM333.059 116.494V110.544H333.979V116.494H333.059ZM343.931 110.536V114.655H345.672V115.425H343.931V120.97H343.011V110.536H343.931ZM336.323 118.359V111.555H341.188V112.309H337.243V117.58C339.129 117.576 340.463 117.501 342.009 117.215L342.125 118.011C340.492 118.301 339.125 118.359 337.144 118.359H336.323ZM354.712 111.588V112.624C354.704 113.909 354.704 115.334 354.323 117.431L353.395 117.323C353.784 115.334 353.784 113.876 353.792 112.624V112.351H347.37V111.588H354.712ZM346.359 119.478V118.707H350.08V114.986H350.991V118.707H355.856V119.478H346.359ZM365.418 111.199V115.732H360.529V111.199H365.418ZM361.432 114.986H364.515V111.961H361.432V114.986ZM361.821 120.812V117.091H368.658V117.854H362.741V120.058H368.874V120.812H361.821ZM367.664 116.511V110.544H368.584V116.511H367.664ZM372.594 116.785V118.003H377.799V116.785H378.727V120.812H371.683V116.785H372.594ZM370.473 116.055V115.285H379.97V116.055H370.473ZM371.011 113.818C372.868 113.561 374.749 112.467 374.749 111.141V110.652H375.694V111.141C375.694 112.425 377.591 113.577 379.423 113.818L379.083 114.547C377.471 114.307 375.884 113.482 375.225 112.322C374.562 113.494 372.967 114.307 371.359 114.547L371.011 113.818ZM372.594 120.066H377.799V118.732H372.594V120.066ZM389.549 110.536V120.953H388.638V110.536H389.549ZM381.643 118.268V111.564H382.547V117.464C384.138 117.46 385.775 117.336 387.527 116.967L387.652 117.754C385.804 118.135 384.154 118.268 382.489 118.268H381.643ZM399.518 110.536V114.655H401.259V115.425H399.518V120.97H398.598V110.536H399.518ZM391.911 118.359V111.555H396.775V112.309H392.831V117.58C394.716 117.576 396.05 117.501 397.596 117.215L397.712 118.011C396.079 118.301 394.712 118.359 392.731 118.359H391.911ZM403.048 120.066C402.634 120.066 402.286 119.727 402.294 119.312C402.286 118.898 402.634 118.558 403.048 118.558C403.463 118.558 403.802 118.898 403.802 119.312C403.802 119.727 403.463 120.066 403.048 120.066ZM416.569 112.334V113.088H411.34V112.334H413.503V110.851H414.423V112.334H416.569ZM411.721 116.155C411.713 114.771 412.657 113.793 413.958 113.793C415.268 113.793 416.204 114.771 416.213 116.155C416.204 117.555 415.268 118.541 413.958 118.541C412.657 118.541 411.713 117.555 411.721 116.155ZM412.533 116.155C412.533 117.083 413.13 117.746 413.958 117.738C414.787 117.746 415.392 117.083 415.392 116.155C415.392 115.243 414.787 114.572 413.958 114.564C413.13 114.572 412.533 115.243 412.533 116.155ZM417.108 120.439V110.785H417.978V114.928H419.362V110.536H420.24V120.953H419.362V115.691H417.978V120.439H417.108ZM430.01 110.536V113.254H431.568V114.025H430.01V116.751H429.082V110.536H430.01ZM422.336 115.898V111.331H426.961V112.094H423.24V115.144C425.349 115.135 426.559 115.073 427.955 114.787L428.055 115.55C426.596 115.84 425.345 115.898 423.14 115.898H422.336ZM423.206 118.939C423.206 117.688 424.532 116.959 426.662 116.95C428.784 116.959 430.093 117.688 430.093 118.939C430.093 120.199 428.784 120.928 426.662 120.928C424.532 120.928 423.206 120.199 423.206 118.939ZM424.11 118.939C424.11 119.71 425.088 120.182 426.662 120.182C428.22 120.182 429.206 119.71 429.206 118.939C429.206 118.169 428.22 117.704 426.662 117.713C425.088 117.704 424.11 118.169 424.11 118.939ZM445.001 116.047V116.801H440.757V118.84H439.846V116.801H435.462V116.047H445.001ZM436.688 120.721V117.878H437.6V119.959H443.94V120.721H436.688ZM436.738 115.028V110.867H437.658V112.21H442.813V110.867H443.733V115.028H436.738ZM437.658 114.282H442.813V112.914H437.658V114.282ZM448.754 111.34C450.295 111.348 451.381 112.757 451.389 114.97C451.381 117.191 450.295 118.599 448.754 118.599C447.213 118.599 446.127 117.191 446.135 114.97C446.127 112.757 447.213 111.348 448.754 111.34ZM447.005 114.97C447.005 116.669 447.726 117.779 448.754 117.779C449.798 117.779 450.503 116.669 450.503 114.97C450.503 113.279 449.798 112.169 448.754 112.16C447.726 112.169 447.005 113.279 447.005 114.97ZM453.113 120.953V110.536H454.033V113.155H455.724V113.942H454.033V116.262H455.724V117.033H454.033V120.953H453.113ZM33.9448 134.376V135.097H24.4061V134.376H33.9448ZM25.558 136.622V135.934H32.7514V138.146H26.4945V139.141H33.0912V139.812H25.5746V137.508H31.8398V136.622H25.558ZM25.616 130.514V129.851H32.7182V132.006H26.5608V132.917H32.9006V133.588H25.6492V131.376H31.7983V130.514H25.616ZM46.6808 136.041V139.812H39.935V136.041H46.6808ZM38.667 134.865V130.166H39.5869V134.069C41.2154 134.073 42.591 133.97 44.1201 133.655L44.2278 134.442C42.6201 134.773 41.1946 134.865 39.4626 134.865H38.667ZM40.8383 139.058H45.7775V136.787H40.8383V139.058ZM42.7526 132.262V131.508H45.7609V129.536H46.6808V135.544H45.7609V132.262H42.7526ZM51.3377 130.34C52.7548 130.348 53.7783 131.566 53.9233 133.514H56.2603V129.536H57.1719V139.97H56.2603V134.276H53.9316C53.8321 136.319 52.7921 137.599 51.3377 137.599C49.7962 137.599 48.7189 136.191 48.7272 133.97C48.7189 131.757 49.7962 130.348 51.3377 130.34ZM49.6056 133.97C49.6056 135.669 50.31 136.779 51.3377 136.779C52.357 136.779 53.0697 135.669 53.0697 133.97C53.0697 132.279 52.357 131.169 51.3377 131.16C50.31 131.169 49.6056 132.279 49.6056 133.97ZM71.6815 135.047V135.801H67.4384V137.84H66.5268V135.801H62.1428V135.047H71.6815ZM63.3693 139.721V136.878H64.2809V138.959H70.6207V139.721H63.3693ZM63.419 134.028V129.867H64.3389V131.21H69.4936V129.867H70.4135V134.028H63.419ZM64.3389 133.282H69.4936V131.914H64.3389V133.282ZM75.435 130.34C76.9764 130.348 78.0621 131.757 78.0704 133.97C78.0621 136.191 76.9764 137.599 75.435 137.599C73.8936 137.599 72.8079 136.191 72.8162 133.97C72.8079 131.757 73.8936 130.348 75.435 130.34ZM73.6864 133.97C73.6864 135.669 74.4074 136.779 75.435 136.779C76.4792 136.779 77.1836 135.669 77.1836 133.97C77.1836 132.279 76.4792 131.169 75.435 131.16C74.4074 131.169 73.6864 132.279 73.6864 133.97ZM79.7941 139.953V129.536H80.714V132.155H82.4046V132.942H80.714V135.262H82.4046V136.033H80.714V139.953H79.7941ZM92.6637 134.376V135.097H83.125V134.376H92.6637ZM84.2769 136.622V135.934H91.4703V138.146H85.2134V139.141H91.8101V139.812H84.2935V137.508H90.5587V136.622H84.2769ZM84.3349 130.514V129.851H91.4371V132.006H85.2797V132.917H91.6195V133.588H84.3681V131.376H90.5172V130.514H84.3349ZM106.303 137.865V138.635H96.7644V137.865H101.065V135.478H101.969V137.865H106.303ZM97.2948 135.122C99.3044 134.798 101.045 133.584 101.057 131.956H97.6511V131.193H101.065V129.76H101.969V131.193H105.383V131.956H101.985C101.99 133.584 103.73 134.798 105.731 135.122L105.375 135.843C103.709 135.552 102.18 134.707 101.517 133.402C100.858 134.707 99.3293 135.552 97.6594 135.843L97.2948 135.122ZM115.841 129.544V135.685H114.913V135.105H112.808V134.5H114.913V129.544H115.841ZM107.214 133.472C109.236 133.481 111.813 133.456 114.068 133.207L114.126 133.812C113.106 133.953 112.046 134.04 111.01 134.094V135.718H110.106V134.127C109.12 134.16 108.175 134.164 107.33 134.16L107.214 133.472ZM108.026 131.309C108.026 130.348 109.046 129.743 110.62 129.743C112.17 129.743 113.197 130.348 113.206 131.309C113.197 132.287 112.17 132.867 110.62 132.867C109.046 132.867 108.026 132.287 108.026 131.309ZM108.813 136.721V136.058H115.841V138.213H109.758V139.149H116.189V139.837H108.855V137.575H114.929V136.721H108.813ZM108.896 131.309C108.888 131.865 109.568 132.238 110.62 132.238C111.656 132.238 112.336 131.865 112.336 131.309C112.336 130.754 111.656 130.381 110.62 130.381C109.568 130.381 108.888 130.754 108.896 131.309ZM125.81 129.536V133.829H127.55V134.599H125.81V139.953H124.898V129.536H125.81ZM117.689 131.972V131.21H120.365V129.66H121.285V131.21H123.887V131.972H117.689ZM118.285 135.229C118.277 133.82 119.354 132.834 120.838 132.834C122.313 132.834 123.382 133.82 123.39 135.229C123.382 136.638 122.313 137.616 120.838 137.616C119.354 137.616 118.277 136.638 118.285 135.229ZM119.164 135.229C119.155 136.174 119.868 136.845 120.838 136.837C121.799 136.845 122.503 136.174 122.512 135.229C122.503 134.285 121.799 133.605 120.838 133.605C119.868 133.605 119.155 134.285 119.164 135.229ZM131.039 130.34C131.996 130.344 132.775 130.903 133.222 131.865H135.961V129.536H136.873V139.97H135.961V135.925H133.289C132.854 136.982 132.046 137.599 131.039 137.599C129.497 137.599 128.42 136.191 128.428 133.97C128.42 131.757 129.497 130.348 131.039 130.34ZM129.307 133.97C129.307 135.669 130.011 136.779 131.039 136.779C132.058 136.779 132.771 135.669 132.771 133.97C132.771 132.279 132.058 131.169 131.039 131.16C130.011 131.169 129.307 132.279 129.307 133.97ZM133.488 132.635C133.587 133.037 133.641 133.485 133.641 133.97C133.641 134.401 133.6 134.798 133.521 135.163H135.961V132.635H133.488ZM144.728 129.901C145.648 129.901 146.418 130.236 146.899 130.804H149.576V129.536H150.488V134.881H149.576V133.688H146.928C146.456 134.28 145.668 134.633 144.728 134.633C143.162 134.633 142.018 133.671 142.026 132.262C142.018 130.862 143.162 129.901 144.728 129.901ZM142.905 132.262C142.905 133.207 143.667 133.878 144.728 133.887C145.764 133.878 146.534 133.207 146.534 132.262C146.534 131.326 145.764 130.655 144.728 130.663C143.667 130.655 142.905 131.326 142.905 132.262ZM143.733 136.149V135.42H150.488V137.906H144.67V139.066H150.885V139.812H143.758V137.21H149.576V136.149H143.733ZM147.309 131.541C147.38 131.765 147.421 132.006 147.421 132.262C147.421 132.511 147.384 132.743 147.318 132.959H149.576V131.541H147.309ZM160.937 129.544V137.21H160.034V129.544H160.937ZM152.874 131.036V130.282H157.639V133.29H153.794V134.956C155.733 134.956 157.096 134.894 158.749 134.608L158.849 135.37C157.142 135.66 155.741 135.718 153.744 135.727H152.899V132.569H156.727V131.036H152.874ZM154.108 139.721V136.613H155.037V138.959H161.244V139.721H154.108ZM169.38 130.298C171.021 130.298 172.182 131.293 172.19 132.743C172.182 134.193 171.021 135.188 169.38 135.188C167.74 135.188 166.563 134.193 166.571 132.743C166.563 131.293 167.74 130.298 169.38 130.298ZM166.032 136.887C167.955 136.895 170.607 136.878 172.911 136.539L172.985 137.218C170.599 137.666 168.038 137.674 166.157 137.674L166.032 136.887ZM167.474 132.743C167.466 133.713 168.27 134.384 169.38 134.384C170.483 134.384 171.287 133.713 171.287 132.743C171.287 131.773 170.483 131.102 169.38 131.102C168.27 131.102 167.466 131.773 167.474 132.743ZM173.599 139.97V129.536H174.519V139.97H173.599ZM179.963 132.337C179.954 134.169 181.173 136.058 182.656 136.787L182.084 137.525C180.941 136.924 179.983 135.689 179.519 134.243C179.055 135.78 178.069 137.094 176.896 137.724L176.316 136.986C177.833 136.232 179.043 134.235 179.051 132.337V130.439H179.963V132.337ZM183.609 139.953V129.536H184.529V133.762H186.269V134.558H184.529V139.953H183.609ZM196.495 137.823V138.586H186.957V137.823H191.225V135.279H192.128V137.823H196.495ZM187.329 134.633C189.153 134.318 191.183 132.793 191.191 131.044V130.24H192.153V131.044C192.153 132.785 194.208 134.318 196.031 134.633L195.617 135.395C194.03 135.064 192.356 133.99 191.676 132.49C190.992 133.986 189.331 135.064 187.744 135.395L187.329 134.633ZM206.945 135.064V135.809H197.431V135.064H201.724V134.028H198.699V129.834H205.76V130.58H199.627V131.558H205.478V132.262H199.627V133.298H205.818V134.028H202.644V135.064H206.945ZM198.591 138.262C198.591 137.177 199.884 136.588 202.188 136.597C204.475 136.588 205.768 137.177 205.776 138.262C205.768 139.356 204.475 139.928 202.188 139.928C199.884 139.928 198.591 139.356 198.591 138.262ZM199.519 138.262C199.511 138.892 200.473 139.224 202.188 139.215C203.895 139.224 204.848 138.892 204.856 138.262C204.848 137.641 203.895 137.293 202.188 137.293C200.473 137.293 199.511 137.641 199.519 138.262ZM209.646 138.204L208.743 141.395H207.872L208.519 138.204H209.646ZM217.753 131.218C217.753 132.635 218.831 133.936 220.339 134.45L219.842 135.18C218.69 134.757 217.778 133.895 217.326 132.809C216.879 134.04 215.947 135.001 214.728 135.47L214.231 134.732C215.797 134.152 216.842 132.76 216.85 131.152V130.075H217.753V131.218ZM215.623 138.03C215.623 136.837 216.933 136.141 219.079 136.141C221.217 136.141 222.51 136.837 222.51 138.03C222.51 139.24 221.217 139.928 219.079 139.928C216.933 139.928 215.623 139.24 215.623 138.03ZM216.543 138.03C216.535 138.768 217.505 139.191 219.079 139.199C220.654 139.191 221.615 138.768 221.615 138.03C221.615 137.318 220.654 136.878 219.079 136.878C217.505 136.878 216.535 137.318 216.543 138.03ZM221.499 135.876V129.536H222.419V132.254H223.985V133.025H222.419V135.876H221.499ZM233.764 131.077V131.84H225.236V131.077H229.056V129.71H229.96V131.077H233.764ZM224.764 138.727V137.964H229.056V136.501C227.2 136.406 226.073 135.685 226.081 134.517C226.073 133.273 227.382 132.544 229.504 132.552C231.609 132.544 232.935 133.273 232.935 134.517C232.935 135.681 231.8 136.402 229.96 136.501V137.964H234.302V138.727H224.764ZM227.009 134.517C227.001 135.304 227.954 135.76 229.504 135.768C231.045 135.76 231.998 135.304 231.998 134.517C231.998 133.738 231.045 133.282 229.504 133.282C227.954 133.282 227.001 133.738 227.009 134.517ZM243.732 130.837C243.723 132.122 245.472 133.174 247.312 133.414L246.955 134.16C245.269 133.903 243.699 133.062 243.135 131.84C242.567 133.062 241.001 133.903 239.315 134.16L238.967 133.414C240.806 133.174 242.538 132.122 242.538 130.837V130.812H239.257V130.05H247.03V130.812H243.732V130.837ZM238.386 135.917V135.155H242.679V133.414H243.583V135.155H247.908V135.917H238.386ZM239.613 139.721V136.762H240.541V138.959H246.823V139.721H239.613ZM258.375 134.409V135.171H254.074V136.282C256.038 136.369 257.198 137.011 257.206 138.105C257.198 139.273 255.855 139.928 253.618 139.928C251.364 139.928 250.021 139.273 250.021 138.105C250.021 137.011 251.186 136.369 253.162 136.282V135.171H248.878V134.409H258.375ZM249.416 133.05C251.223 132.855 252.963 131.939 253.029 130.771H249.748V130.025H257.521V130.771H254.223C254.281 131.939 256.005 132.855 257.844 133.05L257.505 133.779C255.793 133.568 254.198 132.805 253.626 131.645C253.05 132.805 251.459 133.568 249.748 133.779L249.416 133.05ZM250.958 138.105C250.949 138.801 251.952 139.215 253.618 139.207C255.275 139.215 256.278 138.801 256.286 138.105C256.278 137.401 255.275 136.994 253.618 136.986C251.952 136.994 250.949 137.401 250.958 138.105ZM267.937 130.215V134.45H263.047V130.215H267.937ZM263.801 139.199C265.591 139 267.315 137.989 267.315 136.945H264.232V136.232H267.332V135.213H268.243V136.232H271.359V136.945H268.26C268.26 137.964 269.934 138.975 271.724 139.199L271.401 139.92C269.839 139.704 268.409 138.963 267.788 137.993C267.162 138.979 265.699 139.7 264.133 139.92L263.801 139.199ZM263.951 133.721H267.033V130.961H263.951V133.721ZM270.183 135.519V129.536H271.086V135.519H270.183ZM281.725 130.174V130.936H277.656V132.238H281.435V132.975H277.656V134.359C279.873 134.367 281.112 134.322 282.579 134.069L282.678 134.815C281.154 135.08 279.877 135.113 277.573 135.105H276.728V130.174H281.725ZM277.946 139.812V136.273H284.725V139.812H277.946ZM278.858 139.058H283.822V137.003H278.858V139.058ZM283.805 135.751V129.544H284.725V135.751H283.805ZM295.233 129.544V139.961H294.297V137.376H291.902V136.663H294.297V129.544H295.233ZM286.564 135.03C288.553 135.022 291.197 135.014 293.493 134.691L293.551 135.378C292.519 135.552 291.45 135.656 290.41 135.718V139.63H289.49V135.764C288.491 135.805 287.538 135.809 286.697 135.809L286.564 135.03ZM287.36 132.105C287.36 130.887 288.437 130.058 290.004 130.058C291.545 130.058 292.631 130.887 292.631 132.105C292.631 133.348 291.545 134.144 290.004 134.152C288.437 134.144 287.36 133.348 287.36 132.105ZM288.23 132.105C288.222 132.901 288.951 133.439 290.004 133.439C291.023 133.439 291.752 132.901 291.761 132.105C291.752 131.326 291.023 130.779 290.004 130.779C288.951 130.779 288.222 131.326 288.23 132.105ZM305.417 130.597V131.89C305.417 133.423 305.417 134.84 304.978 136.953L304.058 136.87C304.286 135.872 304.402 135.001 304.46 134.193L298.1 134.533L297.967 133.771L304.498 133.501C304.518 132.95 304.518 132.424 304.522 131.89V131.367H298.249V130.597H305.417ZM297.105 138.486V137.715H306.603V138.486H297.105ZM317.118 134.376V135.097H307.58V134.376H317.118ZM308.732 136.622V135.934H315.925V138.146H309.668V139.141H316.265V139.812H308.748V137.508H315.014V136.622H308.732ZM308.79 130.514V129.851H315.892V132.006H309.735V132.917H316.074V133.588H308.823V131.376H314.972V130.514H308.79ZM330.716 135.047V135.785H321.203V135.047H330.716ZM322.272 137.55V136.804H329.482V139.953H328.545V137.55H322.272ZM322.471 134.044V129.818H329.531V130.555H323.399V131.541H329.25V132.262H323.399V133.323H329.589V134.044H322.471ZM340.313 129.544V135.834H339.393V129.544H340.313ZM331.868 134.873C333.434 134.318 334.528 132.959 334.536 131.45V131.119H332.1V130.356H337.859V131.119H335.464V131.45C335.464 132.851 336.575 134.094 338.133 134.599L337.661 135.32C336.455 134.923 335.493 134.077 335.021 132.992C334.565 134.193 333.592 135.146 332.348 135.602L331.868 134.873ZM333.31 138.03C333.31 136.787 334.644 136.066 336.832 136.066C339.011 136.066 340.337 136.787 340.346 138.03C340.337 139.273 339.011 139.994 336.832 139.994C334.644 139.994 333.31 139.273 333.31 138.03ZM334.238 138.03C334.238 138.801 335.216 139.265 336.832 139.257C338.44 139.265 339.434 138.801 339.434 138.03C339.434 137.268 338.44 136.804 336.832 136.804C335.216 136.804 334.238 137.268 334.238 138.03ZM346.942 130.207C349.121 130.215 350.754 131.351 350.754 133.075C350.754 134.807 349.121 135.942 346.942 135.934C344.77 135.942 343.138 134.807 343.138 133.075C343.138 131.351 344.77 130.215 346.942 130.207ZM342.201 138.561V137.79H351.74V138.561H342.201ZM344.016 133.075C344.008 134.334 345.268 135.18 346.942 135.18C348.616 135.18 349.867 134.334 349.867 133.075C349.867 131.823 348.616 130.953 346.942 130.961C345.268 130.953 344.008 131.823 344.016 133.075ZM362.231 137.881V138.66H352.692V137.881H356.977V135.917H353.886V132.702H360.118V131.069H353.861V130.307H361.03V133.456H354.797V135.155H361.27V135.917H357.889V137.881H362.231ZM374.379 129.536V133.829H376.119V134.599H374.379V139.953H373.467V129.536H374.379ZM366.257 131.972V131.21H368.934V129.66H369.854V131.21H372.456V131.972H366.257ZM366.854 135.229C366.846 133.82 367.923 132.834 369.406 132.834C370.882 132.834 371.951 133.82 371.959 135.229C371.951 136.638 370.882 137.616 369.406 137.616C367.923 137.616 366.846 136.638 366.854 135.229ZM367.732 135.229C367.724 136.174 368.437 136.845 369.406 136.837C370.368 136.845 371.072 136.174 371.081 135.229C371.072 134.285 370.368 133.605 369.406 133.605C368.437 133.605 367.724 134.285 367.732 135.229ZM385.226 132.693V133.439H378.099V129.917H379.011V132.693H385.226ZM376.79 135.602V134.856H386.329V135.602H376.79ZM378.033 139.696V136.663H378.945V138.934H385.293V139.696H378.033ZM396.338 130.588V131.343H390.438V130.588H392.973V129.436H393.885V130.588H396.338ZM391.059 133.738C391.051 132.602 392.012 131.856 393.421 131.856C394.813 131.856 395.791 132.602 395.799 133.738C395.791 134.865 394.813 135.602 393.421 135.602C392.012 135.602 391.051 134.865 391.059 133.738ZM391.921 133.738C391.913 134.434 392.509 134.906 393.421 134.906C394.316 134.906 394.929 134.434 394.938 133.738C394.929 133.033 394.316 132.569 393.421 132.569C392.509 132.569 391.913 133.033 391.921 133.738ZM392.286 139.812V136.133H393.197V137.227H398.153V136.133H399.065V139.812H392.286ZM393.197 139.075H398.153V137.948H393.197V139.075ZM396.321 134.765V134.003H398.145V132.735H396.33V131.972H398.145V129.536H399.065V135.693H398.145V134.765H396.321ZM403.788 130.025C405.188 130.017 406.249 130.829 406.448 132.03H408.636V129.536H409.556V135.122H408.636V132.793H406.452C406.27 134.019 405.201 134.84 403.788 134.84C402.205 134.84 401.078 133.854 401.086 132.428C401.078 131.011 402.205 130.017 403.788 130.025ZM401.965 132.428C401.965 133.373 402.719 134.061 403.788 134.061C404.84 134.061 405.594 133.373 405.594 132.428C405.594 131.467 404.84 130.796 403.788 130.804C402.719 130.796 401.965 131.467 401.965 132.428ZM402.843 139.812V135.652H403.763V136.97H408.636V135.652H409.556V139.812H402.843ZM403.763 139.058H408.636V137.707H403.763V139.058ZM424.065 134.865V135.627H419.822V137.757H418.911V135.627H414.527V134.865H424.065ZM415.753 139.721V136.729H416.673V138.959H423.004V139.721H415.753ZM415.77 133.671V130.041H422.822V133.671H415.77ZM416.673 132.934H421.911V130.779H416.673V132.934ZM433.114 129.536V133.97H434.78V134.749H433.114V139.953H432.194V129.536H433.114ZM424.902 137.177C425.751 137.173 426.746 137.169 427.777 137.14V135.992C426.563 135.847 425.772 135.138 425.78 134.102C425.772 132.925 426.766 132.163 428.241 132.163C429.7 132.163 430.711 132.925 430.719 134.102C430.711 135.138 429.907 135.851 428.697 135.992V137.102C429.667 137.057 430.649 136.978 431.556 136.845L431.623 137.541C429.344 137.931 426.882 137.956 425.059 137.956L424.902 137.177ZM425.092 131.558V130.812H427.777V129.552H428.697V130.812H431.374V131.558H425.092ZM426.642 134.102C426.642 134.823 427.28 135.296 428.241 135.287C429.194 135.296 429.833 134.823 429.833 134.102C429.833 133.373 429.194 132.884 428.241 132.884C427.28 132.884 426.642 133.373 426.642 134.102ZM445.047 134.376V135.097H435.509V134.376H445.047ZM436.661 136.622V135.934H443.854V138.146H437.597V139.141H444.194V139.812H436.677V137.508H442.942V136.622H436.661ZM436.719 130.514V129.851H443.821V132.006H437.663V132.917H444.003V133.588H436.752V131.376H442.901V130.514H436.719ZM458.645 134.558V135.312H456.109V136.638H457.469V139.953H456.54V137.376H450.201V136.638H451.667V135.312H449.148V134.558H458.645ZM450.201 131.773C450.201 130.522 451.626 129.776 453.888 129.785C456.151 129.776 457.568 130.522 457.568 131.773C457.568 133.025 456.151 133.771 453.888 133.762C451.626 133.771 450.201 133.025 450.201 131.773ZM451.154 131.773C451.145 132.561 452.206 133.041 453.888 133.041C455.562 133.041 456.632 132.561 456.632 131.773C456.632 130.994 455.562 130.514 453.888 130.522C452.206 130.514 451.145 130.994 451.154 131.773ZM452.587 136.638H455.206V135.312H452.587V136.638ZM28.0028 150.177C27.9945 151.66 29.0552 152.97 30.5884 153.483L30.0746 154.204C28.9227 153.773 28.0193 152.928 27.5677 151.83C27.1243 153.077 26.1713 154.047 24.9116 154.519L24.4144 153.773C26.0138 153.21 27.0829 151.826 27.0912 150.21V149.133H28.0028V150.177ZM26.1133 156.981C26.105 155.729 27.4309 155.008 29.6022 155.008C31.7652 155.008 33.0912 155.729 33.0912 156.981C33.0912 158.224 31.7652 158.928 29.6022 158.928C27.4309 158.928 26.105 158.224 26.1133 156.981ZM27.0249 156.981C27.0166 157.735 28.0028 158.191 29.6022 158.191C31.1934 158.191 32.1796 157.735 32.1796 156.981C32.1796 156.202 31.1934 155.738 29.6022 155.738C28.0028 155.738 27.0166 156.202 27.0249 156.981ZM29.8177 151.528V150.765H32.1381V148.536H33.058V154.71H32.1381V151.528H29.8177ZM43.0602 148.536V151.204H44.6265V151.983H43.0602V154.586H42.1403V148.536H43.0602ZM34.9386 150.367V149.613H37.5905V148.436H38.5021V149.613H41.1458V150.367H34.9386ZM35.5353 152.68C35.527 151.569 36.5298 150.856 38.0463 150.856C39.5381 150.856 40.5408 151.569 40.5491 152.68C40.5408 153.79 39.5381 154.511 38.0463 154.503C36.5298 154.511 35.527 153.79 35.5353 152.68ZM36.4137 152.68C36.4055 153.359 37.0602 153.807 38.0463 153.807C39.016 153.807 39.6707 153.359 39.6789 152.68C39.6707 152.008 39.016 151.552 38.0463 151.561C37.0602 151.552 36.4055 152.008 36.4137 152.68ZM36.4718 158.812V155.041H37.3834V156.16H42.1403V155.041H43.0602V158.812H36.4718ZM37.3834 158.066H42.1403V156.89H37.3834V158.066ZM53.9905 148.536V158.953H53.0789V148.536H53.9905ZM46.0844 156.268V149.564H46.9877V155.464C48.5789 155.46 50.2156 155.336 51.9684 154.967L52.0927 155.754C50.2446 156.135 48.5954 156.268 46.9297 156.268H46.0844ZM63.9595 148.536V152.655H65.6998V153.425H63.9595V158.97H63.0396V148.536H63.9595ZM56.3517 156.359V149.555H61.2164V150.309H57.2716V155.58C59.157 155.576 60.4912 155.501 62.0368 155.215L62.1528 156.011C60.5202 156.301 59.1528 156.359 57.1722 156.359H56.3517ZM67.4892 158.066C67.0749 158.066 66.7268 157.727 66.7351 157.312C66.7268 156.898 67.0749 156.558 67.4892 156.558C67.9036 156.558 68.2434 156.898 68.2434 157.312C68.2434 157.727 67.9036 158.066 67.4892 158.066ZM76.08 149.298C77.7209 149.298 78.8811 150.293 78.8894 151.743C78.8811 153.193 77.7209 154.188 76.08 154.188C74.4391 154.188 73.2623 153.193 73.2706 151.743C73.2623 150.293 74.4391 149.298 76.08 149.298ZM72.7319 155.887C74.6546 155.895 77.3065 155.878 79.6104 155.539L79.685 156.218C77.2982 156.666 74.7374 156.674 72.8562 156.674L72.7319 155.887ZM74.1739 151.743C74.1656 152.713 74.9695 153.384 76.08 153.384C77.1822 153.384 77.9861 152.713 77.9861 151.743C77.9861 150.773 77.1822 150.102 76.08 150.102C74.9695 150.102 74.1656 150.773 74.1739 151.743ZM80.2982 158.97V148.536H81.2181V158.97H80.2982ZM88.5849 149.564V156.334H83.77V149.564H88.5849ZM84.6816 155.58H87.6899V150.301H84.6816V155.58ZM90.8307 158.97V148.536H91.7506V158.97H90.8307ZM100.31 155.522C100.31 156.446 100.811 157.428 101.797 157.992C102.792 157.378 103.318 156.33 103.318 155.522V154.95H104.222V155.522C104.213 156.599 105.001 157.669 106.343 158.124L105.879 158.804C104.839 158.439 104.11 157.71 103.749 156.836C103.426 157.685 102.792 158.485 101.826 158.895C100.811 158.506 100.169 157.743 99.8583 156.869C99.4812 157.71 98.7643 158.431 97.7657 158.804L97.3016 158.124C98.6193 157.635 99.4149 156.525 99.4232 155.522V154.95H100.31V155.522ZM97.0281 151.586C97.0281 150.135 98.1801 149.149 99.7629 149.149C101.346 149.149 102.489 150.135 102.489 151.586C102.489 153.019 101.346 154.006 99.7629 154.006C98.1801 154.006 97.0281 153.019 97.0281 151.586ZM97.9315 151.586C97.9232 152.555 98.6939 153.235 99.7629 153.243C100.824 153.235 101.594 152.555 101.594 151.586C101.594 150.616 100.824 149.928 99.7629 149.936C98.6939 149.928 97.9232 150.616 97.9315 151.586ZM104.47 154.494V148.544H105.39V154.494H104.47ZM115.699 151.693V152.439H108.572V148.917H109.483V151.693H115.699ZM107.262 154.602V153.856H116.801V154.602H107.262ZM108.505 158.696V155.663H109.417V157.934H115.765V158.696H108.505ZM126.885 149.663V150.425H125.733V155.443C126.297 155.406 126.852 155.356 127.382 155.29L127.432 155.97C125.228 156.326 122.733 156.359 120.885 156.367L120.769 155.58C121.208 155.58 121.681 155.58 122.178 155.572V150.425H121.026V149.663H126.885ZM123.073 155.559C123.653 155.547 124.25 155.526 124.846 155.497V150.425H123.073V155.559ZM128.045 158.953V148.536H128.965V152.713H130.706V153.483H128.965V158.953H128.045ZM139.829 154.163V154.917H132.628V149.439H139.713V150.202H133.556V151.751H139.489V152.497H133.556V154.163H139.829ZM131.393 157.594V156.823H140.931V157.594H131.393ZM150.528 148.536V158.97H149.608V152.738H146.359V151.975H149.608V148.536H150.528ZM142.456 156.442V149.704H143.384V155.663C144.975 155.651 146.392 155.564 147.958 155.249L148.075 156.011C146.409 156.351 144.942 156.442 143.26 156.442H142.456ZM156.063 149.862C156.055 151.304 157.182 152.605 158.731 153.11L158.276 153.823C157.049 153.405 156.079 152.539 155.607 151.42C155.143 152.626 154.161 153.579 152.914 154.022L152.45 153.293C154.016 152.746 155.126 151.37 155.126 149.862V148.884H156.063V149.862ZM154.231 158.812V154.652H155.135V155.92H160.066V154.652H160.977V158.812H154.231ZM155.135 158.058H160.066V156.657H155.135V158.058ZM160.057 154.122V148.536H160.977V154.122H160.057ZM168.642 149.688V150.235C168.634 151.055 168.634 152.431 168.336 154.362L167.416 154.287C167.698 152.543 167.722 151.271 167.722 150.442H163.347V149.688H168.642ZM162.758 155.887C163.442 155.883 164.204 155.878 165.004 155.858V152.663H165.916V155.833C167.068 155.787 168.249 155.713 169.33 155.58L169.38 156.276C167.192 156.616 164.739 156.666 162.874 156.657L162.758 155.887ZM169.985 158.953V148.536H170.905V152.895H172.595V153.691H170.905V158.953H169.985ZM185.389 148.536V158.953H184.511V148.536H185.389ZM176.365 156.177C177.815 155.307 178.66 153.401 178.66 151.503V150.525H176.646V149.762H181.453V150.525H179.547V151.503C179.547 153.309 180.359 155.108 181.793 155.936L181.238 156.616C180.214 156.003 179.485 154.88 179.116 153.554C178.743 154.988 177.989 156.21 176.945 156.865L176.365 156.177ZM180.657 153.044V152.29H182.414V148.785H183.284V158.406H182.414V153.044H180.657ZM195.922 149.696V150.442H187.477V149.696H191.265V148.478H192.176V149.696H195.922ZM186.98 155.953V155.191H196.519V155.953H193.999V158.97H193.079V155.953H190.386V158.97H189.466V155.953H186.98ZM188.323 152.762C188.314 151.652 189.59 151.039 191.72 151.039C193.842 151.039 195.118 151.652 195.118 152.762C195.118 153.865 193.842 154.486 191.72 154.486C189.59 154.486 188.314 153.865 188.323 152.762ZM189.276 152.762C189.267 153.401 190.171 153.773 191.72 153.773C193.262 153.773 194.165 153.401 194.173 152.762C194.165 152.116 193.262 151.751 191.72 151.743C190.171 151.751 189.267 152.116 189.276 152.762ZM206.993 153.376V154.097H197.455V153.376H206.993ZM198.606 155.622V154.934H205.8V157.146H199.543V158.141H206.14V158.812H198.623V156.508H204.888V155.622H198.606ZM198.664 149.514V148.851H205.767V151.006H199.609V151.917H205.949V152.588H198.698V150.376H204.847V149.514H198.664ZM220.591 154.064V154.809H211.077V154.064H215.37V153.028H212.345V148.834H219.406V149.58H213.273V150.558H219.124V151.262H213.273V152.298H219.464V153.028H216.29V154.064H220.591ZM212.238 157.262C212.238 156.177 213.53 155.588 215.834 155.597C218.122 155.588 219.414 156.177 219.423 157.262C219.414 158.356 218.122 158.928 215.834 158.928C213.53 158.928 212.238 158.356 212.238 157.262ZM213.166 157.262C213.157 157.892 214.119 158.224 215.834 158.215C217.541 158.224 218.494 157.892 218.503 157.262C218.494 156.641 217.541 156.293 215.834 156.293C214.119 156.293 213.157 156.641 213.166 157.262ZM226.789 150.334V151.088H221.56V150.334H223.723V148.851H224.643V150.334H226.789ZM221.941 154.155C221.933 152.771 222.878 151.793 224.179 151.793C225.488 151.793 226.425 152.771 226.433 154.155C226.425 155.555 225.488 156.541 224.179 156.541C222.878 156.541 221.933 155.555 221.941 154.155ZM222.753 154.155C222.753 155.083 223.35 155.746 224.179 155.738C225.008 155.746 225.613 155.083 225.613 154.155C225.613 153.243 225.008 152.572 224.179 152.564C223.35 152.572 222.753 153.243 222.753 154.155ZM227.328 158.439V148.785H228.198V152.928H229.582V148.536H230.461V158.953H229.582V153.691H228.198V158.439H227.328ZM243.271 148.536V152.655H245.012V153.425H243.271V158.97H242.351V148.536H243.271ZM235.664 156.359V149.555H240.528V150.309H236.583V155.58C238.469 155.576 239.803 155.501 241.349 155.215L241.465 156.011C239.832 156.301 238.465 156.359 236.484 156.359H235.664ZM255.387 150.11V150.873H253.845V152.323H255.387V153.102H253.845V154.718H252.925V148.536H253.845V150.11H255.387ZM245.898 151.61C245.89 150.16 247.05 149.157 248.633 149.166C250.215 149.157 251.359 150.16 251.367 151.61C251.359 153.061 250.215 154.055 248.633 154.064C247.05 154.055 245.89 153.061 245.898 151.61ZM246.801 151.61C246.793 152.597 247.572 153.276 248.633 153.285C249.693 153.276 250.464 152.597 250.472 151.61C250.464 150.633 249.693 149.936 248.633 149.945C247.572 149.936 246.793 150.633 246.801 151.61ZM247.05 156.989C247.05 155.754 248.376 155.041 250.506 155.033C252.627 155.041 253.936 155.754 253.936 156.989C253.936 158.207 252.627 158.928 250.506 158.928C248.376 158.928 247.05 158.207 247.05 156.989ZM247.97 156.989C247.961 157.743 248.931 158.182 250.506 158.182C252.08 158.182 253.041 157.743 253.041 156.989C253.041 156.235 252.08 155.787 250.506 155.787C248.931 155.787 247.961 156.235 247.97 156.989ZM264.336 148.544V151.975H265.903V152.754H264.336V156.351H263.417V148.544H264.336ZM256.215 150.575V149.82H258.867V148.544H259.778V149.82H262.422V150.575H256.215ZM256.812 153.094C256.803 151.909 257.814 151.146 259.323 151.146C260.806 151.146 261.817 151.909 261.825 153.094C261.817 154.262 260.806 155.017 259.323 155.017C257.814 155.017 256.803 154.262 256.812 153.094ZM257.69 153.094C257.682 153.823 258.336 154.296 259.323 154.287C260.292 154.296 260.947 153.823 260.955 153.094C260.947 152.348 260.292 151.867 259.323 151.867C258.336 151.867 257.682 152.348 257.69 153.094ZM257.814 158.721V155.721H258.726V157.959H264.817V158.721H257.814ZM278.448 148.544V156.185H277.528V152.182H275.382V151.428H277.528V148.544H278.448ZM269.854 154.097C271.396 153.558 272.506 152.182 272.506 150.691V150.152H270.153V149.39H275.763V150.152H273.434V150.691C273.434 152.033 274.479 153.343 276.003 153.865L275.523 154.602C274.346 154.18 273.438 153.305 272.987 152.228C272.535 153.43 271.574 154.387 270.335 154.851L269.854 154.097ZM271.76 158.721V155.497H272.68V157.959H278.738V158.721H271.76ZM289.826 153.865V154.627H285.583V156.757H284.671V154.627H280.287V153.865H289.826ZM281.514 158.721V155.729H282.434V157.959H288.765V158.721H281.514ZM281.53 152.671V149.041H288.583V152.671H281.53ZM282.434 151.934H287.671V149.779H282.434V151.934ZM297.656 151.735C297.656 153.5 298.941 155.298 300.474 155.961L299.96 156.691C298.742 156.135 297.693 154.938 297.204 153.5C296.715 155.025 295.663 156.351 294.474 156.948L293.927 156.218C295.418 155.506 296.72 153.533 296.728 151.735V150.376H294.266V149.605H300.134V150.376H297.656V151.735ZM301.592 158.953V148.536H302.512V158.953H301.592ZM308.106 150.044C308.097 151.561 309.2 152.912 310.749 153.45L310.277 154.18C309.067 153.736 308.114 152.837 307.646 151.677C307.19 152.916 306.229 153.89 304.998 154.362L304.517 153.641C306.084 153.061 307.169 151.619 307.169 150.044V149.041H308.106V150.044ZM306.009 156.086V155.331H313.02V158.953H312.1V156.086H306.009ZM312.1 154.809V148.536H313.02V154.809H312.1ZM316.616 157.204L315.713 160.395H314.843L315.489 157.204H316.616ZM327.019 149.34V149.895C327.011 150.575 327.011 151.61 326.745 152.978L325.826 152.903C326.078 151.652 326.103 150.769 326.111 150.11H321.823V149.34H327.019ZM321.185 153.948C321.856 153.943 322.618 153.939 323.422 153.919V151.652H324.334V153.89C325.49 153.84 326.683 153.757 327.765 153.608L327.823 154.287C325.643 154.66 323.132 154.702 321.276 154.71L321.185 153.948ZM322.792 158.721V155.663H323.712V157.959H329.745V158.721H322.792ZM328.477 156.376V148.536H329.406V151.925H330.931V152.713H329.406V156.376H328.477ZM340.369 148.536V154.635H339.449V151.917H337.336V151.146H339.449V148.536H340.369ZM331.775 153.807C333.317 153.26 334.427 151.867 334.427 150.384V149.978H332.074V149.207H337.684V149.978H335.355V150.384C335.355 151.727 336.399 153.028 337.924 153.566L337.444 154.296C336.267 153.873 335.359 152.999 334.908 151.921C334.456 153.123 333.495 154.076 332.256 154.528L331.775 153.807ZM333.557 158.812V155.149H340.369V158.812H333.557ZM334.477 158.058H339.466V155.887H334.477V158.058ZM350.793 149.215V153.45H345.904V149.215H350.793ZM346.658 158.199C348.448 158 350.171 156.989 350.171 155.945H347.089V155.232H350.188V154.213H351.1V155.232H354.216V155.945H351.116C351.116 156.964 352.79 157.975 354.58 158.199L354.257 158.92C352.695 158.704 351.265 157.963 350.644 156.993C350.018 157.979 348.555 158.7 346.989 158.92L346.658 158.199ZM346.807 152.721H349.89V149.961H346.807V152.721ZM353.039 154.519V148.536H353.942V154.519H353.039ZM362.501 151.735C362.493 153.401 363.703 155.24 365.211 155.961L364.681 156.691C363.517 156.115 362.526 154.888 362.058 153.479C361.573 155.004 360.529 156.351 359.361 156.948L358.805 156.218C360.305 155.489 361.59 153.508 361.598 151.735V150.376H359.178V149.605H364.847V150.376H362.501V151.735ZM366.123 158.953V148.536H367.043V152.746H368.783V153.533H367.043V158.953H366.123ZM378.056 148.544V156.459H377.128V155.373H374.982V154.702H377.128V148.544H378.056ZM369.412 153.367C371.352 153.359 373.962 153.343 376.191 153.061L376.258 153.732C375.325 153.881 374.352 153.977 373.39 154.035V156.094H372.47V154.08C371.418 154.122 370.411 154.126 369.537 154.122L369.412 153.367ZM370.249 150.782C370.249 149.688 371.294 148.967 372.835 148.967C374.36 148.967 375.404 149.688 375.412 150.782C375.404 151.892 374.36 152.588 372.835 152.588C371.294 152.588 370.249 151.892 370.249 150.782ZM370.912 158.721V155.68H371.832V157.959H378.313V158.721H370.912ZM371.128 150.782C371.12 151.461 371.816 151.901 372.835 151.901C373.821 151.901 374.526 151.461 374.534 150.782C374.526 150.11 373.821 149.655 372.835 149.663C371.816 149.655 371.12 150.11 371.128 150.782ZM384.702 148.718C387.022 148.718 388.381 149.356 388.381 150.517C388.381 151.693 387.022 152.331 384.702 152.34C382.381 152.331 381.014 151.693 381.014 150.517C381.014 149.356 382.381 148.718 384.702 148.718ZM379.962 153.79V153.044H389.459V153.79H379.962ZM381.113 155.398V154.693H388.232V157.022H382.042V158.108H388.547V158.837H381.138V156.343H387.329V155.398H381.113ZM381.975 150.517C381.967 151.238 382.978 151.635 384.702 151.635C386.434 151.635 387.445 151.238 387.445 150.517C387.445 149.829 386.434 149.414 384.702 149.414C382.978 149.414 381.967 149.829 381.975 150.517ZM401.714 148.536V151.204H403.272V151.992H401.714V154.685H400.794V148.536H401.714ZM393.535 153.749C394.368 153.749 395.341 153.749 396.361 153.72V153.069C395.134 152.974 394.363 152.489 394.372 151.693C394.363 150.84 395.325 150.343 396.808 150.343C398.292 150.343 399.245 150.84 399.253 151.693C399.245 152.481 398.49 152.97 397.28 153.069V153.682C398.254 153.637 399.236 153.562 400.148 153.434L400.222 154.047C397.977 154.42 395.474 154.436 393.642 154.436L393.535 153.749ZM393.8 149.994V149.331H396.361V148.436H397.28V149.331H399.833V149.994H393.8ZM394.927 155.812V155.157H401.714V157.246H395.863V158.174H402.112V158.837H394.952V156.633H400.803V155.812H394.927ZM395.25 151.693C395.242 152.166 395.847 152.464 396.808 152.464C397.769 152.464 398.374 152.166 398.374 151.693C398.374 151.238 397.769 150.964 396.808 150.956C395.847 150.964 395.242 151.238 395.25 151.693ZM413.573 153.691V154.445H404.075V153.691H406.429V152.22C405.596 151.896 405.128 151.366 405.128 150.666C405.128 149.439 406.537 148.735 408.816 148.735C411.087 148.735 412.495 149.439 412.495 150.666C412.495 151.362 412.031 151.892 411.211 152.211V153.691H413.573ZM405.219 157.08C405.219 155.895 406.562 155.24 408.816 155.249C411.053 155.24 412.396 155.895 412.404 157.08C412.396 158.273 411.053 158.928 408.816 158.928C406.562 158.928 405.219 158.273 405.219 157.08ZM406.081 150.666C406.073 151.428 407.117 151.867 408.816 151.867C410.506 151.867 411.559 151.428 411.559 150.666C411.559 149.912 410.506 149.456 408.816 149.456C407.117 149.456 406.073 149.912 406.081 150.666ZM406.156 157.08C406.147 157.793 407.15 158.215 408.816 158.207C410.473 158.215 411.476 157.793 411.484 157.08C411.476 156.376 410.473 155.961 408.816 155.953C407.15 155.961 406.147 156.376 406.156 157.08ZM407.349 153.691H410.299V152.46C409.86 152.539 409.363 152.58 408.816 152.58C408.277 152.58 407.784 152.543 407.349 152.464V153.691ZM422.63 148.536V152.829H424.37V153.599H422.63V158.953H421.719V148.536H422.63ZM414.509 150.972V150.21H417.185V148.66H418.105V150.21H420.707V150.972H414.509ZM415.105 154.229C415.097 152.82 416.174 151.834 417.658 151.834C419.133 151.834 420.202 152.82 420.21 154.229C420.202 155.638 419.133 156.616 417.658 156.616C416.174 156.616 415.097 155.638 415.105 154.229ZM415.984 154.229C415.975 155.174 416.688 155.845 417.658 155.837C418.619 155.845 419.323 155.174 419.332 154.229C419.323 153.285 418.619 152.605 417.658 152.605C416.688 152.605 415.975 153.285 415.984 154.229ZM427.859 149.34C428.816 149.344 429.595 149.903 430.042 150.865H432.781V148.536H433.693V158.97H432.781V154.925H430.109C429.674 155.982 428.866 156.599 427.859 156.599C426.317 156.599 425.24 155.191 425.248 152.97C425.24 150.757 426.317 149.348 427.859 149.34ZM426.127 152.97C426.127 154.669 426.831 155.779 427.859 155.779C428.878 155.779 429.591 154.669 429.591 152.97C429.591 151.279 428.878 150.169 427.859 150.16C426.831 150.169 426.127 151.279 426.127 152.97ZM430.308 151.635C430.407 152.037 430.461 152.485 430.461 152.97C430.461 153.401 430.42 153.798 430.341 154.163H432.781V151.635H430.308ZM444.589 149.613V150.367H438.689V149.613H441.225V148.445H442.136V149.613H444.589ZM439.31 152.895C439.302 151.727 440.28 150.956 441.672 150.948C443.056 150.956 444.042 151.727 444.051 152.895C444.042 154.047 443.056 154.834 441.672 154.843C440.28 154.834 439.302 154.047 439.31 152.895ZM440.172 152.895C440.164 153.616 440.777 154.113 441.672 154.105C442.559 154.113 443.18 153.616 443.189 152.895C443.18 152.166 442.559 151.669 441.672 151.66C440.777 151.669 440.164 152.166 440.172 152.895ZM440.305 156.5V155.754H447.316V158.953H446.396V156.5H440.305ZM444.573 153.823V153.052H446.396V151.851H444.581V151.105H446.396V148.536H447.316V155.141H446.396V153.823H444.573ZM457.774 148.544V156.185H456.854V148.544H457.774ZM449.279 153.956C450.854 153.343 451.923 151.818 451.923 150.169V149.124H452.859V150.169C452.851 151.76 453.937 153.185 455.486 153.749L455.006 154.486C453.8 154.018 452.859 153.081 452.399 151.88C451.948 153.16 451.003 154.184 449.785 154.677L449.279 153.956ZM451.044 158.721V155.481H451.964V157.959H458.097V158.721H451.044ZM32.4862 167.536V171.829H34.2265V172.599H32.4862V177.953H31.5746V167.536H32.4862ZM24.3646 169.972V169.21H27.0414V167.66H27.9613V169.21H30.5635V169.972H24.3646ZM24.9613 173.229C24.953 171.82 26.0304 170.834 27.5138 170.834C28.989 170.834 30.058 171.82 30.0663 173.229C30.058 174.638 28.989 175.616 27.5138 175.616C26.0304 175.616 24.953 174.638 24.9613 173.229ZM25.8398 173.229C25.8315 174.174 26.5442 174.845 27.5138 174.837C28.4751 174.845 29.1796 174.174 29.1878 173.229C29.1796 172.285 28.4751 171.605 27.5138 171.605C26.5442 171.605 25.8315 172.285 25.8398 173.229ZM43.2673 168.588V169.624C43.259 170.909 43.259 172.334 42.8778 174.431L41.9497 174.323C42.3392 172.334 42.3392 170.876 42.3474 169.624V169.351H35.9248V168.588H43.2673ZM34.9137 176.478V175.707H38.6347V171.986H39.5463V175.707H44.411V176.478H34.9137ZM58.0587 172.865V173.627H53.8156V175.757H52.904V173.627H48.52V172.865H58.0587ZM49.7465 177.721V174.729H50.6664V176.959H56.9979V177.721H49.7465ZM49.7631 171.671V168.041H56.8156V171.671H49.7631ZM50.6664 170.934H55.904V168.779H50.6664V170.934ZM67.9282 167.536V177.953H67.0498V167.536H67.9282ZM58.9033 175.177C60.3536 174.307 61.1989 172.401 61.1989 170.503V169.525H59.1851V168.762H63.9917V169.525H62.0857V170.503C62.0857 172.309 62.8978 174.108 64.3315 174.936L63.7763 175.616C62.7528 175.003 62.0235 173.88 61.6547 172.554C61.2818 173.988 60.5277 175.21 59.4835 175.865L58.9033 175.177ZM63.1962 172.044V171.29H64.9531V167.785H65.8232V177.406H64.9531V172.044H63.1962ZM79.0408 172.376V173.097H69.5022V172.376H79.0408ZM70.6541 174.622V173.934H77.8475V176.146H71.5906V177.141H78.1873V177.812H70.6707V175.508H76.9359V174.622H70.6541ZM70.7121 168.514V167.851H77.8143V170.006H71.6569V170.917H77.9966V171.588H70.7453V169.376H76.8944V168.514H70.7121ZM88.346 169.334V170.088H83.1167V169.334H85.2797V167.851H86.1996V169.334H88.346ZM83.4979 173.155C83.4896 171.771 84.4344 170.793 85.7355 170.793C87.0449 170.793 87.9813 171.771 87.9896 173.155C87.9813 174.555 87.0449 175.541 85.7355 175.541C84.4344 175.541 83.4896 174.555 83.4979 173.155ZM84.3101 173.155C84.3101 174.083 84.9068 174.746 85.7355 174.738C86.5642 174.746 87.1692 174.083 87.1692 173.155C87.1692 172.243 86.5642 171.572 85.7355 171.564C84.9068 171.572 84.3101 172.243 84.3101 173.155ZM88.8847 177.439V167.785H89.7548V171.928H91.1388V167.536H92.0172V177.953H91.1388V172.691H89.7548V177.439H88.8847ZM102.268 167.536V172.865H101.348V171.771H98.5636V171.041H101.348V169.79H98.7169C98.0664 171.431 96.4503 172.546 94.1382 173.097L93.8067 172.334C96.3633 171.742 97.8509 170.499 98.0166 168.82H94.3371V168.058H99.036C99.036 168.406 99.0028 168.738 98.9365 169.052H101.348V167.536H102.268ZM95.5139 174.083V173.337H102.268V175.873H96.4503V177.099H102.624V177.854H95.5387V175.169H101.348V174.083H95.5139ZM112.187 167.536V171.829H113.928V172.599H112.187V177.953H111.276V167.536H112.187ZM104.066 169.972V169.21H106.743V167.66H107.662V169.21H110.265V169.972H104.066ZM104.662 173.229C104.654 171.82 105.731 170.834 107.215 170.834C108.69 170.834 109.759 171.82 109.767 173.229C109.759 174.638 108.69 175.616 107.215 175.616C105.731 175.616 104.654 174.638 104.662 173.229ZM105.541 173.229C105.533 174.174 106.245 174.845 107.215 174.837C108.176 174.845 108.881 174.174 108.889 173.229C108.881 172.285 108.176 171.605 107.215 171.605C106.245 171.605 105.533 172.285 105.541 173.229ZM119.786 168.572V170.039H122.339V167.536H123.25V177.97H122.339V173.669H119.786V175.318H115.037V168.572H119.786ZM115.949 174.572H118.891V169.301H115.949V174.572ZM119.786 172.914H122.339V170.801H119.786V172.914ZM136.823 167.536V177.97H135.903V167.536H136.823ZM128.627 171.97C128.627 169.757 129.729 168.348 131.287 168.34C132.829 168.348 133.948 169.757 133.948 171.97C133.948 174.191 132.829 175.599 131.287 175.599C129.729 175.599 128.627 174.191 128.627 171.97ZM129.514 171.97C129.514 173.669 130.243 174.779 131.287 174.779C132.332 174.779 133.053 173.669 133.053 171.97C133.053 170.279 132.332 169.169 131.287 169.16C130.243 169.169 129.514 170.279 129.514 171.97ZM143.933 169.334V170.088H138.704V169.334H140.867V167.851H141.787V169.334H143.933ZM139.085 173.155C139.077 171.771 140.022 170.793 141.323 170.793C142.632 170.793 143.569 171.771 143.577 173.155C143.569 174.555 142.632 175.541 141.323 175.541C140.022 175.541 139.077 174.555 139.085 173.155ZM139.897 173.155C139.897 174.083 140.494 174.746 141.323 174.738C142.151 174.746 142.756 174.083 142.756 173.155C142.756 172.243 142.151 171.572 141.323 171.564C140.494 171.572 139.897 172.243 139.897 173.155ZM144.472 177.439V167.785H145.342V171.928H146.726V167.536H147.604V177.953H146.726V172.691H145.342V177.439H144.472ZM158.128 168.34V168.895C158.12 169.575 158.12 170.61 157.854 171.978L156.934 171.903C157.187 170.652 157.212 169.769 157.22 169.11H152.932V168.34H158.128ZM152.294 172.948C152.965 172.943 153.727 172.939 154.531 172.919V170.652H155.443V172.89C156.599 172.84 157.792 172.757 158.874 172.608L158.932 173.287C156.752 173.66 154.241 173.702 152.385 173.71L152.294 172.948ZM153.901 177.721V174.663H154.821V176.959H160.854V177.721H153.901ZM159.586 175.376V167.536H160.515V170.925H162.039V171.713H160.515V175.376H159.586ZM171.76 167.536V177.953H170.881V167.536H171.76ZM162.834 175.036C165.097 173.693 166.232 171.812 166.414 169.633H163.298V168.862H167.326C167.326 169.396 167.28 169.923 167.185 170.436H168.768V167.818H169.655V177.423H168.768V173.809H166.837V173.047H168.768V171.199H167.007C166.497 172.964 165.358 174.522 163.39 175.699L162.834 175.036ZM176.856 170.735C176.848 172.401 178.057 174.24 179.566 174.961L179.035 175.691C177.871 175.115 176.881 173.888 176.412 172.479C175.928 174.004 174.883 175.351 173.715 175.948L173.16 175.218C174.66 174.489 175.944 172.508 175.953 170.735V169.376H173.533V168.605H179.201V169.376H176.856V170.735ZM180.477 177.953V167.536H181.397V171.746H183.138V172.533H181.397V177.953H180.477ZM186.966 168.215C188.565 168.224 189.734 169.21 189.742 170.66C189.734 171.965 188.785 172.898 187.43 173.068V174.841C188.404 174.796 189.381 174.725 190.289 174.605L190.355 175.301C188.143 175.674 185.681 175.699 183.85 175.682L183.692 174.912C184.533 174.907 185.503 174.903 186.51 174.874V173.072C185.122 172.902 184.181 171.97 184.189 170.66C184.181 169.21 185.333 168.224 186.966 168.215ZM185.085 170.66C185.076 171.638 185.872 172.318 186.966 172.309C188.043 172.318 188.83 171.638 188.839 170.66C188.83 169.682 188.043 169.011 186.966 169.003C185.872 169.011 185.076 169.682 185.085 170.66ZM190.96 177.953V167.536H191.872V171.837H193.571V172.624H191.872V177.953H190.96ZM200.945 170.337C200.937 172.169 202.155 174.058 203.638 174.787L203.066 175.525C201.923 174.924 200.966 173.689 200.502 172.243C200.037 173.78 199.051 175.094 197.879 175.724L197.298 174.986C198.815 174.232 200.025 172.235 200.033 170.337V168.439H200.945V170.337ZM204.591 177.953V167.536H205.511V171.762H207.252V172.558H205.511V177.953H204.591ZM216.483 167.536V177.953H215.563V167.536H216.483ZM207.997 175.177C208.888 175.169 209.907 175.16 210.964 175.127V173.996C209.712 173.859 208.9 173.146 208.908 172.102C208.9 170.925 209.903 170.163 211.403 170.163C212.911 170.163 213.93 170.925 213.93 172.102C213.93 173.134 213.122 173.847 211.884 173.988V175.094C212.895 175.048 213.914 174.97 214.875 174.845L214.95 175.55C212.621 175.923 210.069 175.956 208.138 175.956L207.997 175.177ZM208.221 169.566V168.82H210.964V167.544H211.884V168.82H214.602V169.566H208.221ZM209.77 172.102C209.762 172.823 210.442 173.296 211.403 173.287C212.381 173.296 213.052 172.823 213.052 172.102C213.052 171.373 212.381 170.884 211.403 170.884C210.442 170.884 209.762 171.373 209.77 172.102ZM230.197 167.544V175.185H229.277V171.182H227.131V170.428H229.277V167.544H230.197ZM221.603 173.097C223.144 172.558 224.255 171.182 224.255 169.691V169.152H221.901V168.39H227.512V169.152H225.183V169.691C225.183 171.033 226.227 172.343 227.752 172.865L227.271 173.602C226.095 173.18 225.187 172.305 224.736 171.228C224.284 172.43 223.323 173.387 222.084 173.851L221.603 173.097ZM223.509 177.721V174.497H224.429V176.959H230.487V177.721H223.509ZM240.199 167.544V170.693H241.765V171.472H240.199V175.193H239.279V167.544H240.199ZM232.5 173.436V168.29H233.403V170.047H236.437V168.29H237.348V173.436H232.5ZM233.403 172.691H236.437V170.776H233.403V172.691ZM233.677 177.721V174.448H234.589V176.959H240.68V177.721H233.677ZM251.469 167.536V177.953H250.582V167.536H251.469ZM242.676 172.028C242.676 169.815 243.555 168.414 244.906 168.414C246.174 168.414 247.031 169.633 247.147 171.597H248.494V167.76H249.381V177.423H248.494V172.359H247.151C247.06 174.39 246.194 175.657 244.906 175.649C243.555 175.657 242.676 174.249 242.676 172.028ZM243.538 172.028C243.53 173.718 244.069 174.787 244.906 174.779C245.759 174.787 246.298 173.718 246.298 172.028C246.298 170.337 245.759 169.276 244.906 169.276C244.069 169.276 243.53 170.337 243.538 172.028ZM264.454 168.091V168.862C264.454 169.695 264.454 170.673 264.168 172.003H265.689V172.765H256.167V172.003H263.231C263.542 170.656 263.542 169.695 263.542 168.862V168.854H257.377V168.091H264.454ZM257.26 175.981C257.26 174.738 258.644 174.008 260.907 174.008C263.153 174.008 264.537 174.738 264.545 175.981C264.537 177.224 263.153 177.92 260.907 177.92C258.644 177.92 257.26 177.224 257.26 175.981ZM258.189 175.981C258.18 176.718 259.208 177.166 260.907 177.174C262.581 177.166 263.609 176.718 263.617 175.981C263.609 175.21 262.581 174.762 260.907 174.762C259.208 174.762 258.18 175.21 258.189 175.981ZM275.293 167.536V173.743H274.373V171.017H272.268V170.254H274.373V167.536H275.293ZM266.699 172.914C268.249 172.351 269.351 170.942 269.351 169.45V169.061H266.997V168.298H272.608V169.061H270.279V169.442C270.279 170.801 271.323 172.094 272.848 172.616L272.368 173.354C271.195 172.931 270.287 172.057 269.836 170.983C269.388 172.202 268.423 173.175 267.18 173.644L266.699 172.914ZM268.348 176.006C268.34 174.779 269.666 174.066 271.837 174.066C274 174.066 275.326 174.779 275.326 176.006C275.326 177.232 274 177.936 271.837 177.945C269.666 177.936 268.34 177.232 268.348 176.006ZM269.26 176.006C269.252 176.76 270.238 177.215 271.837 177.207C273.428 177.215 274.415 176.76 274.415 176.006C274.415 175.243 273.428 174.787 271.837 174.787C270.238 174.787 269.252 175.243 269.26 176.006ZM280.77 169.459C280.77 170.809 281.814 172.102 283.339 172.633L282.859 173.354C281.682 172.935 280.774 172.065 280.323 170.992C279.875 172.189 278.91 173.146 277.671 173.602L277.19 172.873C278.732 172.326 279.842 170.934 279.842 169.467V169.011H277.489V168.257H283.099V169.011H280.77V169.459ZM278.773 175.086V174.331H285.784V177.953H284.864V175.086H278.773ZM282.768 171.033V170.262H284.864V167.536H285.784V173.776H284.864V171.033H282.768ZM296.242 167.544V175.16H295.322V167.544H296.242ZM287.88 170.826C287.88 169.326 289.057 168.273 290.615 168.273C292.173 168.273 293.342 169.326 293.342 170.826C293.342 172.343 292.173 173.395 290.615 173.387C289.057 173.395 287.88 172.343 287.88 170.826ZM288.783 170.826C288.775 171.862 289.562 172.583 290.615 172.583C291.651 172.583 292.446 171.862 292.446 170.826C292.446 169.807 291.651 169.077 290.615 169.077C289.562 169.077 288.775 169.807 288.783 170.826ZM289.513 177.721V174.381H290.433V176.959H296.565V177.721H289.513ZM304.13 168.166C305.009 168.162 305.759 168.489 306.243 169.044H308.978V167.536H309.898V173.71H308.978V172.218H306.243C305.759 172.773 305.009 173.101 304.13 173.097C302.572 173.105 301.42 172.086 301.428 170.635C301.42 169.177 302.572 168.157 304.13 168.166ZM302.307 170.635C302.307 171.605 303.069 172.318 304.13 172.309C305.166 172.318 305.937 171.605 305.937 170.635C305.937 169.649 305.166 168.953 304.13 168.961C303.069 168.953 302.307 169.649 302.307 170.635ZM302.953 175.939C302.945 174.68 304.279 173.95 306.442 173.95C308.597 173.95 309.931 174.68 309.931 175.939C309.931 177.199 308.597 177.928 306.442 177.928C304.279 177.928 302.945 177.199 302.953 175.939ZM303.857 175.939C303.848 176.718 304.843 177.191 306.442 177.191C308.042 177.191 309.036 176.718 309.036 175.939C309.036 175.144 308.042 174.671 306.442 174.671C304.843 174.671 303.848 175.144 303.857 175.939ZM306.683 169.798C306.774 170.055 306.823 170.337 306.823 170.635C306.823 170.93 306.774 171.203 306.687 171.456H308.978V169.798H306.683ZM321.442 169.359V170.122H319.9V171.564H321.442V172.334H319.9V174.257H318.98V167.536H319.9V169.359H321.442ZM311.779 169.459V168.721H314.431V167.453H315.342V168.721H317.986V169.459H311.779ZM312.375 171.837C312.367 170.718 313.37 169.997 314.886 169.997C316.378 169.997 317.381 170.718 317.389 171.837C317.381 172.956 316.378 173.677 314.886 173.669C313.37 173.677 312.367 172.956 312.375 171.837ZM313.196 176.138C313.187 174.994 314.48 174.331 316.61 174.331C318.723 174.331 320.016 174.994 320.016 176.138C320.016 177.265 318.723 177.928 316.61 177.928C314.48 177.928 313.187 177.265 313.196 176.138ZM313.254 171.837C313.245 172.517 313.9 172.956 314.886 172.956C315.856 172.956 316.511 172.517 316.519 171.837C316.511 171.149 315.856 170.693 314.886 170.685C313.9 170.693 313.245 171.149 313.254 171.837ZM314.107 176.138C314.099 176.809 315.044 177.215 316.61 177.207C318.16 177.215 319.105 176.809 319.105 176.138C319.105 175.442 318.16 175.052 316.61 175.052C315.044 175.052 314.099 175.442 314.107 176.138ZM330.83 167.536V177.97H329.911V167.536H330.83ZM322.634 171.97C322.634 169.757 323.737 168.348 325.295 168.34C326.836 168.348 327.955 169.757 327.955 171.97C327.955 174.191 326.836 175.599 325.295 175.599C323.737 175.599 322.634 174.191 322.634 171.97ZM323.521 171.97C323.521 173.669 324.25 174.779 325.295 174.779C326.339 174.779 327.06 173.669 327.06 171.97C327.06 170.279 326.339 169.169 325.295 169.16C324.25 169.169 323.521 170.279 323.521 171.97ZM344.014 167.536V169.881H345.58V170.66H344.014V172.84H343.094V167.536H344.014ZM335.884 172.334C338.474 171.746 340.007 170.461 340.165 168.812H336.348V168.05H341.18C341.18 170.669 339.274 172.384 336.241 173.105L335.884 172.334ZM337.368 174.058V173.312H344.014V175.881H338.296V177.099H344.395V177.854H337.393V175.169H343.102V174.058H337.368ZM354.72 168.506C354.72 169.972 356.634 171.24 358.515 171.506L358.142 172.26C356.518 171.986 354.914 171.087 354.247 169.807C353.584 171.095 351.981 171.986 350.361 172.26L349.979 171.506C351.861 171.24 353.767 169.997 353.767 168.506V167.909H354.72V168.506ZM349.49 174.174V173.403H358.988V174.174H354.67V177.953H353.767V174.174H349.49ZM366.635 174.522C366.635 175.446 367.137 176.428 368.123 176.992C369.117 176.378 369.644 175.33 369.644 174.522V173.95H370.547V174.522C370.539 175.599 371.326 176.669 372.669 177.124L372.204 177.804C371.164 177.439 370.435 176.71 370.075 175.836C369.751 176.685 369.117 177.485 368.152 177.895C367.137 177.506 366.494 176.743 366.184 175.869C365.807 176.71 365.09 177.431 364.091 177.804L363.627 177.124C364.945 176.635 365.74 175.525 365.749 174.522V173.95H366.635V174.522ZM363.354 170.586C363.354 169.135 364.506 168.149 366.088 168.149C367.671 168.149 368.815 169.135 368.815 170.586C368.815 172.019 367.671 173.006 366.088 173.006C364.506 173.006 363.354 172.019 363.354 170.586ZM364.257 170.586C364.249 171.555 365.019 172.235 366.088 172.243C367.149 172.235 367.92 171.555 367.92 170.586C367.92 169.616 367.149 168.928 366.088 168.936C365.019 168.928 364.249 169.616 364.257 170.586ZM370.796 173.494V167.544H371.715V173.494H370.796ZM382.016 172.417V173.163H378.801V175.865H383.143V176.635H373.604V175.865H377.889V173.163H374.823V168.381H381.917V169.135H375.743V172.417H382.016ZM393.618 173.271V174.033H384.079V173.271H388.397V172.169H385.322V169.624H391.471V168.547H385.289V167.801H392.391V170.32H386.234V171.431H392.615V172.169H389.3V173.271H393.618ZM385.148 175.583V174.829H392.449V177.854H391.521V175.583H385.148ZM406.155 172.276V173.047H402.923V175.831H407.257V176.594H397.718V175.831H402.003V173.047H398.887V168.423H399.823V172.276H406.155ZM413.149 168.174V171.099H409.568V172.715C411.524 172.715 412.539 172.674 413.762 172.45L413.853 173.213C412.56 173.428 411.499 173.461 409.394 173.461H408.657V170.387H412.237V168.92H408.632V168.174H413.149ZM409.825 175.26V174.506H416.845V177.97H415.925V175.26H409.825ZM413.845 172.003V171.249H415.925V169.84H413.845V169.094H415.925V167.544H416.845V173.942H415.925V172.003H413.845ZM426.847 167.536V170.204H428.413V170.983H426.847V173.586H425.927V167.536H426.847ZM418.725 169.367V168.613H421.377V167.436H422.289V168.613H424.932V169.367H418.725ZM419.322 171.68C419.314 170.569 420.316 169.856 421.833 169.856C423.325 169.856 424.328 170.569 424.336 171.68C424.328 172.79 423.325 173.511 421.833 173.503C420.316 173.511 419.314 172.79 419.322 171.68ZM420.2 171.68C420.192 172.359 420.847 172.807 421.833 172.807C422.803 172.807 423.457 172.359 423.466 171.68C423.457 171.008 422.803 170.552 421.833 170.561C420.847 170.552 420.192 171.008 420.2 171.68ZM420.258 177.812V174.041H421.17V175.16H425.927V174.041H426.847V177.812H420.258ZM421.17 177.066H425.927V175.89H421.17V177.066ZM437.777 167.536V177.953H436.866V167.536H437.777ZM429.871 175.268V168.564H430.774V174.464C432.366 174.46 434.002 174.336 435.755 173.967L435.879 174.754C434.031 175.135 432.382 175.268 430.716 175.268H429.871ZM447.746 167.536V171.655H449.487V172.425H447.746V177.97H446.826V167.536H447.746ZM440.138 175.359V168.555H445.003V169.309H441.058V174.58C442.944 174.576 444.278 174.501 445.824 174.215L445.94 175.011C444.307 175.301 442.94 175.359 440.959 175.359H440.138ZM451.276 177.066C450.862 177.066 450.514 176.727 450.522 176.312C450.514 175.898 450.862 175.558 451.276 175.558C451.69 175.558 452.03 175.898 452.03 176.312C452.03 176.727 451.69 177.066 451.276 177.066Z" fill="white"/>
</svg>
