<svg width="488" height="202" viewBox="0 0 488 202" fill="none" xmlns="http://www.w3.org/2000/svg">
<rect width="488" height="202" rx="10" fill="white" fill-opacity="0.1"/>
<path d="M26.4844 36H24.3125L28.2969 24.6875H30.7969L34.7969 36H32.625L31.6797 33.2031H27.4219L26.4844 36ZM27.9688 31.5625H31.1328L29.5938 27H29.5L27.9688 31.5625ZM39.6444 36.1719C37.1131 36.1719 35.5819 34.3594 35.5819 31.7969C35.5819 29.1953 37.16 27.4062 39.6444 27.4062C41.6991 27.4062 43.1444 28.6094 43.285 30.4375H41.3787C41.2225 29.625 40.6287 29.0078 39.66 29C38.4256 29.0078 37.5975 30.0391 37.5975 31.75C37.5975 33.5 38.41 34.5391 39.66 34.5469C40.5428 34.5391 41.1991 34.0234 41.3787 33.1094H43.285C43.1366 34.8984 41.7772 36.1719 39.6444 36.1719ZM48.6481 36.1719C46.1169 36.1719 44.5856 34.3594 44.5856 31.7969C44.5856 29.1953 46.1637 27.4062 48.6481 27.4062C50.7028 27.4062 52.1481 28.6094 52.2887 30.4375H50.3825C50.2262 29.625 49.6325 29.0078 48.6637 29C47.4294 29.0078 46.6012 30.0391 46.6012 31.75C46.6012 33.5 47.4137 34.5391 48.6637 34.5469C49.5466 34.5391 50.2028 34.0234 50.3825 33.1094H52.2887C52.1403 34.8984 50.7809 36.1719 48.6481 36.1719ZM57.6519 36.1719C55.1753 36.1719 53.5894 34.4141 53.5894 31.7969C53.5894 29.1562 55.1753 27.4062 57.6519 27.4062C60.1362 27.4062 61.7222 29.1562 61.7144 31.7969C61.7222 34.4141 60.1362 36.1719 57.6519 36.1719ZM55.605 31.7812C55.605 33.3359 56.2847 34.5781 57.6675 34.5781C59.0269 34.5781 59.7066 33.3359 59.6987 31.7812C59.7066 30.2266 59.0269 28.9766 57.6675 28.9844C56.2847 28.9766 55.605 30.2266 55.605 31.7812ZM68.8431 32.4375V27.5156H70.8275V36H68.9056V34.5H68.8119C68.4212 35.4453 67.5306 36.1094 66.265 36.1094C64.5853 36.1094 63.4291 34.9531 63.4212 32.9219V27.5156H65.4212V32.6094C65.4212 33.6875 66.0619 34.375 67.0306 34.375C67.9056 34.375 68.8431 33.7344 68.8431 32.4375ZM74.8937 31.0312V36H72.8937V27.5156H74.8V28.9531H74.9094C75.2922 28.0078 76.1594 27.4062 77.425 27.4062C79.1828 27.4062 80.3391 28.5625 80.3312 30.5938V36H78.3469V30.9062C78.3469 29.7656 77.7297 29.0859 76.6906 29.0938C75.6359 29.0859 74.8937 29.7969 74.8937 31.0312ZM86.6319 27.5156V29.0469H84.96V33.4531C84.96 34.2656 85.3662 34.4297 85.8662 34.4375C86.1006 34.4453 86.4912 34.4219 86.7412 34.4062V36.0312C86.5069 36.0703 86.1241 36.1172 85.6162 36.1094C84.1162 36.1172 82.96 35.375 82.9756 33.7812V29.0469H81.7569V27.5156H82.9756V25.4844H84.96V27.5156H86.6319ZM87.9325 33.6094C87.9325 31.7031 89.5184 31.1484 91.0887 31.0469C91.6825 31 92.8934 30.9453 93.2684 30.9297L93.2606 30.25C93.2606 29.4062 92.7216 28.9219 91.7294 28.9219C90.8387 28.9219 90.2919 29.3281 90.1356 29.9375H88.2137C88.3544 28.4922 89.6512 27.4062 91.7762 27.4062C93.3856 27.4062 95.245 28.0703 95.245 30.3281V36H93.3387V34.8281H93.2762C92.9012 35.5469 92.1122 36.1719 90.7762 36.1719C89.1591 36.1719 87.9325 35.2891 87.9325 33.6094ZM89.8544 33.5938C89.8544 34.3281 90.4559 34.7031 91.2919 34.7031C92.5028 34.7031 93.2762 33.9062 93.2762 32.9531L93.2684 32.2578C92.9091 32.2734 91.7997 32.3438 91.4012 32.375C90.4559 32.4531 89.8544 32.8516 89.8544 33.5938ZM97.3737 36V24.6875H99.3737V28.9062H99.4519C99.7566 28.3047 100.374 27.4062 101.874 27.4062C103.835 27.4062 105.382 28.9375 105.389 31.7656C105.382 34.5547 103.882 36.1484 101.889 36.1562C100.421 36.1484 99.7644 35.2812 99.4519 34.6562H99.3269V36H97.3737ZM99.3269 31.75C99.3269 33.4062 100.053 34.5156 101.327 34.5156C102.655 34.5156 103.35 33.3516 103.358 31.75C103.35 30.1719 102.671 29.0391 101.327 29.0312C100.038 29.0391 99.3269 30.1016 99.3269 31.75ZM107.112 36V27.5156H109.112V36H107.112ZM106.971 25.2188C106.971 24.625 107.495 24.1406 108.128 24.1406C108.76 24.1406 109.284 24.625 109.284 25.2188C109.284 25.8203 108.76 26.3047 108.128 26.3125C107.495 26.3047 106.971 25.8203 106.971 25.2188ZM113.178 24.6875V36H111.178V24.6875H113.178ZM115.244 36V27.5156H117.244V36H115.244ZM115.104 25.2188C115.104 24.625 115.627 24.1406 116.26 24.1406C116.893 24.1406 117.416 24.625 117.416 25.2188C117.416 25.8203 116.893 26.3047 116.26 26.3125C115.627 26.3047 115.104 25.8203 115.104 25.2188ZM123.545 27.5156V29.0469H121.873V33.4531C121.873 34.2656 122.279 34.4297 122.779 34.4375C123.014 34.4453 123.404 34.4219 123.654 34.4062V36.0312C123.42 36.0703 123.037 36.1172 122.529 36.1094C121.029 36.1172 119.873 35.375 119.889 33.7812V29.0469H118.67V27.5156H119.889V25.4844H121.873V27.5156H123.545ZM126.439 39.1875C126.041 39.1797 125.666 39.1719 125.408 39.1406V37.5469C125.65 37.5703 125.986 37.5703 126.252 37.5781C126.736 37.5703 127.143 37.5391 127.486 36.625L127.658 36.1719L124.564 27.5156H126.674L128.643 33.9219H128.736L130.705 27.5156H132.814L129.408 37.0312C128.924 38.3828 128.033 39.1797 126.439 39.1875Z" fill="white"/>
<path d="M143.157 26.6126C143.157 27.9855 144.032 29.3294 145.589 29.8805L144.98 30.8715C143.82 30.4268 143.012 29.5856 142.573 28.5608C142.142 29.6775 141.325 30.5912 140.136 31.0794L139.517 30.1174C141.069 29.4938 141.92 28.087 141.93 26.6126V26.4917H139.793V25.4572H141.93V24.0504H143.157V25.4572H145.256V26.4917H143.157V26.6126ZM141.567 33.0808V32.0269H149.892V36.1602H148.61V33.0808H141.567ZM146.029 31.3646V24.1374H147.271V27.1298H148.664V23.9199H149.892V31.413H148.664V28.1885H147.271V31.3646H146.029ZM161.856 23.9199V30.8909H160.555V23.9199H161.856ZM151.941 27.4344C151.941 25.7134 153.323 24.5338 155.204 24.5338C157.079 24.5338 158.457 25.7134 158.457 27.4344C158.457 29.1167 157.079 30.3108 155.204 30.3108C153.323 30.3108 151.941 29.1167 151.941 27.4344ZM153.212 27.4344C153.202 28.4931 154.039 29.2134 155.204 29.2134C156.354 29.2134 157.186 28.4931 157.186 27.4344C157.186 26.3515 156.354 25.6264 155.204 25.636C154.039 25.6264 153.202 26.3515 153.212 27.4344ZM153.802 36.0055V31.5193H161.856V36.0055H153.802ZM155.083 34.9517H160.579V32.5587H155.083V34.9517Z" fill="#AEAEAE"/>
<path d="M27.5055 93.7901C27.5055 95.0249 28.326 96.2265 29.6519 96.7155L29.2044 97.4282C28.1892 97.018 27.4599 96.2431 27.0912 95.2983C26.7307 96.3218 25.9972 97.1671 24.9613 97.6105L24.5055 96.9227C25.8315 96.3757 26.6271 95.116 26.6354 93.7901V93.6657H24.7127V92.9199H26.6354V91.6602H27.5055V92.9199H29.3867V93.6657H27.5055V93.7901ZM26.2459 99.2348V98.4807H33.2652V101.953H32.3619V99.2348H26.2459ZM30.1409 97.8674V91.7348H31.0276V94.3287H32.395V91.5442H33.2652V97.9171H32.395V95.0912H31.0276V97.8674H30.1409ZM43.516 91.5442V97.4945H42.5961V91.5442H43.516ZM35.1541 94.5359C35.1541 93.0773 36.306 92.0912 37.8889 92.0912C39.4718 92.0912 40.6154 93.0773 40.6154 94.5359C40.6154 95.9613 39.4718 96.9558 37.8889 96.9558C36.306 96.9558 35.1541 95.9613 35.1541 94.5359ZM36.0574 94.5359C36.0491 95.4972 36.8198 96.1768 37.8889 96.1768C38.9497 96.1768 39.7204 95.4972 39.7204 94.5359C39.7204 93.558 38.9497 92.8702 37.8889 92.8785C36.8198 92.8702 36.0491 93.558 36.0574 94.5359ZM36.737 101.812V98.058H43.516V101.812H36.737ZM37.6486 101.058H42.6126V98.8039H37.6486V101.058ZM53.5512 91.5359V94.0884H55.1175V94.8508H53.5512V97.453H52.6314V91.5359H53.5512ZM45.3966 96.8149C47.9573 96.1229 49.5153 94.7348 49.7101 92.9779H45.8606V92.2155H50.7004C50.6921 94.8343 48.8524 96.7155 45.7695 97.5525L45.3966 96.8149ZM46.9463 101.804V97.9254H53.5512V101.804H46.9463ZM47.8662 101.058H52.6396V98.6961H47.8662V101.058ZM65.3932 97.0304V97.7762H55.8959V97.0304H65.3932ZM56.9484 93.9641C56.9484 92.663 58.3821 91.8923 60.6363 91.9006C62.8821 91.8923 64.3158 92.663 64.3158 93.9641C64.3158 95.2652 62.8821 96.0442 60.6363 96.0442C58.3821 96.0442 56.9484 95.2652 56.9484 93.9641ZM57.1225 101.721V98.6961H58.0506V100.959H64.3324V101.721H57.1225ZM57.9015 93.9641C57.8932 94.7928 58.9622 95.2901 60.6363 95.2901C62.3103 95.2901 63.3794 94.7928 63.3794 93.9641C63.3794 93.1519 62.3103 92.6464 60.6363 92.6464C58.9622 92.6464 57.8932 93.1519 57.9015 93.9641ZM78.469 91.5359V101.953H77.5823V96.5331H76.1569V101.423H75.2867V91.7597H76.1569V95.7459H77.5823V91.5359H78.469ZM69.411 99.0939C70.911 98.2652 71.7149 96.4917 71.7149 94.3785V93.5414H69.6596V92.779H74.5326V93.5414H72.6016V94.3785C72.6016 96.2845 73.3889 97.9669 74.8723 98.7293L74.3254 99.442C73.2729 98.866 72.5477 97.8425 72.179 96.5663C71.8226 98.0166 71.085 99.1519 69.9911 99.7983L69.411 99.0939ZM88.1562 91.5276V94.6354H89.7308V95.4061H88.1562V99.0773H87.2364V91.5276H88.1562ZM80.5071 97.221V92.4392H85.1397V93.2017H81.4187V96.4503C83.5071 96.4586 84.7004 96.3964 86.0927 96.1105L86.2087 96.8729C84.7419 97.1547 83.4988 97.2293 81.3109 97.221H80.5071ZM81.6342 101.721V98.3149H82.5458V100.959H88.6369V101.721H81.6342ZM99.0866 91.5359V101.97H98.1667V91.5359H99.0866ZM90.8904 95.9696C90.8904 93.7569 91.9926 92.3481 93.5507 92.3398C95.0921 92.3481 96.2109 93.7569 96.2109 95.9696C96.2109 98.1906 95.0921 99.5994 93.5507 99.5994C91.9926 99.5994 90.8904 98.1906 90.8904 95.9696ZM91.7772 95.9696C91.7772 97.6685 92.5065 98.779 93.5507 98.779C94.5949 98.779 95.3158 97.6685 95.3158 95.9696C95.3158 94.279 94.5949 93.1685 93.5507 93.1602C92.5065 93.1685 91.7772 94.279 91.7772 95.9696ZM113.621 97.8343V98.605H109.32V101.97H108.417V98.605H104.124V97.8343H113.621ZM104.72 96.2845C106.577 96.0359 108.408 94.9006 108.417 93.5912V93.5829H105.044V92.8287H108.417V91.5276H109.32V92.8287H112.701V93.5829H109.328V93.5912C109.328 94.8923 111.143 96.0359 113.008 96.2845L112.668 97.0304C111.056 96.7818 109.539 95.9738 108.877 94.8384C108.209 95.9862 106.672 96.7818 105.06 97.0304L104.72 96.2845ZM118.369 93.7652C118.369 95.174 119.479 96.442 121.037 96.9392L120.565 97.6685C119.355 97.2583 118.39 96.4006 117.921 95.3025C117.462 96.4917 116.488 97.4282 115.245 97.884L114.764 97.1464C116.33 96.5994 117.433 95.2486 117.441 93.7652V93.1602H115.004V92.4061H120.764V93.1602H118.369V93.7652ZM116.488 101.721V98.4558H117.408V100.959H123.54V101.721H116.488ZM122.297 99.1851V91.5442H123.217V99.1851H122.297ZM133.169 91.5359V95.8287H134.91V96.5994H133.169V101.953H132.258V91.5359H133.169ZM125.048 93.9724V93.2099H127.725V91.6602H128.645V93.2099H131.247V93.9724H125.048ZM125.645 97.2293C125.636 95.8204 126.714 94.8343 128.197 94.8343C129.672 94.8343 130.741 95.8204 130.75 97.2293C130.741 98.6381 129.672 99.616 128.197 99.616C126.714 99.616 125.636 98.6381 125.645 97.2293ZM126.523 97.2293C126.515 98.174 127.227 98.8453 128.197 98.837C129.158 98.8453 129.863 98.174 129.871 97.2293C129.863 96.2845 129.158 95.605 128.197 95.605C127.227 95.605 126.515 96.2845 126.523 97.2293ZM144.017 94.6934V95.4392H136.89V91.9171H137.801V94.6934H144.017ZM135.58 97.6022V96.8564H145.119V97.6022H135.58ZM136.824 101.696V98.663H137.735V100.934H144.083V101.696H136.824ZM158.759 99.8398V100.61H149.22V99.8398H153.504V97.2956H150.347V92.4061H157.573V97.2956H154.416V99.8398H158.759ZM151.242 96.558H156.678V93.1519H151.242V96.558ZM169.216 96.7983V97.5442H159.711V96.7983H169.216ZM160.913 95.6464V91.9917H168.031V92.7376H161.832V94.884H168.123V95.6464H160.913ZM160.937 101.713V98.6713H161.849V100.942H168.205V101.713H160.937ZM176.284 91.9171C177.842 91.9254 178.977 92.8702 178.986 94.2293C178.977 95.5884 177.842 96.5249 176.284 96.5249C174.709 96.5249 173.574 95.5884 173.574 94.2293C173.574 92.8702 174.709 91.9254 176.284 91.9171ZM174.477 94.2293C174.469 95.1409 175.24 95.7707 176.284 95.7707C177.32 95.7707 178.091 95.1409 178.091 94.2293C178.091 93.326 177.32 92.6878 176.284 92.6961C175.24 92.6878 174.469 93.326 174.477 94.2293ZM175.157 98.1326V97.3867H181.936V99.8978H176.085V101.066H182.309V101.812H175.19V99.2017H181.024V98.1326H175.157ZM181.016 96.8812V91.5359H181.936V96.8812H181.016ZM192.75 91.5359V101.953H191.864V91.5359H192.75ZM183.957 96.0276C183.957 93.8149 184.836 92.4144 186.187 92.4144C187.455 92.4144 188.312 93.6326 188.428 95.5967H189.775V91.7597H190.662V101.423H189.775V96.3591H188.433C188.341 98.3895 187.475 99.6575 186.187 99.6492C184.836 99.6575 183.957 98.2486 183.957 96.0276ZM184.819 96.0276C184.811 97.7182 185.35 98.7873 186.187 98.779C187.04 98.7873 187.579 97.7182 187.579 96.0276C187.579 94.337 187.04 93.2762 186.187 93.2762C185.35 93.2762 184.811 94.337 184.819 96.0276ZM197.979 94.337C197.979 96.2182 199.189 98.116 200.705 98.8122L200.15 99.558C198.965 98.9489 197.987 97.7017 197.523 96.2224C197.063 97.7804 196.085 99.1146 194.896 99.7486L194.308 99.011C195.833 98.2569 197.042 96.2514 197.051 94.337V92.4392H197.979V94.337ZM199.57 95.8453V95.0912H202.04V91.5359H202.951V101.97H202.04V95.8453H199.57ZM216.002 91.5359V95.7707H217.693V96.5497H216.002V101.945H215.082V91.5359H216.002ZM208.005 99.2431C210.698 97.9047 212.165 95.8992 212.372 93.4254H208.494V92.6547H213.309C213.301 95.605 211.917 98.2901 208.519 99.9641L208.005 99.2431ZM221.96 93.5083C221.96 94.8757 222.98 96.0939 224.513 96.5994L224.073 97.3204C222.876 96.9227 221.969 96.0939 221.521 95.0497C221.073 96.2431 220.112 97.1754 218.861 97.6271L218.388 96.8895C219.955 96.3591 221.04 95.0166 221.049 93.5166V93.0691H218.67V92.3066H224.297V93.0691H221.96V93.5083ZM219.781 100.006C219.781 98.8039 221.09 98.1077 223.236 98.1077C225.375 98.1077 226.667 98.8039 226.667 100.006C226.667 101.224 225.375 101.928 223.236 101.928C221.09 101.928 219.781 101.224 219.781 100.006ZM220.701 100.006C220.692 100.751 221.662 101.191 223.236 101.191C224.811 101.191 225.772 100.751 225.772 100.006C225.772 99.2762 224.811 98.8453 223.236 98.8453C221.662 98.8453 220.692 99.2762 220.701 100.006ZM225.656 97.826V91.5359H226.576V94.1961H228.143V94.9669H226.576V97.826H225.656ZM241.55 96.4088V97.1713H237.249V98.2818C239.213 98.3688 240.373 99.011 240.381 100.105C240.373 101.273 239.031 101.928 236.793 101.928C234.539 101.928 233.196 101.273 233.196 100.105C233.196 99.011 234.361 98.3688 236.337 98.2818V97.1713H232.053V96.4088H241.55ZM232.591 95.0497C234.398 94.855 236.138 93.9392 236.205 92.7707H232.923V92.0249H240.696V92.7707H237.398C237.456 93.9392 239.18 94.855 241.02 95.0497L240.68 95.779C238.968 95.5677 237.373 94.8052 236.801 93.645C236.225 94.8052 234.634 95.5677 232.923 95.779L232.591 95.0497ZM234.133 100.105C234.124 100.801 235.127 101.215 236.793 101.207C238.45 101.215 239.453 100.801 239.461 100.105C239.453 99.4006 238.45 98.9945 236.793 98.9862C235.127 98.9945 234.124 99.4006 234.133 100.105ZM252.082 99.8398V100.61H242.544V99.8398H244.906V97.0304C244.019 96.5663 243.48 95.8163 243.48 94.8757C243.48 93.2597 245.063 92.1989 247.284 92.1906C249.513 92.1989 251.096 93.2597 251.096 94.8757C251.096 95.8039 250.574 96.5414 249.712 97.0055V99.8398H252.082ZM244.367 94.8757C244.367 96.0359 245.577 96.8149 247.284 96.8149C248.983 96.8149 250.209 96.0359 250.209 94.8757C250.209 93.7072 248.983 92.9365 247.284 92.9448C245.577 92.9365 244.367 93.7072 244.367 94.8757ZM245.809 99.8398H248.784V97.366C248.332 97.482 247.827 97.5442 247.284 97.5442C246.75 97.5442 246.256 97.482 245.809 97.3702V99.8398ZM261.181 91.5359V94.2044H262.748V94.9834H261.181V97.5856H260.261V91.5359H261.181ZM253.06 93.3674V92.6133H255.712V91.4365H256.623V92.6133H259.267V93.3674H253.06ZM253.656 95.6796C253.648 94.5691 254.651 93.8564 256.167 93.8564C257.659 93.8564 258.662 94.5691 258.67 95.6796C258.662 96.7901 257.659 97.511 256.167 97.5028C254.651 97.511 253.648 96.7901 253.656 95.6796ZM254.535 95.6796C254.527 96.3591 255.181 96.8066 256.167 96.8066C257.137 96.8066 257.792 96.3591 257.8 95.6796C257.792 95.0083 257.137 94.5525 256.167 94.5608C255.181 94.5525 254.527 95.0083 254.535 95.6796ZM254.593 101.812V98.0414H255.504V99.1602H260.261V98.0414H261.181V101.812H254.593ZM255.504 101.066H260.261V99.8895H255.504V101.066ZM272.112 91.5359V101.953H271.2V91.5359H272.112ZM264.205 99.268V92.5635H265.109V98.4641C266.7 98.4599 268.337 98.3356 270.089 97.9669L270.214 98.7541C268.366 99.1354 266.717 99.268 265.051 99.268H264.205ZM282.081 91.5359V95.6547H283.821V96.4254H282.081V101.97H281.161V91.5359H282.081ZM274.473 99.3591V92.5552H279.337V93.3094H275.393V98.5801C277.278 98.576 278.612 98.5014 280.158 98.2155L280.274 99.011C278.641 99.3011 277.274 99.3591 275.293 99.3591H274.473ZM285.61 101.066C285.196 101.066 284.848 100.727 284.856 100.312C284.848 99.8978 285.196 99.558 285.61 99.558C286.025 99.558 286.364 99.8978 286.364 100.312C286.364 100.727 286.025 101.066 285.61 101.066ZM33.9448 116.503V117.282H29.6022V120.953H28.6989V117.282H24.4061V116.503H33.9448ZM25.4917 113.246C25.4917 111.837 26.9669 110.959 29.1547 110.95C31.3425 110.959 32.826 111.837 32.826 113.246C32.826 114.638 31.3425 115.517 29.1547 115.517C26.9669 115.517 25.4917 114.638 25.4917 113.246ZM26.4365 113.246C26.4282 114.174 27.5304 114.771 29.1547 114.771C30.779 114.771 31.8812 114.174 31.8812 113.246C31.8812 112.309 30.779 111.704 29.1547 111.704C27.5304 111.704 26.4282 112.309 26.4365 113.246ZM43.516 110.536V120.97H42.6044V110.536H43.516ZM35.5021 112.268V111.506H40.3502V115.21H36.4635V117.671C38.1914 117.667 39.7287 117.593 41.5933 117.29L41.6845 118.061C39.7701 118.367 38.1872 118.442 36.3889 118.442H35.5187V114.456H39.422V112.268H35.5021ZM48.8109 111.298C50.4518 111.298 51.612 112.293 51.6203 113.743C51.612 115.193 50.4518 116.188 48.8109 116.188C47.17 116.188 45.9932 115.193 46.0015 113.743C45.9932 112.293 47.17 111.298 48.8109 111.298ZM45.4629 117.887C47.3855 117.895 50.0374 117.878 52.3413 117.539L52.4159 118.218C50.0291 118.666 47.4684 118.674 45.5872 118.674L45.4629 117.887ZM46.9048 113.743C46.8966 114.713 47.7004 115.384 48.8109 115.384C49.9131 115.384 50.717 114.713 50.717 113.743C50.717 112.773 49.9131 112.102 48.8109 112.102C47.7004 112.102 46.8966 112.773 46.9048 113.743ZM53.0291 120.97V110.536H53.949V120.97H53.0291ZM67.8702 110.536V117.133H67V114.141H65.5995V116.76H64.7376V110.743H65.5995V113.378H67V110.536H67.8702ZM58.9696 112.525V111.787H61.1989V110.61H62.1105V111.787H64.3149V112.525H58.9696ZM59.4254 114.862C59.4172 113.776 60.337 113.08 61.6464 113.08C62.9724 113.08 63.884 113.776 63.8923 114.862C63.884 115.939 62.9724 116.635 61.6464 116.635C60.337 116.635 59.4172 115.939 59.4254 114.862ZM60.2459 114.862C60.2459 115.508 60.8177 115.948 61.6464 115.948C62.4835 115.948 63.0553 115.508 63.0553 114.862C63.0553 114.207 62.4835 113.768 61.6464 113.768C60.8177 113.768 60.2459 114.207 60.2459 114.862ZM60.9337 119.13C60.9254 117.961 62.2348 117.307 64.431 117.307C66.6188 117.307 67.9282 117.961 67.9282 119.13C67.9282 120.273 66.6188 120.928 64.431 120.928C62.2348 120.928 60.9254 120.273 60.9337 119.13ZM61.8453 119.13C61.837 119.809 62.8067 120.215 64.431 120.207C66.047 120.215 67.0083 119.809 67.0166 119.13C67.0083 118.417 66.047 118.019 64.431 118.028C62.8067 118.019 61.837 118.417 61.8453 119.13ZM79.0243 115.682V116.428H69.5187V115.682H73.8198V114.464H70.7204V111.025H77.8392V111.762H71.632V113.718H77.9055V114.464H74.7149V115.682H79.0243ZM70.6624 119.064C70.6624 117.87 72.0132 117.191 74.2591 117.191C76.4966 117.191 77.8392 117.87 77.8475 119.064C77.8392 120.265 76.4966 120.936 74.2591 120.945C72.0132 120.936 70.6624 120.265 70.6624 119.064ZM71.5989 119.064C71.5906 119.793 72.5933 120.215 74.2591 120.207C75.9165 120.215 76.9193 119.793 76.9276 119.064C76.9193 118.343 75.9165 117.912 74.2591 117.912C72.5933 117.912 71.5906 118.343 71.5989 119.064ZM85.7861 111.688V112.235C85.7778 113.055 85.7778 114.431 85.4795 116.362L84.5596 116.287C84.8413 114.543 84.8662 113.271 84.8662 112.442H80.4905V111.688H85.7861ZM79.9021 117.887C80.5858 117.883 81.3482 117.878 82.148 117.858V114.663H83.0596V117.833C84.2115 117.787 85.3924 117.713 86.4739 117.58L86.5237 118.276C84.3358 118.616 81.8828 118.666 80.0181 118.657L79.9021 117.887ZM87.1286 120.953V110.536H88.0485V114.895H89.7391V115.691H88.0485V120.953H87.1286ZM102.268 110.536V115.865H101.348V114.771H98.5636V114.041H101.348V112.79H98.7169C98.0664 114.431 96.4503 115.546 94.1382 116.097L93.8067 115.334C96.3633 114.742 97.8509 113.499 98.0166 111.82H94.3371V111.058H99.036C99.036 111.406 99.0028 111.738 98.9365 112.052H101.348V110.536H102.268ZM95.5139 117.083V116.337H102.268V118.873H96.4503V120.099H102.624V120.854H95.5387V118.169H101.348V117.083H95.5139ZM112.759 110.536V116.743H111.839V114.017H109.734V113.254H111.839V110.536H112.759ZM104.165 115.914C105.715 115.351 106.817 113.942 106.817 112.45V112.061H104.464V111.298H110.074V112.061H107.745V112.442C107.745 113.801 108.789 115.094 110.314 115.616L109.834 116.354C108.661 115.931 107.754 115.057 107.302 113.983C106.854 115.202 105.889 116.175 104.646 116.644L104.165 115.914ZM105.814 119.006C105.806 117.779 107.132 117.066 109.303 117.066C111.466 117.066 112.792 117.779 112.792 119.006C112.792 120.232 111.466 120.936 109.303 120.945C107.132 120.936 105.806 120.232 105.814 119.006ZM106.726 119.006C106.718 119.76 107.704 120.215 109.303 120.207C110.894 120.215 111.881 119.76 111.881 119.006C111.881 118.243 110.894 117.787 109.303 117.787C107.704 117.787 106.718 118.243 106.726 119.006ZM123.54 110.536V120.953H122.654V110.536H123.54ZM114.747 115.028C114.747 112.815 115.626 111.414 116.977 111.414C118.245 111.414 119.102 112.633 119.218 114.597H120.565V110.76H121.452V120.423H120.565V115.359H119.223C119.131 117.39 118.265 118.657 116.977 118.649C115.626 118.657 114.747 117.249 114.747 115.028ZM115.609 115.028C115.601 116.718 116.14 117.787 116.977 117.779C117.83 117.787 118.369 116.718 118.369 115.028C118.369 113.337 117.83 112.276 116.977 112.276C116.14 112.276 115.601 113.337 115.609 115.028ZM137.138 110.536V120.953H136.26V115.483H134.735V120.406H133.881V110.768H134.735V114.721H136.26V110.536H137.138ZM128.619 118.376V111.812H132.522V112.566H129.539V117.588C130.977 117.584 131.967 117.526 133.119 117.29L133.202 118.061C131.95 118.326 130.89 118.367 129.29 118.376H128.619ZM146.875 110.544V113.975H148.441V114.754H146.875V118.351H145.955V110.544H146.875ZM138.754 112.575V111.82H141.406V110.544H142.317V111.82H144.961V112.575H138.754ZM139.35 115.094C139.342 113.909 140.353 113.146 141.861 113.146C143.345 113.146 144.356 113.909 144.364 115.094C144.356 116.262 143.345 117.017 141.861 117.017C140.353 117.017 139.342 116.262 139.35 115.094ZM140.229 115.094C140.22 115.823 140.875 116.296 141.861 116.287C142.831 116.296 143.486 115.823 143.494 115.094C143.486 114.348 142.831 113.867 141.861 113.867C140.875 113.867 140.22 114.348 140.229 115.094ZM140.353 120.721V117.721H141.265V119.959H147.356V120.721H140.353ZM157.614 112.003C157.606 113.403 159.462 114.588 161.285 114.854L160.937 115.583C159.313 115.305 157.73 114.439 157.096 113.188C156.462 114.439 154.875 115.305 153.271 115.583L152.915 114.854C154.722 114.588 156.578 113.403 156.586 112.003V111.936H153.247V111.191H160.937V111.936H157.614V112.003ZM152.352 117.232V116.47H161.849V117.232H157.531V120.945H156.628V117.232H152.352ZM171.445 110.544V118.16H170.525V110.544H171.445ZM163.083 113.826C163.083 112.326 164.26 111.273 165.818 111.273C167.376 111.273 168.544 112.326 168.544 113.826C168.544 115.343 167.376 116.395 165.818 116.387C164.26 116.395 163.083 115.343 163.083 113.826ZM163.986 113.826C163.978 114.862 164.765 115.583 165.818 115.583C166.854 115.583 167.649 114.862 167.649 113.826C167.649 112.807 166.854 112.077 165.818 112.077C164.765 112.077 163.978 112.807 163.986 113.826ZM164.716 120.721V117.381H165.635V119.959H171.768V120.721H164.716ZM176.74 111.298C178.381 111.298 179.541 112.293 179.549 113.743C179.541 115.193 178.381 116.188 176.74 116.188C175.099 116.188 173.922 115.193 173.93 113.743C173.922 112.293 175.099 111.298 176.74 111.298ZM173.392 117.887C175.314 117.895 177.966 117.878 180.27 117.539L180.345 118.218C177.958 118.666 175.397 118.674 173.516 118.674L173.392 117.887ZM174.834 113.743C174.825 114.713 175.629 115.384 176.74 115.384C177.842 115.384 178.646 114.713 178.646 113.743C178.646 112.773 177.842 112.102 176.74 112.102C175.629 112.102 174.825 112.773 174.834 113.743ZM180.958 120.97V110.536H181.878V120.97H180.958ZM187.513 112.044C187.504 113.561 188.607 114.912 190.156 115.45L189.684 116.18C188.474 115.736 187.521 114.837 187.053 113.677C186.597 114.916 185.636 115.89 184.405 116.362L183.924 115.641C185.491 115.061 186.576 113.619 186.576 112.044V111.041H187.513V112.044ZM185.416 118.086V117.331H192.427V120.953H191.507V118.086H185.416ZM191.507 116.809V110.536H192.427V116.809H191.507ZM199.056 110.718C201.377 110.718 202.736 111.356 202.736 112.517C202.736 113.693 201.377 114.331 199.056 114.34C196.736 114.331 195.368 113.693 195.368 112.517C195.368 111.356 196.736 110.718 199.056 110.718ZM194.316 115.79V115.044H203.813V115.79H194.316ZM195.468 117.398V116.693H202.587V119.022H196.396V120.108H202.902V120.837H195.493V118.343H201.683V117.398H195.468ZM196.33 112.517C196.321 113.238 197.333 113.635 199.056 113.635C200.788 113.635 201.799 113.238 201.799 112.517C201.799 111.829 200.788 111.414 199.056 111.414C197.333 111.414 196.321 111.829 196.33 112.517ZM216.002 110.536V114.771H217.693V115.55H216.002V120.945H215.082V110.536H216.002ZM208.005 118.243C210.698 116.905 212.165 114.899 212.372 112.425H208.494V111.655H213.309C213.301 114.605 211.917 117.29 208.519 118.964L208.005 118.243ZM222.159 113.735C222.159 115.5 223.444 117.298 224.977 117.961L224.463 118.691C223.245 118.135 222.196 116.938 221.707 115.5C221.219 117.025 220.166 118.351 218.977 118.948L218.43 118.218C219.922 117.506 221.223 115.533 221.231 113.735V112.376H218.77V111.605H224.637V112.376H222.159V113.735ZM226.096 120.953V110.536H227.015V120.953H226.096ZM237.275 111.588V112.624C237.266 113.909 237.266 115.334 236.885 117.431L235.957 117.323C236.346 115.334 236.346 113.876 236.355 112.624V112.351H229.932V111.588H237.275ZM228.921 119.478V118.707H232.642V114.986H233.554V118.707H238.418V119.478H228.921ZM247.284 110.801C249.513 110.809 250.955 111.605 250.955 112.881C250.955 114.166 249.513 114.953 247.284 114.953C245.063 114.953 243.605 114.166 243.613 112.881C243.605 111.605 245.063 110.809 247.284 110.801ZM242.544 116.519V115.757H252.049V116.519H249.613V118.691H248.693V116.519H246.779V118.691H245.859V116.519H242.544ZM243.712 120.721V117.804H244.64V119.959H251.063V120.721H243.712ZM244.591 112.881C244.582 113.702 245.668 114.207 247.284 114.215C248.908 114.207 249.986 113.702 249.986 112.881C249.986 112.069 248.908 111.555 247.284 111.555C245.668 111.555 244.582 112.069 244.591 112.881ZM261.637 110.536V120.97H260.725V110.536H261.637ZM253.623 112.268V111.506H258.471V115.21H254.585V117.671C256.312 117.667 257.85 117.593 259.714 117.29L259.806 118.061C257.891 118.367 256.308 118.442 254.51 118.442H253.64V114.456H257.543V112.268H253.623ZM265.233 119.204L264.33 122.395H263.46L264.106 119.204H265.233ZM279.382 116.503V117.282H275.039V120.953H274.136V117.282H269.843V116.503H279.382ZM270.929 113.246C270.929 111.837 272.404 110.959 274.592 110.95C276.78 110.959 278.263 111.837 278.263 113.246C278.263 114.638 276.78 115.517 274.592 115.517C272.404 115.517 270.929 114.638 270.929 113.246ZM271.873 113.246C271.865 114.174 272.967 114.771 274.592 114.771C276.216 114.771 277.318 114.174 277.318 113.246C277.318 112.309 276.216 111.704 274.592 111.704C272.967 111.704 271.865 112.309 271.873 113.246ZM285.58 111.506C285.58 112.972 287.494 114.24 289.376 114.506L289.003 115.26C287.378 114.986 285.775 114.087 285.108 112.807C284.445 114.095 282.841 114.986 281.221 115.26L280.84 114.506C282.721 114.24 284.627 112.997 284.627 111.506V110.909H285.58V111.506ZM280.351 117.174V116.403H289.848V117.174H285.53V120.953H284.627V117.174H280.351ZM294.422 112.177C294.414 113.66 295.474 114.97 297.008 115.483L296.494 116.204C295.342 115.773 294.439 114.928 293.987 113.83C293.544 115.077 292.59 116.047 291.331 116.519L290.834 115.773C292.433 115.21 293.502 113.826 293.51 112.21V111.133H294.422V112.177ZM292.532 118.981C292.524 117.729 293.85 117.008 296.021 117.008C298.184 117.008 299.51 117.729 299.51 118.981C299.51 120.224 298.184 120.928 296.021 120.928C293.85 120.928 292.524 120.224 292.532 118.981ZM293.444 118.981C293.436 119.735 294.422 120.191 296.021 120.191C297.613 120.191 298.599 119.735 298.599 118.981C298.599 118.202 297.613 117.738 296.021 117.738C294.422 117.738 293.436 118.202 293.444 118.981ZM296.237 113.528V112.765H298.557V110.536H299.477V116.71H298.557V113.528H296.237ZM303.04 119.204L302.137 122.395H301.267L301.913 119.204H303.04ZM310.75 112.79C310.75 114.025 311.57 115.227 312.896 115.715L312.448 116.428C311.433 116.018 310.704 115.243 310.335 114.298C309.975 115.322 309.241 116.167 308.205 116.61L307.75 115.923C309.076 115.376 309.871 114.116 309.879 112.79V112.666H307.957V111.92H309.879V110.66H310.75V111.92H312.631V112.666H310.75V112.79ZM309.49 118.235V117.481H316.509V120.953H315.606V118.235H309.49ZM313.385 116.867V110.735H314.272V113.329H315.639V110.544H316.509V116.917H315.639V114.091H314.272V116.867H313.385ZM326.76 110.544V116.494H325.84V110.544H326.76ZM318.398 113.536C318.398 112.077 319.55 111.091 321.133 111.091C322.716 111.091 323.859 112.077 323.859 113.536C323.859 114.961 322.716 115.956 321.133 115.956C319.55 115.956 318.398 114.961 318.398 113.536ZM319.301 113.536C319.293 114.497 320.064 115.177 321.133 115.177C322.194 115.177 322.964 114.497 322.964 113.536C322.964 112.558 322.194 111.87 321.133 111.878C320.064 111.87 319.293 112.558 319.301 113.536ZM319.981 120.812V117.058H326.76V120.812H319.981ZM320.893 120.058H325.857V117.804H320.893V120.058ZM336.795 110.536V113.088H338.362V113.851H336.795V116.453H335.875V110.536H336.795ZM328.641 115.815C331.201 115.123 332.759 113.735 332.954 111.978H329.105V111.215H333.944C333.936 113.834 332.096 115.715 329.014 116.552L328.641 115.815ZM330.19 120.804V116.925H336.795V120.804H330.19ZM331.11 120.058H335.884V117.696H331.11V120.058ZM342.546 111.298C344.187 111.298 345.347 112.293 345.355 113.743C345.347 115.193 344.187 116.188 342.546 116.188C340.905 116.188 339.728 115.193 339.737 113.743C339.728 112.293 340.905 111.298 342.546 111.298ZM339.198 117.887C341.121 117.895 343.773 117.878 346.076 117.539L346.151 118.218C343.764 118.666 341.204 118.674 339.322 118.674L339.198 117.887ZM340.64 113.743C340.632 114.713 341.436 115.384 342.546 115.384C343.648 115.384 344.452 114.713 344.452 113.743C344.452 112.773 343.648 112.102 342.546 112.102C341.436 112.102 340.632 112.773 340.64 113.743ZM346.764 120.97V110.536H347.684V120.97H346.764ZM356.716 116.022V117.945C357.719 117.895 358.742 117.808 359.699 117.663L359.774 118.351C357.387 118.782 354.826 118.798 352.945 118.798L352.821 118.028C353.691 118.023 354.723 118.019 355.804 117.982V116.022H356.716ZM353.136 115.666C354.677 115.206 355.763 114.07 355.788 112.666H353.393V111.903H355.804V110.61H356.716V111.903H359.161V112.666H356.716C356.745 114.012 357.855 115.106 359.393 115.541L358.962 116.271C357.71 115.894 356.728 115.094 356.26 114.037C355.808 115.152 354.835 115.989 353.583 116.37L353.136 115.666ZM360.387 120.97V110.536H361.307V120.97H360.387ZM371.607 111.588V112.624C371.599 113.909 371.599 115.334 371.218 117.431L370.29 117.323C370.679 115.334 370.679 113.876 370.688 112.624V112.351H364.265V111.588H371.607ZM363.254 119.478V118.707H366.975V114.986H367.886V118.707H372.751V119.478H363.254ZM382.106 111.506C382.106 112.972 384.02 114.24 385.902 114.506L385.529 115.26C383.904 114.986 382.301 114.087 381.634 112.807C380.971 114.095 379.367 114.986 377.747 115.26L377.366 114.506C379.247 114.24 381.153 112.997 381.153 111.506V110.909H382.106V111.506ZM376.877 117.174V116.403H386.374V117.174H382.056V120.953H381.153V117.174H376.877ZM392.713 111.837C392.705 113.113 394.453 114.157 396.293 114.406L395.937 115.135C394.25 114.891 392.68 114.054 392.116 112.836C391.549 114.054 389.982 114.891 388.296 115.135L387.948 114.406C389.788 114.157 391.52 113.113 391.52 111.837V111.812H388.238V111.058H396.011V111.812H392.713V111.837ZM387.351 116.66V115.898H396.89V116.66H392.647V118.79H391.735V116.66H387.351ZM388.578 120.721V117.754H389.498V119.959H395.829V120.721H388.578ZM402.599 110.718C404.92 110.718 406.279 111.356 406.279 112.517C406.279 113.693 404.92 114.331 402.599 114.34C400.279 114.331 398.911 113.693 398.911 112.517C398.911 111.356 400.279 110.718 402.599 110.718ZM397.859 115.79V115.044H407.356V115.79H397.859ZM399.011 117.398V116.693H406.13V119.022H399.939V120.108H406.445V120.837H399.036V118.343H405.226V117.398H399.011ZM399.873 112.517C399.864 113.238 400.875 113.635 402.599 113.635C404.331 113.635 405.342 113.238 405.342 112.517C405.342 111.829 404.331 111.414 402.599 111.414C400.875 111.414 399.864 111.829 399.873 112.517ZM415.211 113.735C415.211 115.5 416.496 117.298 418.029 117.961L417.515 118.691C416.297 118.135 415.248 116.938 414.759 115.5C414.27 117.025 413.218 118.351 412.029 118.948L411.482 118.218C412.973 117.506 414.275 115.533 414.283 113.735V112.376H411.821V111.605H417.689V112.376H415.211V113.735ZM419.147 120.953V110.536H420.067V120.953H419.147ZM427.558 111.622C427.55 114.63 426.465 117.406 422.694 119.246L422.188 118.517C424.136 117.576 425.342 116.374 426.005 114.965L422.379 115.309L422.23 114.489L426.299 114.22C426.485 113.64 426.597 113.026 426.643 112.384H422.752V111.622H427.558ZM429.663 120.953V110.536H430.583V120.953H429.663ZM440.818 111.588V112.624C440.809 113.909 440.809 115.334 440.428 117.431L439.5 117.323C439.889 115.334 439.889 113.876 439.898 112.624V112.351H433.475V111.588H440.818ZM432.464 119.478V118.707H436.185V114.986H437.097V118.707H441.961V119.478H432.464ZM449.609 117.522C449.609 118.446 450.11 119.428 451.096 119.992C452.091 119.378 452.617 118.33 452.617 117.522V116.95H453.52V117.522C453.512 118.599 454.299 119.669 455.642 120.124L455.178 120.804C454.138 120.439 453.409 119.71 453.048 118.836C452.725 119.685 452.091 120.485 451.125 120.895C450.11 120.506 449.468 119.743 449.157 118.869C448.78 119.71 448.063 120.431 447.065 120.804L446.601 120.124C447.918 119.635 448.714 118.525 448.722 117.522V116.95H449.609V117.522ZM446.327 113.586C446.327 112.135 447.479 111.149 449.062 111.149C450.645 111.149 451.788 112.135 451.788 113.586C451.788 115.019 450.645 116.006 449.062 116.006C447.479 116.006 446.327 115.019 446.327 113.586ZM447.23 113.586C447.222 114.555 447.993 115.235 449.062 115.243C450.123 115.235 450.893 114.555 450.893 113.586C450.893 112.616 450.123 111.928 449.062 111.936C447.993 111.928 447.222 112.616 447.23 113.586ZM453.769 116.494V110.544H454.689V116.494H453.769ZM26.5442 135.785V137.003H31.7486V135.785H32.6768V139.812H25.6326V135.785H26.5442ZM24.4227 135.055V134.285H33.9199V135.055H24.4227ZM24.9613 132.818C26.8177 132.561 28.6989 131.467 28.6989 130.141V129.652H29.6436V130.141C29.6436 131.425 31.5414 132.577 33.3729 132.818L33.0331 133.547C31.4213 133.307 29.8343 132.482 29.1754 131.322C28.5124 132.494 26.9171 133.307 25.3094 133.547L24.9613 132.818ZM26.5442 139.066H31.7486V137.732H26.5442V139.066ZM43.4994 129.536V139.953H42.5878V129.536H43.4994ZM35.5933 137.268V130.564H36.4966V136.464C38.0878 136.46 39.7245 136.336 41.4773 135.967L41.6016 136.754C39.7535 137.135 38.1044 137.268 36.4386 137.268H35.5933ZM53.4684 129.536V133.655H55.2087V134.425H53.4684V139.97H52.5485V129.536H53.4684ZM45.8606 137.359V130.555H50.7253V131.309H46.7805V136.58C48.6659 136.576 50.0001 136.501 51.5457 136.215L51.6617 137.011C50.0291 137.301 48.6617 137.359 46.6811 137.359H45.8606ZM56.9981 139.066C56.5838 139.066 56.2357 138.727 56.244 138.312C56.2357 137.898 56.5838 137.558 56.9981 137.558C57.4125 137.558 57.7523 137.898 57.7523 138.312C57.7523 138.727 57.4125 139.066 56.9981 139.066ZM71.7049 135.503V136.282H67.3624V139.953H66.459V136.282H62.1662V135.503H71.7049ZM63.2519 132.246C63.2519 130.837 64.727 129.959 66.9149 129.95C69.1027 129.959 70.5861 130.837 70.5861 132.246C70.5861 133.638 69.1027 134.517 66.9149 134.517C64.727 134.517 63.2519 133.638 63.2519 132.246ZM64.1966 132.246C64.1883 133.174 65.2905 133.771 66.9149 133.771C68.5392 133.771 69.6414 133.174 69.6414 132.246C69.6414 131.309 68.5392 130.704 66.9149 130.704C65.2905 130.704 64.1883 131.309 64.1966 132.246ZM81.2761 129.536V139.97H80.3645V129.536H81.2761ZM73.2623 131.268V130.506H78.1104V134.21H74.2236V136.671C75.9515 136.667 77.4888 136.593 79.3535 136.29L79.4446 137.061C77.5303 137.367 75.9474 137.442 74.149 137.442H73.2789V133.456H77.1822V131.268H73.2623ZM86.5711 130.298C88.212 130.298 89.3722 131.293 89.3805 132.743C89.3722 134.193 88.212 135.188 86.5711 135.188C84.9302 135.188 83.7534 134.193 83.7617 132.743C83.7534 131.293 84.9302 130.298 86.5711 130.298ZM83.223 136.887C85.1457 136.895 87.7976 136.878 90.1015 136.539L90.176 137.218C87.7893 137.666 85.2285 137.674 83.3473 137.674L83.223 136.887ZM84.665 132.743C84.6567 133.713 85.4606 134.384 86.5711 134.384C87.6733 134.384 88.4772 133.713 88.4772 132.743C88.4772 131.773 87.6733 131.102 86.5711 131.102C85.4606 131.102 84.6567 131.773 84.665 132.743ZM90.7893 139.97V129.536H91.7092V139.97H90.7893ZM100.351 131.5C100.351 132.95 101.404 134.326 102.929 134.873L102.415 135.594C101.267 135.138 100.36 134.235 99.908 133.104C99.4687 134.359 98.5199 135.354 97.2933 135.843L96.8044 135.097C98.3624 134.525 99.4397 133.066 99.448 131.467V130.174H100.351V131.5ZM98.6856 139.721V136.456H99.6138V138.959H105.664V139.721H98.6856ZM102.183 132.768V131.997H104.503V129.544H105.423V137.351H104.503V132.768H102.183ZM111.787 130.298V131.061H108.63V132.37H111.671V133.099H108.63V134.533C110.15 134.529 111.095 134.471 112.21 134.251L112.309 135.014C111.083 135.254 110.097 135.304 108.398 135.304H107.743V130.298H111.787ZM109.102 137.152V136.398H116.121V139.953H115.218V137.152H109.102ZM112.923 135.785V129.743H113.784V132.262H115.251V129.544H116.121V135.859H115.251V133.017H113.784V135.785H112.923ZM126.356 129.536V139.97H125.436V129.536H126.356ZM118.159 133.97C118.159 131.757 119.262 130.348 120.82 130.34C122.361 130.348 123.48 131.757 123.48 133.97C123.48 136.191 122.361 137.599 120.82 137.599C119.262 137.599 118.159 136.191 118.159 133.97ZM119.046 133.97C119.046 135.669 119.776 136.779 120.82 136.779C121.864 136.779 122.585 135.669 122.585 133.97C122.585 132.279 121.864 131.169 120.82 131.16C119.776 131.169 119.046 132.279 119.046 133.97ZM140.931 137.84V138.61H131.393V137.84H135.694V135.304H136.614V137.84H140.931ZM131.865 134.939C133.622 134.633 135.669 133.174 135.669 131.517V131.26H132.18V130.481H140.111V131.26H136.622V131.517C136.622 133.174 138.677 134.608 140.476 134.898L140.094 135.627C138.507 135.312 136.825 134.301 136.154 132.863C135.483 134.309 133.809 135.345 132.246 135.669L131.865 134.939ZM145.638 131.467C145.638 132.867 146.749 134.144 148.307 134.649L147.834 135.362C146.624 134.956 145.659 134.098 145.191 133C144.731 134.185 143.757 135.122 142.514 135.569L142.033 134.856C143.599 134.301 144.702 132.942 144.71 131.467V131.019H142.273V130.265H148.033V131.019H145.638V131.467ZM143.475 137.144V136.39H150.486V139.953H149.566V137.144H143.475ZM149.566 135.834V129.536H150.486V135.834H149.566ZM154.082 138.204L153.179 141.395H152.309L152.955 138.204H154.082ZM167.294 129.536V139.97H166.374V129.536H167.294ZM159.098 133.97C159.098 131.757 160.2 130.348 161.758 130.34C163.3 130.348 164.419 131.757 164.419 133.97C164.419 136.191 163.3 137.599 161.758 137.599C160.2 137.599 159.098 136.191 159.098 133.97ZM159.985 133.97C159.985 135.669 160.714 136.779 161.758 136.779C162.803 136.779 163.524 135.669 163.524 133.97C163.524 132.279 162.803 131.169 161.758 131.16C160.714 131.169 159.985 132.279 159.985 133.97ZM174.404 131.334V132.088H169.175V131.334H171.338V129.851H172.258V131.334H174.404ZM169.556 135.155C169.548 133.771 170.493 132.793 171.794 132.793C173.103 132.793 174.04 133.771 174.048 135.155C174.04 136.555 173.103 137.541 171.794 137.541C170.493 137.541 169.548 136.555 169.556 135.155ZM170.368 135.155C170.368 136.083 170.965 136.746 171.794 136.738C172.622 136.746 173.227 136.083 173.227 135.155C173.227 134.243 172.622 133.572 171.794 133.564C170.965 133.572 170.368 134.243 170.368 135.155ZM174.943 139.439V129.785H175.813V133.928H177.197V129.536H178.076V139.953H177.197V134.691H175.813V139.439H174.943ZM188.599 130.34V130.895C188.591 131.575 188.591 132.61 188.325 133.978L187.406 133.903C187.658 132.652 187.683 131.769 187.691 131.11H183.403V130.34H188.599ZM182.765 134.948C183.436 134.943 184.198 134.939 185.002 134.919V132.652H185.914V134.89C187.07 134.84 188.263 134.757 189.345 134.608L189.403 135.287C187.223 135.66 184.712 135.702 182.856 135.71L182.765 134.948ZM184.372 139.721V136.663H185.292V138.959H191.325V139.721H184.372ZM190.057 137.376V129.536H190.986V132.925H192.51V133.713H190.986V137.376H190.057ZM202.231 129.536V139.953H201.352V129.536H202.231ZM193.305 137.036C195.568 135.693 196.703 133.812 196.886 131.633H193.77V130.862H197.797C197.797 131.396 197.752 131.923 197.656 132.436H199.239V129.818H200.126V139.423H199.239V135.809H197.308V135.047H199.239V133.199H197.478C196.968 134.964 195.829 136.522 193.861 137.699L193.305 137.036ZM207.327 132.735C207.319 134.401 208.529 136.24 210.037 136.961L209.506 137.691C208.342 137.115 207.352 135.888 206.884 134.479C206.399 136.004 205.355 137.351 204.186 137.948L203.631 137.218C205.131 136.489 206.415 134.508 206.424 132.735V131.376H204.004V130.605H209.672V131.376H207.327V132.735ZM210.948 139.953V129.536H211.868V133.746H213.609V134.533H211.868V139.953H210.948ZM222.864 130.215V134.45H217.975V130.215H222.864ZM218.729 139.199C220.519 139 222.243 137.989 222.243 136.945H219.16V136.232H222.259V135.213H223.171V136.232H226.287V136.945H223.187C223.187 137.964 224.861 138.975 226.651 139.199L226.328 139.92C224.766 139.704 223.336 138.963 222.715 137.993C222.089 138.979 220.627 139.7 219.06 139.92L218.729 139.199ZM218.878 133.721H221.961V130.961H218.878V133.721ZM225.11 135.519V129.536H226.013V135.519H225.11ZM234.548 132.337C234.539 134.169 235.758 136.058 237.241 136.787L236.669 137.525C235.526 136.924 234.568 135.689 234.104 134.243C233.64 135.78 232.654 137.094 231.481 137.724L230.901 136.986C232.418 136.232 233.628 134.235 233.636 132.337V130.439H234.548V132.337ZM238.194 139.953V129.536H239.114V133.762H240.854V134.558H239.114V139.953H238.194ZM250.086 129.536V139.953H249.166V129.536H250.086ZM241.6 137.177C242.49 137.169 243.51 137.16 244.566 137.127V135.996C243.315 135.859 242.503 135.146 242.511 134.102C242.503 132.925 243.506 132.163 245.006 132.163C246.514 132.163 247.533 132.925 247.533 134.102C247.533 135.134 246.725 135.847 245.486 135.988V137.094C246.497 137.048 247.517 136.97 248.478 136.845L248.553 137.55C246.224 137.923 243.671 137.956 241.74 137.956L241.6 137.177ZM241.823 131.566V130.82H244.566V129.544H245.486V130.82H248.205V131.566H241.823ZM243.373 134.102C243.365 134.823 244.044 135.296 245.006 135.287C245.984 135.296 246.655 134.823 246.655 134.102C246.655 133.373 245.984 132.884 245.006 132.884C244.044 132.884 243.365 133.373 243.373 134.102ZM260.958 129.536V139.953H260.071V129.536H260.958ZM252.165 134.028C252.165 131.815 253.044 130.414 254.395 130.414C255.662 130.414 256.52 131.633 256.636 133.597H257.983V129.76H258.87V139.423H257.983V134.359H256.64C256.549 136.39 255.683 137.657 254.395 137.649C253.044 137.657 252.165 136.249 252.165 134.028ZM253.027 134.028C253.019 135.718 253.558 136.787 254.395 136.779C255.248 136.787 255.787 135.718 255.787 134.028C255.787 132.337 255.248 131.276 254.395 131.276C253.558 131.276 253.019 132.337 253.027 134.028ZM271.075 130.564V137.334H266.26V130.564H271.075ZM267.172 136.58H270.18V131.301H267.172V136.58ZM273.321 139.97V129.536H274.241V139.97H273.321ZM284.732 129.536V139.953H283.812V129.536H284.732ZM276.354 137.218C277.903 136.514 279.089 134.757 279.089 132.925V132.097H276.636V131.351H279.08V129.727H279.992V131.351H282.412V132.097H279.992V132.925C279.992 134.674 281.21 136.365 282.776 137.028L282.263 137.749C281.061 137.214 280.042 136.083 279.557 134.707C279.084 136.166 278.077 137.363 276.876 137.931L276.354 137.218ZM295.058 132.693V133.439H287.93V129.917H288.842V132.693H295.058ZM286.621 135.602V134.856H296.16V135.602H286.621ZM287.864 139.696V136.663H288.776V138.934H295.124V139.696H287.864ZM303.128 130.166C304.006 130.162 304.756 130.489 305.241 131.044H307.976V129.536H308.896V135.71H307.976V134.218H305.241C304.756 134.773 304.006 135.101 303.128 135.097C301.57 135.105 300.418 134.086 300.426 132.635C300.418 131.177 301.57 130.157 303.128 130.166ZM301.305 132.635C301.305 133.605 302.067 134.318 303.128 134.309C304.164 134.318 304.934 133.605 304.934 132.635C304.934 131.649 304.164 130.953 303.128 130.961C302.067 130.953 301.305 131.649 301.305 132.635ZM301.951 137.939C301.943 136.68 303.277 135.95 305.44 135.95C307.595 135.95 308.929 136.68 308.929 137.939C308.929 139.199 307.595 139.928 305.44 139.928C303.277 139.928 301.943 139.199 301.951 137.939ZM302.854 137.939C302.846 138.718 303.841 139.191 305.44 139.191C307.039 139.191 308.034 138.718 308.034 137.939C308.034 137.144 307.039 136.671 305.44 136.671C303.841 136.671 302.846 137.144 302.854 137.939ZM305.68 131.798C305.772 132.055 305.821 132.337 305.821 132.635C305.821 132.93 305.772 133.203 305.684 133.456H307.976V131.798H305.68ZM320.439 131.359V132.122H318.898V133.564H320.439V134.334H318.898V136.257H317.978V129.536H318.898V131.359H320.439ZM310.776 131.459V130.721H313.428V129.453H314.34V130.721H316.984V131.459H310.776ZM311.373 133.837C311.365 132.718 312.368 131.997 313.884 131.997C315.376 131.997 316.379 132.718 316.387 133.837C316.379 134.956 315.376 135.677 313.884 135.669C312.368 135.677 311.365 134.956 311.373 133.837ZM312.194 138.138C312.185 136.994 313.478 136.331 315.608 136.331C317.721 136.331 319.014 136.994 319.014 138.138C319.014 139.265 317.721 139.928 315.608 139.928C313.478 139.928 312.185 139.265 312.194 138.138ZM312.252 133.837C312.243 134.517 312.898 134.956 313.884 134.956C314.854 134.956 315.508 134.517 315.517 133.837C315.508 133.149 314.854 132.693 313.884 132.685C312.898 132.693 312.243 133.149 312.252 133.837ZM313.105 138.138C313.097 138.809 314.042 139.215 315.608 139.207C317.158 139.215 318.102 138.809 318.102 138.138C318.102 137.442 317.158 137.052 315.608 137.052C314.042 137.052 313.097 137.442 313.105 138.138ZM325.983 129.718C328.303 129.718 329.663 130.356 329.663 131.517C329.663 132.693 328.303 133.331 325.983 133.34C323.663 133.331 322.295 132.693 322.295 131.517C322.295 130.356 323.663 129.718 325.983 129.718ZM321.243 134.79V134.044H330.74V134.79H321.243ZM322.395 136.398V135.693H329.513V138.022H323.323V139.108H329.828V139.837H322.419V137.343H328.61V136.398H322.395ZM323.256 131.517C323.248 132.238 324.259 132.635 325.983 132.635C327.715 132.635 328.726 132.238 328.726 131.517C328.726 130.829 327.715 130.414 325.983 130.414C324.259 130.414 323.248 130.829 323.256 131.517ZM337.733 130.141C338.624 130.137 339.382 130.472 339.863 131.036H342.581V129.536H343.501V135.519H342.581V134.144H339.867C339.382 134.707 338.624 135.047 337.733 135.047C336.175 135.047 335.023 134.036 335.031 132.594C335.023 131.144 336.175 130.133 337.733 130.141ZM335.91 132.594C335.91 133.572 336.672 134.268 337.733 134.276C338.769 134.268 339.539 133.572 339.539 132.594C339.539 131.624 338.769 130.912 337.733 130.92C336.672 130.912 335.91 131.624 335.91 132.594ZM336.689 139.812V136.058H343.501V139.812H336.689ZM337.609 139.058H342.598V136.804H337.609V139.058ZM340.298 131.798C340.381 132.043 340.426 132.312 340.426 132.594C340.426 132.867 340.381 133.124 340.302 133.365H342.581V131.798H340.298ZM353.669 133.431V134.177H346.666V130.149H353.528V130.912H347.602V133.431H353.669ZM345.34 136.307V135.552H354.879V136.307H350.536V139.92H349.633V136.307H345.34ZM364.773 129.536V139.953H363.886V129.536H364.773ZM355.98 134.028C355.98 131.815 356.859 130.414 358.21 130.414C359.477 130.414 360.335 131.633 360.451 133.597H361.798V129.76H362.685V139.423H361.798V134.359H360.455C360.364 136.39 359.498 137.657 358.21 137.649C356.859 137.657 355.98 136.249 355.98 134.028ZM356.842 134.028C356.834 135.718 357.373 136.787 358.21 136.779C359.063 136.787 359.602 135.718 359.602 134.028C359.602 132.337 359.063 131.276 358.21 131.276C357.373 131.276 356.834 132.337 356.842 134.028ZM377.783 133.431V134.177H370.78V130.149H377.642V130.912H371.716V133.431H377.783ZM369.454 136.307V135.552H378.993V136.307H374.65V139.92H373.747V136.307H369.454ZM388.315 130.588V131.624C388.307 132.909 388.307 134.334 387.926 136.431L386.997 136.323C387.387 134.334 387.387 132.876 387.395 131.624V131.351H380.973V130.588H388.315ZM379.962 138.478V137.707H383.683V133.986H384.594V137.707H389.459V138.478H379.962ZM401.872 130.166V130.97C401.872 131.848 401.872 132.905 401.598 134.326H403.123V135.097H393.584V134.326H400.678C400.96 132.888 400.96 131.856 400.96 130.97V130.92H394.794V130.166H401.872ZM394.844 139.713V136.265H395.764V138.942H402.187V139.713H394.844ZM409.346 130.448V131.376H411.791V129.544H412.711V137.144H411.791V134.367H409.346V135.304H404.564V130.448H409.346ZM405.476 134.566H408.443V131.202H405.476V134.566ZM405.973 139.721V136.464H406.901V138.959H412.951V139.721H405.973ZM409.346 133.605H411.791V132.146H409.346V133.605ZM416.274 138.204L415.37 141.395H414.5L415.147 138.204H416.274ZM430.422 135.843V136.605H426.096V139.953H425.193V136.605H420.884V135.843H430.422ZM422.168 134.765V130.025H429.229V130.779H423.08V131.989H428.98V132.727H423.08V134.019H429.345V134.765H422.168ZM440.027 129.536V135.71H439.107V134.061H436.662V134.956H431.88V130.331H436.662V131.235H439.107V129.536H440.027ZM432.792 134.202H435.759V131.077H432.792V134.202ZM433.082 137.981C433.074 136.729 434.4 136.008 436.571 136.008C438.734 136.008 440.06 136.729 440.06 137.981C440.06 139.224 438.734 139.928 436.571 139.928C434.4 139.928 433.074 139.224 433.082 137.981ZM433.994 137.981C433.985 138.735 434.972 139.199 436.571 139.199C438.162 139.199 439.148 138.735 439.148 137.981C439.148 137.193 438.162 136.738 436.571 136.729C434.972 136.738 433.985 137.193 433.994 137.981ZM436.662 133.298H439.107V131.989H436.662V133.298ZM445.463 131.177C445.454 132.66 446.515 133.97 448.048 134.483L447.534 135.204C446.382 134.773 445.479 133.928 445.028 132.83C444.584 134.077 443.631 135.047 442.371 135.519L441.874 134.773C443.474 134.21 444.543 132.826 444.551 131.21V130.133H445.463V131.177ZM443.573 137.981C443.565 136.729 444.891 136.008 447.062 136.008C449.225 136.008 450.551 136.729 450.551 137.981C450.551 139.224 449.225 139.928 447.062 139.928C444.891 139.928 443.565 139.224 443.573 137.981ZM444.485 137.981C444.476 138.735 445.463 139.191 447.062 139.191C448.653 139.191 449.639 138.735 449.639 137.981C449.639 137.202 448.653 136.738 447.062 136.738C445.463 136.738 444.476 137.202 444.485 137.981ZM447.278 132.528V131.765H449.598V129.536H450.518V135.71H449.598V132.528H447.278ZM454.081 138.204L453.177 141.395H452.307L452.954 138.204H454.081ZM28.0028 150.177C27.9945 151.66 29.0552 152.97 30.5884 153.483L30.0746 154.204C28.9227 153.773 28.0193 152.928 27.5677 151.83C27.1243 153.077 26.1713 154.047 24.9116 154.519L24.4144 153.773C26.0138 153.21 27.0829 151.826 27.0912 150.21V149.133H28.0028V150.177ZM26.1133 156.981C26.105 155.729 27.4309 155.008 29.6022 155.008C31.7652 155.008 33.0912 155.729 33.0912 156.981C33.0912 158.224 31.7652 158.928 29.6022 158.928C27.4309 158.928 26.105 158.224 26.1133 156.981ZM27.0249 156.981C27.0166 157.735 28.0028 158.191 29.6022 158.191C31.1934 158.191 32.1796 157.735 32.1796 156.981C32.1796 156.202 31.1934 155.738 29.6022 155.738C28.0028 155.738 27.0166 156.202 27.0249 156.981ZM29.8177 151.528V150.765H32.1381V148.536H33.058V154.71H32.1381V151.528H29.8177ZM43.4994 148.536V153.939H42.5961V148.536H43.4994ZM34.9883 153.102C36.5546 152.555 37.6651 151.163 37.6651 149.638V148.834H38.6016V149.638C38.5933 151.105 39.7204 152.406 41.2701 152.912L40.806 153.633C39.5836 153.214 38.614 152.34 38.1458 151.213C37.6817 152.427 36.7038 153.384 35.469 153.831L34.9883 153.102ZM36.737 155.199V154.461H43.516V156.956H37.6651V158.083H43.8889V158.837H36.7701V156.243H42.6044V155.199H36.737ZM48.9849 150.177C48.9767 151.66 50.0374 152.97 51.5706 153.483L51.0568 154.204C49.9048 153.773 49.0015 152.928 48.5499 151.83C48.1065 153.077 47.1535 154.047 45.8938 154.519L45.3966 153.773C46.996 153.21 48.0651 151.826 48.0733 150.21V149.133H48.9849V150.177ZM47.0954 156.981C47.0872 155.729 48.4131 155.008 50.5844 155.008C52.7474 155.008 54.0733 155.729 54.0733 156.981C54.0733 158.224 52.7474 158.928 50.5844 158.928C48.4131 158.928 47.0872 158.224 47.0954 156.981ZM48.007 156.981C47.9988 157.735 48.9849 158.191 50.5844 158.191C52.1756 158.191 53.1617 157.735 53.1617 156.981C53.1617 156.202 52.1756 155.738 50.5844 155.738C48.9849 155.738 47.9988 156.202 48.007 156.981ZM50.7999 151.528V150.765H53.1203V148.536H54.0402V154.71H53.1203V151.528H50.7999ZM60.6363 149.207C62.8158 149.215 64.4484 150.351 64.4484 152.075C64.4484 153.807 62.8158 154.942 60.6363 154.934C58.465 154.942 56.8324 153.807 56.8324 152.075C56.8324 150.351 58.465 149.215 60.6363 149.207ZM55.8959 157.561V156.79H65.4346V157.561H55.8959ZM57.7109 152.075C57.7026 153.334 58.9622 154.18 60.6363 154.18C62.3103 154.18 63.5617 153.334 63.5617 152.075C63.5617 150.823 62.3103 149.953 60.6363 149.961C58.9622 149.953 57.7026 150.823 57.7109 152.075ZM75.9257 156.881V157.66H66.387V156.881H70.6716V154.917H67.5804V151.702H73.8124V150.069H67.5555V149.307H74.724V152.456H68.492V154.155H74.9644V154.917H71.5832V156.881H75.9257ZM88.6452 148.536V153.865H87.7253V152.771H84.9408V152.041H87.7253V150.79H85.0941C84.4435 152.431 82.8275 153.546 80.5154 154.097L80.1839 153.334C82.7405 152.742 84.2281 151.499 84.3938 149.82H80.7143V149.058H85.4132C85.4132 149.406 85.38 149.738 85.3137 150.052H87.7253V148.536H88.6452ZM81.8911 155.083V154.337H88.6452V156.873H82.8275V158.099H89.0016V158.854H81.9159V156.169H87.7253V155.083H81.8911ZM96.2772 149.688V150.235C96.2689 151.055 96.2689 152.431 95.9705 154.362L95.0507 154.287C95.3324 152.543 95.3573 151.271 95.3573 150.442H90.9816V149.688H96.2772ZM90.3932 155.887C91.0769 155.883 91.8393 155.878 92.6391 155.858V152.663H93.5507V155.833C94.7026 155.787 95.8835 155.713 96.965 155.58L97.0147 156.276C94.8269 156.616 92.3739 156.666 90.5092 156.657L90.3932 155.887ZM97.6197 158.953V148.536H98.5396V152.895H100.23V153.691H98.5396V158.953H97.6197ZM110.514 153.376V154.097H100.975V153.376H110.514ZM102.127 155.622V154.934H109.321V157.146H103.064V158.141H109.661V158.812H102.144V156.508H108.409V155.622H102.127ZM102.185 149.514V148.851H109.288V151.006H103.13V151.917H109.47V152.588H102.219V150.376H108.368V149.514H102.185ZM123.515 148.536V158.953H122.637V148.536H123.515ZM114.491 156.177C115.941 155.307 116.786 153.401 116.786 151.503V150.525H114.772V149.762H119.579V150.525H117.673V151.503C117.673 153.309 118.485 155.108 119.919 155.936L119.363 156.616C118.34 156.003 117.611 154.88 117.242 153.554C116.869 154.988 116.115 156.21 115.071 156.865L114.491 156.177ZM118.783 153.044V152.29H120.54V148.785H121.41V158.406H120.54V153.044H118.783ZM129.813 155.116C132.051 155.116 133.468 155.82 133.476 157.03C133.468 158.224 132.051 158.928 129.813 158.928C127.584 158.928 126.167 158.224 126.167 157.03C126.167 155.82 127.584 155.116 129.813 155.116ZM125.114 154.146V153.392H129.042V151.378H129.946V153.392H134.595V154.146H125.114ZM126.241 149.82V149.066H133.385V149.953C133.385 150.79 133.385 151.635 133.095 152.713L132.192 152.613C132.473 151.536 132.473 150.765 132.473 149.953V149.82H126.241ZM127.087 157.03C127.078 157.751 128.156 158.199 129.813 158.199C131.479 158.199 132.548 157.751 132.556 157.03C132.548 156.285 131.479 155.829 129.813 155.82C128.156 155.829 127.078 156.285 127.087 157.03ZM143.661 148.536V152.829H145.401V153.599H143.661V158.953H142.749V148.536H143.661ZM135.539 150.972V150.21H138.216V148.66H139.136V150.21H141.738V150.972H135.539ZM136.136 154.229C136.127 152.82 137.205 151.834 138.688 151.834C140.163 151.834 141.232 152.82 141.241 154.229C141.232 155.638 140.163 156.616 138.688 156.616C137.205 156.616 136.127 155.638 136.136 154.229ZM137.014 154.229C137.006 155.174 137.719 155.845 138.688 155.837C139.65 155.845 140.354 155.174 140.362 154.229C140.354 153.285 139.65 152.605 138.688 152.605C137.719 152.605 137.006 153.285 137.014 154.229ZM154.508 151.693V152.439H147.381V148.917H148.293V151.693H154.508ZM146.072 154.602V153.856H155.61V154.602H146.072ZM147.315 158.696V155.663H148.226V157.934H154.574V158.696H147.315ZM168.628 148.536V158.953H167.733V148.536H168.628ZM160.117 156.442V149.82H164.045V150.583H161.012V155.663C162.516 155.659 163.465 155.601 164.584 155.356L164.675 156.135C163.473 156.384 162.454 156.434 160.78 156.442H160.117ZM163.341 153.285V152.514H165.62V148.785H166.498V158.406H165.62V153.285H163.341ZM177.287 154.022V155.945C178.29 155.895 179.313 155.808 180.27 155.663L180.345 156.351C177.958 156.782 175.397 156.798 173.516 156.798L173.392 156.028C174.262 156.023 175.294 156.019 176.375 155.982V154.022H177.287ZM173.707 153.666C175.248 153.206 176.334 152.07 176.359 150.666H173.964V149.903H176.375V148.61H177.287V149.903H179.732V150.666H177.287C177.316 152.012 178.426 153.106 179.964 153.541L179.533 154.271C178.281 153.894 177.299 153.094 176.831 152.037C176.379 153.152 175.406 153.989 174.154 154.37L173.707 153.666ZM180.958 158.97V148.536H181.878V158.97H180.958ZM187.388 150.5C187.388 151.95 188.441 153.326 189.966 153.873L189.452 154.594C188.304 154.138 187.397 153.235 186.945 152.104C186.506 153.359 185.557 154.354 184.33 154.843L183.841 154.097C185.399 153.525 186.477 152.066 186.485 150.467V149.174H187.388V150.5ZM185.723 158.721V155.456H186.651V157.959H192.701V158.721H185.723ZM189.22 151.768V150.997H191.54V148.544H192.46V156.351H191.54V151.768H189.22ZM199.056 148.718C201.377 148.718 202.736 149.356 202.736 150.517C202.736 151.693 201.377 152.331 199.056 152.34C196.736 152.331 195.368 151.693 195.368 150.517C195.368 149.356 196.736 148.718 199.056 148.718ZM194.316 153.79V153.044H203.813V153.79H194.316ZM195.468 155.398V154.693H202.587V157.022H196.396V158.108H202.902V158.837H195.493V156.343H201.683V155.398H195.468ZM196.33 150.517C196.321 151.238 197.333 151.635 199.056 151.635C200.788 151.635 201.799 151.238 201.799 150.517C201.799 149.829 200.788 149.414 199.056 149.414C197.333 149.414 196.321 149.829 196.33 150.517ZM216.002 148.536V152.655H217.743V153.425H216.002V158.97H215.082V148.536H216.002ZM208.395 156.359V149.555H213.259V150.309H209.314V155.58C211.2 155.576 212.534 155.501 214.08 155.215L214.196 156.011C212.563 156.301 211.196 156.359 209.215 156.359H208.395ZM226.493 148.536V152.829H228.234V153.599H226.493V158.953H225.582V148.536H226.493ZM218.372 150.972V150.21H221.049V148.66H221.969V150.21H224.571V150.972H218.372ZM218.969 154.229C218.96 152.82 220.038 151.834 221.521 151.834C222.996 151.834 224.065 152.82 224.073 154.229C224.065 155.638 222.996 156.616 221.521 156.616C220.038 156.616 218.96 155.638 218.969 154.229ZM219.847 154.229C219.839 155.174 220.551 155.845 221.521 155.837C222.482 155.845 223.187 155.174 223.195 154.229C223.187 153.285 222.482 152.605 221.521 152.605C220.551 152.605 219.839 153.285 219.847 154.229ZM237.275 149.588V150.624C237.266 151.909 237.266 153.334 236.885 155.431L235.957 155.323C236.346 153.334 236.346 151.876 236.355 150.624V150.351H229.932V149.588H237.275ZM228.921 157.478V156.707H232.642V152.986H233.554V156.707H238.418V157.478H228.921ZM246.066 155.522C246.066 156.446 246.567 157.428 247.553 157.992C248.548 157.378 249.074 156.33 249.074 155.522V154.95H249.977V155.522C249.969 156.599 250.756 157.669 252.099 158.124L251.635 158.804C250.595 158.439 249.866 157.71 249.505 156.836C249.182 157.685 248.548 158.485 247.582 158.895C246.567 158.506 245.925 157.743 245.614 156.869C245.237 157.71 244.52 158.431 243.522 158.804L243.058 158.124C244.375 157.635 245.171 156.525 245.179 155.522V154.95H246.066V155.522ZM242.784 151.586C242.784 150.135 243.936 149.149 245.519 149.149C247.102 149.149 248.245 150.135 248.245 151.586C248.245 153.019 247.102 154.006 245.519 154.006C243.936 154.006 242.784 153.019 242.784 151.586ZM243.687 151.586C243.679 152.555 244.45 153.235 245.519 153.243C246.58 153.235 247.35 152.555 247.35 151.586C247.35 150.616 246.58 149.928 245.519 149.936C244.45 149.928 243.679 150.616 243.687 151.586ZM250.226 154.494V148.544H251.146V154.494H250.226ZM255.156 154.785V156.003H260.361V154.785H261.289V158.812H254.245V154.785H255.156ZM253.035 154.055V153.285H262.532V154.055H253.035ZM253.574 151.818C255.43 151.561 257.311 150.467 257.311 149.141V148.652H258.256V149.141C258.256 150.425 260.154 151.577 261.985 151.818L261.645 152.547C260.033 152.307 258.446 151.482 257.788 150.322C257.125 151.494 255.529 152.307 253.922 152.547L253.574 151.818ZM255.156 158.066H260.361V156.732H255.156V158.066ZM272.112 148.536V158.953H271.2V148.536H272.112ZM264.205 156.268V149.564H265.109V155.464C266.7 155.46 268.337 155.336 270.089 154.967L270.214 155.754C268.366 156.135 266.717 156.268 265.051 156.268H264.205ZM282.081 148.536V152.655H283.821V153.425H282.081V158.97H281.161V148.536H282.081ZM274.473 156.359V149.555H279.337V150.309H275.393V155.58C277.278 155.576 278.612 155.501 280.158 155.215L280.274 156.011C278.641 156.301 277.274 156.359 275.293 156.359H274.473ZM285.61 158.066C285.196 158.066 284.848 157.727 284.856 157.312C284.848 156.898 285.196 156.558 285.61 156.558C286.025 156.558 286.364 156.898 286.364 157.312C286.364 157.727 286.025 158.066 285.61 158.066ZM293.878 150.79C293.878 152.025 294.698 153.227 296.024 153.715L295.577 154.428C294.562 154.018 293.832 153.243 293.464 152.298C293.103 153.322 292.37 154.167 291.334 154.61L290.878 153.923C292.204 153.376 292.999 152.116 293.008 150.79V150.666H291.085V149.92H293.008V148.66H293.878V149.92H295.759V150.666H293.878V150.79ZM292.618 156.235V155.481H299.638V158.953H298.734V156.235H292.618ZM296.513 154.867V148.735H297.4V151.329H298.767V148.544H299.638V154.917H298.767V152.091H297.4V154.867H296.513ZM309.888 148.544V154.494H308.968V148.544H309.888ZM301.526 151.536C301.526 150.077 302.678 149.091 304.261 149.091C305.844 149.091 306.988 150.077 306.988 151.536C306.988 152.961 305.844 153.956 304.261 153.956C302.678 153.956 301.526 152.961 301.526 151.536ZM302.43 151.536C302.421 152.497 303.192 153.177 304.261 153.177C305.322 153.177 306.093 152.497 306.093 151.536C306.093 150.558 305.322 149.87 304.261 149.878C303.192 149.87 302.421 150.558 302.43 151.536ZM303.109 158.812V155.058H309.888V158.812H303.109ZM304.021 158.058H308.985V155.804H304.021V158.058ZM319.924 148.536V151.088H321.49V151.851H319.924V154.453H319.004V148.536H319.924ZM311.769 153.815C314.33 153.123 315.888 151.735 316.082 149.978H312.233V149.215H317.073C317.064 151.834 315.225 153.715 312.142 154.552L311.769 153.815ZM313.319 158.804V154.925H319.924V158.804H313.319ZM314.239 158.058H319.012V155.696H314.239V158.058ZM327.009 148.718C329.329 148.718 330.688 149.356 330.688 150.517C330.688 151.693 329.329 152.331 327.009 152.34C324.688 152.331 323.321 151.693 323.321 150.517C323.321 149.356 324.688 148.718 327.009 148.718ZM322.268 153.79V153.044H331.766V153.79H322.268ZM323.42 155.398V154.693H330.539V157.022H324.348V158.108H330.854V158.837H323.445V156.343H329.636V155.398H323.42ZM324.282 150.517C324.274 151.238 325.285 151.635 327.009 151.635C328.741 151.635 329.752 151.238 329.752 150.517C329.752 149.829 328.741 149.414 327.009 149.414C325.285 149.414 324.274 149.829 324.282 150.517ZM345.388 154.064V154.809H335.875V154.064H340.167V153.028H337.142V148.834H344.203V149.58H338.071V150.558H343.921V151.262H338.071V152.298H344.261V153.028H341.087V154.064H345.388ZM337.035 157.262C337.035 156.177 338.328 155.588 340.631 155.597C342.919 155.588 344.212 156.177 344.22 157.262C344.212 158.356 342.919 158.928 340.631 158.928C338.328 158.928 337.035 158.356 337.035 157.262ZM337.963 157.262C337.955 157.892 338.916 158.224 340.631 158.215C342.339 158.224 343.292 157.892 343.3 157.262C343.292 156.641 342.339 156.293 340.631 156.293C338.916 156.293 337.955 156.641 337.963 157.262ZM351.587 150.334V151.088H346.357V150.334H348.52V148.851H349.44V150.334H351.587ZM346.739 154.155C346.73 152.771 347.675 151.793 348.976 151.793C350.286 151.793 351.222 152.771 351.23 154.155C351.222 155.555 350.286 156.541 348.976 156.541C347.675 156.541 346.73 155.555 346.739 154.155ZM347.551 154.155C347.551 155.083 348.147 155.746 348.976 155.738C349.805 155.746 350.41 155.083 350.41 154.155C350.41 153.243 349.805 152.572 348.976 152.564C348.147 152.572 347.551 153.243 347.551 154.155ZM352.125 158.439V148.785H352.995V152.928H354.379V148.536H355.258V158.953H354.379V153.691H352.995V158.439H352.125ZM368.607 148.544V156.185H367.687V148.544H368.607ZM360.113 153.956C361.687 153.343 362.756 151.818 362.756 150.169V149.124H363.693V150.169C363.685 151.76 364.77 153.185 366.32 153.749L365.839 154.486C364.633 154.018 363.693 153.081 363.233 151.88C362.781 153.16 361.836 154.184 360.618 154.677L360.113 153.956ZM361.878 158.721V155.481H362.798V157.959H368.93V158.721H361.878ZM376.571 149.506V152.249H372.245V153.575H376.861V154.312H374.449V156.057C375.46 156.015 376.475 155.945 377.433 155.837L377.507 156.525C375.195 156.873 372.676 156.923 370.678 156.914L370.554 156.127C371.466 156.127 372.485 156.119 373.529 156.09V154.312H371.325V151.552H375.667V150.251H371.3V149.506H376.571ZM378.12 158.97V148.536H379.04V158.97H378.12ZM390.509 153.376V154.097H380.971V153.376H390.509ZM382.123 155.622V154.934H389.316V157.146H383.059V158.141H389.656V158.812H382.139V156.508H388.404V155.622H382.123ZM382.181 149.514V148.851H389.283V151.006H383.125V151.917H389.465V152.588H382.214V150.376H388.363V149.514H382.181ZM402.848 149.215V150.127C402.848 151.113 402.848 152.191 402.549 153.691H404.107V154.453H399.798V158.97H398.878V154.453H394.61V153.691H401.613C401.936 152.195 401.936 151.097 401.936 150.127V149.978H395.803V149.215H402.848ZM414.598 153.782V154.528H410.297V155.721H413.422V158.92H412.493V156.475H406.154V155.721H409.394V154.528H405.101V153.782H414.598ZM405.665 152.489C407.616 152.294 409.27 151.49 409.34 150.301H406.079V149.564H409.394V148.486H410.297V149.564H413.629V150.301H410.347C410.413 151.49 412.058 152.294 414.027 152.489L413.728 153.193C412.004 153.011 410.471 152.381 409.846 151.32C409.212 152.381 407.674 153.011 405.963 153.193L405.665 152.489ZM423.656 148.536V152.829H425.396V153.599H423.656V158.953H422.744V148.536H423.656ZM415.534 150.972V150.21H418.211V148.66H419.131V150.21H421.733V150.972H415.534ZM416.131 154.229C416.123 152.82 417.2 151.834 418.683 151.834C420.158 151.834 421.228 152.82 421.236 154.229C421.228 155.638 420.158 156.616 418.683 156.616C417.2 156.616 416.123 155.638 416.131 154.229ZM417.009 154.229C417.001 155.174 417.714 155.845 418.683 155.837C419.645 155.845 420.349 155.174 420.357 154.229C420.349 153.285 419.645 152.605 418.683 152.605C417.714 152.605 417.001 153.285 417.009 154.229ZM434.437 149.588V150.624C434.429 151.909 434.429 153.334 434.047 155.431L433.119 155.323C433.509 153.334 433.509 151.876 433.517 150.624V150.351H427.094V149.588H434.437ZM426.083 157.478V156.707H429.804V152.986H430.716V156.707H435.581V157.478H426.083ZM448.143 151.221V151.967H444.911V153.293H449.203V154.047H439.706V153.293H443.999V151.967H441.007V148.768H441.919V151.221H448.143ZM440.676 158.812V158.058H442.375V155.829H440.767V155.099H448.151V155.829H446.543V158.058H448.242V158.812H440.676ZM443.286 158.058H445.632V155.829H443.286V158.058ZM458.783 148.536V158.97H457.863V148.536H458.783ZM450.587 152.97C450.587 150.757 451.689 149.348 453.247 149.34C454.788 149.348 455.907 150.757 455.907 152.97C455.907 155.191 454.788 156.599 453.247 156.599C451.689 156.599 450.587 155.191 450.587 152.97ZM451.473 152.97C451.473 154.669 452.203 155.779 453.247 155.779C454.291 155.779 455.012 154.669 455.012 152.97C455.012 151.279 454.291 150.169 453.247 150.16C452.203 150.169 451.473 151.279 451.473 152.97ZM29.5939 168.572V170.039H32.1464V167.536H33.058V177.97H32.1464V173.669H29.5939V175.318H24.8453V168.572H29.5939ZM25.7569 174.572H28.6989V169.301H25.7569V174.572ZM29.5939 172.914H32.1464V170.801H29.5939V172.914ZM46.6311 167.544V175.459H45.7029V174.373H43.5565V173.702H45.7029V167.544H46.6311ZM37.9875 172.367C39.9267 172.359 42.5372 172.343 44.7665 172.061L44.8328 172.732C43.9004 172.881 42.9267 172.977 41.9654 173.035V175.094H41.0455V173.08C39.993 173.122 38.9861 173.126 38.1118 173.122L37.9875 172.367ZM38.8245 169.782C38.8245 168.688 39.8687 167.967 41.4101 167.967C42.935 167.967 43.9792 168.688 43.9875 169.782C43.9792 170.892 42.935 171.588 41.4101 171.588C39.8687 171.588 38.8245 170.892 38.8245 169.782ZM39.4875 177.721V174.68H40.4073V176.959H46.888V177.721H39.4875ZM39.7029 169.782C39.6946 170.461 40.3908 170.901 41.4101 170.901C42.3963 170.901 43.1007 170.461 43.109 169.782C43.1007 169.11 42.3963 168.655 41.4101 168.663C40.3908 168.655 39.6946 169.11 39.7029 169.782ZM52.3156 169.823C52.3156 171.174 53.4592 172.376 55.0089 172.848L54.5614 173.569C53.3266 173.188 52.3529 172.367 51.8805 171.311C51.4247 172.459 50.4509 173.349 49.2078 173.776L48.7437 173.047C50.31 172.525 51.404 171.257 51.404 169.823V169.566H49.0006V168.812H51.404V167.486H52.3321V168.812H54.7106V169.566H52.3156V169.823ZM50.1277 175.235V174.481H57.1388V177.953H56.2189V175.235H50.1277ZM56.2189 173.942V167.536H57.1388V173.942H56.2189ZM63.768 167.718C66.0884 167.718 67.4475 168.356 67.4475 169.517C67.4475 170.693 66.0884 171.331 63.768 171.34C61.4475 171.331 60.0801 170.693 60.0801 169.517C60.0801 168.356 61.4475 167.718 63.768 167.718ZM59.0277 172.79V172.044H68.5249V172.79H59.0277ZM60.1796 174.398V173.693H67.2984V176.022H61.1078V177.108H67.6133V177.837H60.2044V175.343H66.3951V174.398H60.1796ZM61.0415 169.517C61.0332 170.238 62.0442 170.635 63.768 170.635C65.5 170.635 66.5111 170.238 66.5111 169.517C66.5111 168.829 65.5 168.414 63.768 168.414C62.0442 168.414 61.0332 168.829 61.0415 169.517ZM77.9958 168.837C77.9875 170.113 79.7361 171.157 81.5759 171.406L81.2195 172.135C79.5331 171.891 77.9626 171.054 77.3991 169.836C76.8314 171.054 75.2651 171.891 73.5786 172.135L73.2306 171.406C75.0704 171.157 76.8024 170.113 76.8024 168.837V168.812H73.5206V168.058H81.2941V168.812H77.9958V168.837ZM72.6339 173.66V172.898H82.1726V173.66H77.9295V175.79H77.0179V173.66H72.6339ZM73.8604 177.721V174.754H74.7803V176.959H81.1118V177.721H73.8604ZM88.3708 168.506C88.3708 169.972 90.2852 171.24 92.1664 171.506L91.7935 172.26C90.1692 171.986 88.5656 171.087 87.8985 169.807C87.2355 171.095 85.6319 171.986 84.0117 172.26L83.6305 171.506C85.5117 171.24 87.4178 169.997 87.4178 168.506V167.909H88.3708V168.506ZM83.1416 174.174V173.403H92.6388V174.174H88.3211V177.953H87.4178V174.174H83.1416ZM101.696 167.536V171.829H103.437V172.599H101.696V177.953H100.785V167.536H101.696ZM93.5746 169.972V169.21H96.2514V167.66H97.1713V169.21H99.7735V169.972H93.5746ZM94.1713 173.229C94.163 171.82 95.2404 170.834 96.7238 170.834C98.1989 170.834 99.268 171.82 99.2763 173.229C99.268 174.638 98.1989 175.616 96.7238 175.616C95.2404 175.616 94.163 174.638 94.1713 173.229ZM95.0498 173.229C95.0415 174.174 95.7542 174.845 96.7238 174.837C97.6851 174.845 98.3896 174.174 98.3978 173.229C98.3896 172.285 97.6851 171.605 96.7238 171.605C95.7542 171.605 95.0415 172.285 95.0498 173.229ZM112.544 170.693V171.439H105.417V167.917H106.328V170.693H112.544ZM104.107 173.602V172.856H113.646V173.602H104.107ZM105.35 177.696V174.663H106.262V176.934H112.61V177.696H105.35ZM123.73 168.663V169.425H122.578V174.443C123.142 174.406 123.697 174.356 124.227 174.29L124.277 174.97C122.073 175.326 119.578 175.359 117.73 175.367L117.614 174.58C118.053 174.58 118.526 174.58 119.023 174.572V169.425H117.871V168.663H123.73ZM119.918 174.559C120.498 174.547 121.095 174.526 121.691 174.497V169.425H119.918V174.559ZM124.89 177.953V167.536H125.81V171.713H127.55V172.483H125.81V177.953H124.89ZM136.674 173.163V173.917H129.472V168.439H136.558V169.202H130.401V170.751H136.334V171.497H130.401V173.163H136.674ZM128.238 176.594V175.823H137.776V176.594H128.238ZM147.372 167.536V177.97H146.453V171.738H143.204V170.975H146.453V167.536H147.372ZM139.301 175.442V168.704H140.229V174.663C141.82 174.651 143.237 174.564 144.803 174.249L144.919 175.011C143.254 175.351 141.787 175.442 140.104 175.442H139.301ZM158.759 175.881V176.66H149.22V175.881H153.504V173.917H150.413V170.702H156.645V169.069H150.388V168.307H157.557V171.456H151.325V173.155H157.797V173.917H154.416V175.881H158.759ZM163.374 170.337C163.374 172.218 164.584 174.116 166.1 174.812L165.545 175.558C164.36 174.949 163.382 173.702 162.918 172.222C162.458 173.78 161.48 175.115 160.291 175.749L159.703 175.011C161.228 174.257 162.437 172.251 162.446 170.337V168.439H163.374V170.337ZM164.965 171.845V171.091H167.435V167.536H168.346V177.97H167.435V171.845H164.965ZM185.416 167.536V177.953H184.529V172.533H183.104V177.423H182.233V167.76H183.104V171.746H184.529V167.536H185.416ZM176.358 175.094C177.858 174.265 178.662 172.492 178.662 170.378V169.541H176.606V168.779H181.479V169.541H179.548V170.378C179.548 172.285 180.336 173.967 181.819 174.729L181.272 175.442C180.22 174.866 179.494 173.843 179.126 172.566C178.769 174.017 178.032 175.152 176.938 175.798L176.358 175.094ZM195.103 167.528V170.635H196.678V171.406H195.103V175.077H194.183V167.528H195.103ZM187.454 173.221V168.439H192.086V169.202H188.365V172.45C190.454 172.459 191.647 172.396 193.039 172.11L193.155 172.873C191.689 173.155 190.446 173.229 188.258 173.221H187.454ZM188.581 177.721V174.315H189.492V176.959H195.584V177.721H188.581ZM200.854 168.298C202.495 168.298 203.655 169.293 203.663 170.743C203.655 172.193 202.495 173.188 200.854 173.188C199.213 173.188 198.036 172.193 198.044 170.743C198.036 169.293 199.213 168.298 200.854 168.298ZM197.506 174.887C199.428 174.895 202.08 174.878 204.384 174.539L204.459 175.218C202.072 175.666 199.511 175.674 197.63 175.674L197.506 174.887ZM198.948 170.743C198.939 171.713 199.743 172.384 200.854 172.384C201.956 172.384 202.76 171.713 202.76 170.743C202.76 169.773 201.956 169.102 200.854 169.102C199.743 169.102 198.939 169.773 198.948 170.743ZM205.072 177.97V167.536H205.992V177.97H205.072ZM219.706 167.536V173.71H218.786V172.061H216.341V172.956H211.559V168.331H216.341V169.235H218.786V167.536H219.706ZM212.471 172.202H215.438V169.077H212.471V172.202ZM212.761 175.981C212.753 174.729 214.079 174.008 216.25 174.008C218.413 174.008 219.739 174.729 219.739 175.981C219.739 177.224 218.413 177.928 216.25 177.928C214.079 177.928 212.753 177.224 212.761 175.981ZM213.673 175.981C213.664 176.735 214.651 177.199 216.25 177.199C217.841 177.199 218.827 176.735 218.827 175.981C218.827 175.193 217.841 174.738 216.25 174.729C214.651 174.738 213.664 175.193 213.673 175.981ZM216.341 171.298H218.786V169.989H216.341V171.298ZM225.142 169.177C225.133 170.66 226.194 171.97 227.727 172.483L227.213 173.204C226.062 172.773 225.158 171.928 224.707 170.83C224.263 172.077 223.31 173.047 222.051 173.519L221.553 172.773C223.153 172.21 224.222 170.826 224.23 169.21V168.133H225.142V169.177ZM223.252 175.981C223.244 174.729 224.57 174.008 226.741 174.008C228.904 174.008 230.23 174.729 230.23 175.981C230.23 177.224 228.904 177.928 226.741 177.928C224.57 177.928 223.244 177.224 223.252 175.981ZM224.164 175.981C224.155 176.735 225.142 177.191 226.741 177.191C228.332 177.191 229.318 176.735 229.318 175.981C229.318 175.202 228.332 174.738 226.741 174.738C225.142 174.738 224.155 175.202 224.164 175.981ZM226.957 170.528V169.765H229.277V167.536H230.197V173.71H229.277V170.528H226.957ZM237.829 168.688V169.235C237.821 170.055 237.821 171.431 237.522 173.362L236.602 173.287C236.884 171.543 236.909 170.271 236.909 169.442H232.533V168.688H237.829ZM231.945 174.887C232.629 174.883 233.391 174.878 234.191 174.858V171.663H235.102V174.833C236.254 174.787 237.435 174.713 238.517 174.58L238.566 175.276C236.379 175.616 233.926 175.666 232.061 175.657L231.945 174.887ZM239.171 177.953V167.536H240.091V171.895H241.782V172.691H240.091V177.953H239.171ZM249.106 168.041C250.664 168.033 251.783 168.895 251.783 170.171C251.783 171.439 250.664 172.309 249.106 172.301C247.548 172.309 246.438 171.439 246.438 170.171C246.438 168.895 247.548 168.033 249.106 168.041ZM245.651 173.196C247.606 173.196 250.283 173.155 252.595 172.815L252.662 173.511C251.667 173.693 250.631 173.801 249.628 173.867V177.63H248.709V173.917C247.648 173.963 246.645 173.971 245.775 173.975L245.651 173.196ZM247.333 170.171C247.325 170.983 248.07 171.547 249.106 171.539C250.159 171.547 250.905 170.983 250.905 170.171C250.905 169.359 250.159 168.787 249.106 168.796C248.07 168.787 247.325 169.359 247.333 170.171ZM253.366 177.961V167.544H254.269V177.961H253.366ZM259.647 169.218C259.647 170.635 260.725 171.936 262.233 172.45L261.736 173.18C260.584 172.757 259.672 171.895 259.22 170.809C258.773 172.04 257.841 173.001 256.622 173.47L256.125 172.732C257.691 172.152 258.736 170.76 258.744 169.152V168.075H259.647V169.218ZM257.517 176.03C257.517 174.837 258.827 174.141 260.973 174.141C263.111 174.141 264.404 174.837 264.404 176.03C264.404 177.24 263.111 177.928 260.973 177.928C258.827 177.928 257.517 177.24 257.517 176.03ZM258.437 176.03C258.429 176.768 259.399 177.191 260.973 177.199C262.548 177.191 263.509 176.768 263.509 176.03C263.509 175.318 262.548 174.878 260.973 174.878C259.399 174.878 258.429 175.318 258.437 176.03ZM263.393 173.876V167.536H264.313V170.254H265.879V171.025H264.313V173.876H263.393ZM271.398 167.718C273.718 167.718 275.078 168.356 275.078 169.517C275.078 170.693 273.718 171.331 271.398 171.34C269.078 171.331 267.71 170.693 267.71 169.517C267.71 168.356 269.078 167.718 271.398 167.718ZM266.658 172.79V172.044H276.155V172.79H266.658ZM267.81 174.398V173.693H274.928V176.022H268.738V177.108H275.243V177.837H267.834V175.343H274.025V174.398H267.81ZM268.671 169.517C268.663 170.238 269.674 170.635 271.398 170.635C273.13 170.635 274.141 170.238 274.141 169.517C274.141 168.829 273.13 168.414 271.398 168.414C269.674 168.414 268.663 168.829 268.671 169.517ZM289.803 173.47V174.232H287.292V177.953H286.363V174.232H283.687V177.953H282.742V174.232H280.264V173.47H289.803ZM281.35 170.229C281.35 168.837 282.825 167.959 285.013 167.95C287.2 167.959 288.684 168.837 288.684 170.229C288.684 171.613 287.2 172.483 285.013 172.475C282.825 172.483 281.35 171.613 281.35 170.229ZM282.294 170.229C282.286 171.149 283.388 171.738 285.013 171.738C286.637 171.738 287.739 171.149 287.739 170.229C287.739 169.301 286.637 168.704 285.013 168.704C283.388 168.704 282.286 169.301 282.294 170.229ZM294.501 170.735C294.501 172.5 295.785 174.298 297.319 174.961L296.805 175.691C295.586 175.135 294.538 173.938 294.049 172.5C293.56 174.025 292.508 175.351 291.319 175.948L290.772 175.218C292.263 174.506 293.564 172.533 293.573 170.735V169.376H291.111V168.605H296.979V169.376H294.501V170.735ZM298.437 177.953V167.536H299.357V177.953H298.437ZM309.409 167.536V170.204H310.975V170.983H309.409V173.586H308.489V167.536H309.409ZM301.288 169.367V168.613H303.939V167.436H304.851V168.613H307.495V169.367H301.288ZM301.884 171.68C301.876 170.569 302.879 169.856 304.395 169.856C305.887 169.856 306.89 170.569 306.898 171.68C306.89 172.79 305.887 173.511 304.395 173.503C302.879 173.511 301.876 172.79 301.884 171.68ZM302.763 171.68C302.754 172.359 303.409 172.807 304.395 172.807C305.365 172.807 306.02 172.359 306.028 171.68C306.02 171.008 305.365 170.552 304.395 170.561C303.409 170.552 302.754 171.008 302.763 171.68ZM302.821 177.812V174.041H303.732V175.16H308.489V174.041H309.409V177.812H302.821ZM303.732 177.066H308.489V175.89H303.732V177.066ZM320.339 167.536V177.953H319.428V167.536H320.339ZM312.433 175.268V168.564H313.337V174.464C314.928 174.46 316.565 174.336 318.317 173.967L318.442 174.754C316.594 175.135 314.944 175.268 313.279 175.268H312.433ZM330.308 167.536V171.655H332.049V172.425H330.308V177.97H329.388V167.536H330.308ZM322.701 175.359V168.555H327.565V169.309H323.621V174.58C325.506 174.576 326.84 174.501 328.386 174.215L328.502 175.011C326.869 175.301 325.502 175.359 323.521 175.359H322.701ZM333.838 177.066C333.424 177.066 333.076 176.727 333.084 176.312C333.076 175.898 333.424 175.558 333.838 175.558C334.253 175.558 334.592 175.898 334.592 176.312C334.592 176.727 334.253 177.066 333.838 177.066Z" fill="white"/>
</svg>
